<svg width="1920" height="233" viewBox="0 0 1920 233" fill="none" xmlns="http://www.w3.org/2000/svg">
<path opacity="0.2" d="M21.5366 181.405V229H-240.238V3.88703H21.5366V51.4823H-177.206V92.6459H21.5366V139.92H-177.206V181.405H21.5366ZM237.341 232.216H202.609C150.297 232.216 113.315 224.283 91.6608 208.418C70.0071 192.339 59.1802 164.36 59.1802 124.483V108.404C59.1802 68.5266 70.0071 40.6555 91.6608 24.7904C113.315 8.71088 150.297 0.671134 202.609 0.671134H237.341C283.65 0.671134 317.739 6.78134 339.607 19.0018C361.475 31.2222 374.446 52.2327 378.519 82.0334H313.879C311.307 73.8864 307.019 67.5618 301.016 63.0596C295.227 58.3429 286.33 54.9126 274.324 52.7687C262.532 50.4104 246.56 49.2312 226.407 49.2312H213.865C188.352 49.2312 169.057 51.3752 155.979 55.663C143.115 59.7365 134.432 66.0611 129.93 74.6368C125.642 83.2126 123.498 95.969 123.498 112.906V120.303C123.498 137.025 125.642 149.674 129.93 158.25C134.432 166.826 143.115 173.258 155.979 177.546C169.057 181.619 188.352 183.656 213.865 183.656H226.407C246.56 183.656 262.532 182.584 274.324 180.44C286.33 178.082 295.227 174.651 301.016 170.149C307.019 165.432 311.307 159.001 313.879 150.854H378.519C374.446 180.654 361.475 201.665 339.607 213.885C317.739 226.106 283.65 232.216 237.341 232.216ZM593.582 232.216H558.207C504.395 232.216 466.34 224.283 444.043 208.418C421.96 192.339 410.919 164.36 410.919 124.483V108.404C410.919 68.5266 421.96 40.6555 444.043 24.7904C466.34 8.71088 504.395 0.671134 558.207 0.671134H593.582C647.395 0.671134 685.45 8.71088 707.747 24.7904C730.044 40.6555 741.192 68.5266 741.192 108.404V124.483C741.192 164.36 730.044 192.339 707.747 208.418C685.45 224.283 647.395 232.216 593.582 232.216ZM568.498 183.656H583.613C609.983 183.656 629.815 181.619 643.107 177.546C656.614 173.258 665.618 166.826 670.121 158.25C674.837 149.674 677.196 137.025 677.196 120.303V112.906C677.196 95.969 674.837 83.2126 670.121 74.6368C665.618 66.0611 656.614 59.7365 643.107 55.663C629.815 51.3752 609.983 49.2312 583.613 49.2312H568.498C541.914 49.2312 521.975 51.3752 508.683 55.663C495.39 59.7365 486.493 66.0611 481.991 74.6368C477.488 83.2126 475.237 95.969 475.237 112.906V120.303C475.237 137.24 477.488 149.996 481.991 158.572C486.493 166.933 495.39 173.258 508.683 177.546C521.975 181.619 541.914 183.656 568.498 183.656ZM934.744 232.216H917.7C904.622 232.216 892.83 231.894 882.325 231.251C872.034 230.608 861.421 229.429 850.487 227.714C839.768 225.998 830.227 223.533 821.866 220.317C813.719 217.101 806.108 213.242 799.033 208.74C792.172 204.023 786.384 198.127 781.667 191.052C777.165 183.977 773.949 175.938 772.019 166.933H839.232C843.948 175.08 852.953 180.547 866.245 183.334C879.752 185.907 901.513 187.193 931.528 187.193C962.401 187.193 984.162 185.371 996.811 181.726C1009.67 178.082 1016.21 171.221 1016.43 161.145V159.215C1016.43 152.783 1014.07 148.067 1009.35 145.065C1004.64 141.849 995.739 140.134 982.661 139.92L872.034 136.061C838.589 135.203 815.113 130.057 801.606 120.624C788.099 111.191 781.346 96.1834 781.346 75.6016V73.0289C781.346 46.2297 792.172 27.4703 813.826 16.7506C835.694 6.03097 870.748 0.671134 918.986 0.671134H931.85C951.145 0.671134 967.868 1.52871 982.018 3.24386C996.168 4.95901 1010 8.06771 1023.5 12.57C1037.22 17.0722 1048.37 24.04 1056.95 33.4733C1065.52 42.6922 1071.53 54.2695 1074.96 68.205H1007.74C1004.1 59.4149 995.524 53.5191 982.018 50.5176C968.725 47.3017 948.894 45.6937 922.524 45.6937C892.294 45.6937 871.927 47.5161 861.421 51.1608C850.916 54.5911 845.664 60.5941 845.664 69.1698V69.813C845.664 76.2448 848.022 81.0686 852.739 84.2845C857.455 87.286 866.245 89.0012 879.109 89.43L989.736 93.289C1023.4 94.5754 1046.87 99.7208 1060.16 108.725C1073.46 117.73 1080.1 132.416 1080.1 152.783V155.356C1080.1 184.513 1068.53 204.666 1045.37 215.815C1022.43 226.749 985.555 232.216 934.744 232.216ZM1264.38 130.272V229H1201.35V130.915L1069.5 3.88703H1148.29L1235.44 89.43H1238.01L1325.16 3.88703H1395.91L1264.38 130.272ZM1547.15 232.216H1530.1C1517.02 232.216 1505.23 231.894 1494.73 231.251C1484.44 230.608 1473.82 229.429 1462.89 227.714C1452.17 225.998 1442.63 223.533 1434.27 220.317C1426.12 217.101 1418.51 213.242 1411.44 208.74C1404.58 204.023 1398.79 198.127 1394.07 191.052C1389.57 183.977 1386.35 175.938 1384.42 166.933H1451.63C1456.35 175.08 1465.36 180.547 1478.65 183.334C1492.15 185.907 1513.92 187.193 1543.93 187.193C1574.8 187.193 1596.56 185.371 1609.21 181.726C1622.08 178.082 1628.62 171.221 1628.83 161.145V159.215C1628.83 152.783 1626.47 148.067 1621.76 145.065C1617.04 141.849 1608.14 140.134 1595.06 139.92L1484.44 136.061C1450.99 135.203 1427.52 130.057 1414.01 120.624C1400.5 111.191 1393.75 96.1834 1393.75 75.6016V73.0289C1393.75 46.2297 1404.58 27.4703 1426.23 16.7506C1448.1 6.03097 1483.15 0.671134 1531.39 0.671134H1544.25C1563.55 0.671134 1580.27 1.52871 1594.42 3.24386C1608.57 4.95901 1622.4 8.06771 1635.91 12.57C1649.63 17.0722 1660.78 24.04 1669.35 33.4733C1677.93 42.6922 1683.93 54.2695 1687.36 68.205H1620.15C1616.5 59.4149 1607.93 53.5191 1594.42 50.5176C1581.13 47.3017 1561.3 45.6937 1534.93 45.6937C1504.7 45.6937 1484.33 47.5161 1473.82 51.1608C1463.32 54.5911 1458.07 60.5941 1458.07 69.1698V69.813C1458.07 76.2448 1460.42 81.0686 1465.14 84.2845C1469.86 87.286 1478.65 89.0012 1491.51 89.43L1602.14 93.289C1635.8 94.5754 1659.27 99.7208 1672.57 108.725C1685.86 117.73 1692.51 132.416 1692.51 152.783V155.356C1692.51 184.513 1680.93 204.666 1657.77 215.815C1634.83 226.749 1597.96 232.216 1547.15 232.216ZM1882.32 55.9846V229H1819.29V55.9846H1708.67V3.88703H1992.63V55.9846H1882.32ZM2285.86 181.405V229H2024.08V3.88703H2285.86V51.4823H2087.11V92.6459H2285.86V139.92H2087.11V181.405H2285.86ZM2734.49 3.88703V229H2671.46V50.196H2668.89L2564.37 229H2500.7L2396.82 50.196H2394.57V229H2331.54V3.88703H2443.45L2534.78 161.145H2537.04L2629.33 3.88703H2734.49Z" fill="#140C25" fill-opacity="0.4"/>
</svg>
