<svg width="83" height="121" viewBox="0 0 83 121" fill="none" xmlns="http://www.w3.org/2000/svg">
<path fill-rule="evenodd" clip-rule="evenodd" d="M75.5605 71.2545V37.4014L82.3836 45.2742L81.0715 69.155L75.5605 71.2545Z" fill="url(#paint0_linear_312_27400)"/>
<path fill-rule="evenodd" clip-rule="evenodd" d="M27.5352 82.2783V100.648L41.4438 105.372L55.3524 100.648V82.2783H27.5352Z" fill="#9B9B9B"/>
<path fill-rule="evenodd" clip-rule="evenodd" d="M29.1094 82.2783V99.5985L41.4435 103.797L53.7775 99.5985V82.2783H29.1094Z" fill="url(#paint1_radial_312_27400)"/>
<path fill-rule="evenodd" clip-rule="evenodd" d="M55.3496 82.2783V100.648L56.6617 101.698V82.2783H55.3496Z" fill="url(#paint2_linear_312_27400)"/>
<path fill-rule="evenodd" clip-rule="evenodd" d="M55.3519 100.648V82.2783H53.7773V99.5985L55.3519 100.648Z" fill="url(#paint3_linear_312_27400)"/>
<path fill-rule="evenodd" clip-rule="evenodd" d="M29.1097 99.5985V82.2783H27.5352V100.648L29.1097 99.5985Z" fill="url(#paint4_linear_312_27400)"/>
<path fill-rule="evenodd" clip-rule="evenodd" d="M27.5348 100.648V82.2783H26.2227V101.698L27.5348 100.648Z" fill="url(#paint5_linear_312_27400)"/>
<path fill-rule="evenodd" clip-rule="evenodd" d="M31.2088 101.961L41.4435 105.372V106.947L31.2088 103.535L26.2227 101.698L27.5348 100.648L31.2088 101.961Z" fill="url(#paint6_linear_312_27400)"/>
<path fill-rule="evenodd" clip-rule="evenodd" d="M41.4438 105.371L31.2091 101.96L27.5352 100.647L29.1097 99.5977L31.2091 100.385L41.4438 103.796V105.371Z" fill="url(#paint7_linear_312_27400)"/>
<path fill-rule="evenodd" clip-rule="evenodd" d="M41.4453 105.372L51.68 101.961L55.3539 100.648L56.6661 101.698L51.68 103.535L41.4453 106.947V105.372Z" fill="url(#paint8_linear_312_27400)"/>
<path fill-rule="evenodd" clip-rule="evenodd" d="M55.3539 100.647L51.68 101.96L41.4453 105.371V103.796L51.68 100.385L53.7793 99.5977L55.3539 100.647Z" fill="url(#paint9_linear_312_27400)"/>
<path fill-rule="evenodd" clip-rule="evenodd" d="M29.1094 95.3994H53.7775V120.068H29.1094V95.3994Z" fill="url(#paint10_radial_312_27400)"/>
<path fill-rule="evenodd" clip-rule="evenodd" d="M7.33093 71.2545V37.4014L0.507812 45.2742L1.81995 69.155L7.33093 71.2545Z" fill="url(#paint11_linear_312_27400)"/>
<path fill-rule="evenodd" clip-rule="evenodd" d="M7.33008 55.5109L8.64221 54.7236L41.4456 66.008V67.3201L7.33008 55.5109Z" fill="url(#paint12_linear_312_27400)"/>
<path fill-rule="evenodd" clip-rule="evenodd" d="M75.5608 55.5109L74.2487 54.7236L41.4453 66.008V67.3201L75.5608 55.5109Z" fill="url(#paint13_linear_312_27400)"/>
<path fill-rule="evenodd" clip-rule="evenodd" d="M7.33008 6.69922L8.64221 8.01135V54.7234L7.33008 55.5107V6.69922Z" fill="url(#paint14_linear_312_27400)"/>
<path fill-rule="evenodd" clip-rule="evenodd" d="M41.4452 100.647V67.3185L7.32971 55.5092L6.01758 54.9844V88.3126L41.4452 100.647Z" fill="url(#paint15_linear_312_27400)"/>
<path fill-rule="evenodd" clip-rule="evenodd" d="M41.4453 67.3185V100.647L76.873 88.3126V54.9844L75.5608 55.5092L41.4453 67.3185Z" fill="url(#paint16_linear_312_27400)"/>
<path fill-rule="evenodd" clip-rule="evenodd" d="M41.4452 99.3356L7.32971 87.5264L6.01758 88.3136L41.4452 100.648V99.3356Z" fill="url(#paint17_linear_312_27400)"/>
<path fill-rule="evenodd" clip-rule="evenodd" d="M75.5608 87.5264L41.4453 99.3356V100.648L76.873 88.3136L75.5608 87.5264Z" fill="url(#paint18_linear_312_27400)"/>
<path fill-rule="evenodd" clip-rule="evenodd" d="M6.0188 5.64941V41.6019L0.507812 45.2759L1.81995 69.1568L6.0188 70.7313V88.314L7.33093 87.5267V71.2562V56.0354V40.5522V6.69912L6.0188 5.64941Z" fill="url(#paint19_linear_312_27400)"/>
<path fill-rule="evenodd" clip-rule="evenodd" d="M80.8088 50.5232L77.1348 48.4238V63.907L80.0215 62.3325L80.8088 50.5232Z" fill="#808080"/>
<path fill-rule="evenodd" clip-rule="evenodd" d="M8.64258 8.01053V54.7226L41.446 66.0069L74.2494 54.7226V8.01053L41.446 3.02441L8.64258 8.01053Z" fill="url(#paint20_radial_312_27400)"/>
<path fill-rule="evenodd" clip-rule="evenodd" d="M21.2344 58.9215L67.1591 6.96094L74.2447 8.01065V54.7227L41.4413 66.007L21.2344 58.9215Z" fill="url(#paint21_radial_312_27400)"/>
<path fill-rule="evenodd" clip-rule="evenodd" d="M13.6261 11.9472V20.3449L12.3139 19.0328V11.1599L41.4434 6.96111L60.3381 9.58538V10.8975L41.4434 8.27325L13.6261 11.9472ZM13.6261 21.1322V36.3529L11.7891 38.1899V52.361L41.4434 62.5957L71.0976 52.361V28.4801L70.5727 27.9553L69.2606 26.6431V11.9472L60.863 10.8975V9.58538V9.06053L41.4434 6.17383L11.7891 10.6351V19.5576L13.6261 21.1322ZM13.6261 37.1402V51.0489L34.3578 58.3968V59.709L12.3139 52.0986V38.4524L13.6261 37.1402ZM34.8827 58.6593L41.4434 61.0211L48.0041 58.6593V59.9714L41.4434 62.3332L34.8827 59.9714V58.6593ZM48.5289 58.3968L69.2606 51.0489V27.4304L70.5727 28.7426V52.0986L48.5289 59.709V58.3968ZM14.1509 12.4721V50.524L41.4434 59.9714L68.7358 50.524V12.4721L41.4434 8.53567L14.1509 12.4721Z" fill="url(#paint22_radial_312_27400)"/>
<path fill-rule="evenodd" clip-rule="evenodd" d="M7.32971 6.69864L41.4452 1.71253V0.400391L6.01758 5.64893L7.32971 6.69864Z" fill="url(#paint23_linear_312_27400)"/>
<path fill-rule="evenodd" clip-rule="evenodd" d="M41.4456 1.71191L7.33008 6.69803L8.64221 8.01017L41.4456 3.02405V1.71191Z" fill="url(#paint24_linear_312_27400)"/>
<path fill-rule="evenodd" clip-rule="evenodd" d="M75.5602 6.69922L74.248 8.01135V54.7234L75.5602 55.5107V6.69922Z" fill="url(#paint25_linear_312_27400)"/>
<path fill-rule="evenodd" clip-rule="evenodd" d="M75.5608 6.69864L41.4453 1.71253V0.400391L76.873 5.64893L75.5608 6.69864Z" fill="url(#paint26_linear_312_27400)"/>
<path fill-rule="evenodd" clip-rule="evenodd" d="M41.4453 1.71191L75.5608 6.69803L74.2487 8.01017L41.4453 3.02405V1.71191Z" fill="url(#paint27_linear_312_27400)"/>
<path fill-rule="evenodd" clip-rule="evenodd" d="M71.0985 27.6929V10.6351L61.3887 9.06055V10.3727L70.0488 11.6848V26.3807L71.0985 27.6929Z" fill="#CCCC14"/>
<path fill-rule="evenodd" clip-rule="evenodd" d="M11.7891 20.3438V37.4015L12.8388 36.0894V21.3935L11.7891 20.3438Z" fill="#CCCC14"/>
<path fill-rule="evenodd" clip-rule="evenodd" d="M41.4454 60.7596L34.8848 58.6602V59.9723L41.4454 62.0717L48.0061 59.9723V58.6602L41.4454 60.7596Z" fill="url(#paint28_radial_312_27400)"/>
<path fill-rule="evenodd" clip-rule="evenodd" d="M41.4411 73.8799L40.9162 67.844L13.3613 57.6094L41.4411 67.3192V73.8799Z" fill="white"/>
<path fill-rule="evenodd" clip-rule="evenodd" d="M7.32907 33.991L6.80418 6.69859L6.2793 5.64888L7.59143 6.17373L18.351 5.12402L7.32907 6.69859V33.991Z" fill="white"/>
<path fill-rule="evenodd" clip-rule="evenodd" d="M22.2852 4.59923L41.1799 1.4501L41.4424 0.400391V1.71253L22.2852 4.59923Z" fill="white"/>
<path opacity="0.5" d="M58.5022 85.9521H67.1623V83.3279H61.1265V73.0932H58.2398V85.9521H58.5022ZM48.0051 85.9521H56.9277V83.3279H50.8918V80.4412H56.1403V77.8169H50.8918V75.7175H56.9277V73.0932H48.0051V85.9521ZM42.7566 85.9521L46.9554 73.6181V72.5684L44.3311 72.8308L41.7068 80.7036L41.4445 82.0157L41.182 80.7036L38.5578 72.8308L35.9335 72.5684V73.6181L40.1323 85.9521H42.7566ZM25.9612 85.9521H34.8838V83.3279H28.8479V80.4412H34.0965V77.8169H28.8479V75.7175H34.8838V73.0932H25.9612V85.9521ZM15.7266 85.9521H24.3867V83.3279H18.6133V73.0932H15.7266V85.9521Z" fill="#4D5E6E"/>
<path d="M58.5022 84.9026H67.1623V82.2783H61.1265V72.0437H58.2398V84.9026H58.5022ZM48.0051 84.9026H56.9277V82.2783H50.8918V79.3916H56.1403V76.7674H50.8918V74.6679H56.9277V72.0437H48.0051V84.9026ZM42.7566 84.9026L46.9554 72.5685L44.3311 71.7812L41.7068 79.6541L41.4445 80.9662L41.182 79.6541L38.5578 71.7812L35.9335 72.5685L40.1323 84.9026H42.7566ZM25.9612 84.9026H34.8838V82.2783H28.8479V79.3916H34.0965V76.7674H28.8479V74.6679H34.8838V72.0437H25.9612V84.9026ZM15.7266 84.9026H24.3867V82.2783H18.6133V72.0437H15.7266V84.9026Z" fill="url(#paint29_linear_312_27400)"/>
<path fill-rule="evenodd" clip-rule="evenodd" d="M9.69141 75.1924C9.69141 75.7172 9.95379 75.9797 10.2162 75.9797H11.7908C12.0532 75.9797 12.3157 75.7172 12.3157 75.4548V75.1924C11.266 75.1924 10.7411 75.1924 9.69141 75.1924Z" fill="url(#paint30_linear_312_27400)"/>
<path fill-rule="evenodd" clip-rule="evenodd" d="M11.7901 74.667H10.2155C9.95306 74.667 9.95313 74.9294 9.95313 74.9294C9.95313 75.1918 10.2155 75.1918 10.2155 75.1918H11.7901C12.0525 75.1918 12.0525 74.9294 12.0525 74.9294C12.3149 74.667 12.0525 74.667 11.7901 74.667Z" fill="url(#paint31_linear_312_27400)"/>
<path fill-rule="evenodd" clip-rule="evenodd" d="M9.69141 78.3418C9.69141 78.8667 9.95379 79.1291 10.2162 79.1291H11.7908C12.0532 79.1291 12.3157 78.8666 12.3157 78.6042V78.3418C11.266 78.3418 10.7411 78.3418 9.69141 78.3418Z" fill="url(#paint32_linear_312_27400)"/>
<path fill-rule="evenodd" clip-rule="evenodd" d="M11.7901 77.8164H10.2155C9.95306 77.8164 9.95313 78.0788 9.95313 78.0788C9.95313 78.3413 10.2155 78.3413 10.2155 78.3413H11.7901C12.0525 78.3413 12.0525 78.0788 12.0525 78.0788C12.3149 78.0788 12.0525 77.8164 11.7901 77.8164Z" fill="url(#paint33_linear_312_27400)"/>
<path fill-rule="evenodd" clip-rule="evenodd" d="M9.69141 81.752C9.69141 82.2768 9.95379 82.5392 10.2162 82.5392H11.7908C12.0532 82.5392 12.3157 82.2768 12.3157 82.0144V81.752C11.266 81.752 10.7411 81.752 9.69141 81.752Z" fill="url(#paint34_linear_312_27400)"/>
<path fill-rule="evenodd" clip-rule="evenodd" d="M11.7901 81.2275H10.2155C9.95306 81.2275 9.95313 81.49 9.95313 81.49C9.95313 81.7524 10.2155 81.7524 10.2155 81.7524H11.7901C12.0525 81.7524 12.0525 81.49 12.0525 81.49C12.3149 81.2275 12.0525 81.2275 11.7901 81.2275Z" fill="url(#paint35_linear_312_27400)"/>
<path fill-rule="evenodd" clip-rule="evenodd" d="M11.7908 74.4053H10.2162C9.95379 74.4053 9.69141 74.6677 9.69141 74.9301C9.69141 75.1926 9.95379 75.455 10.2162 75.455H11.7908C12.0532 75.455 12.3157 75.1926 12.3157 74.9301C12.5781 74.6677 12.0532 74.4053 11.7908 74.4053Z" fill="url(#paint36_linear_312_27400)"/>
<path fill-rule="evenodd" clip-rule="evenodd" d="M11.7908 77.8164H10.2162C9.95379 77.8164 9.69141 78.0788 9.69141 78.3413C9.69141 78.6037 9.95379 78.8661 10.2162 78.8661H11.7908C12.0532 78.8661 12.3157 78.6037 12.3157 78.3413C12.5781 78.0788 12.0532 77.8164 11.7908 77.8164Z" fill="url(#paint37_linear_312_27400)"/>
<path fill-rule="evenodd" clip-rule="evenodd" d="M11.7908 80.9658H10.2162C9.95379 80.9658 9.69141 81.2282 9.69141 81.4907C9.69141 81.7531 9.95379 82.0155 10.2162 82.0155H11.7908C12.0532 82.0155 12.3157 81.7531 12.3157 81.4907C12.5781 81.2282 12.0532 80.9658 11.7908 80.9658Z" fill="url(#paint38_linear_312_27400)"/>
<path fill-rule="evenodd" clip-rule="evenodd" d="M70.3125 75.1924C70.3125 75.7172 70.5749 75.9797 70.8373 75.9797H72.4119C72.6743 75.9797 72.9368 75.7172 72.9368 75.4548V75.1924C72.1495 75.1924 71.6246 75.1924 70.3125 75.1924Z" fill="url(#paint39_linear_312_27400)"/>
<path fill-rule="evenodd" clip-rule="evenodd" d="M72.673 74.667H71.0984C70.836 74.667 70.8359 74.9294 70.8359 74.9294C70.8359 75.1918 71.0984 75.1918 71.0984 75.1918H72.673C72.9354 75.1918 72.9354 74.9294 72.9354 74.9294C73.1978 74.667 72.9354 74.667 72.673 74.667Z" fill="url(#paint40_linear_312_27400)"/>
<path fill-rule="evenodd" clip-rule="evenodd" d="M70.3125 78.3418C70.3125 78.8667 70.5749 79.1291 70.8373 79.1291H72.4119C72.6743 79.1291 72.9368 78.8666 72.9368 78.6042V78.3418C72.1495 78.3418 71.6246 78.3418 70.3125 78.3418Z" fill="url(#paint41_linear_312_27400)"/>
<path fill-rule="evenodd" clip-rule="evenodd" d="M72.673 77.8164H71.0984C70.836 77.8164 70.8359 78.0788 70.8359 78.0788C70.8359 78.3413 71.0984 78.3413 71.0984 78.3413H72.673C72.9354 78.3413 72.9354 78.0788 72.9354 78.0788C73.1978 78.0788 72.9354 77.8164 72.673 77.8164Z" fill="url(#paint42_linear_312_27400)"/>
<path fill-rule="evenodd" clip-rule="evenodd" d="M70.3125 81.7529C70.3125 82.2778 70.5749 82.5402 70.8373 82.5402H72.4119C72.6743 82.5402 72.9368 82.2778 72.9368 82.0154V81.7529C72.1495 81.7529 71.6246 81.7529 70.3125 81.7529Z" fill="url(#paint43_linear_312_27400)"/>
<path fill-rule="evenodd" clip-rule="evenodd" d="M72.673 81.2275H71.0984C70.836 81.2275 70.8359 81.49 70.8359 81.49C70.8359 81.7524 71.0984 81.7524 71.0984 81.7524H72.673C72.9354 81.7524 72.9354 81.49 72.9354 81.49C73.1978 81.2275 72.9354 81.2275 72.673 81.2275Z" fill="url(#paint44_linear_312_27400)"/>
<path fill-rule="evenodd" clip-rule="evenodd" d="M72.6737 74.4053H71.0991C70.8367 74.4053 70.5742 74.6677 70.5742 74.9301C70.5742 75.1926 70.8367 75.455 71.0991 75.455H72.6737C72.9361 75.455 73.1985 75.1926 73.1985 74.9301C73.1985 74.6677 72.9361 74.4053 72.6737 74.4053Z" fill="url(#paint45_linear_312_27400)"/>
<path fill-rule="evenodd" clip-rule="evenodd" d="M72.6737 77.8164H71.0991C70.8367 77.8164 70.5742 78.0788 70.5742 78.3413C70.5742 78.6037 70.8367 78.8661 71.0991 78.8661H72.6737C72.9361 78.8661 73.1985 78.6037 73.1985 78.3413C73.1985 78.0788 72.9361 77.8164 72.6737 77.8164Z" fill="url(#paint46_linear_312_27400)"/>
<path fill-rule="evenodd" clip-rule="evenodd" d="M72.6737 80.9658H71.0991C70.8367 80.9658 70.5742 81.2282 70.5742 81.4907C70.5742 81.7531 70.8367 82.0155 71.0991 82.0155H72.6737C72.9361 82.0155 73.1985 81.7531 73.1985 81.4907C73.1985 81.2282 72.9361 80.9658 72.6737 80.9658Z" fill="url(#paint47_linear_312_27400)"/>
<path fill-rule="evenodd" clip-rule="evenodd" d="M82.3836 45.2759L76.8727 41.6019V5.64941L75.5605 6.69912V40.5522V56.0354V71.2562V87.5267L76.8727 88.314V70.7313L81.0715 69.1568L82.3836 45.2759Z" fill="url(#paint48_linear_312_27400)"/>
<path fill-rule="evenodd" clip-rule="evenodd" d="M2.08203 50.5232L5.756 48.4238V63.907L2.86928 62.3325L2.08203 50.5232Z" fill="url(#paint49_linear_312_27400)"/>
<path fill-rule="evenodd" clip-rule="evenodd" d="M3.13281 51.0468L4.70739 49.9971V62.3311L3.65762 61.8063L3.13281 51.0468Z" fill="url(#paint50_radial_312_27400)"/>
<path fill-rule="evenodd" clip-rule="evenodd" d="M2.87109 62.3315L3.65834 61.8066L4.70812 62.3315L5.75781 63.9061L2.87109 62.3315Z" fill="url(#paint51_linear_312_27400)"/>
<path fill-rule="evenodd" clip-rule="evenodd" d="M3.13172 51.0481L2.08203 50.5232L5.756 48.4238L4.7063 49.9984L3.13172 51.0481Z" fill="url(#paint52_linear_312_27400)"/>
<path fill-rule="evenodd" clip-rule="evenodd" d="M2.08203 50.5225L3.13172 51.0473L3.65653 61.8068L2.86928 62.3317L2.08203 50.5225Z" fill="url(#paint53_linear_312_27400)"/>
<path fill-rule="evenodd" clip-rule="evenodd" d="M4.70508 62.3325V49.9984L5.75477 48.4238V63.907L4.70508 62.3325Z" fill="url(#paint54_linear_312_27400)"/>
<path fill-rule="evenodd" clip-rule="evenodd" d="M80.8088 50.5232L77.1348 48.4238V63.907L80.0215 62.3325L80.8088 50.5232Z" fill="url(#paint55_linear_312_27400)"/>
<path fill-rule="evenodd" clip-rule="evenodd" d="M79.76 51.0468L78.1855 49.9971V62.3311L79.2352 61.8063L79.76 51.0468Z" fill="url(#paint56_radial_312_27400)"/>
<path fill-rule="evenodd" clip-rule="evenodd" d="M80.0215 62.3315L79.2342 61.8066L78.1845 62.3315L77.1348 63.9061L80.0215 62.3315Z" fill="url(#paint57_linear_312_27400)"/>
<path fill-rule="evenodd" clip-rule="evenodd" d="M79.759 51.0481L80.8088 50.5232L77.1348 48.4238L78.1845 49.9984L79.759 51.0481Z" fill="url(#paint58_linear_312_27400)"/>
<path fill-rule="evenodd" clip-rule="evenodd" d="M80.8109 50.5225L79.7611 51.0473L79.2363 61.8068L80.0236 62.3317L80.8109 50.5225Z" fill="url(#paint59_linear_312_27400)"/>
<path fill-rule="evenodd" clip-rule="evenodd" d="M78.1845 62.3325V49.9984L77.1348 48.4238V63.907L78.1845 62.3325Z" fill="url(#paint60_linear_312_27400)"/>
<path d="M25.6968 29.0053L26.484 27.4308L25.9591 29.0053V42.3891H22.0227V48.1625H36.1938V42.3891H32.2574V17.9834H27.0089L19.3984 25.5938L23.8597 30.055L25.6968 29.0053ZM45.1163 17.9834L39.3429 23.2319V42.6516L45.1163 47.9001H56.9256L62.6989 42.6516V23.4944L56.9256 18.2458H45.1163V17.9834ZM54.5637 42.3891H48.0031L56.4007 28.7429V40.5521L54.5637 42.3891ZM47.2157 23.7568H53.7764L45.3788 37.403V25.5938L47.2157 23.7568Z" fill="url(#paint61_linear_312_27400)"/>
<defs>
<linearGradient id="paint0_linear_312_27400" x1="75.5018" y1="54.298" x2="82.3143" y2="54.298" gradientUnits="userSpaceOnUse">
<stop stop-color="#1B3840"/>
<stop offset="1" stop-color="#204954"/>
</linearGradient>
<radialGradient id="paint1_radial_312_27400" cx="0" cy="0" r="1" gradientUnits="userSpaceOnUse" gradientTransform="translate(41.4453 103.84) scale(12.8605 12.8605)">
<stop stop-color="#B3FFF2"/>
<stop offset="0.3089" stop-color="#B1FFF2"/>
<stop offset="0.4601" stop-color="#A9FFF0"/>
<stop offset="0.5772" stop-color="#9CFFEE"/>
<stop offset="0.6767" stop-color="#89FFEB"/>
<stop offset="0.765" stop-color="#71FFE7"/>
<stop offset="0.8454" stop-color="#54FFE2"/>
<stop offset="0.9198" stop-color="#30FFDC"/>
<stop offset="0.9876" stop-color="#08FFD5"/>
<stop offset="1" stop-color="#00FFD4"/>
</radialGradient>
<linearGradient id="paint2_linear_312_27400" x1="55.2315" y1="92.0264" x2="56.7287" y2="92.0264" gradientUnits="userSpaceOnUse">
<stop stop-color="#335D94"/>
<stop offset="1" stop-color="#204270"/>
</linearGradient>
<linearGradient id="paint3_linear_312_27400" x1="53.7367" y1="91.494" x2="55.2338" y2="91.494" gradientUnits="userSpaceOnUse">
<stop stop-color="#4E76A6"/>
<stop offset="1" stop-color="#87B5F5"/>
</linearGradient>
<linearGradient id="paint4_linear_312_27400" x1="27.6567" y1="91.494" x2="29.1538" y2="91.494" gradientUnits="userSpaceOnUse">
<stop stop-color="#335D94"/>
<stop offset="1" stop-color="#204270"/>
</linearGradient>
<linearGradient id="paint5_linear_312_27400" x1="26.1591" y1="92.0264" x2="27.6563" y2="92.0264" gradientUnits="userSpaceOnUse">
<stop stop-color="#4E76A6"/>
<stop offset="1" stop-color="#87B5F5"/>
</linearGradient>
<linearGradient id="paint6_linear_312_27400" x1="26.1591" y1="103.826" x2="41.4453" y2="103.826" gradientUnits="userSpaceOnUse">
<stop stop-color="#2F5382"/>
<stop offset="1" stop-color="#446DA3"/>
</linearGradient>
<linearGradient id="paint7_linear_312_27400" x1="27.6567" y1="102.5" x2="41.4457" y2="102.5" gradientUnits="userSpaceOnUse">
<stop stop-color="#4E76A6"/>
<stop offset="1" stop-color="#87B5F5"/>
</linearGradient>
<linearGradient id="paint8_linear_312_27400" x1="41.4471" y1="103.826" x2="56.733" y2="103.826" gradientUnits="userSpaceOnUse">
<stop stop-color="#204270"/>
<stop offset="1" stop-color="#335D94"/>
</linearGradient>
<linearGradient id="paint9_linear_312_27400" x1="41.4471" y1="102.5" x2="55.2358" y2="102.5" gradientUnits="userSpaceOnUse">
<stop stop-color="#77A5D6"/>
<stop offset="1" stop-color="#99C5FF"/>
</linearGradient>
<radialGradient id="paint10_radial_312_27400" cx="0" cy="0" r="1" gradientUnits="userSpaceOnUse" gradientTransform="translate(41.5831 85.9898) scale(33.3036 33.3036)">
<stop offset="0.2045" stop-color="#00FFFF"/>
<stop offset="0.2262" stop-color="#00F2F2"/>
<stop offset="0.3441" stop-color="#00B3B3"/>
<stop offset="0.4606" stop-color="#007D7D"/>
<stop offset="0.5728" stop-color="#005050"/>
<stop offset="0.68" stop-color="#002D2D"/>
<stop offset="0.7809" stop-color="#001414"/>
<stop offset="0.8729" stop-color="#000505"/>
<stop offset="0.948"/>
</radialGradient>
<linearGradient id="paint11_linear_312_27400" x1="0.580767" y1="54.298" x2="7.39339" y2="54.298" gradientUnits="userSpaceOnUse">
<stop stop-color="#204954"/>
<stop offset="1" stop-color="#1B3840"/>
</linearGradient>
<linearGradient id="paint12_linear_312_27400" x1="7.39254" y1="61.0164" x2="41.4469" y2="61.0164" gradientUnits="userSpaceOnUse">
<stop stop-color="#4E76A6"/>
<stop offset="1" stop-color="#87B5F5"/>
</linearGradient>
<linearGradient id="paint13_linear_312_27400" x1="41.4466" y1="61.0164" x2="75.5021" y2="61.0164" gradientUnits="userSpaceOnUse">
<stop stop-color="#77A5D6"/>
<stop offset="1" stop-color="#99C5FF"/>
</linearGradient>
<linearGradient id="paint14_linear_312_27400" x1="7.39254" y1="31.0811" x2="8.74797" y2="31.0811" gradientUnits="userSpaceOnUse">
<stop stop-color="#335D94"/>
<stop offset="1" stop-color="#204270"/>
</linearGradient>
<linearGradient id="paint15_linear_312_27400" x1="41.2442" y1="67.4846" x2="3.77802" y2="89.7617" gradientUnits="userSpaceOnUse">
<stop stop-color="#87B5F5"/>
<stop offset="1" stop-color="#6A94C4"/>
</linearGradient>
<linearGradient id="paint16_linear_312_27400" x1="41.1894" y1="67.1844" x2="78.077" y2="89.1723" gradientUnits="userSpaceOnUse">
<stop stop-color="#335D94"/>
<stop offset="1" stop-color="#42689C"/>
</linearGradient>
<linearGradient id="paint17_linear_312_27400" x1="6.03621" y1="94.0645" x2="41.4466" y2="94.0645" gradientUnits="userSpaceOnUse">
<stop stop-color="#2F5382"/>
<stop offset="1" stop-color="#446DA3"/>
</linearGradient>
<linearGradient id="paint18_linear_312_27400" x1="41.4466" y1="94.0645" x2="76.8575" y2="94.0645" gradientUnits="userSpaceOnUse">
<stop stop-color="#204270"/>
<stop offset="1" stop-color="#335D94"/>
</linearGradient>
<linearGradient id="paint19_linear_312_27400" x1="0.58103" y1="46.9859" x2="7.39339" y2="46.9859" gradientUnits="userSpaceOnUse">
<stop stop-color="#4E76A6"/>
<stop offset="1" stop-color="#87B5F5"/>
</linearGradient>
<radialGradient id="paint20_radial_312_27400" cx="0" cy="0" r="1" gradientUnits="userSpaceOnUse" gradientTransform="translate(41.4478 3.15563) scale(63.0442 63.0442)">
<stop stop-color="#0056BF"/>
<stop offset="0.1352" stop-color="#02429F"/>
<stop offset="0.2857" stop-color="#043183"/>
<stop offset="0.4168" stop-color="#052671"/>
<stop offset="0.513" stop-color="#05226B"/>
<stop offset="0.6195" stop-color="#072060"/>
<stop offset="0.8351" stop-color="#091D50"/>
<stop offset="1" stop-color="#0A1C4A"/>
</radialGradient>
<radialGradient id="paint21_radial_312_27400" cx="0" cy="0" r="1" gradientUnits="userSpaceOnUse" gradientTransform="translate(28.7191 -9.31164) scale(83.3902 83.3902)">
<stop offset="7e-08" stop-color="#284580"/>
<stop offset="1"/>
</radialGradient>
<radialGradient id="paint22_radial_312_27400" cx="0" cy="0" r="1" gradientUnits="userSpaceOnUse" gradientTransform="translate(13.0642 10.8217) scale(84.4501 84.4501)">
<stop stop-color="#67DBFF"/>
<stop offset="1" stop-color="#0068DE"/>
</radialGradient>
<linearGradient id="paint23_linear_312_27400" x1="6.03621" y1="3.49887" x2="41.4466" y2="3.49887" gradientUnits="userSpaceOnUse">
<stop stop-color="#7996B5"/>
<stop offset="1" stop-color="#CCE2FF"/>
</linearGradient>
<linearGradient id="paint24_linear_312_27400" x1="7.39254" y1="4.84136" x2="41.4469" y2="4.84136" gradientUnits="userSpaceOnUse">
<stop stop-color="#204270"/>
<stop offset="1" stop-color="#335D94"/>
</linearGradient>
<linearGradient id="paint25_linear_312_27400" x1="74.1457" y1="31.0811" x2="75.5014" y2="31.0811" gradientUnits="userSpaceOnUse">
<stop stop-color="#4E76A6"/>
<stop offset="1" stop-color="#87B5F5"/>
</linearGradient>
<linearGradient id="paint26_linear_312_27400" x1="41.4466" y1="3.49887" x2="76.8572" y2="3.49887" gradientUnits="userSpaceOnUse">
<stop stop-color="#87B5F5"/>
<stop offset="1" stop-color="#4E76A6"/>
</linearGradient>
<linearGradient id="paint27_linear_312_27400" x1="41.4466" y1="4.84136" x2="75.5021" y2="4.84136" gradientUnits="userSpaceOnUse">
<stop stop-color="#2F5382"/>
<stop offset="1" stop-color="#446DA3"/>
</linearGradient>
<radialGradient id="paint28_radial_312_27400" cx="0" cy="0" r="1" gradientUnits="userSpaceOnUse" gradientTransform="translate(41.4473 60.3746) scale(6.31662 6.31662)">
<stop stop-color="#0062B7"/>
<stop offset="1"/>
</radialGradient>
<linearGradient id="paint29_linear_312_27400" x1="41.4463" y1="84.7916" x2="41.4463" y2="71.6267" gradientUnits="userSpaceOnUse">
<stop stop-color="#C2D6F2"/>
<stop offset="1" stop-color="#E6F5FF"/>
</linearGradient>
<linearGradient id="paint30_linear_312_27400" x1="11.0077" y1="75.9183" x2="11.0077" y2="75.0908" gradientUnits="userSpaceOnUse">
<stop stop-color="#2B3336"/>
<stop offset="0.0166703" stop-color="#2C3C41"/>
<stop offset="0.0981146" stop-color="#316473"/>
<stop offset="0.1814" stop-color="#36869E"/>
<stop offset="0.2651" stop-color="#3AA2C1"/>
<stop offset="0.3494" stop-color="#3CB8DC"/>
<stop offset="0.4347" stop-color="#3EC8F0"/>
<stop offset="0.5213" stop-color="#40D1FB"/>
<stop offset="0.6115" stop-color="#40D4FF"/>
</linearGradient>
<linearGradient id="paint31_linear_312_27400" x1="11.007" y1="75.2722" x2="11.007" y2="74.5586" gradientUnits="userSpaceOnUse">
<stop/>
<stop offset="1" stop-color="#78FAFF"/>
</linearGradient>
<linearGradient id="paint32_linear_312_27400" x1="11.0077" y1="79.2382" x2="11.0077" y2="78.4106" gradientUnits="userSpaceOnUse">
<stop stop-color="#2B3336"/>
<stop offset="0.0166703" stop-color="#293B41"/>
<stop offset="0.0981146" stop-color="#1E6073"/>
<stop offset="0.1814" stop-color="#15809E"/>
<stop offset="0.2651" stop-color="#0D9AC1"/>
<stop offset="0.3494" stop-color="#07AEDC"/>
<stop offset="0.4347" stop-color="#03BDF0"/>
<stop offset="0.5213" stop-color="#01C5FB"/>
<stop offset="0.6115" stop-color="#00C8FF"/>
</linearGradient>
<linearGradient id="paint33_linear_312_27400" x1="11.007" y1="78.5919" x2="11.007" y2="77.8783" gradientUnits="userSpaceOnUse">
<stop/>
<stop offset="1" stop-color="#78FAFF"/>
</linearGradient>
<linearGradient id="paint34_linear_312_27400" x1="11.0077" y1="82.5143" x2="11.0077" y2="81.6869" gradientUnits="userSpaceOnUse">
<stop stop-color="#2B3336"/>
<stop offset="0.0166703" stop-color="#2C3C41"/>
<stop offset="0.0981146" stop-color="#316473"/>
<stop offset="0.1814" stop-color="#36869E"/>
<stop offset="0.2651" stop-color="#3AA2C1"/>
<stop offset="0.3494" stop-color="#3CB8DC"/>
<stop offset="0.4347" stop-color="#3EC8F0"/>
<stop offset="0.5213" stop-color="#40D1FB"/>
<stop offset="0.6115" stop-color="#40D4FF"/>
</linearGradient>
<linearGradient id="paint35_linear_312_27400" x1="11.007" y1="81.8692" x2="11.007" y2="81.1556" gradientUnits="userSpaceOnUse">
<stop/>
<stop offset="1" stop-color="#78FAFF"/>
</linearGradient>
<linearGradient id="paint36_linear_312_27400" x1="11.0077" y1="75.7434" x2="11.0077" y2="74.4386" gradientUnits="userSpaceOnUse">
<stop stop-color="#17ACFF"/>
<stop offset="1" stop-color="#78FAFF"/>
</linearGradient>
<linearGradient id="paint37_linear_312_27400" x1="11.0077" y1="79.0624" x2="11.0077" y2="77.7576" gradientUnits="userSpaceOnUse">
<stop stop-color="#17ACFF"/>
<stop offset="1" stop-color="#78FAFF"/>
</linearGradient>
<linearGradient id="paint38_linear_312_27400" x1="11.0077" y1="82.3404" x2="11.0077" y2="81.0356" gradientUnits="userSpaceOnUse">
<stop stop-color="#17ACFF"/>
<stop offset="1" stop-color="#78FAFF"/>
</linearGradient>
<linearGradient id="paint39_linear_312_27400" x1="71.8858" y1="75.9183" x2="71.8858" y2="75.0908" gradientUnits="userSpaceOnUse">
<stop stop-color="#2B3336"/>
<stop offset="0.0166703" stop-color="#2C3C41"/>
<stop offset="0.0981146" stop-color="#316473"/>
<stop offset="0.1814" stop-color="#36869E"/>
<stop offset="0.2651" stop-color="#3AA2C1"/>
<stop offset="0.3494" stop-color="#3CB8DC"/>
<stop offset="0.4347" stop-color="#3EC8F0"/>
<stop offset="0.5213" stop-color="#40D1FB"/>
<stop offset="0.6115" stop-color="#40D4FF"/>
</linearGradient>
<linearGradient id="paint40_linear_312_27400" x1="71.8844" y1="75.2722" x2="71.8844" y2="74.5586" gradientUnits="userSpaceOnUse">
<stop/>
<stop offset="1" stop-color="#78FAFF"/>
</linearGradient>
<linearGradient id="paint41_linear_312_27400" x1="71.8858" y1="79.2382" x2="71.8858" y2="78.4106" gradientUnits="userSpaceOnUse">
<stop stop-color="#2B3336"/>
<stop offset="0.0166703" stop-color="#2C3C41"/>
<stop offset="0.0981146" stop-color="#316473"/>
<stop offset="0.1814" stop-color="#36869E"/>
<stop offset="0.2651" stop-color="#3AA2C1"/>
<stop offset="0.3494" stop-color="#3CB8DC"/>
<stop offset="0.4347" stop-color="#3EC8F0"/>
<stop offset="0.5213" stop-color="#40D1FB"/>
<stop offset="0.6115" stop-color="#40D4FF"/>
</linearGradient>
<linearGradient id="paint42_linear_312_27400" x1="71.8844" y1="78.5919" x2="71.8844" y2="77.8783" gradientUnits="userSpaceOnUse">
<stop/>
<stop offset="1" stop-color="#78FAFF"/>
</linearGradient>
<linearGradient id="paint43_linear_312_27400" x1="71.8858" y1="82.5153" x2="71.8858" y2="81.6878" gradientUnits="userSpaceOnUse">
<stop stop-color="#2B3336"/>
<stop offset="0.0166703" stop-color="#2C3C41"/>
<stop offset="0.0981146" stop-color="#316473"/>
<stop offset="0.1814" stop-color="#36869E"/>
<stop offset="0.2651" stop-color="#3AA2C1"/>
<stop offset="0.3494" stop-color="#3CB8DC"/>
<stop offset="0.4347" stop-color="#3EC8F0"/>
<stop offset="0.5213" stop-color="#40D1FB"/>
<stop offset="0.6115" stop-color="#40D4FF"/>
</linearGradient>
<linearGradient id="paint44_linear_312_27400" x1="71.8844" y1="81.8692" x2="71.8844" y2="81.1556" gradientUnits="userSpaceOnUse">
<stop/>
<stop offset="1" stop-color="#78FAFF"/>
</linearGradient>
<linearGradient id="paint45_linear_312_27400" x1="71.885" y1="75.7434" x2="71.885" y2="74.4386" gradientUnits="userSpaceOnUse">
<stop stop-color="#17ACFF"/>
<stop offset="1" stop-color="#78FAFF"/>
</linearGradient>
<linearGradient id="paint46_linear_312_27400" x1="71.885" y1="79.0624" x2="71.885" y2="77.7576" gradientUnits="userSpaceOnUse">
<stop stop-color="#17ACFF"/>
<stop offset="1" stop-color="#78FAFF"/>
</linearGradient>
<linearGradient id="paint47_linear_312_27400" x1="71.885" y1="82.3404" x2="71.885" y2="81.0356" gradientUnits="userSpaceOnUse">
<stop stop-color="#17ACFF"/>
<stop offset="1" stop-color="#78FAFF"/>
</linearGradient>
<linearGradient id="paint48_linear_312_27400" x1="75.5018" y1="46.9859" x2="82.314" y2="46.9859" gradientUnits="userSpaceOnUse">
<stop stop-color="#335D94"/>
<stop offset="1" stop-color="#204270"/>
</linearGradient>
<linearGradient id="paint49_linear_312_27400" x1="3.90537" y1="48.4107" x2="3.90537" y2="63.8895" gradientUnits="userSpaceOnUse">
<stop stop-color="#6287C9"/>
<stop offset="1" stop-color="#3B597D"/>
</linearGradient>
<radialGradient id="paint50_radial_312_27400" cx="0" cy="0" r="1" gradientUnits="userSpaceOnUse" gradientTransform="translate(3.91984 56.1489) scale(4.44714 4.44709)">
<stop stop-color="#F8FC86"/>
<stop offset="1" stop-color="#EDCE20"/>
</radialGradient>
<linearGradient id="paint51_linear_312_27400" x1="4.21604" y1="61.6956" x2="4.21604" y2="63.8885" gradientUnits="userSpaceOnUse">
<stop stop-color="#99B2BF"/>
<stop offset="1" stop-color="#9BBD67"/>
</linearGradient>
<linearGradient id="paint52_linear_312_27400" x1="3.90537" y1="48.4107" x2="3.90537" y2="50.9326" gradientUnits="userSpaceOnUse">
<stop stop-color="#94885C"/>
<stop offset="1" stop-color="#2C507A"/>
</linearGradient>
<linearGradient id="paint53_linear_312_27400" x1="2.88529" y1="50.4479" x2="2.88529" y2="62.2099" gradientUnits="userSpaceOnUse">
<stop stop-color="#739CB0"/>
<stop offset="1" stop-color="#476B96"/>
</linearGradient>
<linearGradient id="paint54_linear_312_27400" x1="5.22021" y1="48.4107" x2="5.22021" y2="63.8895" gradientUnits="userSpaceOnUse">
<stop stop-color="#739CB0"/>
<stop offset="1" stop-color="#476B96"/>
</linearGradient>
<linearGradient id="paint55_linear_312_27400" x1="78.9883" y1="48.4107" x2="78.9883" y2="63.8895" gradientUnits="userSpaceOnUse">
<stop stop-color="#6287C9"/>
<stop offset="1" stop-color="#3B597D"/>
</linearGradient>
<radialGradient id="paint56_radial_312_27400" cx="0" cy="0" r="1" gradientUnits="userSpaceOnUse" gradientTransform="translate(78.9762 56.1489) rotate(180) scale(4.44691 4.44709)">
<stop stop-color="#F8FC86"/>
<stop offset="1" stop-color="#EDCE20"/>
</radialGradient>
<linearGradient id="paint57_linear_312_27400" x1="78.6797" y1="61.6956" x2="78.6797" y2="63.8885" gradientUnits="userSpaceOnUse">
<stop stop-color="#99B2BF"/>
<stop offset="1" stop-color="#9BBD67"/>
</linearGradient>
<linearGradient id="paint58_linear_312_27400" x1="78.9883" y1="48.4107" x2="78.9883" y2="50.9326" gradientUnits="userSpaceOnUse">
<stop stop-color="#94885C"/>
<stop offset="1" stop-color="#2C507A"/>
</linearGradient>
<linearGradient id="paint59_linear_312_27400" x1="80.0105" y1="50.4479" x2="80.0105" y2="62.2099" gradientUnits="userSpaceOnUse">
<stop stop-color="#739CB0"/>
<stop offset="1" stop-color="#476B96"/>
</linearGradient>
<linearGradient id="paint60_linear_312_27400" x1="77.6722" y1="48.4107" x2="77.6722" y2="63.8895" gradientUnits="userSpaceOnUse">
<stop stop-color="#739CB0"/>
<stop offset="1" stop-color="#476B96"/>
</linearGradient>
<linearGradient id="paint61_linear_312_27400" x1="56.2107" y1="49.4581" x2="26.253" y2="19.5005" gradientUnits="userSpaceOnUse">
<stop stop-color="#17ACFF"/>
<stop offset="1" stop-color="#78FAFF"/>
</linearGradient>
</defs>
</svg>
