<svg width="83" height="121" viewBox="0 0 83 121" fill="none" xmlns="http://www.w3.org/2000/svg">
<path fill-rule="evenodd" clip-rule="evenodd" d="M75.5146 71.2545V37.4014L82.3378 45.2742L81.0256 69.155L75.5146 71.2545Z" fill="url(#paint0_linear_312_27096)"/>
<path fill-rule="evenodd" clip-rule="evenodd" d="M27.4893 82.2783V100.648L41.3979 105.372L55.0441 100.648V82.2783H27.4893Z" fill="#9B9B9B"/>
<path fill-rule="evenodd" clip-rule="evenodd" d="M29.0625 82.2783V99.5985L41.3966 103.797L53.7307 99.5985V82.2783H29.0625Z" fill="url(#paint1_radial_312_27096)"/>
<path fill-rule="evenodd" clip-rule="evenodd" d="M55.043 82.2783V100.648L56.6175 101.698V82.2783H55.043Z" fill="url(#paint2_linear_312_27096)"/>
<path fill-rule="evenodd" clip-rule="evenodd" d="M55.0436 100.648V82.2783H53.7314V99.5985L55.0436 100.648Z" fill="url(#paint3_linear_312_27096)"/>
<path fill-rule="evenodd" clip-rule="evenodd" d="M29.0638 99.5985V82.2783H27.4893V100.648L29.0638 99.5985Z" fill="url(#paint4_linear_312_27096)"/>
<path fill-rule="evenodd" clip-rule="evenodd" d="M27.4899 100.648V82.2783H26.1777V101.698L27.4899 100.648Z" fill="url(#paint5_linear_312_27096)"/>
<path fill-rule="evenodd" clip-rule="evenodd" d="M31.1638 101.961L41.3985 105.372V106.947L31.1638 103.535L26.1777 101.698L27.4899 100.648L31.1638 101.961Z" fill="url(#paint6_linear_312_27096)"/>
<path fill-rule="evenodd" clip-rule="evenodd" d="M41.3979 105.371L31.1632 101.96L27.4893 100.647L29.0638 99.5977L31.1632 100.385L41.3979 103.796V105.371Z" fill="url(#paint7_linear_312_27096)"/>
<path fill-rule="evenodd" clip-rule="evenodd" d="M41.3994 105.372L51.3717 101.961L55.0457 100.648L56.6202 101.698L51.3717 103.535L41.3994 106.947V105.372Z" fill="url(#paint8_linear_312_27096)"/>
<path fill-rule="evenodd" clip-rule="evenodd" d="M55.0457 100.647L51.3717 101.96L41.3994 105.371V103.796L51.3717 100.385L53.7335 99.5977L55.0457 100.647Z" fill="url(#paint9_linear_312_27096)"/>
<path fill-rule="evenodd" clip-rule="evenodd" d="M29.0625 95.3994H53.7307V120.068H29.0625V95.3994Z" fill="url(#paint10_radial_312_27096)"/>
<path fill-rule="evenodd" clip-rule="evenodd" d="M7.285 71.2545V37.4014L0.461914 45.2742L1.77405 69.155L7.285 71.2545Z" fill="url(#paint11_linear_312_27096)"/>
<path fill-rule="evenodd" clip-rule="evenodd" d="M7.28418 55.5109L8.59632 54.7236L41.3997 66.008V67.3201L7.28418 55.5109Z" fill="url(#paint12_linear_312_27096)"/>
<path fill-rule="evenodd" clip-rule="evenodd" d="M75.5149 55.5109L73.9404 54.7236L41.3994 66.008V67.3201L75.5149 55.5109Z" fill="url(#paint13_linear_312_27096)"/>
<path fill-rule="evenodd" clip-rule="evenodd" d="M7.28418 6.69922L8.59632 8.01135V54.7234L7.28418 55.5107V6.69922Z" fill="url(#paint14_linear_312_27096)"/>
<path fill-rule="evenodd" clip-rule="evenodd" d="M41.4003 100.647V67.3185L7.28479 55.5092L5.97266 54.9844V88.3126L41.4003 100.647Z" fill="url(#paint15_linear_312_27096)"/>
<path fill-rule="evenodd" clip-rule="evenodd" d="M41.3994 67.3185V100.647L76.8271 88.3126V54.9844L75.5149 55.5092L41.3994 67.3185Z" fill="url(#paint16_linear_312_27096)"/>
<path fill-rule="evenodd" clip-rule="evenodd" d="M41.4003 99.3356L7.28479 87.5264L5.97266 88.3136L41.4003 100.648V99.3356Z" fill="url(#paint17_linear_312_27096)"/>
<path fill-rule="evenodd" clip-rule="evenodd" d="M75.5149 87.5264L41.3994 99.3356V100.648L76.8271 88.3136L75.5149 87.5264Z" fill="url(#paint18_linear_312_27096)"/>
<path fill-rule="evenodd" clip-rule="evenodd" d="M5.97286 5.64941V41.6019L0.461914 45.2759L1.77405 69.1568L5.97286 70.7313V88.314L7.285 87.5267V71.2562V56.0354V40.5522V6.69912L5.97286 5.64941Z" fill="url(#paint19_linear_312_27096)"/>
<path fill-rule="evenodd" clip-rule="evenodd" d="M80.7619 50.5232L77.0879 48.4238V63.907L79.9746 62.3325L80.7619 50.5232Z" fill="#808080"/>
<path fill-rule="evenodd" clip-rule="evenodd" d="M8.59668 8.01053V54.7226L41.4001 66.0069L73.9411 54.7226V8.01053L41.4001 3.02441L8.59668 8.01053Z" fill="url(#paint20_radial_312_27096)"/>
<path fill-rule="evenodd" clip-rule="evenodd" d="M20.9277 58.9215L66.8525 6.96094L73.938 8.01065V54.7227L41.397 66.007L20.9277 58.9215Z" fill="url(#paint21_radial_312_27096)"/>
<path fill-rule="evenodd" clip-rule="evenodd" d="M13.5801 11.9472V20.3449L12.268 19.0328V11.1599L41.3974 6.96111L60.2922 9.58538V10.8975L41.3974 8.27325L13.5801 11.9472ZM13.5801 21.1322V36.3529L11.7432 38.1899V52.361L41.3974 62.5957L71.0517 52.361V28.4801L70.5268 27.9553L69.2147 26.6431V11.9472L60.817 10.8975V9.58538V9.06053L41.3974 6.17383L11.7432 10.6351V19.5576L13.5801 21.1322ZM13.5801 37.1402V51.0489L34.3119 58.3968V59.709L12.268 52.0986V38.4524L13.5801 37.1402ZM34.8367 58.6593L41.3974 61.0211L47.9581 58.6593V59.9714L41.3974 62.3332L34.8367 59.9714V58.6593ZM48.483 58.3968L69.2147 51.0489V27.4304L70.5268 28.7426V52.0986L48.483 59.709V58.3968ZM14.105 12.4721V50.524L41.3974 59.9714L68.6898 50.524V12.4721L41.3974 8.53567L14.105 12.4721Z" fill="url(#paint22_radial_312_27096)"/>
<path fill-rule="evenodd" clip-rule="evenodd" d="M7.28479 6.69864L41.4003 1.71253V0.400391L5.97266 5.64893L7.28479 6.69864Z" fill="url(#paint23_linear_312_27096)"/>
<path fill-rule="evenodd" clip-rule="evenodd" d="M41.3997 1.71191L7.28418 6.69803L8.59632 8.01017L41.3997 3.02405V1.71191Z" fill="url(#paint24_linear_312_27096)"/>
<path fill-rule="evenodd" clip-rule="evenodd" d="M75.5159 6.69922L73.9414 8.01135V54.7234L75.5159 55.5107V6.69922Z" fill="url(#paint25_linear_312_27096)"/>
<path fill-rule="evenodd" clip-rule="evenodd" d="M75.5149 6.69864L41.3994 1.71253V0.400391L76.8271 5.64893L75.5149 6.69864Z" fill="url(#paint26_linear_312_27096)"/>
<path fill-rule="evenodd" clip-rule="evenodd" d="M41.3994 1.71191L75.5149 6.69803L73.9404 8.01017L41.3994 3.02405V1.71191Z" fill="url(#paint27_linear_312_27096)"/>
<path fill-rule="evenodd" clip-rule="evenodd" d="M71.0526 27.6929V10.6351L61.3428 9.06055V10.3727L69.7404 11.6848V26.3807L71.0526 27.6929Z" fill="#CCCC14"/>
<path fill-rule="evenodd" clip-rule="evenodd" d="M11.7432 20.3438V37.4015L12.7929 36.0894V21.3935L11.7432 20.3438Z" fill="#CCCC14"/>
<path fill-rule="evenodd" clip-rule="evenodd" d="M41.3995 60.7596L34.8389 58.6602V59.9723L41.3995 62.0717L47.6978 59.9723V58.6602L41.3995 60.7596Z" fill="url(#paint28_radial_312_27096)"/>
<path fill-rule="evenodd" clip-rule="evenodd" d="M41.3968 73.8799L40.6095 67.844L13.0547 57.6094L41.3968 67.3192V73.8799Z" fill="white"/>
<path fill-rule="evenodd" clip-rule="evenodd" d="M7.28479 33.991L6.75995 6.69859L5.97266 5.64888L7.28479 6.17373L18.3068 5.12402L7.28479 6.69859V33.991Z" fill="white"/>
<path fill-rule="evenodd" clip-rule="evenodd" d="M22.2402 4.59923L40.8725 1.4501L41.3974 0.400391V1.71253L22.2402 4.59923Z" fill="white"/>
<path opacity="0.5" d="M58.456 85.9521H67.1161V83.3279H61.0803V73.0932H58.1936V85.9521H58.456ZM47.9589 85.9521H56.8815V83.3279H50.8456V80.4412H56.0942V77.8169H50.8456V75.7175H56.8815V73.0932H47.9589V85.9521ZM42.7104 85.9521L46.9092 73.6181V72.5684L44.285 72.8308L41.6607 80.7036L41.3982 82.0157L41.1358 80.7036L38.5116 72.8308L35.8873 72.5684V73.6181L40.0861 85.9521H42.7104ZM25.9151 85.9521H34.8376V83.3279H28.8018V80.4412H34.0503V77.8169H28.8018V75.7175H34.8376V73.0932H25.9151V85.9521ZM15.6804 85.9521H24.3405V83.3279H18.3047V73.0932H15.418V85.9521H15.6804Z" fill="#4D5E6E"/>
<path d="M58.456 84.9026H67.1161V82.2783H61.0803V72.0437H58.1936V84.9026H58.456ZM47.9589 84.9026H56.8815V82.2783H50.8456V79.3916H56.0942V76.7674H50.8456V74.6679H56.8815V72.0437H47.9589V84.9026ZM42.7104 84.9026L46.9092 72.5685L44.285 71.7812L41.6607 79.6541L41.3982 80.9662L41.1358 79.6541L38.5116 71.7812L35.8873 72.5685L40.0861 84.9026H42.7104ZM25.9151 84.9026H34.8376V82.2783H28.8018V79.3916H34.0503V76.7674H28.8018V74.6679H34.8376V72.0437H25.9151V84.9026ZM15.6804 84.9026H24.3405V82.2783H18.3047V72.0437H15.418V84.9026H15.6804Z" fill="url(#paint29_linear_312_27096)"/>
<path fill-rule="evenodd" clip-rule="evenodd" d="M9.37988 75.1924C9.37988 75.7172 9.6423 75.9797 9.90473 75.9797H11.4793C11.7417 75.9797 12.0042 75.7172 12.0042 75.4548V75.1924C11.2169 75.1924 10.4296 75.1924 9.37988 75.1924Z" fill="url(#paint30_linear_312_27096)"/>
<path fill-rule="evenodd" clip-rule="evenodd" d="M11.7394 74.667H10.1648C9.90236 74.667 9.90234 74.9294 9.90234 74.9294C9.90234 75.1918 10.1648 75.1918 10.1648 75.1918H11.7394C12.0018 75.1918 12.0018 74.9294 12.0018 74.9294C12.0018 74.667 12.0018 74.667 11.7394 74.667Z" fill="url(#paint31_linear_312_27096)"/>
<path fill-rule="evenodd" clip-rule="evenodd" d="M9.37988 78.3418C9.37988 78.8667 9.6423 79.1291 9.90473 79.1291H11.4793C11.7417 79.1291 12.0042 78.8666 12.0042 78.6042V78.3418C11.2169 78.3418 10.4296 78.3418 9.37988 78.3418Z" fill="url(#paint32_linear_312_27096)"/>
<path fill-rule="evenodd" clip-rule="evenodd" d="M11.7394 77.8164H10.1648C9.90236 77.8164 9.90234 78.0788 9.90234 78.0788C9.90234 78.3413 10.1648 78.3413 10.1648 78.3413H11.7394C12.0018 78.3413 12.0018 78.0788 12.0018 78.0788C12.0018 78.0788 12.0018 77.8164 11.7394 77.8164Z" fill="url(#paint33_linear_312_27096)"/>
<path fill-rule="evenodd" clip-rule="evenodd" d="M9.37988 81.7529C9.37988 82.2778 9.6423 82.5402 9.90473 82.5402H11.4793C11.7417 82.5402 12.0042 82.2778 12.0042 82.0154V81.7529C11.2169 81.7529 10.4296 81.7529 9.37988 81.7529Z" fill="url(#paint34_linear_312_27096)"/>
<path fill-rule="evenodd" clip-rule="evenodd" d="M11.7394 81.2275H10.1648C9.90236 81.2275 9.90234 81.49 9.90234 81.49C9.90234 81.7524 10.1648 81.7524 10.1648 81.7524H11.7394C12.0018 81.7524 12.0018 81.49 12.0018 81.49C12.0018 81.2275 12.0018 81.2275 11.7394 81.2275Z" fill="url(#paint35_linear_312_27096)"/>
<path fill-rule="evenodd" clip-rule="evenodd" d="M11.741 74.4053H10.1664C9.90402 74.4053 9.6416 74.6677 9.6416 74.9301C9.6416 75.1926 9.90402 75.455 10.1664 75.455H11.741C12.0035 75.455 12.2659 75.1926 12.2659 74.9301C12.2659 74.6677 12.0035 74.4053 11.741 74.4053Z" fill="url(#paint36_linear_312_27096)"/>
<path fill-rule="evenodd" clip-rule="evenodd" d="M11.741 77.8164H10.1664C9.90402 77.8164 9.6416 78.0788 9.6416 78.3413C9.6416 78.6037 9.90402 78.8661 10.1664 78.8661H11.741C12.0035 78.8661 12.2659 78.6037 12.2659 78.3413C12.2659 78.0788 12.0035 77.8164 11.741 77.8164Z" fill="url(#paint37_linear_312_27096)"/>
<path fill-rule="evenodd" clip-rule="evenodd" d="M11.741 80.9658H10.1664C9.90402 80.9658 9.6416 81.2282 9.6416 81.4907C9.6416 81.7531 9.90402 82.0155 10.1664 82.0155H11.741C12.0035 82.0155 12.2659 81.7531 12.2659 81.4907C12.2659 81.2282 12.0035 80.9658 11.741 80.9658Z" fill="url(#paint38_linear_312_27096)"/>
<path fill-rule="evenodd" clip-rule="evenodd" d="M70.2666 75.1924C70.2666 75.7172 70.5291 75.9797 70.7915 75.9797H72.366C72.6285 75.9797 72.8909 75.7172 72.8909 75.4548V75.1924C72.1036 75.1924 71.3163 75.1924 70.2666 75.1924Z" fill="url(#paint39_linear_312_27096)"/>
<path fill-rule="evenodd" clip-rule="evenodd" d="M72.626 74.667H71.0515C70.789 74.667 70.7891 74.9294 70.7891 74.9294C70.7891 75.1918 71.0515 75.1918 71.0515 75.1918H72.626C72.8885 75.1918 72.8884 74.9294 72.8884 74.9294C72.8884 74.667 72.8885 74.667 72.626 74.667Z" fill="url(#paint40_linear_312_27096)"/>
<path fill-rule="evenodd" clip-rule="evenodd" d="M70.2666 78.3418C70.2666 78.8667 70.5291 79.1291 70.7915 79.1291H72.366C72.6285 79.1291 72.8909 78.8666 72.8909 78.6042V78.3418C72.1036 78.3418 71.3163 78.3418 70.2666 78.3418Z" fill="url(#paint41_linear_312_27096)"/>
<path fill-rule="evenodd" clip-rule="evenodd" d="M72.626 77.8164H71.0515C70.789 77.8164 70.7891 78.0788 70.7891 78.0788C70.7891 78.3413 71.0515 78.3413 71.0515 78.3413H72.626C72.8885 78.3413 72.8884 78.0788 72.8884 78.0788C72.8884 78.0788 72.8885 77.8164 72.626 77.8164Z" fill="url(#paint42_linear_312_27096)"/>
<path fill-rule="evenodd" clip-rule="evenodd" d="M70.2666 81.7529C70.2666 82.2778 70.5291 82.5402 70.7915 82.5402H72.366C72.6285 82.5402 72.8909 82.2778 72.8909 82.0154V81.7529C72.1036 81.7529 71.3163 81.7529 70.2666 81.7529Z" fill="url(#paint43_linear_312_27096)"/>
<path fill-rule="evenodd" clip-rule="evenodd" d="M72.626 81.2275H71.0515C70.789 81.2275 70.7891 81.49 70.7891 81.49C70.7891 81.7524 71.0515 81.7524 71.0515 81.7524H72.626C72.8885 81.7524 72.8884 81.49 72.8884 81.49C72.8884 81.2275 72.8885 81.2275 72.626 81.2275Z" fill="url(#paint44_linear_312_27096)"/>
<path fill-rule="evenodd" clip-rule="evenodd" d="M72.6277 74.4053H71.0532C70.7907 74.4053 70.5283 74.6677 70.5283 74.9301C70.5283 75.1926 70.7907 75.455 71.0532 75.455H72.6277C72.8902 75.455 73.1526 75.1926 73.1526 74.9301C73.1526 74.6677 72.8902 74.4053 72.6277 74.4053Z" fill="url(#paint45_linear_312_27096)"/>
<path fill-rule="evenodd" clip-rule="evenodd" d="M72.6277 77.8164H71.0532C70.7907 77.8164 70.5283 78.0788 70.5283 78.3413C70.5283 78.6037 70.7907 78.8661 71.0532 78.8661H72.6277C72.8902 78.8661 73.1526 78.6037 73.1526 78.3413C73.1526 78.0788 72.8902 77.8164 72.6277 77.8164Z" fill="url(#paint46_linear_312_27096)"/>
<path fill-rule="evenodd" clip-rule="evenodd" d="M72.6277 80.9658H71.0532C70.7907 80.9658 70.5283 81.2282 70.5283 81.4907C70.5283 81.7531 70.7907 82.0155 71.0532 82.0155H72.6277C72.8902 82.0155 73.1526 81.7531 73.1526 81.4907C73.1526 81.2282 72.8902 80.9658 72.6277 80.9658Z" fill="url(#paint47_linear_312_27096)"/>
<path fill-rule="evenodd" clip-rule="evenodd" d="M82.3378 45.2759L76.8268 41.6019V5.64941L75.5146 6.69912V40.5522V56.0354V71.2562V87.5267L76.8268 88.314V70.7313L81.0256 69.1568L82.3378 45.2759Z" fill="url(#paint48_linear_312_27096)"/>
<path fill-rule="evenodd" clip-rule="evenodd" d="M2.03613 50.5232L5.44769 48.4238V63.907L2.56102 62.3325L2.03613 50.5232Z" fill="url(#paint49_linear_312_27096)"/>
<path fill-rule="evenodd" clip-rule="evenodd" d="M2.8252 51.0468L4.66218 49.9971V62.3311L3.61248 61.8063L2.8252 51.0468Z" fill="url(#paint50_radial_312_27096)"/>
<path fill-rule="evenodd" clip-rule="evenodd" d="M2.55859 62.3315L3.60829 61.8066L4.65798 62.3315L5.44527 63.9061L2.55859 62.3315Z" fill="url(#paint51_linear_312_27096)"/>
<path fill-rule="evenodd" clip-rule="evenodd" d="M2.82342 51.0481L2.03613 50.5232L5.44769 48.4238L4.6604 49.9984L2.82342 51.0481Z" fill="url(#paint52_linear_312_27096)"/>
<path fill-rule="evenodd" clip-rule="evenodd" d="M2.03613 50.5225L2.82342 51.0473L3.61071 61.8068L2.56102 62.3317L2.03613 50.5225Z" fill="url(#paint53_linear_312_27096)"/>
<path fill-rule="evenodd" clip-rule="evenodd" d="M4.66016 62.3325V49.9984L5.44745 48.4238V63.907L4.66016 62.3325Z" fill="url(#paint54_linear_312_27096)"/>
<path fill-rule="evenodd" clip-rule="evenodd" d="M80.7609 50.5232L77.0869 48.4238V63.907L79.9736 62.3325L80.7609 50.5232Z" fill="url(#paint55_linear_312_27096)"/>
<path fill-rule="evenodd" clip-rule="evenodd" d="M79.7123 51.0468L78.1377 49.9971V62.3311L79.1874 61.8063L79.7123 51.0468Z" fill="url(#paint56_radial_312_27096)"/>
<path fill-rule="evenodd" clip-rule="evenodd" d="M79.9736 62.3315L79.1863 61.8066L78.1366 62.3315L77.0869 63.9061L79.9736 62.3315Z" fill="url(#paint57_linear_312_27096)"/>
<path fill-rule="evenodd" clip-rule="evenodd" d="M79.7112 51.0481L80.7609 50.5232L77.0869 48.4238L78.1366 49.9984L79.7112 51.0481Z" fill="url(#paint58_linear_312_27096)"/>
<path fill-rule="evenodd" clip-rule="evenodd" d="M80.763 50.5225L79.7133 51.0473L79.1885 61.8068L79.9758 62.3317L80.763 50.5225Z" fill="url(#paint59_linear_312_27096)"/>
<path fill-rule="evenodd" clip-rule="evenodd" d="M78.1366 62.3325V49.9984L77.0869 48.4238V63.907L78.1366 62.3325Z" fill="url(#paint60_linear_312_27096)"/>
<path d="M29.5898 42.914L35.1008 48.4249H47.4349L52.9459 42.914V34.5163L47.4349 29.0053H39.0372L36.413 29.5302V25.8562L37.9875 24.2817H45.8604L51.1089 26.1186L52.9459 20.3452L46.9101 17.9834H35.1008L29.5898 23.4944V42.914ZM44.5482 35.3036L46.1228 36.8782V40.2897L44.5482 41.8643H37.9875L36.413 40.2897V35.566L37.9875 35.3036H44.5482Z" fill="url(#paint61_linear_312_27096)"/>
<defs>
<linearGradient id="paint0_linear_312_27096" x1="75.4044" y1="54.298" x2="82.2171" y2="54.298" gradientUnits="userSpaceOnUse">
<stop stop-color="#1B3840"/>
<stop offset="1" stop-color="#204954"/>
</linearGradient>
<radialGradient id="paint1_radial_312_27096" cx="0" cy="0" r="1" gradientUnits="userSpaceOnUse" gradientTransform="translate(41.3467 103.84) scale(12.8605 12.8605)">
<stop stop-color="#B3FFF2"/>
<stop offset="0.3089" stop-color="#B1FFF2"/>
<stop offset="0.4601" stop-color="#A9FFF0"/>
<stop offset="0.5772" stop-color="#9CFFEE"/>
<stop offset="0.6767" stop-color="#89FFEB"/>
<stop offset="0.765" stop-color="#71FFE7"/>
<stop offset="0.8454" stop-color="#54FFE2"/>
<stop offset="0.9198" stop-color="#30FFDC"/>
<stop offset="0.9876" stop-color="#08FFD5"/>
<stop offset="1" stop-color="#00FFD4"/>
</radialGradient>
<linearGradient id="paint2_linear_312_27096" x1="55.1359" y1="92.0264" x2="56.633" y2="92.0264" gradientUnits="userSpaceOnUse">
<stop stop-color="#335D94"/>
<stop offset="1" stop-color="#204270"/>
</linearGradient>
<linearGradient id="paint3_linear_312_27096" x1="53.6393" y1="91.494" x2="55.1365" y2="91.494" gradientUnits="userSpaceOnUse">
<stop stop-color="#4E76A6"/>
<stop offset="1" stop-color="#87B5F5"/>
</linearGradient>
<linearGradient id="paint4_linear_312_27096" x1="27.5593" y1="91.494" x2="29.0564" y2="91.494" gradientUnits="userSpaceOnUse">
<stop stop-color="#335D94"/>
<stop offset="1" stop-color="#204270"/>
</linearGradient>
<linearGradient id="paint5_linear_312_27096" x1="26.0628" y1="92.0264" x2="27.5599" y2="92.0264" gradientUnits="userSpaceOnUse">
<stop stop-color="#4E76A6"/>
<stop offset="1" stop-color="#87B5F5"/>
</linearGradient>
<linearGradient id="paint6_linear_312_27096" x1="26.0628" y1="103.826" x2="41.3489" y2="103.826" gradientUnits="userSpaceOnUse">
<stop stop-color="#2F5382"/>
<stop offset="1" stop-color="#446DA3"/>
</linearGradient>
<linearGradient id="paint7_linear_312_27096" x1="27.5593" y1="102.5" x2="41.3483" y2="102.5" gradientUnits="userSpaceOnUse">
<stop stop-color="#4E76A6"/>
<stop offset="1" stop-color="#87B5F5"/>
</linearGradient>
<linearGradient id="paint8_linear_312_27096" x1="41.3498" y1="103.826" x2="56.6357" y2="103.826" gradientUnits="userSpaceOnUse">
<stop stop-color="#204270"/>
<stop offset="1" stop-color="#335D94"/>
</linearGradient>
<linearGradient id="paint9_linear_312_27096" x1="41.3498" y1="102.5" x2="55.1386" y2="102.5" gradientUnits="userSpaceOnUse">
<stop stop-color="#77A5D6"/>
<stop offset="1" stop-color="#99C5FF"/>
</linearGradient>
<radialGradient id="paint10_radial_312_27096" cx="0" cy="0" r="1" gradientUnits="userSpaceOnUse" gradientTransform="translate(41.4848 85.9898) scale(33.3036 33.3036)">
<stop offset="0.2045" stop-color="#00FFFF"/>
<stop offset="0.2262" stop-color="#00F2F2"/>
<stop offset="0.3441" stop-color="#00B3B3"/>
<stop offset="0.4606" stop-color="#007D7D"/>
<stop offset="0.5728" stop-color="#005050"/>
<stop offset="0.68" stop-color="#002D2D"/>
<stop offset="0.7809" stop-color="#001414"/>
<stop offset="0.8729" stop-color="#000505"/>
<stop offset="0.948"/>
</radialGradient>
<linearGradient id="paint11_linear_312_27096" x1="0.483433" y1="54.298" x2="7.29602" y2="54.298" gradientUnits="userSpaceOnUse">
<stop stop-color="#204954"/>
<stop offset="1" stop-color="#1B3840"/>
</linearGradient>
<linearGradient id="paint12_linear_312_27096" x1="7.2952" y1="61.0164" x2="41.3496" y2="61.0164" gradientUnits="userSpaceOnUse">
<stop stop-color="#4E76A6"/>
<stop offset="1" stop-color="#87B5F5"/>
</linearGradient>
<linearGradient id="paint13_linear_312_27096" x1="41.3493" y1="61.0164" x2="75.4047" y2="61.0164" gradientUnits="userSpaceOnUse">
<stop stop-color="#77A5D6"/>
<stop offset="1" stop-color="#99C5FF"/>
</linearGradient>
<linearGradient id="paint14_linear_312_27096" x1="7.2952" y1="31.0811" x2="8.65064" y2="31.0811" gradientUnits="userSpaceOnUse">
<stop stop-color="#335D94"/>
<stop offset="1" stop-color="#204270"/>
</linearGradient>
<linearGradient id="paint15_linear_312_27096" x1="41.1479" y1="67.4846" x2="3.68166" y2="89.7617" gradientUnits="userSpaceOnUse">
<stop stop-color="#87B5F5"/>
<stop offset="1" stop-color="#6A94C4"/>
</linearGradient>
<linearGradient id="paint16_linear_312_27096" x1="41.0921" y1="67.1844" x2="77.9797" y2="89.1723" gradientUnits="userSpaceOnUse">
<stop stop-color="#335D94"/>
<stop offset="1" stop-color="#42689C"/>
</linearGradient>
<linearGradient id="paint17_linear_312_27096" x1="5.93985" y1="94.0645" x2="41.3502" y2="94.0645" gradientUnits="userSpaceOnUse">
<stop stop-color="#2F5382"/>
<stop offset="1" stop-color="#446DA3"/>
</linearGradient>
<linearGradient id="paint18_linear_312_27096" x1="41.3493" y1="94.0645" x2="76.7602" y2="94.0645" gradientUnits="userSpaceOnUse">
<stop stop-color="#204270"/>
<stop offset="1" stop-color="#335D94"/>
</linearGradient>
<linearGradient id="paint19_linear_312_27096" x1="0.483433" y1="46.9859" x2="7.29575" y2="46.9859" gradientUnits="userSpaceOnUse">
<stop stop-color="#4E76A6"/>
<stop offset="1" stop-color="#87B5F5"/>
</linearGradient>
<radialGradient id="paint20_radial_312_27096" cx="0" cy="0" r="1" gradientUnits="userSpaceOnUse" gradientTransform="translate(41.3502 3.15563) scale(63.0442 63.0442)">
<stop stop-color="#0056BF"/>
<stop offset="0.1352" stop-color="#02429F"/>
<stop offset="0.2857" stop-color="#043183"/>
<stop offset="0.4168" stop-color="#052671"/>
<stop offset="0.513" stop-color="#05226B"/>
<stop offset="0.6195" stop-color="#072060"/>
<stop offset="0.8351" stop-color="#091D50"/>
<stop offset="1" stop-color="#0A1C4A"/>
</radialGradient>
<radialGradient id="paint21_radial_312_27096" cx="0" cy="0" r="1" gradientUnits="userSpaceOnUse" gradientTransform="translate(28.6234 -9.31165) scale(83.3899 83.3899)">
<stop offset="7e-08" stop-color="#284580"/>
<stop offset="1"/>
</radialGradient>
<radialGradient id="paint22_radial_312_27096" cx="0" cy="0" r="1" gradientUnits="userSpaceOnUse" gradientTransform="translate(12.9669 10.8217) scale(84.4501 84.4501)">
<stop stop-color="#67DBFF"/>
<stop offset="1" stop-color="#0068DE"/>
</radialGradient>
<linearGradient id="paint23_linear_312_27096" x1="5.93985" y1="3.49887" x2="41.3502" y2="3.49887" gradientUnits="userSpaceOnUse">
<stop stop-color="#7996B5"/>
<stop offset="1" stop-color="#CCE2FF"/>
</linearGradient>
<linearGradient id="paint24_linear_312_27096" x1="7.2952" y1="4.84136" x2="41.3496" y2="4.84136" gradientUnits="userSpaceOnUse">
<stop stop-color="#204270"/>
<stop offset="1" stop-color="#335D94"/>
</linearGradient>
<linearGradient id="paint25_linear_312_27096" x1="74.0498" y1="31.0811" x2="75.4057" y2="31.0811" gradientUnits="userSpaceOnUse">
<stop stop-color="#4E76A6"/>
<stop offset="1" stop-color="#87B5F5"/>
</linearGradient>
<linearGradient id="paint26_linear_312_27096" x1="41.3493" y1="3.49887" x2="76.7599" y2="3.49887" gradientUnits="userSpaceOnUse">
<stop stop-color="#87B5F5"/>
<stop offset="1" stop-color="#4E76A6"/>
</linearGradient>
<linearGradient id="paint27_linear_312_27096" x1="41.3493" y1="4.84136" x2="75.4047" y2="4.84136" gradientUnits="userSpaceOnUse">
<stop stop-color="#2F5382"/>
<stop offset="1" stop-color="#446DA3"/>
</linearGradient>
<radialGradient id="paint28_radial_312_27096" cx="0" cy="0" r="1" gradientUnits="userSpaceOnUse" gradientTransform="translate(41.3497 60.3746) scale(6.31663 6.31662)">
<stop stop-color="#0062B7"/>
<stop offset="1"/>
</radialGradient>
<linearGradient id="paint29_linear_312_27096" x1="41.3487" y1="84.7916" x2="41.3487" y2="71.6267" gradientUnits="userSpaceOnUse">
<stop stop-color="#C2D6F2"/>
<stop offset="1" stop-color="#E6F5FF"/>
</linearGradient>
<linearGradient id="paint30_linear_312_27096" x1="10.9072" y1="75.9183" x2="10.9072" y2="75.0908" gradientUnits="userSpaceOnUse">
<stop stop-color="#2B3336"/>
<stop offset="0.0166703" stop-color="#2C3C41"/>
<stop offset="0.0981146" stop-color="#316473"/>
<stop offset="0.1814" stop-color="#36869E"/>
<stop offset="0.2651" stop-color="#3AA2C1"/>
<stop offset="0.3494" stop-color="#3CB8DC"/>
<stop offset="0.4347" stop-color="#3EC8F0"/>
<stop offset="0.5213" stop-color="#40D1FB"/>
<stop offset="0.6115" stop-color="#40D4FF"/>
</linearGradient>
<linearGradient id="paint31_linear_312_27096" x1="10.9048" y1="75.2722" x2="10.9048" y2="74.5586" gradientUnits="userSpaceOnUse">
<stop/>
<stop offset="1" stop-color="#78FAFF"/>
</linearGradient>
<linearGradient id="paint32_linear_312_27096" x1="10.9072" y1="79.2382" x2="10.9072" y2="78.4106" gradientUnits="userSpaceOnUse">
<stop stop-color="#2B3336"/>
<stop offset="0.0166703" stop-color="#293B41"/>
<stop offset="0.0981146" stop-color="#1E6073"/>
<stop offset="0.1814" stop-color="#15809E"/>
<stop offset="0.2651" stop-color="#0D9AC1"/>
<stop offset="0.3494" stop-color="#07AEDC"/>
<stop offset="0.4347" stop-color="#03BDF0"/>
<stop offset="0.5213" stop-color="#01C5FB"/>
<stop offset="0.6115" stop-color="#00C8FF"/>
</linearGradient>
<linearGradient id="paint33_linear_312_27096" x1="10.9048" y1="78.5919" x2="10.9048" y2="77.8783" gradientUnits="userSpaceOnUse">
<stop/>
<stop offset="1" stop-color="#78FAFF"/>
</linearGradient>
<linearGradient id="paint34_linear_312_27096" x1="10.9072" y1="82.5153" x2="10.9072" y2="81.6878" gradientUnits="userSpaceOnUse">
<stop stop-color="#2B3336"/>
<stop offset="0.0166703" stop-color="#2C3C41"/>
<stop offset="0.0981146" stop-color="#316473"/>
<stop offset="0.1814" stop-color="#36869E"/>
<stop offset="0.2651" stop-color="#3AA2C1"/>
<stop offset="0.3494" stop-color="#3CB8DC"/>
<stop offset="0.4347" stop-color="#3EC8F0"/>
<stop offset="0.5213" stop-color="#40D1FB"/>
<stop offset="0.6115" stop-color="#40D4FF"/>
</linearGradient>
<linearGradient id="paint35_linear_312_27096" x1="10.9048" y1="81.8692" x2="10.9048" y2="81.1556" gradientUnits="userSpaceOnUse">
<stop/>
<stop offset="1" stop-color="#78FAFF"/>
</linearGradient>
<linearGradient id="paint36_linear_312_27096" x1="10.9065" y1="75.7434" x2="10.9065" y2="74.4386" gradientUnits="userSpaceOnUse">
<stop stop-color="#17ACFF"/>
<stop offset="1" stop-color="#78FAFF"/>
</linearGradient>
<linearGradient id="paint37_linear_312_27096" x1="10.9065" y1="79.0624" x2="10.9065" y2="77.7576" gradientUnits="userSpaceOnUse">
<stop stop-color="#17ACFF"/>
<stop offset="1" stop-color="#78FAFF"/>
</linearGradient>
<linearGradient id="paint38_linear_312_27096" x1="10.9065" y1="82.3404" x2="10.9065" y2="81.0356" gradientUnits="userSpaceOnUse">
<stop stop-color="#17ACFF"/>
<stop offset="1" stop-color="#78FAFF"/>
</linearGradient>
<linearGradient id="paint39_linear_312_27096" x1="71.7884" y1="75.9183" x2="71.7884" y2="75.0908" gradientUnits="userSpaceOnUse">
<stop stop-color="#2B3336"/>
<stop offset="0.0166703" stop-color="#2C3C41"/>
<stop offset="0.0981146" stop-color="#316473"/>
<stop offset="0.1814" stop-color="#36869E"/>
<stop offset="0.2651" stop-color="#3AA2C1"/>
<stop offset="0.3494" stop-color="#3CB8DC"/>
<stop offset="0.4347" stop-color="#3EC8F0"/>
<stop offset="0.5213" stop-color="#40D1FB"/>
<stop offset="0.6115" stop-color="#40D4FF"/>
</linearGradient>
<linearGradient id="paint40_linear_312_27096" x1="71.786" y1="75.2722" x2="71.786" y2="74.5586" gradientUnits="userSpaceOnUse">
<stop/>
<stop offset="1" stop-color="#78FAFF"/>
</linearGradient>
<linearGradient id="paint41_linear_312_27096" x1="71.7884" y1="79.2382" x2="71.7884" y2="78.4106" gradientUnits="userSpaceOnUse">
<stop stop-color="#2B3336"/>
<stop offset="0.0166703" stop-color="#2C3C41"/>
<stop offset="0.0981146" stop-color="#316473"/>
<stop offset="0.1814" stop-color="#36869E"/>
<stop offset="0.2651" stop-color="#3AA2C1"/>
<stop offset="0.3494" stop-color="#3CB8DC"/>
<stop offset="0.4347" stop-color="#3EC8F0"/>
<stop offset="0.5213" stop-color="#40D1FB"/>
<stop offset="0.6115" stop-color="#40D4FF"/>
</linearGradient>
<linearGradient id="paint42_linear_312_27096" x1="71.786" y1="78.5919" x2="71.786" y2="77.8783" gradientUnits="userSpaceOnUse">
<stop/>
<stop offset="1" stop-color="#78FAFF"/>
</linearGradient>
<linearGradient id="paint43_linear_312_27096" x1="71.7884" y1="82.5153" x2="71.7884" y2="81.6878" gradientUnits="userSpaceOnUse">
<stop stop-color="#2B3336"/>
<stop offset="0.0166703" stop-color="#2C3C41"/>
<stop offset="0.0981146" stop-color="#316473"/>
<stop offset="0.1814" stop-color="#36869E"/>
<stop offset="0.2651" stop-color="#3AA2C1"/>
<stop offset="0.3494" stop-color="#3CB8DC"/>
<stop offset="0.4347" stop-color="#3EC8F0"/>
<stop offset="0.5213" stop-color="#40D1FB"/>
<stop offset="0.6115" stop-color="#40D4FF"/>
</linearGradient>
<linearGradient id="paint44_linear_312_27096" x1="71.786" y1="81.8692" x2="71.786" y2="81.1556" gradientUnits="userSpaceOnUse">
<stop/>
<stop offset="1" stop-color="#78FAFF"/>
</linearGradient>
<linearGradient id="paint45_linear_312_27096" x1="71.7877" y1="75.7434" x2="71.7877" y2="74.4386" gradientUnits="userSpaceOnUse">
<stop stop-color="#17ACFF"/>
<stop offset="1" stop-color="#78FAFF"/>
</linearGradient>
<linearGradient id="paint46_linear_312_27096" x1="71.7877" y1="79.0624" x2="71.7877" y2="77.7576" gradientUnits="userSpaceOnUse">
<stop stop-color="#17ACFF"/>
<stop offset="1" stop-color="#78FAFF"/>
</linearGradient>
<linearGradient id="paint47_linear_312_27096" x1="71.7877" y1="82.3404" x2="71.7877" y2="81.0356" gradientUnits="userSpaceOnUse">
<stop stop-color="#17ACFF"/>
<stop offset="1" stop-color="#78FAFF"/>
</linearGradient>
<linearGradient id="paint48_linear_312_27096" x1="75.4044" y1="46.9859" x2="82.2168" y2="46.9859" gradientUnits="userSpaceOnUse">
<stop stop-color="#335D94"/>
<stop offset="1" stop-color="#204270"/>
</linearGradient>
<linearGradient id="paint49_linear_312_27096" x1="3.80805" y1="48.4107" x2="3.80805" y2="63.8895" gradientUnits="userSpaceOnUse">
<stop stop-color="#6287C9"/>
<stop offset="1" stop-color="#3B597D"/>
</linearGradient>
<radialGradient id="paint50_radial_312_27096" cx="0" cy="0" r="1" gradientUnits="userSpaceOnUse" gradientTransform="translate(3.8232 56.1489) scale(4.44707 4.44709)">
<stop stop-color="#F8FC86"/>
<stop offset="1" stop-color="#EDCE20"/>
</radialGradient>
<linearGradient id="paint51_linear_312_27096" x1="4.11451" y1="61.6956" x2="4.11451" y2="63.8885" gradientUnits="userSpaceOnUse">
<stop stop-color="#99B2BF"/>
<stop offset="1" stop-color="#9BBD67"/>
</linearGradient>
<linearGradient id="paint52_linear_312_27096" x1="3.80804" y1="48.4107" x2="3.80804" y2="50.9326" gradientUnits="userSpaceOnUse">
<stop stop-color="#94885C"/>
<stop offset="1" stop-color="#2C507A"/>
</linearGradient>
<linearGradient id="paint53_linear_312_27096" x1="2.78799" y1="50.4479" x2="2.78799" y2="62.2099" gradientUnits="userSpaceOnUse">
<stop stop-color="#739CB0"/>
<stop offset="1" stop-color="#476B96"/>
</linearGradient>
<linearGradient id="paint54_linear_312_27096" x1="5.12413" y1="48.4107" x2="5.12413" y2="63.8895" gradientUnits="userSpaceOnUse">
<stop stop-color="#739CB0"/>
<stop offset="1" stop-color="#476B96"/>
</linearGradient>
<linearGradient id="paint55_linear_312_27096" x1="78.889" y1="48.4107" x2="78.889" y2="63.8895" gradientUnits="userSpaceOnUse">
<stop stop-color="#6287C9"/>
<stop offset="1" stop-color="#3B597D"/>
</linearGradient>
<radialGradient id="paint56_radial_312_27096" cx="0" cy="0" r="1" gradientUnits="userSpaceOnUse" gradientTransform="translate(78.877 56.1489) rotate(180) scale(4.44714 4.44709)">
<stop stop-color="#F8FC86"/>
<stop offset="1" stop-color="#EDCE20"/>
</radialGradient>
<linearGradient id="paint57_linear_312_27096" x1="78.5804" y1="61.6956" x2="78.5804" y2="63.8885" gradientUnits="userSpaceOnUse">
<stop stop-color="#99B2BF"/>
<stop offset="1" stop-color="#9BBD67"/>
</linearGradient>
<linearGradient id="paint58_linear_312_27096" x1="78.889" y1="48.4107" x2="78.889" y2="50.9326" gradientUnits="userSpaceOnUse">
<stop stop-color="#94885C"/>
<stop offset="1" stop-color="#2C507A"/>
</linearGradient>
<linearGradient id="paint59_linear_312_27096" x1="79.9112" y1="50.4479" x2="79.9112" y2="62.2099" gradientUnits="userSpaceOnUse">
<stop stop-color="#739CB0"/>
<stop offset="1" stop-color="#476B96"/>
</linearGradient>
<linearGradient id="paint60_linear_312_27096" x1="77.5732" y1="48.4107" x2="77.5732" y2="63.8895" gradientUnits="userSpaceOnUse">
<stop stop-color="#739CB0"/>
<stop offset="1" stop-color="#476B96"/>
</linearGradient>
<linearGradient id="paint61_linear_312_27096" x1="52.7425" y1="42.8812" x2="31.5048" y2="21.6432" gradientUnits="userSpaceOnUse">
<stop stop-color="#17ACFF"/>
<stop offset="1" stop-color="#78FAFF"/>
</linearGradient>
</defs>
</svg>
