<svg width="83" height="121" viewBox="0 0 83 121" fill="none" xmlns="http://www.w3.org/2000/svg">
<path fill-rule="evenodd" clip-rule="evenodd" d="M75.6777 71.2545V37.4014L82.5009 45.2742L81.1887 69.155L75.6777 71.2545Z" fill="url(#paint0_linear_312_27324)"/>
<path fill-rule="evenodd" clip-rule="evenodd" d="M27.6523 82.2783V100.648L41.561 105.372L55.4696 100.648V82.2783H27.6523Z" fill="#9B9B9B"/>
<path fill-rule="evenodd" clip-rule="evenodd" d="M29.2246 82.2783V99.5985L41.5587 103.797L53.8928 99.5985V82.2783H29.2246Z" fill="url(#paint1_radial_312_27324)"/>
<path fill-rule="evenodd" clip-rule="evenodd" d="M55.4668 82.2783V100.648L56.7789 101.698V82.2783H55.4668Z" fill="url(#paint2_linear_312_27324)"/>
<path fill-rule="evenodd" clip-rule="evenodd" d="M55.469 100.648V82.2783H53.8945V99.5985L55.469 100.648Z" fill="url(#paint3_linear_312_27324)"/>
<path fill-rule="evenodd" clip-rule="evenodd" d="M29.2268 99.5985V82.2783H27.6523V100.648L29.2268 99.5985Z" fill="url(#paint4_linear_312_27324)"/>
<path fill-rule="evenodd" clip-rule="evenodd" d="M27.652 100.648V82.2783H26.3398V101.698L27.652 100.648Z" fill="url(#paint5_linear_312_27324)"/>
<path fill-rule="evenodd" clip-rule="evenodd" d="M31.3259 101.961L41.5606 105.372V106.947L31.3259 103.535L26.3398 101.698L27.652 100.648L31.3259 101.961Z" fill="url(#paint6_linear_312_27324)"/>
<path fill-rule="evenodd" clip-rule="evenodd" d="M41.561 105.371L31.3263 101.96L27.6523 100.647L29.2268 99.5977L31.3263 100.385L41.561 103.796V105.371Z" fill="url(#paint7_linear_312_27324)"/>
<path fill-rule="evenodd" clip-rule="evenodd" d="M41.5625 105.372L51.7971 101.961L55.4711 100.648L56.7832 101.698L51.7971 103.535L41.5625 106.947V105.372Z" fill="url(#paint8_linear_312_27324)"/>
<path fill-rule="evenodd" clip-rule="evenodd" d="M55.4711 100.647L51.7971 101.96L41.5625 105.371V103.796L51.7971 100.385L53.8966 99.5977L55.4711 100.647Z" fill="url(#paint9_linear_312_27324)"/>
<path fill-rule="evenodd" clip-rule="evenodd" d="M29.2246 95.3994H53.8928V120.068H29.2246V95.3994Z" fill="url(#paint10_radial_312_27324)"/>
<path fill-rule="evenodd" clip-rule="evenodd" d="M7.44812 71.2545V37.4014L0.625 45.2742L1.93714 69.155L7.44812 71.2545Z" fill="url(#paint11_linear_312_27324)"/>
<path fill-rule="evenodd" clip-rule="evenodd" d="M7.44727 55.5099L8.7594 54.7227L41.5628 66.007V67.3192L7.44727 55.5099Z" fill="url(#paint12_linear_312_27324)"/>
<path fill-rule="evenodd" clip-rule="evenodd" d="M75.678 55.5099L74.3659 54.7227L41.5625 66.007V67.3192L75.678 55.5099Z" fill="url(#paint13_linear_312_27324)"/>
<path fill-rule="evenodd" clip-rule="evenodd" d="M7.44727 6.69922L8.7594 8.01135V54.7234L7.44727 55.5107V6.69922Z" fill="url(#paint14_linear_312_27324)"/>
<path fill-rule="evenodd" clip-rule="evenodd" d="M41.5624 100.647V67.3185L7.4469 55.5092L6.13477 54.9844V88.3126L41.5624 100.647Z" fill="url(#paint15_linear_312_27324)"/>
<path fill-rule="evenodd" clip-rule="evenodd" d="M41.5625 67.3185V100.647L76.9902 88.3126V54.9844L75.678 55.5092L41.5625 67.3185Z" fill="url(#paint16_linear_312_27324)"/>
<path fill-rule="evenodd" clip-rule="evenodd" d="M41.5624 99.3356L7.4469 87.5264L6.13477 88.3136L41.5624 100.648V99.3356Z" fill="url(#paint17_linear_312_27324)"/>
<path fill-rule="evenodd" clip-rule="evenodd" d="M75.678 87.5264L41.5625 99.3356V100.648L76.9902 88.3136L75.678 87.5264Z" fill="url(#paint18_linear_312_27324)"/>
<path fill-rule="evenodd" clip-rule="evenodd" d="M6.13599 5.64844V41.601L0.625 45.2749L1.93714 69.1558L6.13599 70.7304V88.313L7.44812 87.5257V71.2552V56.0345V40.5512V6.69815L6.13599 5.64844Z" fill="url(#paint19_linear_312_27324)"/>
<path fill-rule="evenodd" clip-rule="evenodd" d="M80.9259 50.5232L77.252 48.4238V63.907L80.1387 62.3325L80.9259 50.5232Z" fill="#808080"/>
<path fill-rule="evenodd" clip-rule="evenodd" d="M8.75977 8.01053V54.7226L41.5632 66.0069L74.3665 54.7226V8.01053L41.5632 3.02441L8.75977 8.01053Z" fill="url(#paint20_radial_312_27324)"/>
<path fill-rule="evenodd" clip-rule="evenodd" d="M21.3516 58.9215L67.0139 6.96094L74.3619 8.01065V54.7227L41.5585 66.007L21.3516 58.9215Z" fill="url(#paint21_radial_312_27324)"/>
<path fill-rule="evenodd" clip-rule="evenodd" d="M13.7432 11.9472V20.3449L12.4311 19.0328V11.1599L41.5605 6.69868L60.4553 9.32295V10.6351L41.5605 8.01082L13.7432 11.9472ZM13.7432 21.1322V36.3529L11.9062 38.1899V52.361L41.5605 62.5957L71.2147 52.361V28.4801L70.6899 27.9553L69.3778 26.6431V11.9472L60.9801 10.8975V9.58538V9.06053L41.5605 6.17383L11.9062 10.6351V19.5576L13.7432 21.1322ZM13.7432 37.1402V51.0489L34.4749 58.3968V59.709L12.4311 52.0986V38.4524L13.7432 37.1402ZM34.9998 58.6593L41.5605 60.7587L48.1212 58.3968V59.709L41.5605 62.0708L34.9998 59.709V58.6593ZM48.646 58.3968L69.3778 51.0489V27.4304L70.6899 28.7426V52.0986L48.646 59.709V58.3968ZM14.2681 12.4721V50.524L41.5605 59.9714L68.8529 50.524V12.4721L41.5605 8.53567L14.2681 12.4721Z" fill="url(#paint22_radial_312_27324)"/>
<path fill-rule="evenodd" clip-rule="evenodd" d="M7.4469 6.69864L41.5624 1.71253V0.400391L6.13477 5.64893L7.4469 6.69864Z" fill="url(#paint23_linear_312_27324)"/>
<path fill-rule="evenodd" clip-rule="evenodd" d="M41.5628 1.71191L7.44727 6.69803L8.7594 8.01017L41.5628 3.02405V1.71191Z" fill="url(#paint24_linear_312_27324)"/>
<path fill-rule="evenodd" clip-rule="evenodd" d="M75.6774 6.69922L74.3652 8.01135V54.7234L75.6774 55.5107V6.69922Z" fill="url(#paint25_linear_312_27324)"/>
<path fill-rule="evenodd" clip-rule="evenodd" d="M75.678 6.69864L41.5625 1.71253V0.400391L76.9902 5.64893L75.678 6.69864Z" fill="url(#paint26_linear_312_27324)"/>
<path fill-rule="evenodd" clip-rule="evenodd" d="M41.5625 1.71191L75.678 6.69803L74.3659 8.01017L41.5625 3.02405V1.71191Z" fill="url(#paint27_linear_312_27324)"/>
<path fill-rule="evenodd" clip-rule="evenodd" d="M71.2156 27.6929V10.6351L61.5059 9.06055V10.3727L70.1659 11.6848V26.3807L71.2156 27.6929Z" fill="#CCCC14"/>
<path fill-rule="evenodd" clip-rule="evenodd" d="M11.9062 20.3438V37.4015L12.9559 36.0894V21.3935L11.9062 20.3438Z" fill="#CCCC14"/>
<path fill-rule="evenodd" clip-rule="evenodd" d="M41.5626 60.7596L35.002 58.6602V59.9723L41.5626 62.0717L48.1233 59.9723V58.6602L41.5626 60.7596Z" fill="url(#paint28_radial_312_27324)"/>
<path fill-rule="evenodd" clip-rule="evenodd" d="M41.5583 73.8799L40.771 67.844L13.4785 57.6094L41.5583 67.3192V73.8799Z" fill="white"/>
<path fill-rule="evenodd" clip-rule="evenodd" d="M7.44618 33.99L6.92129 6.69761L6.39648 5.6479L7.70862 6.17276L18.4681 5.12305L7.44618 6.69761V33.99Z" fill="white"/>
<path fill-rule="evenodd" clip-rule="evenodd" d="M22.4023 4.59923L41.2971 1.4501L41.5595 0.400391V1.71253L22.4023 4.59923Z" fill="white"/>
<path opacity="0.5" d="M58.6181 85.9521H67.2782V83.3279H61.2424V73.0932H58.3557V85.9521H58.6181ZM48.121 85.9521H57.0435V83.3279H51.0077V80.4412H56.2563V77.8169H51.0077V75.7175H57.0435V73.0932H48.121V85.9521ZM42.8725 85.9521L47.0713 73.6181V72.5684L44.4471 72.8308L41.8228 80.7036L41.5603 82.0157L41.2979 80.7036L38.6736 72.8308L36.0494 72.5684V73.6181L40.2482 85.9521H42.8725ZM26.0772 85.9521H34.9997V83.3279H28.9639V80.4412H34.2124V77.8169H28.9639V75.7175H34.9997V73.0932H26.0772V85.9521ZM15.8425 85.9521H24.5026V83.3279H18.4668V73.0932H15.5801V85.9521H15.8425Z" fill="#4D5E6E"/>
<path d="M58.6181 84.9016H67.2782V82.2774H61.2424V72.0427H58.3557V84.9016H58.6181ZM48.121 84.9016H57.0435V82.2774H51.0077V79.3907H56.2563V76.7664H51.0077V74.667H57.0435V72.0427H48.121V84.9016ZM42.8725 84.9016L47.0713 72.5676L44.4471 71.7803L41.8228 79.6531L41.5603 80.9652L41.2979 79.6531L38.6736 71.7803L36.0494 72.5676L40.2482 84.9016H42.8725ZM26.0772 84.9016H34.9997V82.2774H28.9639V79.3907H34.2124V76.7664H28.9639V74.667H34.9997V72.0427H26.0772V84.9016ZM15.8425 84.9016H24.5026V82.2774H18.4668V72.0427H15.5801V84.9016H15.8425Z" fill="url(#paint29_linear_312_27324)"/>
<path fill-rule="evenodd" clip-rule="evenodd" d="M9.54297 75.1924C9.54297 75.7172 9.80543 75.9797 10.0679 75.9797H11.6424C11.9049 75.9797 12.1672 75.7172 12.1672 75.4548V75.1924C11.38 75.1924 10.8551 75.1924 9.54297 75.1924Z" fill="url(#paint30_linear_312_27324)"/>
<path fill-rule="evenodd" clip-rule="evenodd" d="M11.9034 74.667H10.3288C10.0664 74.667 10.0664 74.9294 10.0664 74.9294C10.0664 75.1918 10.3288 75.1918 10.3288 75.1918H11.9034C12.1659 75.1918 12.1658 74.9294 12.1658 74.9294C12.4282 74.667 12.1659 74.667 11.9034 74.667Z" fill="url(#paint31_linear_312_27324)"/>
<path fill-rule="evenodd" clip-rule="evenodd" d="M9.54297 78.3418C9.54297 78.8667 9.80543 79.1291 10.0679 79.1291H11.6424C11.9049 79.1291 12.1672 78.8666 12.1672 78.6042V78.3418C11.38 78.3418 10.8551 78.3418 9.54297 78.3418Z" fill="url(#paint32_linear_312_27324)"/>
<path fill-rule="evenodd" clip-rule="evenodd" d="M11.9034 77.8164H10.3288C10.0664 77.8164 10.0664 78.0788 10.0664 78.0788C10.0664 78.3413 10.3288 78.3413 10.3288 78.3413H11.9034C12.1659 78.3413 12.1658 78.0788 12.1658 78.0788C12.4282 78.0788 12.1659 77.8164 11.9034 77.8164Z" fill="url(#paint33_linear_312_27324)"/>
<path fill-rule="evenodd" clip-rule="evenodd" d="M9.54297 81.7529C9.54297 82.2778 9.80543 82.5402 10.0679 82.5402H11.6424C11.9049 82.5402 12.1672 82.2778 12.1672 82.0154V81.7529C11.38 81.7529 10.8551 81.7529 9.54297 81.7529Z" fill="url(#paint34_linear_312_27324)"/>
<path fill-rule="evenodd" clip-rule="evenodd" d="M11.9034 81.2275H10.3288C10.0664 81.2275 10.0664 81.49 10.0664 81.49C10.0664 81.7524 10.3288 81.7524 10.3288 81.7524H11.9034C12.1659 81.7524 12.1658 81.49 12.1658 81.49C12.4282 81.2275 12.1659 81.2275 11.9034 81.2275Z" fill="url(#paint35_linear_312_27324)"/>
<path fill-rule="evenodd" clip-rule="evenodd" d="M11.9042 74.4053H10.3296C10.0671 74.4053 9.80469 74.6677 9.80469 74.9301C9.80469 75.1926 10.0671 75.455 10.3296 75.455H11.9042C12.1666 75.455 12.429 75.1926 12.429 74.9301C12.429 74.6677 12.1666 74.4053 11.9042 74.4053Z" fill="url(#paint36_linear_312_27324)"/>
<path fill-rule="evenodd" clip-rule="evenodd" d="M11.9042 77.8164H10.3296C10.0671 77.8164 9.80469 78.0788 9.80469 78.3413C9.80469 78.6037 10.0671 78.8661 10.3296 78.8661H11.9042C12.1666 78.8661 12.429 78.6037 12.429 78.3413C12.429 78.0788 12.1666 77.8164 11.9042 77.8164Z" fill="url(#paint37_linear_312_27324)"/>
<path fill-rule="evenodd" clip-rule="evenodd" d="M11.9042 80.9658H10.3296C10.0671 80.9658 9.80469 81.2282 9.80469 81.4907C9.80469 81.7531 10.0671 82.0155 10.3296 82.0155H11.9042C12.1666 82.0155 12.429 81.7531 12.429 81.4907C12.429 81.2282 12.1666 80.9658 11.9042 80.9658Z" fill="url(#paint38_linear_312_27324)"/>
<path fill-rule="evenodd" clip-rule="evenodd" d="M70.4297 75.1924C70.4297 75.7172 70.6921 75.9797 70.9546 75.9797H72.5291C72.7915 75.9797 73.054 75.7172 73.054 75.4548V75.1924C72.2667 75.1924 71.7418 75.1924 70.4297 75.1924Z" fill="url(#paint39_linear_312_27324)"/>
<path fill-rule="evenodd" clip-rule="evenodd" d="M72.7901 74.667H71.2155C70.9531 74.667 70.9531 74.9294 70.9531 74.9294C70.9531 75.1918 71.2155 75.1918 71.2155 75.1918H72.7901C73.0525 75.1918 73.0525 74.9294 73.0525 74.9294C73.3149 74.667 73.0525 74.667 72.7901 74.667Z" fill="url(#paint40_linear_312_27324)"/>
<path fill-rule="evenodd" clip-rule="evenodd" d="M70.4297 78.3418C70.4297 78.8667 70.6921 79.1291 70.9546 79.1291H72.5291C72.7915 79.1291 73.054 78.8666 73.054 78.6042V78.3418C72.2667 78.3418 71.7418 78.3418 70.4297 78.3418Z" fill="url(#paint41_linear_312_27324)"/>
<path fill-rule="evenodd" clip-rule="evenodd" d="M72.7901 77.8164H71.2155C70.9531 77.8164 70.9531 78.0788 70.9531 78.0788C70.9531 78.3413 71.2155 78.3413 71.2155 78.3413H72.7901C73.0525 78.3413 73.0525 78.0788 73.0525 78.0788C73.3149 78.0788 73.0525 77.8164 72.7901 77.8164Z" fill="url(#paint42_linear_312_27324)"/>
<path fill-rule="evenodd" clip-rule="evenodd" d="M70.4297 81.752C70.4297 82.2768 70.6921 82.5392 70.9546 82.5392H72.5291C72.7915 82.5392 73.054 82.2768 73.054 82.0144V81.752C72.2667 81.752 71.7418 81.752 70.4297 81.752Z" fill="url(#paint43_linear_312_27324)"/>
<path fill-rule="evenodd" clip-rule="evenodd" d="M72.7901 81.2275H71.2155C70.9531 81.2275 70.9531 81.49 70.9531 81.49C70.9531 81.7524 71.2155 81.7524 71.2155 81.7524H72.7901C73.0525 81.7524 73.0525 81.49 73.0525 81.49C73.3149 81.2275 73.0525 81.2275 72.7901 81.2275Z" fill="url(#paint44_linear_312_27324)"/>
<path fill-rule="evenodd" clip-rule="evenodd" d="M72.7908 74.4053H71.2162C70.9538 74.4053 70.6914 74.6677 70.6914 74.9301C70.6914 75.1926 70.9538 75.455 71.2162 75.455H72.7908C73.0532 75.455 73.3157 75.1926 73.3157 74.9301C73.3157 74.6677 73.0532 74.4053 72.7908 74.4053Z" fill="url(#paint45_linear_312_27324)"/>
<path fill-rule="evenodd" clip-rule="evenodd" d="M72.7908 77.8164H71.2162C70.9538 77.8164 70.6914 78.0788 70.6914 78.3413C70.6914 78.6037 70.9538 78.8661 71.2162 78.8661H72.7908C73.0532 78.8661 73.3157 78.6037 73.3157 78.3413C73.3157 78.0788 73.0532 77.8164 72.7908 77.8164Z" fill="url(#paint46_linear_312_27324)"/>
<path fill-rule="evenodd" clip-rule="evenodd" d="M72.7908 80.9658H71.2162C70.9538 80.9658 70.6914 81.2282 70.6914 81.4907C70.6914 81.7531 70.9538 82.0155 71.2162 82.0155H72.7908C73.0532 82.0155 73.3157 81.7531 73.3157 81.4907C73.3157 81.2282 73.0532 80.9658 72.7908 80.9658Z" fill="url(#paint47_linear_312_27324)"/>
<path fill-rule="evenodd" clip-rule="evenodd" d="M82.5009 45.2749L76.9899 41.601V5.64844L75.6777 6.69815V40.5512V56.0345V71.2552V87.5257L76.9899 88.313V70.7304L81.1887 69.1558L82.5009 45.2749Z" fill="url(#paint48_linear_312_27324)"/>
<path fill-rule="evenodd" clip-rule="evenodd" d="M2.19922 50.5232L5.87318 48.4238V63.907L2.98647 62.3325L2.19922 50.5232Z" fill="url(#paint49_linear_312_27324)"/>
<path fill-rule="evenodd" clip-rule="evenodd" d="M3.25 51.0468L4.82458 49.9971V62.3311L3.77489 61.8063L3.25 51.0468Z" fill="url(#paint50_radial_312_27324)"/>
<path fill-rule="evenodd" clip-rule="evenodd" d="M2.98828 62.3315L3.77561 61.8066L4.8253 62.3315L5.875 63.9061L2.98828 62.3315Z" fill="url(#paint51_linear_312_27324)"/>
<path fill-rule="evenodd" clip-rule="evenodd" d="M3.24891 51.0481L2.19922 50.5232L5.87318 48.4238L4.82349 49.9984L3.24891 51.0481Z" fill="url(#paint52_linear_312_27324)"/>
<path fill-rule="evenodd" clip-rule="evenodd" d="M2.19922 50.5225L3.24891 51.0473L3.7738 61.8068L2.98647 62.3317L2.19922 50.5225Z" fill="url(#paint53_linear_312_27324)"/>
<path fill-rule="evenodd" clip-rule="evenodd" d="M4.82422 62.3325V49.9984L5.87391 48.4238V63.907L4.82422 62.3325Z" fill="url(#paint54_linear_312_27324)"/>
<path fill-rule="evenodd" clip-rule="evenodd" d="M80.924 50.5232L77.25 48.4238V63.907L80.1367 62.3325L80.924 50.5232Z" fill="url(#paint55_linear_312_27324)"/>
<path fill-rule="evenodd" clip-rule="evenodd" d="M79.8754 51.0468L78.3008 49.9971V62.3311L79.3505 61.8063L79.8754 51.0468Z" fill="url(#paint56_radial_312_27324)"/>
<path fill-rule="evenodd" clip-rule="evenodd" d="M80.1367 62.3315L79.3494 61.8066L78.2997 62.3315L77.25 63.9061L80.1367 62.3315Z" fill="url(#paint57_linear_312_27324)"/>
<path fill-rule="evenodd" clip-rule="evenodd" d="M79.8743 51.0481L80.924 50.5232L77.25 48.4238L78.2997 49.9984L79.8743 51.0481Z" fill="url(#paint58_linear_312_27324)"/>
<path fill-rule="evenodd" clip-rule="evenodd" d="M80.9261 50.5225L79.8764 51.0473L79.3516 61.8068L80.1389 62.3317L80.9261 50.5225Z" fill="url(#paint59_linear_312_27324)"/>
<path fill-rule="evenodd" clip-rule="evenodd" d="M78.2997 62.3325V49.9984L77.25 48.4238V63.907L78.2997 62.3325Z" fill="url(#paint60_linear_312_27324)"/>
<path d="M53.3716 23.4944L47.8606 17.9834H35.5266L30.0156 23.4944V31.892L35.5266 37.403H43.9242L46.5485 36.8782V40.5521L44.9739 42.1267H37.1011L31.8526 40.2897L30.0156 46.0631L36.0514 48.1625H47.8606L53.3716 42.6516V23.4944ZM38.4132 31.1048L36.8387 29.5302V25.8562L38.4132 24.2817H44.9739L46.5485 25.8562V30.5799L44.9739 30.8423H38.4132V31.1048Z" fill="url(#paint61_linear_312_27324)"/>
<defs>
<linearGradient id="paint0_linear_312_27324" x1="75.6064" y1="54.298" x2="82.4187" y2="54.298" gradientUnits="userSpaceOnUse">
<stop stop-color="#1B3840"/>
<stop offset="1" stop-color="#204954"/>
</linearGradient>
<radialGradient id="paint1_radial_312_27324" cx="0" cy="0" r="1" gradientUnits="userSpaceOnUse" gradientTransform="translate(41.5477 103.84) scale(12.8605 12.8605)">
<stop stop-color="#B3FFF2"/>
<stop offset="0.3089" stop-color="#B1FFF2"/>
<stop offset="0.4601" stop-color="#A9FFF0"/>
<stop offset="0.5772" stop-color="#9CFFEE"/>
<stop offset="0.6767" stop-color="#89FFEB"/>
<stop offset="0.765" stop-color="#71FFE7"/>
<stop offset="0.8454" stop-color="#54FFE2"/>
<stop offset="0.9198" stop-color="#30FFDC"/>
<stop offset="0.9876" stop-color="#08FFD5"/>
<stop offset="1" stop-color="#00FFD4"/>
</radialGradient>
<linearGradient id="paint2_linear_312_27324" x1="55.3358" y1="92.0264" x2="56.833" y2="92.0264" gradientUnits="userSpaceOnUse">
<stop stop-color="#335D94"/>
<stop offset="1" stop-color="#204270"/>
</linearGradient>
<linearGradient id="paint3_linear_312_27324" x1="53.841" y1="91.494" x2="55.3381" y2="91.494" gradientUnits="userSpaceOnUse">
<stop stop-color="#4E76A6"/>
<stop offset="1" stop-color="#87B5F5"/>
</linearGradient>
<linearGradient id="paint4_linear_312_27324" x1="27.761" y1="91.494" x2="29.2581" y2="91.494" gradientUnits="userSpaceOnUse">
<stop stop-color="#335D94"/>
<stop offset="1" stop-color="#204270"/>
</linearGradient>
<linearGradient id="paint5_linear_312_27324" x1="26.2635" y1="92.0264" x2="27.7606" y2="92.0264" gradientUnits="userSpaceOnUse">
<stop stop-color="#4E76A6"/>
<stop offset="1" stop-color="#87B5F5"/>
</linearGradient>
<linearGradient id="paint6_linear_312_27324" x1="26.2635" y1="103.826" x2="41.5498" y2="103.826" gradientUnits="userSpaceOnUse">
<stop stop-color="#2F5382"/>
<stop offset="1" stop-color="#446DA3"/>
</linearGradient>
<linearGradient id="paint7_linear_312_27324" x1="27.761" y1="102.5" x2="41.5502" y2="102.5" gradientUnits="userSpaceOnUse">
<stop stop-color="#4E76A6"/>
<stop offset="1" stop-color="#87B5F5"/>
</linearGradient>
<linearGradient id="paint8_linear_312_27324" x1="41.5517" y1="103.826" x2="56.8373" y2="103.826" gradientUnits="userSpaceOnUse">
<stop stop-color="#204270"/>
<stop offset="1" stop-color="#335D94"/>
</linearGradient>
<linearGradient id="paint9_linear_312_27324" x1="41.5517" y1="102.5" x2="55.3402" y2="102.5" gradientUnits="userSpaceOnUse">
<stop stop-color="#77A5D6"/>
<stop offset="1" stop-color="#99C5FF"/>
</linearGradient>
<radialGradient id="paint10_radial_312_27324" cx="0" cy="0" r="1" gradientUnits="userSpaceOnUse" gradientTransform="translate(41.6855 85.9898) scale(33.3037 33.3036)">
<stop offset="0.2045" stop-color="#00FFFF"/>
<stop offset="0.2262" stop-color="#00F2F2"/>
<stop offset="0.3441" stop-color="#00B3B3"/>
<stop offset="0.4606" stop-color="#007D7D"/>
<stop offset="0.5728" stop-color="#005050"/>
<stop offset="0.68" stop-color="#002D2D"/>
<stop offset="0.7809" stop-color="#001414"/>
<stop offset="0.8729" stop-color="#000505"/>
<stop offset="0.948"/>
</radialGradient>
<linearGradient id="paint11_linear_312_27324" x1="0.685358" y1="54.298" x2="7.49772" y2="54.298" gradientUnits="userSpaceOnUse">
<stop stop-color="#204954"/>
<stop offset="1" stop-color="#1B3840"/>
</linearGradient>
<linearGradient id="paint12_linear_312_27324" x1="7.49686" y1="61.0154" x2="41.5515" y2="61.0154" gradientUnits="userSpaceOnUse">
<stop stop-color="#4E76A6"/>
<stop offset="1" stop-color="#87B5F5"/>
</linearGradient>
<linearGradient id="paint13_linear_312_27324" x1="41.5512" y1="61.0154" x2="75.6066" y2="61.0154" gradientUnits="userSpaceOnUse">
<stop stop-color="#77A5D6"/>
<stop offset="1" stop-color="#99C5FF"/>
</linearGradient>
<linearGradient id="paint14_linear_312_27324" x1="7.49686" y1="31.0811" x2="8.85256" y2="31.0811" gradientUnits="userSpaceOnUse">
<stop stop-color="#335D94"/>
<stop offset="1" stop-color="#204270"/>
</linearGradient>
<linearGradient id="paint15_linear_312_27324" x1="41.3488" y1="67.4846" x2="3.88261" y2="89.7617" gradientUnits="userSpaceOnUse">
<stop stop-color="#87B5F5"/>
<stop offset="1" stop-color="#6A94C4"/>
</linearGradient>
<linearGradient id="paint16_linear_312_27324" x1="41.294" y1="67.1844" x2="78.1816" y2="89.1723" gradientUnits="userSpaceOnUse">
<stop stop-color="#335D94"/>
<stop offset="1" stop-color="#42689C"/>
</linearGradient>
<linearGradient id="paint17_linear_312_27324" x1="6.1408" y1="94.0645" x2="41.5511" y2="94.0645" gradientUnits="userSpaceOnUse">
<stop stop-color="#2F5382"/>
<stop offset="1" stop-color="#446DA3"/>
</linearGradient>
<linearGradient id="paint18_linear_312_27324" x1="41.5512" y1="94.0645" x2="76.9621" y2="94.0645" gradientUnits="userSpaceOnUse">
<stop stop-color="#204270"/>
<stop offset="1" stop-color="#335D94"/>
</linearGradient>
<linearGradient id="paint19_linear_312_27324" x1="0.685358" y1="46.9849" x2="7.49772" y2="46.9849" gradientUnits="userSpaceOnUse">
<stop stop-color="#4E76A6"/>
<stop offset="1" stop-color="#87B5F5"/>
</linearGradient>
<radialGradient id="paint20_radial_312_27324" cx="0" cy="0" r="1" gradientUnits="userSpaceOnUse" gradientTransform="translate(41.5521 3.15563) scale(63.0442 63.0442)">
<stop stop-color="#0056BF"/>
<stop offset="0.1352" stop-color="#02429F"/>
<stop offset="0.2857" stop-color="#043183"/>
<stop offset="0.4168" stop-color="#052671"/>
<stop offset="0.513" stop-color="#05226B"/>
<stop offset="0.6195" stop-color="#072060"/>
<stop offset="0.8351" stop-color="#091D50"/>
<stop offset="1" stop-color="#0A1C4A"/>
</radialGradient>
<radialGradient id="paint21_radial_312_27324" cx="0" cy="0" r="1" gradientUnits="userSpaceOnUse" gradientTransform="translate(28.8237 -9.31165) scale(83.3899 83.3899)">
<stop offset="7e-08" stop-color="#284580"/>
<stop offset="1"/>
</radialGradient>
<radialGradient id="paint22_radial_312_27324" cx="0" cy="0" r="1" gradientUnits="userSpaceOnUse" gradientTransform="translate(13.1688 10.8217) scale(84.45 84.4501)">
<stop stop-color="#67DBFF"/>
<stop offset="1" stop-color="#0068DE"/>
</radialGradient>
<linearGradient id="paint23_linear_312_27324" x1="6.1408" y1="3.49887" x2="41.5511" y2="3.49887" gradientUnits="userSpaceOnUse">
<stop stop-color="#7996B5"/>
<stop offset="1" stop-color="#CCE2FF"/>
</linearGradient>
<linearGradient id="paint24_linear_312_27324" x1="7.49686" y1="4.84136" x2="41.5515" y2="4.84136" gradientUnits="userSpaceOnUse">
<stop stop-color="#204270"/>
<stop offset="1" stop-color="#335D94"/>
</linearGradient>
<linearGradient id="paint25_linear_312_27324" x1="74.25" y1="31.0811" x2="75.606" y2="31.0811" gradientUnits="userSpaceOnUse">
<stop stop-color="#4E76A6"/>
<stop offset="1" stop-color="#87B5F5"/>
</linearGradient>
<linearGradient id="paint26_linear_312_27324" x1="41.5512" y1="3.49887" x2="76.9616" y2="3.49887" gradientUnits="userSpaceOnUse">
<stop stop-color="#87B5F5"/>
<stop offset="1" stop-color="#4E76A6"/>
</linearGradient>
<linearGradient id="paint27_linear_312_27324" x1="41.5512" y1="4.84136" x2="75.6066" y2="4.84136" gradientUnits="userSpaceOnUse">
<stop stop-color="#2F5382"/>
<stop offset="1" stop-color="#446DA3"/>
</linearGradient>
<radialGradient id="paint28_radial_312_27324" cx="0" cy="0" r="1" gradientUnits="userSpaceOnUse" gradientTransform="translate(41.5516 60.3746) scale(6.31662 6.31662)">
<stop stop-color="#0062B7"/>
<stop offset="1"/>
</radialGradient>
<linearGradient id="paint29_linear_312_27324" x1="41.5493" y1="84.7906" x2="41.5493" y2="71.6257" gradientUnits="userSpaceOnUse">
<stop stop-color="#C2D6F2"/>
<stop offset="1" stop-color="#E6F5FF"/>
</linearGradient>
<linearGradient id="paint30_linear_312_27324" x1="11.1089" y1="75.9183" x2="11.1089" y2="75.0908" gradientUnits="userSpaceOnUse">
<stop stop-color="#2B3336"/>
<stop offset="0.0166703" stop-color="#2C3C41"/>
<stop offset="0.0981146" stop-color="#316473"/>
<stop offset="0.1814" stop-color="#36869E"/>
<stop offset="0.2651" stop-color="#3AA2C1"/>
<stop offset="0.3494" stop-color="#3CB8DC"/>
<stop offset="0.4347" stop-color="#3EC8F0"/>
<stop offset="0.5213" stop-color="#40D1FB"/>
<stop offset="0.6115" stop-color="#40D4FF"/>
</linearGradient>
<linearGradient id="paint31_linear_312_27324" x1="11.1074" y1="75.2722" x2="11.1074" y2="74.5586" gradientUnits="userSpaceOnUse">
<stop/>
<stop offset="1" stop-color="#78FAFF"/>
</linearGradient>
<linearGradient id="paint32_linear_312_27324" x1="11.1089" y1="79.2382" x2="11.1089" y2="78.4106" gradientUnits="userSpaceOnUse">
<stop stop-color="#2B3336"/>
<stop offset="0.0166703" stop-color="#293B41"/>
<stop offset="0.0981146" stop-color="#1E6073"/>
<stop offset="0.1814" stop-color="#15809E"/>
<stop offset="0.2651" stop-color="#0D9AC1"/>
<stop offset="0.3494" stop-color="#07AEDC"/>
<stop offset="0.4347" stop-color="#03BDF0"/>
<stop offset="0.5213" stop-color="#01C5FB"/>
<stop offset="0.6115" stop-color="#00C8FF"/>
</linearGradient>
<linearGradient id="paint33_linear_312_27324" x1="11.1074" y1="78.5919" x2="11.1074" y2="77.8783" gradientUnits="userSpaceOnUse">
<stop/>
<stop offset="1" stop-color="#78FAFF"/>
</linearGradient>
<linearGradient id="paint34_linear_312_27324" x1="11.1089" y1="82.5153" x2="11.1089" y2="81.6878" gradientUnits="userSpaceOnUse">
<stop stop-color="#2B3336"/>
<stop offset="0.0166703" stop-color="#2C3C41"/>
<stop offset="0.0981146" stop-color="#316473"/>
<stop offset="0.1814" stop-color="#36869E"/>
<stop offset="0.2651" stop-color="#3AA2C1"/>
<stop offset="0.3494" stop-color="#3CB8DC"/>
<stop offset="0.4347" stop-color="#3EC8F0"/>
<stop offset="0.5213" stop-color="#40D1FB"/>
<stop offset="0.6115" stop-color="#40D4FF"/>
</linearGradient>
<linearGradient id="paint35_linear_312_27324" x1="11.1074" y1="81.8692" x2="11.1074" y2="81.1556" gradientUnits="userSpaceOnUse">
<stop/>
<stop offset="1" stop-color="#78FAFF"/>
</linearGradient>
<linearGradient id="paint36_linear_312_27324" x1="11.1082" y1="75.7434" x2="11.1082" y2="74.4386" gradientUnits="userSpaceOnUse">
<stop stop-color="#17ACFF"/>
<stop offset="1" stop-color="#78FAFF"/>
</linearGradient>
<linearGradient id="paint37_linear_312_27324" x1="11.1082" y1="79.0624" x2="11.1082" y2="77.7576" gradientUnits="userSpaceOnUse">
<stop stop-color="#17ACFF"/>
<stop offset="1" stop-color="#78FAFF"/>
</linearGradient>
<linearGradient id="paint38_linear_312_27324" x1="11.1082" y1="82.3404" x2="11.1082" y2="81.0356" gradientUnits="userSpaceOnUse">
<stop stop-color="#17ACFF"/>
<stop offset="1" stop-color="#78FAFF"/>
</linearGradient>
<linearGradient id="paint39_linear_312_27324" x1="71.9901" y1="75.9183" x2="71.9901" y2="75.0908" gradientUnits="userSpaceOnUse">
<stop stop-color="#2B3336"/>
<stop offset="0.0166703" stop-color="#2C3C41"/>
<stop offset="0.0981146" stop-color="#316473"/>
<stop offset="0.1814" stop-color="#36869E"/>
<stop offset="0.2651" stop-color="#3AA2C1"/>
<stop offset="0.3494" stop-color="#3CB8DC"/>
<stop offset="0.4347" stop-color="#3EC8F0"/>
<stop offset="0.5213" stop-color="#40D1FB"/>
<stop offset="0.6115" stop-color="#40D4FF"/>
</linearGradient>
<linearGradient id="paint40_linear_312_27324" x1="71.9886" y1="75.2722" x2="71.9886" y2="74.5586" gradientUnits="userSpaceOnUse">
<stop/>
<stop offset="1" stop-color="#78FAFF"/>
</linearGradient>
<linearGradient id="paint41_linear_312_27324" x1="71.9901" y1="79.2382" x2="71.9901" y2="78.4106" gradientUnits="userSpaceOnUse">
<stop stop-color="#2B3336"/>
<stop offset="0.0166703" stop-color="#2C3C41"/>
<stop offset="0.0981146" stop-color="#316473"/>
<stop offset="0.1814" stop-color="#36869E"/>
<stop offset="0.2651" stop-color="#3AA2C1"/>
<stop offset="0.3494" stop-color="#3CB8DC"/>
<stop offset="0.4347" stop-color="#3EC8F0"/>
<stop offset="0.5213" stop-color="#40D1FB"/>
<stop offset="0.6115" stop-color="#40D4FF"/>
</linearGradient>
<linearGradient id="paint42_linear_312_27324" x1="71.9886" y1="78.5919" x2="71.9886" y2="77.8783" gradientUnits="userSpaceOnUse">
<stop/>
<stop offset="1" stop-color="#78FAFF"/>
</linearGradient>
<linearGradient id="paint43_linear_312_27324" x1="71.9901" y1="82.5143" x2="71.9901" y2="81.6869" gradientUnits="userSpaceOnUse">
<stop stop-color="#2B3336"/>
<stop offset="0.0166703" stop-color="#2C3C41"/>
<stop offset="0.0981146" stop-color="#316473"/>
<stop offset="0.1814" stop-color="#36869E"/>
<stop offset="0.2651" stop-color="#3AA2C1"/>
<stop offset="0.3494" stop-color="#3CB8DC"/>
<stop offset="0.4347" stop-color="#3EC8F0"/>
<stop offset="0.5213" stop-color="#40D1FB"/>
<stop offset="0.6115" stop-color="#40D4FF"/>
</linearGradient>
<linearGradient id="paint44_linear_312_27324" x1="71.9886" y1="81.8692" x2="71.9886" y2="81.1556" gradientUnits="userSpaceOnUse">
<stop/>
<stop offset="1" stop-color="#78FAFF"/>
</linearGradient>
<linearGradient id="paint45_linear_312_27324" x1="71.9894" y1="75.7434" x2="71.9894" y2="74.4386" gradientUnits="userSpaceOnUse">
<stop stop-color="#17ACFF"/>
<stop offset="1" stop-color="#78FAFF"/>
</linearGradient>
<linearGradient id="paint46_linear_312_27324" x1="71.9894" y1="79.0624" x2="71.9894" y2="77.7576" gradientUnits="userSpaceOnUse">
<stop stop-color="#17ACFF"/>
<stop offset="1" stop-color="#78FAFF"/>
</linearGradient>
<linearGradient id="paint47_linear_312_27324" x1="71.9894" y1="82.3404" x2="71.9894" y2="81.0356" gradientUnits="userSpaceOnUse">
<stop stop-color="#17ACFF"/>
<stop offset="1" stop-color="#78FAFF"/>
</linearGradient>
<linearGradient id="paint48_linear_312_27324" x1="75.6064" y1="46.9849" x2="82.4187" y2="46.9849" gradientUnits="userSpaceOnUse">
<stop stop-color="#335D94"/>
<stop offset="1" stop-color="#204270"/>
</linearGradient>
<linearGradient id="paint49_linear_312_27324" x1="4.00996" y1="48.4107" x2="4.00996" y2="63.8895" gradientUnits="userSpaceOnUse">
<stop stop-color="#6287C9"/>
<stop offset="1" stop-color="#3B597D"/>
</linearGradient>
<radialGradient id="paint50_radial_312_27324" cx="0" cy="0" r="1" gradientUnits="userSpaceOnUse" gradientTransform="translate(4.02417 56.1489) scale(4.44714 4.44709)">
<stop stop-color="#F8FC86"/>
<stop offset="1" stop-color="#EDCE20"/>
</radialGradient>
<linearGradient id="paint51_linear_312_27324" x1="4.32063" y1="61.6956" x2="4.32063" y2="63.8885" gradientUnits="userSpaceOnUse">
<stop stop-color="#99B2BF"/>
<stop offset="1" stop-color="#9BBD67"/>
</linearGradient>
<linearGradient id="paint52_linear_312_27324" x1="4.00996" y1="48.4107" x2="4.00996" y2="50.9326" gradientUnits="userSpaceOnUse">
<stop stop-color="#94885C"/>
<stop offset="1" stop-color="#2C507A"/>
</linearGradient>
<linearGradient id="paint53_linear_312_27324" x1="2.98992" y1="50.4479" x2="2.98992" y2="62.2099" gradientUnits="userSpaceOnUse">
<stop stop-color="#739CB0"/>
<stop offset="1" stop-color="#476B96"/>
</linearGradient>
<linearGradient id="paint54_linear_312_27324" x1="5.32676" y1="48.4107" x2="5.32676" y2="63.8895" gradientUnits="userSpaceOnUse">
<stop stop-color="#739CB0"/>
<stop offset="1" stop-color="#476B96"/>
</linearGradient>
<linearGradient id="paint55_linear_312_27324" x1="79.0907" y1="48.4107" x2="79.0907" y2="63.8895" gradientUnits="userSpaceOnUse">
<stop stop-color="#6287C9"/>
<stop offset="1" stop-color="#3B597D"/>
</linearGradient>
<radialGradient id="paint56_radial_312_27324" cx="0" cy="0" r="1" gradientUnits="userSpaceOnUse" gradientTransform="translate(79.0786 56.1489) rotate(180) scale(4.44714 4.44709)">
<stop stop-color="#F8FC86"/>
<stop offset="1" stop-color="#EDCE20"/>
</radialGradient>
<linearGradient id="paint57_linear_312_27324" x1="78.7821" y1="61.6956" x2="78.7821" y2="63.8885" gradientUnits="userSpaceOnUse">
<stop stop-color="#99B2BF"/>
<stop offset="1" stop-color="#9BBD67"/>
</linearGradient>
<linearGradient id="paint58_linear_312_27324" x1="79.0907" y1="48.4107" x2="79.0907" y2="50.9326" gradientUnits="userSpaceOnUse">
<stop stop-color="#94885C"/>
<stop offset="1" stop-color="#2C507A"/>
</linearGradient>
<linearGradient id="paint59_linear_312_27324" x1="80.1131" y1="50.4479" x2="80.1131" y2="62.2099" gradientUnits="userSpaceOnUse">
<stop stop-color="#739CB0"/>
<stop offset="1" stop-color="#476B96"/>
</linearGradient>
<linearGradient id="paint60_linear_312_27324" x1="77.7748" y1="48.4107" x2="77.7748" y2="63.8895" gradientUnits="userSpaceOnUse">
<stop stop-color="#739CB0"/>
<stop offset="1" stop-color="#476B96"/>
</linearGradient>
<linearGradient id="paint61_linear_312_27324" x1="51.3961" y1="44.6843" x2="30.1581" y2="23.4466" gradientUnits="userSpaceOnUse">
<stop stop-color="#17ACFF"/>
<stop offset="1" stop-color="#78FAFF"/>
</linearGradient>
</defs>
</svg>
