<svg width="83" height="108" viewBox="0 0 83 108" fill="none" xmlns="http://www.w3.org/2000/svg">
<path fill-rule="evenodd" clip-rule="evenodd" d="M75.4404 71.6304V37.7773L82.0011 45.6502L80.9514 69.531L75.4404 71.6304Z" fill="url(#paint0_linear_312_27021)"/>
<path fill-rule="evenodd" clip-rule="evenodd" d="M27.415 82.6543V101.024L41.3237 105.748L54.9699 101.024V82.6543H27.415Z" fill="#9B9B9B"/>
<path fill-rule="evenodd" clip-rule="evenodd" d="M28.9883 82.6543V99.9745L41.3223 104.173L53.6564 99.9745V82.6543H28.9883Z" fill="url(#paint1_radial_312_27021)"/>
<path fill-rule="evenodd" clip-rule="evenodd" d="M54.9688 82.6543V101.024L56.5433 102.074V82.6543H54.9688Z" fill="url(#paint2_linear_312_27021)"/>
<path fill-rule="evenodd" clip-rule="evenodd" d="M54.9694 101.024V82.6543H53.6572V99.9745L54.9694 101.024Z" fill="url(#paint3_linear_312_27021)"/>
<path fill-rule="evenodd" clip-rule="evenodd" d="M28.9896 99.9745V82.6543H27.415V101.024L28.9896 99.9745Z" fill="url(#paint4_linear_312_27021)"/>
<path fill-rule="evenodd" clip-rule="evenodd" d="M27.4157 101.024V82.6543H26.1035V102.074L27.4157 101.024Z" fill="url(#paint5_linear_312_27021)"/>
<path fill-rule="evenodd" clip-rule="evenodd" d="M31.0897 102.337L41.3243 105.748V107.323L31.0897 103.911L26.1035 102.074L27.4157 101.024L31.0897 102.337Z" fill="url(#paint6_linear_312_27021)"/>
<path fill-rule="evenodd" clip-rule="evenodd" d="M41.3237 105.747L31.089 102.335L27.415 101.023L28.9896 99.9736L31.089 100.761L41.3237 104.172V105.747Z" fill="url(#paint7_linear_312_27021)"/>
<path fill-rule="evenodd" clip-rule="evenodd" d="M41.3252 105.748L51.2974 102.337L54.9714 101.024L56.546 102.074L51.2974 103.911L41.3252 107.323V105.748Z" fill="url(#paint8_linear_312_27021)"/>
<path fill-rule="evenodd" clip-rule="evenodd" d="M54.9714 101.023L51.2974 102.335L41.3252 105.747V104.172L51.2974 100.761L53.6593 99.9736L54.9714 101.023Z" fill="url(#paint9_linear_312_27021)"/>
<path fill-rule="evenodd" clip-rule="evenodd" d="M7.21078 71.6304V37.7773L0.387695 45.6502L1.69983 69.531L7.21078 71.6304Z" fill="url(#paint10_linear_312_27021)"/>
<path fill-rule="evenodd" clip-rule="evenodd" d="M7.20996 55.8869L8.5221 55.0996L41.3255 66.384V67.6961L7.20996 55.8869Z" fill="url(#paint11_linear_312_27021)"/>
<path fill-rule="evenodd" clip-rule="evenodd" d="M75.4407 55.8869L73.8662 55.0996L41.3252 66.384V67.6961L75.4407 55.8869Z" fill="url(#paint12_linear_312_27021)"/>
<path fill-rule="evenodd" clip-rule="evenodd" d="M7.20996 7.0752L8.5221 8.38733V55.0994L7.20996 55.8866V7.0752Z" fill="url(#paint13_linear_312_27021)"/>
<path fill-rule="evenodd" clip-rule="evenodd" d="M41.3261 101.023V67.6944L7.21057 55.8852L5.89844 55.3604V88.6886L41.3261 101.023Z" fill="url(#paint14_linear_312_27021)"/>
<path fill-rule="evenodd" clip-rule="evenodd" d="M41.3252 67.6944V101.023L76.7529 88.6886V55.3604L75.4407 55.8852L41.3252 67.6944Z" fill="url(#paint15_linear_312_27021)"/>
<path fill-rule="evenodd" clip-rule="evenodd" d="M41.3261 99.7116L7.21057 87.9023L5.89844 88.6896L41.3261 101.024V99.7116Z" fill="url(#paint16_linear_312_27021)"/>
<path fill-rule="evenodd" clip-rule="evenodd" d="M75.4407 87.9023L41.3252 99.7116V101.024L76.7529 88.6896L75.4407 87.9023Z" fill="url(#paint17_linear_312_27021)"/>
<path fill-rule="evenodd" clip-rule="evenodd" d="M5.89864 6.02539V41.9779L0.387695 45.6519L1.69983 69.5328L5.89864 71.1073V88.6899L7.21078 87.9027V71.6322V56.4114V40.9282V7.0751L5.89864 6.02539Z" fill="url(#paint18_linear_312_27021)"/>
<path fill-rule="evenodd" clip-rule="evenodd" d="M80.4252 50.8992L77.0137 48.7998V64.283L79.9003 62.7084L80.4252 50.8992Z" fill="#808080"/>
<path fill-rule="evenodd" clip-rule="evenodd" d="M8.52246 8.38651V55.0985L41.3259 66.3829L73.8668 55.0985V8.38651L41.3259 3.40039L8.52246 8.38651Z" fill="url(#paint19_radial_312_27021)"/>
<path fill-rule="evenodd" clip-rule="evenodd" d="M20.8535 59.2975L66.7783 7.33691L73.8638 8.38662V55.0987L41.3228 66.383L20.8535 59.2975Z" fill="url(#paint20_radial_312_27021)"/>
<path fill-rule="evenodd" clip-rule="evenodd" d="M13.2442 12.3232V20.7209L11.9321 19.4087V11.5359L41.0615 7.33709L59.9562 9.96136V11.2735L41.0615 8.64922L13.2442 12.3232ZM13.2442 21.5082V36.7289L11.4072 38.5659V52.737L41.0615 62.9716L70.7157 52.737V28.8561L70.1909 28.3313L68.8788 27.0191V12.3232L60.7435 11.2735V9.96136V9.4365L41.3239 6.5498L11.6696 11.0111V19.9336L13.2442 21.5082ZM13.2442 37.5162V51.4248L33.9759 58.7728V60.0849L11.9321 52.4746V38.8283L13.2442 37.5162ZM34.7632 59.0352L41.3239 61.3971L47.8846 59.0352V60.3474L41.3239 62.7092L34.7632 60.3474V59.0352ZM48.4094 58.7728L69.1412 51.4248V27.8064L70.4533 29.1185V52.4746L48.4094 60.0849V58.7728ZM14.0315 12.8481V50.9L41.3239 60.3474L68.6164 50.9V12.8481L41.3239 8.91165L14.0315 12.8481Z" fill="url(#paint21_radial_312_27021)"/>
<path fill-rule="evenodd" clip-rule="evenodd" d="M7.21057 7.07462L41.3261 2.0885V0.776367L5.89844 6.02491L7.21057 7.07462Z" fill="url(#paint22_linear_312_27021)"/>
<path fill-rule="evenodd" clip-rule="evenodd" d="M41.3255 2.08789L7.20996 7.07401L8.5221 8.38614L41.3255 3.40003V2.08789Z" fill="url(#paint23_linear_312_27021)"/>
<path fill-rule="evenodd" clip-rule="evenodd" d="M75.4417 7.0752L73.8672 8.38733V55.0994L75.4417 55.8866V7.0752Z" fill="url(#paint24_linear_312_27021)"/>
<path fill-rule="evenodd" clip-rule="evenodd" d="M75.4407 7.07462L41.3252 2.0885V0.776367L76.7529 6.02491L75.4407 7.07462Z" fill="url(#paint25_linear_312_27021)"/>
<path fill-rule="evenodd" clip-rule="evenodd" d="M41.3252 2.08789L75.4407 7.07401L73.8662 8.38614L41.3252 3.40003V2.08789Z" fill="url(#paint26_linear_312_27021)"/>
<path fill-rule="evenodd" clip-rule="evenodd" d="M70.9784 28.0688V11.0111L61.2686 9.43652V10.7487L69.6662 12.0608V26.7567L70.9784 28.0688Z" fill="#CCCC14"/>
<path fill-rule="evenodd" clip-rule="evenodd" d="M11.6689 20.7197V37.7775L12.7187 36.4654V21.7694L11.6689 20.7197Z" fill="#CCCC14"/>
<path fill-rule="evenodd" clip-rule="evenodd" d="M41.3253 61.1355L34.7646 59.0361V60.3483L41.3253 62.4477L47.6236 60.3483V59.0361L41.3253 61.1355Z" fill="url(#paint27_radial_312_27021)"/>
<path fill-rule="evenodd" clip-rule="evenodd" d="M41.3226 74.2558L40.5353 68.22L12.9805 57.9854L41.3226 67.6952V74.2558Z" fill="white"/>
<path fill-rule="evenodd" clip-rule="evenodd" d="M7.21057 34.367L6.68573 7.07456L5.89844 6.02485L7.21057 6.54971L18.2325 5.5L7.21057 7.07456V34.367Z" fill="white"/>
<path fill-rule="evenodd" clip-rule="evenodd" d="M21.9043 4.9752L40.799 1.82608L41.3239 0.776367V2.0885L21.9043 4.9752Z" fill="white"/>
<path opacity="0.5" d="M58.3818 86.3281H67.0419V83.7038H61.0061V73.4692H58.1194V86.3281H58.3818ZM47.8847 86.3281H56.8072V83.7038H50.7714V80.8172H56.02V78.1929H50.7714V76.0935H56.8072V73.4692H47.8847V86.3281ZM42.6362 86.3281L46.835 73.994V72.9443L44.2107 73.2068L41.5865 81.0796L41.324 82.3917L41.0616 81.0796L38.4373 73.2068L35.8131 72.9443V73.994L40.0119 86.3281H42.6362ZM25.8408 86.3281H34.7633V83.7038H28.7275V80.8172H33.9761V78.1929H28.7275V76.0935H34.7633V73.4692H25.8408V86.3281ZM15.6062 86.3281H24.2663V83.7038H18.2304V73.4692H15.3438V86.3281H15.6062Z" fill="#4D5E6E"/>
<path d="M58.3818 85.2786H67.0419V82.6543H61.0061V72.4196H58.1194V85.2786H58.3818ZM47.8847 85.2786H56.8072V82.6543H50.7714V79.7676H56.02V77.1433H50.7714V75.0439H56.8072V72.4196H47.8847V85.2786ZM42.6362 85.2786L46.835 72.9445L44.2107 72.1572L41.5865 80.03L41.324 81.3422L41.0616 80.03L38.4373 72.1572L35.8131 72.9445L40.0119 85.2786H42.6362ZM25.8408 85.2786H34.7633V82.6543H28.7275V79.7676H33.9761V77.1433H28.7275V75.0439H34.7633V72.4196H25.8408V85.2786ZM15.6062 85.2786H24.2663V82.6543H18.2304V72.4196H15.3438V85.2786H15.6062Z" fill="url(#paint28_linear_312_27021)"/>
<path fill-rule="evenodd" clip-rule="evenodd" d="M9.30566 75.5684C9.30566 76.0932 9.56808 76.3556 9.83051 76.3556H11.4051C11.6675 76.3556 11.9299 76.0932 11.9299 75.8308V75.5684C11.1427 75.5684 10.3554 75.5684 9.30566 75.5684Z" fill="url(#paint29_linear_312_27021)"/>
<path fill-rule="evenodd" clip-rule="evenodd" d="M11.6651 75.043H10.0906C9.82814 75.043 9.82812 75.3054 9.82812 75.3054C9.82812 75.5678 10.0906 75.5678 10.0906 75.5678H11.6651C11.9275 75.5678 11.9276 75.3054 11.9276 75.3054C11.9276 75.043 11.9275 75.043 11.6651 75.043Z" fill="url(#paint30_linear_312_27021)"/>
<path fill-rule="evenodd" clip-rule="evenodd" d="M9.30566 78.7178C9.30566 79.2426 9.56808 79.5051 9.83051 79.5051H11.4051C11.6675 79.5051 11.9299 79.2426 11.9299 78.9802V78.7178C11.1427 78.7178 10.3554 78.7178 9.30566 78.7178Z" fill="url(#paint31_linear_312_27021)"/>
<path fill-rule="evenodd" clip-rule="evenodd" d="M11.6651 78.1924H10.0906C9.82814 78.1924 9.82812 78.4548 9.82812 78.4548C9.82812 78.7172 10.0906 78.7172 10.0906 78.7172H11.6651C11.9275 78.7172 11.9276 78.4548 11.9276 78.4548C11.9276 78.4548 11.9275 78.1924 11.6651 78.1924Z" fill="url(#paint32_linear_312_27021)"/>
<path fill-rule="evenodd" clip-rule="evenodd" d="M9.30566 82.1289C9.30566 82.6538 9.56808 82.9162 9.83051 82.9162H11.4051C11.6675 82.9162 11.9299 82.6538 11.9299 82.3913V82.1289C11.1427 82.1289 10.3554 82.1289 9.30566 82.1289Z" fill="url(#paint33_linear_312_27021)"/>
<path fill-rule="evenodd" clip-rule="evenodd" d="M11.6651 81.6035H10.0906C9.82814 81.6035 9.82812 81.8659 9.82812 81.8659C9.82812 82.1284 10.0906 82.1284 10.0906 82.1284H11.6651C11.9275 82.1284 11.9276 81.8659 11.9276 81.8659C11.9276 81.6035 11.9275 81.6035 11.6651 81.6035Z" fill="url(#paint34_linear_312_27021)"/>
<path fill-rule="evenodd" clip-rule="evenodd" d="M11.6658 74.7812H10.0913C9.82883 74.7812 9.56641 75.0437 9.56641 75.3061C9.56641 75.5685 9.82883 75.831 10.0913 75.831H11.6658C11.9282 75.831 12.1907 75.5685 12.1907 75.3061C12.1907 75.0437 11.9282 74.7812 11.6658 74.7812Z" fill="url(#paint35_linear_312_27021)"/>
<path fill-rule="evenodd" clip-rule="evenodd" d="M11.6658 78.1924H10.0913C9.82883 78.1924 9.56641 78.4548 9.56641 78.7172C9.56641 78.9797 9.82883 79.2421 10.0913 79.2421H11.6658C11.9282 79.2421 12.1907 78.9797 12.1907 78.7172C12.1907 78.4548 11.9282 78.1924 11.6658 78.1924Z" fill="url(#paint36_linear_312_27021)"/>
<path fill-rule="evenodd" clip-rule="evenodd" d="M11.6658 81.3418H10.0913C9.82883 81.3418 9.56641 81.6042 9.56641 81.8666C9.56641 82.1291 9.82883 82.3915 10.0913 82.3915H11.6658C11.9282 82.3915 12.1907 82.1291 12.1907 81.8666C12.1907 81.6042 11.9282 81.3418 11.6658 81.3418Z" fill="url(#paint37_linear_312_27021)"/>
<path fill-rule="evenodd" clip-rule="evenodd" d="M70.1924 75.5684C70.1924 76.0932 70.4548 76.3556 70.7172 76.3556H72.2918C72.5542 76.3556 72.8167 76.0932 72.8167 75.8308V75.5684C72.0294 75.5684 71.2421 75.5684 70.1924 75.5684Z" fill="url(#paint38_linear_312_27021)"/>
<path fill-rule="evenodd" clip-rule="evenodd" d="M72.5519 75.043H70.9773C70.7149 75.043 70.7148 75.3054 70.7148 75.3054C70.7148 75.5678 70.9773 75.5678 70.9773 75.5678H72.5519C72.8143 75.5678 72.8143 75.3054 72.8143 75.3054C72.8143 75.043 72.8143 75.043 72.5519 75.043Z" fill="url(#paint39_linear_312_27021)"/>
<path fill-rule="evenodd" clip-rule="evenodd" d="M70.1924 78.7178C70.1924 79.2426 70.4548 79.5051 70.7172 79.5051H72.2918C72.5542 79.5051 72.8167 79.2426 72.8167 78.9802V78.7178C72.0294 78.7178 71.2421 78.7178 70.1924 78.7178Z" fill="url(#paint40_linear_312_27021)"/>
<path fill-rule="evenodd" clip-rule="evenodd" d="M72.5519 78.1924H70.9773C70.7149 78.1924 70.7148 78.4548 70.7148 78.4548C70.7148 78.7172 70.9773 78.7172 70.9773 78.7172H72.5519C72.8143 78.7172 72.8143 78.4548 72.8143 78.4548C72.8143 78.4548 72.8143 78.1924 72.5519 78.1924Z" fill="url(#paint41_linear_312_27021)"/>
<path fill-rule="evenodd" clip-rule="evenodd" d="M70.1924 82.1279C70.1924 82.6528 70.4548 82.9152 70.7172 82.9152H72.2918C72.5542 82.9152 72.8167 82.6528 72.8167 82.3904V82.1279C72.0294 82.1279 71.2421 82.1279 70.1924 82.1279Z" fill="url(#paint42_linear_312_27021)"/>
<path fill-rule="evenodd" clip-rule="evenodd" d="M72.5519 81.6035H70.9773C70.7149 81.6035 70.7148 81.8659 70.7148 81.8659C70.7148 82.1284 70.9773 82.1284 70.9773 82.1284H72.5519C72.8143 82.1284 72.8143 81.8659 72.8143 81.8659C72.8143 81.6035 72.8143 81.6035 72.5519 81.6035Z" fill="url(#paint43_linear_312_27021)"/>
<path fill-rule="evenodd" clip-rule="evenodd" d="M72.5535 74.7812H70.9789C70.7165 74.7812 70.4541 75.0437 70.4541 75.3061C70.4541 75.5685 70.7165 75.831 70.9789 75.831H72.5535C72.816 75.831 73.0784 75.5685 73.0784 75.3061C73.0784 75.0437 72.816 74.7812 72.5535 74.7812Z" fill="url(#paint44_linear_312_27021)"/>
<path fill-rule="evenodd" clip-rule="evenodd" d="M72.5535 78.1924H70.9789C70.7165 78.1924 70.4541 78.4548 70.4541 78.7172C70.4541 78.9797 70.7165 79.2421 70.9789 79.2421H72.5535C72.816 79.2421 73.0784 78.9797 73.0784 78.7172C73.0784 78.4548 72.816 78.1924 72.5535 78.1924Z" fill="url(#paint45_linear_312_27021)"/>
<path fill-rule="evenodd" clip-rule="evenodd" d="M72.5535 81.3418H70.9789C70.7165 81.3418 70.4541 81.6042 70.4541 81.8666C70.4541 82.1291 70.7165 82.3915 70.9789 82.3915H72.5535C72.816 82.3915 73.0784 82.1291 73.0784 81.8666C73.0784 81.6042 72.816 81.3418 72.5535 81.3418Z" fill="url(#paint46_linear_312_27021)"/>
<path fill-rule="evenodd" clip-rule="evenodd" d="M82.0011 45.6519L76.7526 41.9779V6.02539L75.4404 7.0751V40.9282V56.4114V71.6322V87.9027L76.7526 88.6899V71.1073L80.9514 69.5328L82.0011 45.6519Z" fill="url(#paint47_linear_312_27021)"/>
<path fill-rule="evenodd" clip-rule="evenodd" d="M1.96094 50.8992L5.3725 48.7998V64.283L2.48578 62.7084L1.96094 50.8992Z" fill="url(#paint48_linear_312_27021)"/>
<path fill-rule="evenodd" clip-rule="evenodd" d="M2.75 51.4228L4.58698 50.373V62.7071L3.53729 62.1823L2.75 51.4228Z" fill="url(#paint49_radial_312_27021)"/>
<path fill-rule="evenodd" clip-rule="evenodd" d="M2.4834 62.7075L3.53313 62.1826L4.58282 62.7075L5.37011 64.282L2.4834 62.7075Z" fill="url(#paint50_linear_312_27021)"/>
<path fill-rule="evenodd" clip-rule="evenodd" d="M2.74823 51.4241L1.96094 50.8992L5.3725 48.7998L4.58521 50.3744L2.74823 51.4241Z" fill="url(#paint51_linear_312_27021)"/>
<path fill-rule="evenodd" clip-rule="evenodd" d="M1.96094 50.8984L2.74823 51.4233L3.53552 62.1828L2.48578 62.7077L1.96094 50.8984Z" fill="url(#paint52_linear_312_27021)"/>
<path fill-rule="evenodd" clip-rule="evenodd" d="M4.58496 62.7084V50.3744L5.37225 48.7998V64.283L4.58496 62.7084Z" fill="url(#paint53_linear_312_27021)"/>
<path fill-rule="evenodd" clip-rule="evenodd" d="M80.4272 50.8992L77.0156 48.7998V64.283L79.9023 62.7084L80.4272 50.8992Z" fill="url(#paint54_linear_312_27021)"/>
<path fill-rule="evenodd" clip-rule="evenodd" d="M79.6417 51.4228L77.8047 50.373V62.7071L79.1168 62.1823L79.6417 51.4228Z" fill="url(#paint55_radial_312_27021)"/>
<path fill-rule="evenodd" clip-rule="evenodd" d="M79.9023 62.7075L79.1151 62.1826L77.8029 62.7075L77.0156 64.282L79.9023 62.7075Z" fill="url(#paint56_linear_312_27021)"/>
<path fill-rule="evenodd" clip-rule="evenodd" d="M79.6399 51.4241L80.4272 50.8992L77.0156 48.7998L77.8029 50.3744L79.6399 51.4241Z" fill="url(#paint57_linear_312_27021)"/>
<path fill-rule="evenodd" clip-rule="evenodd" d="M80.4293 50.8984L79.642 51.4233L79.1172 62.1828L79.9044 62.7077L80.4293 50.8984Z" fill="url(#paint58_linear_312_27021)"/>
<path fill-rule="evenodd" clip-rule="evenodd" d="M77.8029 62.7084V50.3744L77.0156 48.7998V64.283L77.8029 62.7084Z" fill="url(#paint59_linear_312_27021)"/>
<path d="M30.5656 18.3594V35.6796H44.2118L46.0488 37.5166V40.6657L44.2118 42.5027H37.3887L31.8777 40.6657L29.7783 46.4391L36.339 48.5385H47.0985L52.6095 43.29V34.8923L47.0985 29.6437H37.1263V24.6576H52.347V18.3594H30.5656Z" fill="url(#paint60_linear_312_27021)"/>
<defs>
<linearGradient id="paint0_linear_312_27021" x1="75.3176" y1="54.674" x2="82.13" y2="54.674" gradientUnits="userSpaceOnUse">
<stop stop-color="#1B3840"/>
<stop offset="1" stop-color="#204954"/>
</linearGradient>
<radialGradient id="paint1_radial_312_27021" cx="0" cy="0" r="1" gradientUnits="userSpaceOnUse" gradientTransform="translate(41.2596 104.216) scale(12.8605 12.8605)">
<stop stop-color="#B3FFF2"/>
<stop offset="0.3089" stop-color="#B1FFF2"/>
<stop offset="0.4601" stop-color="#A9FFF0"/>
<stop offset="0.5772" stop-color="#9CFFEE"/>
<stop offset="0.6767" stop-color="#89FFEB"/>
<stop offset="0.765" stop-color="#71FFE7"/>
<stop offset="0.8454" stop-color="#54FFE2"/>
<stop offset="0.9198" stop-color="#30FFDC"/>
<stop offset="0.9876" stop-color="#08FFD5"/>
<stop offset="1" stop-color="#00FFD4"/>
</radialGradient>
<linearGradient id="paint2_linear_312_27021" x1="55.0488" y1="92.4024" x2="56.546" y2="92.4024" gradientUnits="userSpaceOnUse">
<stop stop-color="#335D94"/>
<stop offset="1" stop-color="#204270"/>
</linearGradient>
<linearGradient id="paint3_linear_312_27021" x1="53.5523" y1="91.87" x2="55.0494" y2="91.87" gradientUnits="userSpaceOnUse">
<stop stop-color="#4E76A6"/>
<stop offset="1" stop-color="#87B5F5"/>
</linearGradient>
<linearGradient id="paint4_linear_312_27021" x1="27.4722" y1="91.87" x2="28.9694" y2="91.87" gradientUnits="userSpaceOnUse">
<stop stop-color="#335D94"/>
<stop offset="1" stop-color="#204270"/>
</linearGradient>
<linearGradient id="paint5_linear_312_27021" x1="25.9757" y1="92.4024" x2="27.4729" y2="92.4024" gradientUnits="userSpaceOnUse">
<stop stop-color="#4E76A6"/>
<stop offset="1" stop-color="#87B5F5"/>
</linearGradient>
<linearGradient id="paint6_linear_312_27021" x1="25.9757" y1="104.202" x2="41.2621" y2="104.202" gradientUnits="userSpaceOnUse">
<stop stop-color="#2F5382"/>
<stop offset="1" stop-color="#446DA3"/>
</linearGradient>
<linearGradient id="paint7_linear_312_27021" x1="27.4722" y1="102.876" x2="41.2615" y2="102.876" gradientUnits="userSpaceOnUse">
<stop stop-color="#4E76A6"/>
<stop offset="1" stop-color="#87B5F5"/>
</linearGradient>
<linearGradient id="paint8_linear_312_27021" x1="41.263" y1="104.202" x2="56.5486" y2="104.202" gradientUnits="userSpaceOnUse">
<stop stop-color="#204270"/>
<stop offset="1" stop-color="#335D94"/>
</linearGradient>
<linearGradient id="paint9_linear_312_27021" x1="41.263" y1="102.876" x2="55.0514" y2="102.876" gradientUnits="userSpaceOnUse">
<stop stop-color="#77A5D6"/>
<stop offset="1" stop-color="#99C5FF"/>
</linearGradient>
<linearGradient id="paint10_linear_312_27021" x1="0.396618" y1="54.674" x2="7.20894" y2="54.674" gradientUnits="userSpaceOnUse">
<stop stop-color="#204954"/>
<stop offset="1" stop-color="#1B3840"/>
</linearGradient>
<linearGradient id="paint11_linear_312_27021" x1="7.20812" y1="61.3923" x2="41.2628" y2="61.3923" gradientUnits="userSpaceOnUse">
<stop stop-color="#4E76A6"/>
<stop offset="1" stop-color="#87B5F5"/>
</linearGradient>
<linearGradient id="paint12_linear_312_27021" x1="41.2625" y1="61.3923" x2="75.3179" y2="61.3923" gradientUnits="userSpaceOnUse">
<stop stop-color="#77A5D6"/>
<stop offset="1" stop-color="#99C5FF"/>
</linearGradient>
<linearGradient id="paint13_linear_312_27021" x1="7.20812" y1="31.457" x2="8.56356" y2="31.457" gradientUnits="userSpaceOnUse">
<stop stop-color="#335D94"/>
<stop offset="1" stop-color="#204270"/>
</linearGradient>
<linearGradient id="paint14_linear_312_27021" x1="41.061" y1="67.8605" x2="3.59485" y2="90.1377" gradientUnits="userSpaceOnUse">
<stop stop-color="#87B5F5"/>
<stop offset="1" stop-color="#6A94C4"/>
</linearGradient>
<linearGradient id="paint15_linear_312_27021" x1="41.0053" y1="67.5603" x2="77.8928" y2="89.5483" gradientUnits="userSpaceOnUse">
<stop stop-color="#335D94"/>
<stop offset="1" stop-color="#42689C"/>
</linearGradient>
<linearGradient id="paint16_linear_312_27021" x1="5.85304" y1="94.4405" x2="41.2634" y2="94.4405" gradientUnits="userSpaceOnUse">
<stop stop-color="#2F5382"/>
<stop offset="1" stop-color="#446DA3"/>
</linearGradient>
<linearGradient id="paint17_linear_312_27021" x1="41.2625" y1="94.4405" x2="76.6733" y2="94.4405" gradientUnits="userSpaceOnUse">
<stop stop-color="#204270"/>
<stop offset="1" stop-color="#335D94"/>
</linearGradient>
<linearGradient id="paint18_linear_312_27021" x1="0.396618" y1="47.3619" x2="7.20894" y2="47.3619" gradientUnits="userSpaceOnUse">
<stop stop-color="#4E76A6"/>
<stop offset="1" stop-color="#87B5F5"/>
</linearGradient>
<radialGradient id="paint19_radial_312_27021" cx="0" cy="0" r="1" gradientUnits="userSpaceOnUse" gradientTransform="translate(41.2631 3.5316) scale(63.0442 63.0442)">
<stop stop-color="#0056BF"/>
<stop offset="0.1352" stop-color="#02429F"/>
<stop offset="0.2857" stop-color="#043183"/>
<stop offset="0.4168" stop-color="#052671"/>
<stop offset="0.513" stop-color="#05226B"/>
<stop offset="0.6195" stop-color="#072060"/>
<stop offset="0.8351" stop-color="#091D50"/>
<stop offset="1" stop-color="#0A1C4A"/>
</radialGradient>
<radialGradient id="paint20_radial_312_27021" cx="0" cy="0" r="1" gradientUnits="userSpaceOnUse" gradientTransform="translate(28.5366 -8.93567) scale(83.3899 83.3899)">
<stop offset="7e-08" stop-color="#284580"/>
<stop offset="1"/>
</radialGradient>
<radialGradient id="paint21_radial_312_27021" cx="0" cy="0" r="1" gradientUnits="userSpaceOnUse" gradientTransform="translate(12.8808 11.1977) scale(84.4501 84.4501)">
<stop stop-color="#67DBFF"/>
<stop offset="1" stop-color="#0068DE"/>
</radialGradient>
<linearGradient id="paint22_linear_312_27021" x1="5.85304" y1="3.87484" x2="41.2634" y2="3.87484" gradientUnits="userSpaceOnUse">
<stop stop-color="#7996B5"/>
<stop offset="1" stop-color="#CCE2FF"/>
</linearGradient>
<linearGradient id="paint23_linear_312_27021" x1="7.20812" y1="5.21733" x2="41.2628" y2="5.21733" gradientUnits="userSpaceOnUse">
<stop stop-color="#204270"/>
<stop offset="1" stop-color="#335D94"/>
</linearGradient>
<linearGradient id="paint24_linear_312_27021" x1="73.963" y1="31.457" x2="75.3189" y2="31.457" gradientUnits="userSpaceOnUse">
<stop stop-color="#4E76A6"/>
<stop offset="1" stop-color="#87B5F5"/>
</linearGradient>
<linearGradient id="paint25_linear_312_27021" x1="41.2625" y1="3.87484" x2="76.6728" y2="3.87484" gradientUnits="userSpaceOnUse">
<stop stop-color="#87B5F5"/>
<stop offset="1" stop-color="#4E76A6"/>
</linearGradient>
<linearGradient id="paint26_linear_312_27021" x1="41.2625" y1="5.21733" x2="75.3179" y2="5.21733" gradientUnits="userSpaceOnUse">
<stop stop-color="#2F5382"/>
<stop offset="1" stop-color="#446DA3"/>
</linearGradient>
<radialGradient id="paint27_radial_312_27021" cx="0" cy="0" r="1" gradientUnits="userSpaceOnUse" gradientTransform="translate(41.2626 60.7506) scale(6.31663 6.31662)">
<stop stop-color="#0062B7"/>
<stop offset="1"/>
</radialGradient>
<linearGradient id="paint28_linear_312_27021" x1="41.2616" y1="85.1676" x2="41.2616" y2="72.0027" gradientUnits="userSpaceOnUse">
<stop stop-color="#C2D6F2"/>
<stop offset="1" stop-color="#E6F5FF"/>
</linearGradient>
<linearGradient id="paint29_linear_312_27021" x1="10.8201" y1="76.2942" x2="10.8201" y2="75.4668" gradientUnits="userSpaceOnUse">
<stop stop-color="#2B3336"/>
<stop offset="0.0166703" stop-color="#2C3C41"/>
<stop offset="0.0981146" stop-color="#316473"/>
<stop offset="0.1814" stop-color="#36869E"/>
<stop offset="0.2651" stop-color="#3AA2C1"/>
<stop offset="0.3494" stop-color="#3CB8DC"/>
<stop offset="0.4347" stop-color="#3EC8F0"/>
<stop offset="0.5213" stop-color="#40D1FB"/>
<stop offset="0.6115" stop-color="#40D4FF"/>
</linearGradient>
<linearGradient id="paint30_linear_312_27021" x1="10.8177" y1="75.6481" x2="10.8177" y2="74.9346" gradientUnits="userSpaceOnUse">
<stop/>
<stop offset="1" stop-color="#78FAFF"/>
</linearGradient>
<linearGradient id="paint31_linear_312_27021" x1="10.8201" y1="79.6142" x2="10.8201" y2="78.7865" gradientUnits="userSpaceOnUse">
<stop stop-color="#2B3336"/>
<stop offset="0.0166703" stop-color="#293B41"/>
<stop offset="0.0981146" stop-color="#1E6073"/>
<stop offset="0.1814" stop-color="#15809E"/>
<stop offset="0.2651" stop-color="#0D9AC1"/>
<stop offset="0.3494" stop-color="#07AEDC"/>
<stop offset="0.4347" stop-color="#03BDF0"/>
<stop offset="0.5213" stop-color="#01C5FB"/>
<stop offset="0.6115" stop-color="#00C8FF"/>
</linearGradient>
<linearGradient id="paint32_linear_312_27021" x1="10.8177" y1="78.9679" x2="10.8177" y2="78.2543" gradientUnits="userSpaceOnUse">
<stop/>
<stop offset="1" stop-color="#78FAFF"/>
</linearGradient>
<linearGradient id="paint33_linear_312_27021" x1="10.8201" y1="82.8913" x2="10.8201" y2="82.0638" gradientUnits="userSpaceOnUse">
<stop stop-color="#2B3336"/>
<stop offset="0.0166703" stop-color="#2C3C41"/>
<stop offset="0.0981146" stop-color="#316473"/>
<stop offset="0.1814" stop-color="#36869E"/>
<stop offset="0.2651" stop-color="#3AA2C1"/>
<stop offset="0.3494" stop-color="#3CB8DC"/>
<stop offset="0.4347" stop-color="#3EC8F0"/>
<stop offset="0.5213" stop-color="#40D1FB"/>
<stop offset="0.6115" stop-color="#40D4FF"/>
</linearGradient>
<linearGradient id="paint34_linear_312_27021" x1="10.8177" y1="82.2452" x2="10.8177" y2="81.5316" gradientUnits="userSpaceOnUse">
<stop/>
<stop offset="1" stop-color="#78FAFF"/>
</linearGradient>
<linearGradient id="paint35_linear_312_27021" x1="10.8184" y1="76.1194" x2="10.8184" y2="74.8146" gradientUnits="userSpaceOnUse">
<stop stop-color="#17ACFF"/>
<stop offset="1" stop-color="#78FAFF"/>
</linearGradient>
<linearGradient id="paint36_linear_312_27021" x1="10.8184" y1="79.4384" x2="10.8184" y2="78.1336" gradientUnits="userSpaceOnUse">
<stop stop-color="#17ACFF"/>
<stop offset="1" stop-color="#78FAFF"/>
</linearGradient>
<linearGradient id="paint37_linear_312_27021" x1="10.8184" y1="82.7164" x2="10.8184" y2="81.4116" gradientUnits="userSpaceOnUse">
<stop stop-color="#17ACFF"/>
<stop offset="1" stop-color="#78FAFF"/>
</linearGradient>
<linearGradient id="paint38_linear_312_27021" x1="71.7016" y1="76.2942" x2="71.7016" y2="75.4668" gradientUnits="userSpaceOnUse">
<stop stop-color="#2B3336"/>
<stop offset="0.0166703" stop-color="#2C3C41"/>
<stop offset="0.0981146" stop-color="#316473"/>
<stop offset="0.1814" stop-color="#36869E"/>
<stop offset="0.2651" stop-color="#3AA2C1"/>
<stop offset="0.3494" stop-color="#3CB8DC"/>
<stop offset="0.4347" stop-color="#3EC8F0"/>
<stop offset="0.5213" stop-color="#40D1FB"/>
<stop offset="0.6115" stop-color="#40D4FF"/>
</linearGradient>
<linearGradient id="paint39_linear_312_27021" x1="71.6992" y1="75.6481" x2="71.6992" y2="74.9346" gradientUnits="userSpaceOnUse">
<stop/>
<stop offset="1" stop-color="#78FAFF"/>
</linearGradient>
<linearGradient id="paint40_linear_312_27021" x1="71.7016" y1="79.6142" x2="71.7016" y2="78.7865" gradientUnits="userSpaceOnUse">
<stop stop-color="#2B3336"/>
<stop offset="0.0166703" stop-color="#2C3C41"/>
<stop offset="0.0981146" stop-color="#316473"/>
<stop offset="0.1814" stop-color="#36869E"/>
<stop offset="0.2651" stop-color="#3AA2C1"/>
<stop offset="0.3494" stop-color="#3CB8DC"/>
<stop offset="0.4347" stop-color="#3EC8F0"/>
<stop offset="0.5213" stop-color="#40D1FB"/>
<stop offset="0.6115" stop-color="#40D4FF"/>
</linearGradient>
<linearGradient id="paint41_linear_312_27021" x1="71.6992" y1="78.9679" x2="71.6992" y2="78.2543" gradientUnits="userSpaceOnUse">
<stop/>
<stop offset="1" stop-color="#78FAFF"/>
</linearGradient>
<linearGradient id="paint42_linear_312_27021" x1="71.7016" y1="82.8903" x2="71.7016" y2="82.0628" gradientUnits="userSpaceOnUse">
<stop stop-color="#2B3336"/>
<stop offset="0.0166703" stop-color="#2C3C41"/>
<stop offset="0.0981146" stop-color="#316473"/>
<stop offset="0.1814" stop-color="#36869E"/>
<stop offset="0.2651" stop-color="#3AA2C1"/>
<stop offset="0.3494" stop-color="#3CB8DC"/>
<stop offset="0.4347" stop-color="#3EC8F0"/>
<stop offset="0.5213" stop-color="#40D1FB"/>
<stop offset="0.6115" stop-color="#40D4FF"/>
</linearGradient>
<linearGradient id="paint43_linear_312_27021" x1="71.6992" y1="82.2452" x2="71.6992" y2="81.5316" gradientUnits="userSpaceOnUse">
<stop/>
<stop offset="1" stop-color="#78FAFF"/>
</linearGradient>
<linearGradient id="paint44_linear_312_27021" x1="71.7009" y1="76.1194" x2="71.7009" y2="74.8146" gradientUnits="userSpaceOnUse">
<stop stop-color="#17ACFF"/>
<stop offset="1" stop-color="#78FAFF"/>
</linearGradient>
<linearGradient id="paint45_linear_312_27021" x1="71.7009" y1="79.4384" x2="71.7009" y2="78.1336" gradientUnits="userSpaceOnUse">
<stop stop-color="#17ACFF"/>
<stop offset="1" stop-color="#78FAFF"/>
</linearGradient>
<linearGradient id="paint46_linear_312_27021" x1="71.7009" y1="82.7164" x2="71.7009" y2="81.4116" gradientUnits="userSpaceOnUse">
<stop stop-color="#17ACFF"/>
<stop offset="1" stop-color="#78FAFF"/>
</linearGradient>
<linearGradient id="paint47_linear_312_27021" x1="75.3176" y1="47.3619" x2="82.13" y2="47.3619" gradientUnits="userSpaceOnUse">
<stop stop-color="#335D94"/>
<stop offset="1" stop-color="#204270"/>
</linearGradient>
<linearGradient id="paint48_linear_312_27021" x1="3.72052" y1="48.7867" x2="3.72052" y2="64.2654" gradientUnits="userSpaceOnUse">
<stop stop-color="#6287C9"/>
<stop offset="1" stop-color="#3B597D"/>
</linearGradient>
<radialGradient id="paint49_radial_312_27021" cx="0" cy="0" r="1" gradientUnits="userSpaceOnUse" gradientTransform="translate(3.73515 56.5249) scale(4.44707 4.44709)">
<stop stop-color="#F8FC86"/>
<stop offset="1" stop-color="#EDCE20"/>
</radialGradient>
<linearGradient id="paint50_linear_312_27021" x1="4.02674" y1="62.0716" x2="4.02674" y2="64.2645" gradientUnits="userSpaceOnUse">
<stop stop-color="#99B2BF"/>
<stop offset="1" stop-color="#9BBD67"/>
</linearGradient>
<linearGradient id="paint51_linear_312_27021" x1="3.72052" y1="48.7867" x2="3.72052" y2="51.3086" gradientUnits="userSpaceOnUse">
<stop stop-color="#94885C"/>
<stop offset="1" stop-color="#2C507A"/>
</linearGradient>
<linearGradient id="paint52_linear_312_27021" x1="2.7002" y1="50.8239" x2="2.7002" y2="62.5859" gradientUnits="userSpaceOnUse">
<stop stop-color="#739CB0"/>
<stop offset="1" stop-color="#476B96"/>
</linearGradient>
<linearGradient id="paint53_linear_312_27021" x1="5.03608" y1="48.7867" x2="5.03608" y2="64.2654" gradientUnits="userSpaceOnUse">
<stop stop-color="#739CB0"/>
<stop offset="1" stop-color="#476B96"/>
</linearGradient>
<linearGradient id="paint54_linear_312_27021" x1="78.8051" y1="48.7867" x2="78.8051" y2="64.2654" gradientUnits="userSpaceOnUse">
<stop stop-color="#6287C9"/>
<stop offset="1" stop-color="#3B597D"/>
</linearGradient>
<radialGradient id="paint55_radial_312_27021" cx="0" cy="0" r="1" gradientUnits="userSpaceOnUse" gradientTransform="translate(78.7935 56.5249) rotate(180) scale(4.44707 4.44709)">
<stop stop-color="#F8FC86"/>
<stop offset="1" stop-color="#EDCE20"/>
</radialGradient>
<linearGradient id="paint56_linear_312_27021" x1="78.4962" y1="62.0716" x2="78.4962" y2="64.2645" gradientUnits="userSpaceOnUse">
<stop stop-color="#99B2BF"/>
<stop offset="1" stop-color="#9BBD67"/>
</linearGradient>
<linearGradient id="paint57_linear_312_27021" x1="78.8051" y1="48.7867" x2="78.8051" y2="51.3086" gradientUnits="userSpaceOnUse">
<stop stop-color="#94885C"/>
<stop offset="1" stop-color="#2C507A"/>
</linearGradient>
<linearGradient id="paint58_linear_312_27021" x1="79.8273" y1="50.8239" x2="79.8273" y2="62.5859" gradientUnits="userSpaceOnUse">
<stop stop-color="#739CB0"/>
<stop offset="1" stop-color="#476B96"/>
</linearGradient>
<linearGradient id="paint59_linear_312_27021" x1="77.489" y1="48.7867" x2="77.489" y2="64.2654" gradientUnits="userSpaceOnUse">
<stop stop-color="#739CB0"/>
<stop offset="1" stop-color="#476B96"/>
</linearGradient>
<linearGradient id="paint60_linear_312_27021" x1="52.2208" y1="43.6495" x2="28.8189" y2="20.2478" gradientUnits="userSpaceOnUse">
<stop stop-color="#17ACFF"/>
<stop offset="1" stop-color="#78FAFF"/>
</linearGradient>
</defs>
</svg>
