<svg width="83" height="107" viewBox="0 0 83 107" fill="none" xmlns="http://www.w3.org/2000/svg">
<path fill-rule="evenodd" clip-rule="evenodd" d="M75.5156 71.0836V37.2305L82.3387 45.1033L81.2891 68.9841L75.5156 71.0836Z" fill="url(#paint0_linear_312_26946)"/>
<path fill-rule="evenodd" clip-rule="evenodd" d="M27.751 82.1074V100.477L41.6596 105.201L55.3058 100.477V82.1074H27.751Z" fill="#9B9B9B"/>
<path fill-rule="evenodd" clip-rule="evenodd" d="M29.3242 82.1074V99.4276L41.6583 103.626L53.9924 99.4276V82.1074H29.3242Z" fill="url(#paint1_radial_312_26946)"/>
<path fill-rule="evenodd" clip-rule="evenodd" d="M55.3047 82.1074V100.477L56.8793 101.527V82.1074H55.3047Z" fill="url(#paint2_linear_312_26946)"/>
<path fill-rule="evenodd" clip-rule="evenodd" d="M55.3053 100.477V82.1074H53.9932V99.4276L55.3053 100.477Z" fill="url(#paint3_linear_312_26946)"/>
<path fill-rule="evenodd" clip-rule="evenodd" d="M29.3256 99.4276V82.1074H27.751V100.477L29.3256 99.4276Z" fill="url(#paint4_linear_312_26946)"/>
<path fill-rule="evenodd" clip-rule="evenodd" d="M27.7513 100.477V82.1074H26.1768V101.527L27.7513 100.477Z" fill="url(#paint5_linear_312_26946)"/>
<path fill-rule="evenodd" clip-rule="evenodd" d="M31.4253 101.79L41.66 105.201V106.776L31.4253 103.364L26.1768 101.527L27.7513 100.478L31.4253 101.79Z" fill="url(#paint6_linear_312_26946)"/>
<path fill-rule="evenodd" clip-rule="evenodd" d="M41.6596 105.2L31.425 101.789L27.751 100.476L29.3256 99.4268L31.425 100.214L41.6596 103.626V105.2Z" fill="url(#paint7_linear_312_26946)"/>
<path fill-rule="evenodd" clip-rule="evenodd" d="M41.6611 105.201L51.6334 101.79L55.3073 100.478L56.8819 101.527L51.6334 103.364L41.6611 106.776V105.201Z" fill="url(#paint8_linear_312_26946)"/>
<path fill-rule="evenodd" clip-rule="evenodd" d="M55.3073 100.476L51.6334 101.789L41.6611 105.2V103.626L51.6334 100.214L53.9952 99.4268L55.3073 100.476Z" fill="url(#paint9_linear_312_26946)"/>
<path fill-rule="evenodd" clip-rule="evenodd" d="M7.54673 71.0836V37.2305L0.723633 45.1033L2.03577 68.9841L7.54673 71.0836Z" fill="url(#paint10_linear_312_26946)"/>
<path fill-rule="evenodd" clip-rule="evenodd" d="M7.5459 55.34L8.85803 54.5527L41.6614 65.8371V67.1492L7.5459 55.34Z" fill="url(#paint11_linear_312_26946)"/>
<path fill-rule="evenodd" clip-rule="evenodd" d="M75.5142 55.34L74.2021 54.5527L41.6611 65.8371V67.1492L75.5142 55.34Z" fill="url(#paint12_linear_312_26946)"/>
<path fill-rule="evenodd" clip-rule="evenodd" d="M7.5459 6.52832L8.85803 7.84046V54.5525L7.5459 55.3398V6.52832Z" fill="url(#paint13_linear_312_26946)"/>
<path fill-rule="evenodd" clip-rule="evenodd" d="M41.662 100.476V67.1476L7.54651 55.3383L6.23438 54.8135V88.1417L41.662 100.476Z" fill="url(#paint14_linear_312_26946)"/>
<path fill-rule="evenodd" clip-rule="evenodd" d="M41.6611 67.1476V100.476L77.0888 88.1417V54.8135L75.5142 55.3383L41.6611 67.1476Z" fill="url(#paint15_linear_312_26946)"/>
<path fill-rule="evenodd" clip-rule="evenodd" d="M41.662 99.1647L7.54651 87.3555L6.23438 88.1427L41.662 100.477V99.1647Z" fill="url(#paint16_linear_312_26946)"/>
<path fill-rule="evenodd" clip-rule="evenodd" d="M75.5142 87.3555L41.6611 99.1647V100.477L77.0888 88.1427L75.5142 87.3555Z" fill="url(#paint17_linear_312_26946)"/>
<path fill-rule="evenodd" clip-rule="evenodd" d="M6.2346 5.47852V41.431L0.723633 45.105L2.03577 68.9859L6.2346 70.5604V88.1431L7.54673 87.3558V71.0853V55.8645V40.3813V6.52822L6.2346 5.47852Z" fill="url(#paint18_linear_312_26946)"/>
<path fill-rule="evenodd" clip-rule="evenodd" d="M80.7611 50.3523L77.3496 48.2529V63.7361L80.2363 62.1616L80.7611 50.3523Z" fill="#808080"/>
<path fill-rule="evenodd" clip-rule="evenodd" d="M8.8584 7.83963V54.5517L41.6618 65.836L74.2027 54.5517V7.83963L41.6618 2.85352L8.8584 7.83963Z" fill="url(#paint19_radial_312_26946)"/>
<path fill-rule="evenodd" clip-rule="evenodd" d="M21.1895 58.7506L67.1142 6.79004L74.1997 7.83975V54.5518L41.6588 65.8361L21.1895 58.7506Z" fill="url(#paint20_radial_312_26946)"/>
<path fill-rule="evenodd" clip-rule="evenodd" d="M13.5802 11.7763V20.174L12.268 18.8619V10.989L41.3974 6.79021L60.2922 9.41448V10.7266L41.3974 8.10235L13.5802 11.7763ZM13.5802 20.9613V36.1821L11.7432 38.019V52.1901L41.3974 62.4248L71.0517 52.1901V28.3092L70.5268 27.7844L69.2147 26.4722V11.7763L61.0795 10.7266V9.41448V8.88963L41.6599 6.00293L12.0056 10.4642V19.3867L13.5802 20.9613ZM13.5802 36.9693V50.878L34.3119 58.2259V59.5381L12.268 51.9277V38.2815L13.5802 36.9693ZM35.0992 58.4884L41.6599 60.8502L48.2205 58.4884V59.8005L41.6599 62.1623L35.0992 59.8005V58.4884ZM48.7454 58.2259L69.4772 50.878V27.2595L70.7893 28.5717V51.9277L48.7454 59.5381V58.2259ZM14.3674 12.3012V50.3531L41.6599 59.8005L68.9523 50.3531V12.3012L41.6599 8.36477L14.3674 12.3012Z" fill="url(#paint21_radial_312_26946)"/>
<path fill-rule="evenodd" clip-rule="evenodd" d="M7.54651 6.52774L41.662 1.54163V0.229492L6.23438 5.47803L7.54651 6.52774Z" fill="url(#paint22_linear_312_26946)"/>
<path fill-rule="evenodd" clip-rule="evenodd" d="M41.6614 1.54102L7.5459 6.52713L8.85803 7.83927L41.6614 2.85315V1.54102Z" fill="url(#paint23_linear_312_26946)"/>
<path fill-rule="evenodd" clip-rule="evenodd" d="M75.5153 6.52832L74.2031 7.84046V54.5525L75.5153 55.3398V6.52832Z" fill="url(#paint24_linear_312_26946)"/>
<path fill-rule="evenodd" clip-rule="evenodd" d="M75.5142 6.52774L41.6611 1.54163V0.229492L77.0888 5.47803L75.5142 6.52774Z" fill="url(#paint25_linear_312_26946)"/>
<path fill-rule="evenodd" clip-rule="evenodd" d="M41.6611 1.54102L75.5142 6.52713L74.2021 7.83927L41.6611 2.85315V1.54102Z" fill="url(#paint26_linear_312_26946)"/>
<path fill-rule="evenodd" clip-rule="evenodd" d="M71.3143 27.522V10.4642L61.6045 8.88965V10.2018L70.0022 11.5139V26.2098L71.3143 27.522Z" fill="#CCCC14"/>
<path fill-rule="evenodd" clip-rule="evenodd" d="M12.0049 20.1729V37.2306L13.0546 35.9185V21.2226L12.0049 20.1729Z" fill="#CCCC14"/>
<path fill-rule="evenodd" clip-rule="evenodd" d="M41.6613 60.5887L35.1006 58.4893V59.8014L41.6613 61.9008L47.9595 59.8014V58.4893L41.6613 60.5887Z" fill="url(#paint27_radial_312_26946)"/>
<path fill-rule="evenodd" clip-rule="evenodd" d="M41.6585 73.709L40.8713 67.6731L13.3164 57.4385L41.6585 67.1483V73.709Z" fill="white"/>
<path fill-rule="evenodd" clip-rule="evenodd" d="M7.54651 33.8201L7.02166 6.52769L6.23438 5.47798L7.54651 6.00283L18.5684 4.95312L7.54651 6.52769V33.8201Z" fill="white"/>
<path fill-rule="evenodd" clip-rule="evenodd" d="M22.2402 4.42833L41.135 1.2792L41.6598 0.229492V1.54163L22.2402 4.42833Z" fill="white"/>
<path opacity="0.5" d="M58.7177 85.7812H67.3778V83.157H61.342V72.9223H58.7177V85.7812ZM48.2207 85.7812H57.1432V83.157H50.8449V80.2703H56.0935V77.646H50.8449V75.5466H56.8808V72.9223H48.2207V85.7812ZM42.9721 85.7812L47.171 73.4472V72.3975L44.5467 72.6599L41.9224 80.5327L41.66 81.8448L41.3975 80.5327L38.7733 72.6599L36.149 72.3975V73.4472L40.3478 85.7812H42.9721ZM26.1768 85.7812H35.0993V83.157H29.0635V80.2703H34.312V77.646H29.0635V75.5466H35.0993V72.9223H26.1768V85.7812ZM15.9421 85.7812H24.6022V83.157H18.5664V72.9223H15.6797V85.7812H15.9421Z" fill="#4D5E6E"/>
<path d="M58.7177 84.7317H67.3778V82.1074H61.342V71.8728H58.7177V84.7317ZM48.2207 84.7317H57.1432V82.1074H50.8449V79.2207H56.0935V76.5965H50.8449V74.497H56.8808V71.8728H48.2207V84.7317ZM42.9721 84.7317L47.171 72.3976L44.5467 71.6104L41.9224 79.4832L41.66 80.7953L41.3975 79.4832L38.7733 71.6104L36.149 72.3976L40.3478 84.7317H42.9721ZM26.1768 84.7317H35.0993V82.1074H29.0635V79.2207H34.312V76.5965H29.0635V74.497H35.0993V71.8728H26.1768V84.7317ZM15.9421 84.7317H24.6022V82.1074H18.5664V71.8728H15.6797V84.7317H15.9421Z" fill="url(#paint28_linear_312_26946)"/>
<path fill-rule="evenodd" clip-rule="evenodd" d="M9.64258 75.0215C9.64258 75.5463 9.905 75.8088 10.1674 75.8088H11.742C12.0044 75.8088 12.2668 75.5463 12.2668 75.2839V75.0215C11.4796 75.0215 10.6923 75.0215 9.64258 75.0215Z" fill="url(#paint29_linear_312_26946)"/>
<path fill-rule="evenodd" clip-rule="evenodd" d="M12.002 74.4961H10.4275C10.165 74.4961 10.165 74.7585 10.165 74.7585C10.165 75.0209 10.4275 75.021 10.4275 75.021H12.002C12.2644 75.021 12.2645 74.7585 12.2645 74.7585C12.2645 74.4961 12.2644 74.4961 12.002 74.4961Z" fill="url(#paint30_linear_312_26946)"/>
<path fill-rule="evenodd" clip-rule="evenodd" d="M9.64258 78.1709C9.64258 78.6958 9.905 78.9582 10.1674 78.9582H11.742C12.0044 78.9582 12.2668 78.6957 12.2668 78.4333V78.1709C11.4796 78.1709 10.6923 78.1709 9.64258 78.1709Z" fill="url(#paint31_linear_312_26946)"/>
<path fill-rule="evenodd" clip-rule="evenodd" d="M12.002 77.6455H10.4275C10.165 77.6455 10.165 77.9079 10.165 77.9079C10.165 78.1704 10.4275 78.1704 10.4275 78.1704H12.002C12.2644 78.1704 12.2645 77.9079 12.2645 77.9079C12.2645 77.9079 12.2644 77.6455 12.002 77.6455Z" fill="url(#paint32_linear_312_26946)"/>
<path fill-rule="evenodd" clip-rule="evenodd" d="M9.64258 81.5811C9.64258 82.1059 9.905 82.3683 10.1674 82.3683H11.742C12.0044 82.3683 12.2668 82.1059 12.2668 81.8435V81.5811C11.4796 81.5811 10.6923 81.5811 9.64258 81.5811Z" fill="url(#paint33_linear_312_26946)"/>
<path fill-rule="evenodd" clip-rule="evenodd" d="M12.002 81.0566H10.4275C10.165 81.0566 10.165 81.3191 10.165 81.3191C10.165 81.5815 10.4275 81.5815 10.4275 81.5815H12.002C12.2644 81.5815 12.2645 81.3191 12.2645 81.3191C12.2645 81.0566 12.2644 81.0566 12.002 81.0566Z" fill="url(#paint34_linear_312_26946)"/>
<path fill-rule="evenodd" clip-rule="evenodd" d="M12.0037 74.2344H10.4291C10.1667 74.2344 9.9043 74.4968 9.9043 74.7592C9.9043 75.0217 10.1667 75.2841 10.4291 75.2841H12.0037C12.2661 75.2841 12.5286 75.0217 12.5286 74.7592C12.5286 74.4968 12.2661 74.2344 12.0037 74.2344Z" fill="url(#paint35_linear_312_26946)"/>
<path fill-rule="evenodd" clip-rule="evenodd" d="M12.0037 77.6455H10.4291C10.1667 77.6455 9.9043 77.9079 9.9043 78.1704C9.9043 78.4328 10.1667 78.6952 10.4291 78.6952H12.0037C12.2661 78.6952 12.5286 78.4328 12.5286 78.1704C12.5286 77.9079 12.2661 77.6455 12.0037 77.6455Z" fill="url(#paint36_linear_312_26946)"/>
<path fill-rule="evenodd" clip-rule="evenodd" d="M12.0037 80.7949H10.4291C10.1667 80.7949 9.9043 81.0573 9.9043 81.3198C9.9043 81.5822 10.1667 81.8446 10.4291 81.8446H12.0037C12.2661 81.8446 12.5286 81.5822 12.5286 81.3198C12.5286 81.0573 12.2661 80.7949 12.0037 80.7949Z" fill="url(#paint37_linear_312_26946)"/>
<path fill-rule="evenodd" clip-rule="evenodd" d="M70.5293 75.0215C70.5293 75.5463 70.7917 75.8088 71.0541 75.8088H72.6287C72.8911 75.8088 73.1536 75.5463 73.1536 75.2839V75.0215C72.3663 75.0215 71.579 75.0215 70.5293 75.0215Z" fill="url(#paint38_linear_312_26946)"/>
<path fill-rule="evenodd" clip-rule="evenodd" d="M72.8887 74.4961H71.3142C71.0518 74.4961 71.0518 74.7585 71.0518 74.7585C71.0518 75.0209 71.3142 75.021 71.3142 75.021H72.8887C73.1512 75.021 73.1512 74.7585 73.1512 74.7585C73.1512 74.4961 73.1512 74.4961 72.8887 74.4961Z" fill="url(#paint39_linear_312_26946)"/>
<path fill-rule="evenodd" clip-rule="evenodd" d="M70.5293 78.1709C70.5293 78.6958 70.7917 78.9582 71.0541 78.9582H72.6287C72.8911 78.9582 73.1536 78.6957 73.1536 78.4333V78.1709C72.3663 78.1709 71.579 78.1709 70.5293 78.1709Z" fill="url(#paint40_linear_312_26946)"/>
<path fill-rule="evenodd" clip-rule="evenodd" d="M72.8887 77.6455H71.3142C71.0518 77.6455 71.0518 77.9079 71.0518 77.9079C71.0518 78.1704 71.3142 78.1704 71.3142 78.1704H72.8887C73.1512 78.1704 73.1512 77.9079 73.1512 77.9079C73.1512 77.9079 73.1512 77.6455 72.8887 77.6455Z" fill="url(#paint41_linear_312_26946)"/>
<path fill-rule="evenodd" clip-rule="evenodd" d="M70.5293 81.5811C70.5293 82.1059 70.7917 82.3683 71.0541 82.3683H72.6287C72.8911 82.3683 73.1536 82.1059 73.1536 81.8435V81.5811C72.3663 81.5811 71.579 81.5811 70.5293 81.5811Z" fill="url(#paint42_linear_312_26946)"/>
<path fill-rule="evenodd" clip-rule="evenodd" d="M72.8887 81.0566H71.3142C71.0518 81.0566 71.0518 81.3191 71.0518 81.3191C71.0518 81.5815 71.3142 81.5815 71.3142 81.5815H72.8887C73.1512 81.5815 73.1512 81.3191 73.1512 81.3191C73.1512 81.0566 73.1512 81.0566 72.8887 81.0566Z" fill="url(#paint43_linear_312_26946)"/>
<path fill-rule="evenodd" clip-rule="evenodd" d="M72.8904 74.2344H71.3159C71.0534 74.2344 70.791 74.4968 70.791 74.7592C70.791 75.0217 71.0534 75.2841 71.3159 75.2841H72.8904C73.1528 75.2841 73.4153 75.0217 73.4153 74.7592C73.4153 74.4968 73.1528 74.2344 72.8904 74.2344Z" fill="url(#paint44_linear_312_26946)"/>
<path fill-rule="evenodd" clip-rule="evenodd" d="M72.8904 77.6455H71.3159C71.0534 77.6455 70.791 77.9079 70.791 78.1704C70.791 78.4328 71.0534 78.6952 71.3159 78.6952H72.8904C73.1528 78.6952 73.4153 78.4328 73.4153 78.1704C73.4153 77.9079 73.1528 77.6455 72.8904 77.6455Z" fill="url(#paint45_linear_312_26946)"/>
<path fill-rule="evenodd" clip-rule="evenodd" d="M72.8904 80.7949H71.3159C71.0534 80.7949 70.791 81.0573 70.791 81.3198C70.791 81.5822 71.0534 81.8446 71.3159 81.8446H72.8904C73.1528 81.8446 73.4153 81.5822 73.4153 81.3198C73.4153 81.0573 73.1528 80.7949 72.8904 80.7949Z" fill="url(#paint46_linear_312_26946)"/>
<path fill-rule="evenodd" clip-rule="evenodd" d="M82.3387 45.105L77.0902 41.431V5.47852L75.5156 6.52822V40.3813V55.8645V71.0853V87.3558L77.0902 88.1431V70.5604L81.2891 68.9859L82.3387 45.105Z" fill="url(#paint47_linear_312_26946)"/>
<path fill-rule="evenodd" clip-rule="evenodd" d="M2.29688 50.3523L5.70844 48.2529V63.7361L2.82172 62.1616L2.29688 50.3523Z" fill="url(#paint48_linear_312_26946)"/>
<path fill-rule="evenodd" clip-rule="evenodd" d="M3.08594 50.8759L4.92292 49.8262V62.1602L3.87321 61.6354L3.08594 50.8759Z" fill="url(#paint49_radial_312_26946)"/>
<path fill-rule="evenodd" clip-rule="evenodd" d="M2.81934 62.1606L3.86905 61.6357L4.91876 62.1606L5.70605 63.7352L2.81934 62.1606Z" fill="url(#paint50_linear_312_26946)"/>
<path fill-rule="evenodd" clip-rule="evenodd" d="M3.08416 50.8772L2.29688 50.3523L5.70844 48.2529L4.92115 49.8275L3.08416 50.8772Z" fill="url(#paint51_linear_312_26946)"/>
<path fill-rule="evenodd" clip-rule="evenodd" d="M2.29688 50.3516L3.08416 50.8764L3.87143 61.6359L2.82172 62.1608L2.29688 50.3516Z" fill="url(#paint52_linear_312_26946)"/>
<path fill-rule="evenodd" clip-rule="evenodd" d="M4.9209 62.1616V49.8275L5.70819 48.2529V63.7361L4.9209 62.1616Z" fill="url(#paint53_linear_312_26946)"/>
<path fill-rule="evenodd" clip-rule="evenodd" d="M80.7611 50.3523L77.3496 48.2529V63.7361L80.2363 62.1616L80.7611 50.3523Z" fill="url(#paint54_linear_312_26946)"/>
<path fill-rule="evenodd" clip-rule="evenodd" d="M79.9757 50.8759L78.1387 49.8262V62.1602L79.4508 61.6354L79.9757 50.8759Z" fill="url(#paint55_radial_312_26946)"/>
<path fill-rule="evenodd" clip-rule="evenodd" d="M80.2363 62.1606L79.449 61.6357L78.1369 62.1606L77.3496 63.7352L80.2363 62.1606Z" fill="url(#paint56_linear_312_26946)"/>
<path fill-rule="evenodd" clip-rule="evenodd" d="M79.9739 50.8772L80.7611 50.3523L77.3496 48.2529L78.1369 49.8275L79.9739 50.8772Z" fill="url(#paint57_linear_312_26946)"/>
<path fill-rule="evenodd" clip-rule="evenodd" d="M80.7633 50.3516L79.9761 50.8764L79.4512 61.6359L80.2385 62.1608L80.7633 50.3516Z" fill="url(#paint58_linear_312_26946)"/>
<path fill-rule="evenodd" clip-rule="evenodd" d="M78.1369 62.1616V49.8275L77.3496 48.2529V63.7361L78.1369 62.1616Z" fill="url(#paint59_linear_312_26946)"/>
<path d="M51.1071 36.4441V18.0742H45.5961L28.8008 36.7065V42.7424H44.5464V48.2533H51.1071V42.7424H54.2562V36.7065H51.1071V36.4441ZM44.0215 28.8337L44.8088 27.2592L44.284 28.8337V36.1817H37.7233L36.1487 36.7065L37.7233 35.9193L44.0215 28.8337Z" fill="url(#paint60_linear_312_26946)"/>
<defs>
<linearGradient id="paint0_linear_312_26946" x1="75.6419" y1="54.1271" x2="82.4542" y2="54.1271" gradientUnits="userSpaceOnUse">
<stop stop-color="#1B3840"/>
<stop offset="1" stop-color="#204954"/>
</linearGradient>
<radialGradient id="paint1_radial_312_26946" cx="0" cy="0" r="1" gradientUnits="userSpaceOnUse" gradientTransform="translate(41.5824 103.669) scale(12.8605 12.8605)">
<stop stop-color="#B3FFF2"/>
<stop offset="0.3089" stop-color="#B1FFF2"/>
<stop offset="0.4601" stop-color="#A9FFF0"/>
<stop offset="0.5772" stop-color="#9CFFEE"/>
<stop offset="0.6767" stop-color="#89FFEB"/>
<stop offset="0.765" stop-color="#71FFE7"/>
<stop offset="0.8454" stop-color="#54FFE2"/>
<stop offset="0.9198" stop-color="#30FFDC"/>
<stop offset="0.9876" stop-color="#08FFD5"/>
<stop offset="1" stop-color="#00FFD4"/>
</radialGradient>
<linearGradient id="paint2_linear_312_26946" x1="55.3713" y1="91.8555" x2="56.8688" y2="91.8555" gradientUnits="userSpaceOnUse">
<stop stop-color="#335D94"/>
<stop offset="1" stop-color="#204270"/>
</linearGradient>
<linearGradient id="paint3_linear_312_26946" x1="53.8748" y1="91.3231" x2="55.372" y2="91.3231" gradientUnits="userSpaceOnUse">
<stop stop-color="#4E76A6"/>
<stop offset="1" stop-color="#87B5F5"/>
</linearGradient>
<linearGradient id="paint4_linear_312_26946" x1="27.7948" y1="91.3231" x2="29.2922" y2="91.3231" gradientUnits="userSpaceOnUse">
<stop stop-color="#335D94"/>
<stop offset="1" stop-color="#204270"/>
</linearGradient>
<linearGradient id="paint5_linear_312_26946" x1="26.298" y1="91.8555" x2="27.7951" y2="91.8555" gradientUnits="userSpaceOnUse">
<stop stop-color="#4E76A6"/>
<stop offset="1" stop-color="#87B5F5"/>
</linearGradient>
<linearGradient id="paint6_linear_312_26946" x1="26.298" y1="103.655" x2="41.5844" y2="103.655" gradientUnits="userSpaceOnUse">
<stop stop-color="#2F5382"/>
<stop offset="1" stop-color="#446DA3"/>
</linearGradient>
<linearGradient id="paint7_linear_312_26946" x1="27.7948" y1="102.329" x2="41.584" y2="102.329" gradientUnits="userSpaceOnUse">
<stop stop-color="#4E76A6"/>
<stop offset="1" stop-color="#87B5F5"/>
</linearGradient>
<linearGradient id="paint8_linear_312_26946" x1="41.5856" y1="103.655" x2="56.8714" y2="103.655" gradientUnits="userSpaceOnUse">
<stop stop-color="#204270"/>
<stop offset="1" stop-color="#335D94"/>
</linearGradient>
<linearGradient id="paint9_linear_312_26946" x1="41.5856" y1="102.329" x2="55.374" y2="102.329" gradientUnits="userSpaceOnUse">
<stop stop-color="#77A5D6"/>
<stop offset="1" stop-color="#99C5FF"/>
</linearGradient>
<linearGradient id="paint10_linear_312_26946" x1="0.719172" y1="54.1271" x2="7.53178" y2="54.1271" gradientUnits="userSpaceOnUse">
<stop stop-color="#204954"/>
<stop offset="1" stop-color="#1B3840"/>
</linearGradient>
<linearGradient id="paint11_linear_312_26946" x1="7.53094" y1="60.8455" x2="41.5853" y2="60.8455" gradientUnits="userSpaceOnUse">
<stop stop-color="#4E76A6"/>
<stop offset="1" stop-color="#87B5F5"/>
</linearGradient>
<linearGradient id="paint12_linear_312_26946" x1="41.585" y1="60.8455" x2="75.6404" y2="60.8455" gradientUnits="userSpaceOnUse">
<stop stop-color="#77A5D6"/>
<stop offset="1" stop-color="#99C5FF"/>
</linearGradient>
<linearGradient id="paint13_linear_312_26946" x1="7.53094" y1="30.9102" x2="8.88638" y2="30.9102" gradientUnits="userSpaceOnUse">
<stop stop-color="#335D94"/>
<stop offset="1" stop-color="#204270"/>
</linearGradient>
<linearGradient id="paint14_linear_312_26946" x1="41.3839" y1="67.3137" x2="3.9174" y2="89.5908" gradientUnits="userSpaceOnUse">
<stop stop-color="#87B5F5"/>
<stop offset="1" stop-color="#6A94C4"/>
</linearGradient>
<linearGradient id="paint15_linear_312_26946" x1="41.3279" y1="67.0135" x2="78.2154" y2="89.0014" gradientUnits="userSpaceOnUse">
<stop stop-color="#335D94"/>
<stop offset="1" stop-color="#42689C"/>
</linearGradient>
<linearGradient id="paint16_linear_312_26946" x1="6.17559" y1="93.8936" x2="41.5859" y2="93.8936" gradientUnits="userSpaceOnUse">
<stop stop-color="#2F5382"/>
<stop offset="1" stop-color="#446DA3"/>
</linearGradient>
<linearGradient id="paint17_linear_312_26946" x1="41.585" y1="93.8936" x2="76.9959" y2="93.8936" gradientUnits="userSpaceOnUse">
<stop stop-color="#204270"/>
<stop offset="1" stop-color="#335D94"/>
</linearGradient>
<linearGradient id="paint18_linear_312_26946" x1="0.719172" y1="46.815" x2="7.53151" y2="46.815" gradientUnits="userSpaceOnUse">
<stop stop-color="#4E76A6"/>
<stop offset="1" stop-color="#87B5F5"/>
</linearGradient>
<radialGradient id="paint19_radial_312_26946" cx="0" cy="0" r="1" gradientUnits="userSpaceOnUse" gradientTransform="translate(41.5859 2.98473) scale(63.0442 63.0442)">
<stop stop-color="#0056BF"/>
<stop offset="0.1352" stop-color="#02429F"/>
<stop offset="0.2857" stop-color="#043183"/>
<stop offset="0.4168" stop-color="#052671"/>
<stop offset="0.513" stop-color="#05226B"/>
<stop offset="0.6195" stop-color="#072060"/>
<stop offset="0.8351" stop-color="#091D50"/>
<stop offset="1" stop-color="#0A1C4A"/>
</radialGradient>
<radialGradient id="paint20_radial_312_26946" cx="0" cy="0" r="1" gradientUnits="userSpaceOnUse" gradientTransform="translate(28.8591 -9.48255) scale(83.3899 83.3899)">
<stop offset="7e-08" stop-color="#284580"/>
<stop offset="1"/>
</radialGradient>
<radialGradient id="paint21_radial_312_26946" cx="0" cy="0" r="1" gradientUnits="userSpaceOnUse" gradientTransform="translate(13.2033 10.6508) scale(84.4501 84.4501)">
<stop stop-color="#67DBFF"/>
<stop offset="1" stop-color="#0068DE"/>
</radialGradient>
<linearGradient id="paint22_linear_312_26946" x1="6.17559" y1="3.32797" x2="41.5859" y2="3.32797" gradientUnits="userSpaceOnUse">
<stop stop-color="#7996B5"/>
<stop offset="1" stop-color="#CCE2FF"/>
</linearGradient>
<linearGradient id="paint23_linear_312_26946" x1="7.53094" y1="4.67046" x2="41.5853" y2="4.67046" gradientUnits="userSpaceOnUse">
<stop stop-color="#204270"/>
<stop offset="1" stop-color="#335D94"/>
</linearGradient>
<linearGradient id="paint24_linear_312_26946" x1="74.2855" y1="30.9102" x2="75.6415" y2="30.9102" gradientUnits="userSpaceOnUse">
<stop stop-color="#4E76A6"/>
<stop offset="1" stop-color="#87B5F5"/>
</linearGradient>
<linearGradient id="paint25_linear_312_26946" x1="41.585" y1="3.32797" x2="76.9954" y2="3.32797" gradientUnits="userSpaceOnUse">
<stop stop-color="#87B5F5"/>
<stop offset="1" stop-color="#4E76A6"/>
</linearGradient>
<linearGradient id="paint26_linear_312_26946" x1="41.585" y1="4.67046" x2="75.6404" y2="4.67046" gradientUnits="userSpaceOnUse">
<stop stop-color="#2F5382"/>
<stop offset="1" stop-color="#446DA3"/>
</linearGradient>
<radialGradient id="paint27_radial_312_26946" cx="0" cy="0" r="1" gradientUnits="userSpaceOnUse" gradientTransform="translate(41.5854 60.2037) scale(6.31661 6.31662)">
<stop stop-color="#0062B7"/>
<stop offset="1"/>
</radialGradient>
<linearGradient id="paint28_linear_312_26946" x1="41.5841" y1="84.6207" x2="41.5841" y2="71.4558" gradientUnits="userSpaceOnUse">
<stop stop-color="#C2D6F2"/>
<stop offset="1" stop-color="#E6F5FF"/>
</linearGradient>
<linearGradient id="paint29_linear_312_26946" x1="11.1437" y1="75.7474" x2="11.1437" y2="74.9199" gradientUnits="userSpaceOnUse">
<stop stop-color="#2B3336"/>
<stop offset="0.0166703" stop-color="#2C3C41"/>
<stop offset="0.0981146" stop-color="#316473"/>
<stop offset="0.1814" stop-color="#36869E"/>
<stop offset="0.2651" stop-color="#3AA2C1"/>
<stop offset="0.3494" stop-color="#3CB8DC"/>
<stop offset="0.4347" stop-color="#3EC8F0"/>
<stop offset="0.5213" stop-color="#40D1FB"/>
<stop offset="0.6115" stop-color="#40D4FF"/>
</linearGradient>
<linearGradient id="paint30_linear_312_26946" x1="11.1413" y1="75.1013" x2="11.1413" y2="74.3877" gradientUnits="userSpaceOnUse">
<stop/>
<stop offset="1" stop-color="#78FAFF"/>
</linearGradient>
<linearGradient id="paint31_linear_312_26946" x1="11.1437" y1="79.0673" x2="11.1437" y2="78.2397" gradientUnits="userSpaceOnUse">
<stop stop-color="#2B3336"/>
<stop offset="0.0166703" stop-color="#293B41"/>
<stop offset="0.0981146" stop-color="#1E6073"/>
<stop offset="0.1814" stop-color="#15809E"/>
<stop offset="0.2651" stop-color="#0D9AC1"/>
<stop offset="0.3494" stop-color="#07AEDC"/>
<stop offset="0.4347" stop-color="#03BDF0"/>
<stop offset="0.5213" stop-color="#01C5FB"/>
<stop offset="0.6115" stop-color="#00C8FF"/>
</linearGradient>
<linearGradient id="paint32_linear_312_26946" x1="11.1413" y1="78.421" x2="11.1413" y2="77.7074" gradientUnits="userSpaceOnUse">
<stop/>
<stop offset="1" stop-color="#78FAFF"/>
</linearGradient>
<linearGradient id="paint33_linear_312_26946" x1="11.1437" y1="82.3434" x2="11.1437" y2="81.516" gradientUnits="userSpaceOnUse">
<stop stop-color="#2B3336"/>
<stop offset="0.0166703" stop-color="#2C3C41"/>
<stop offset="0.0981146" stop-color="#316473"/>
<stop offset="0.1814" stop-color="#36869E"/>
<stop offset="0.2651" stop-color="#3AA2C1"/>
<stop offset="0.3494" stop-color="#3CB8DC"/>
<stop offset="0.4347" stop-color="#3EC8F0"/>
<stop offset="0.5213" stop-color="#40D1FB"/>
<stop offset="0.6115" stop-color="#40D4FF"/>
</linearGradient>
<linearGradient id="paint34_linear_312_26946" x1="11.1413" y1="81.6983" x2="11.1413" y2="80.9847" gradientUnits="userSpaceOnUse">
<stop/>
<stop offset="1" stop-color="#78FAFF"/>
</linearGradient>
<linearGradient id="paint35_linear_312_26946" x1="11.143" y1="75.5725" x2="11.143" y2="74.2677" gradientUnits="userSpaceOnUse">
<stop stop-color="#17ACFF"/>
<stop offset="1" stop-color="#78FAFF"/>
</linearGradient>
<linearGradient id="paint36_linear_312_26946" x1="11.143" y1="78.8915" x2="11.143" y2="77.5867" gradientUnits="userSpaceOnUse">
<stop stop-color="#17ACFF"/>
<stop offset="1" stop-color="#78FAFF"/>
</linearGradient>
<linearGradient id="paint37_linear_312_26946" x1="11.143" y1="82.1695" x2="11.143" y2="80.8647" gradientUnits="userSpaceOnUse">
<stop stop-color="#17ACFF"/>
<stop offset="1" stop-color="#78FAFF"/>
</linearGradient>
<linearGradient id="paint38_linear_312_26946" x1="72.0249" y1="75.7474" x2="72.0249" y2="74.9199" gradientUnits="userSpaceOnUse">
<stop stop-color="#2B3336"/>
<stop offset="0.0166703" stop-color="#2C3C41"/>
<stop offset="0.0981146" stop-color="#316473"/>
<stop offset="0.1814" stop-color="#36869E"/>
<stop offset="0.2651" stop-color="#3AA2C1"/>
<stop offset="0.3494" stop-color="#3CB8DC"/>
<stop offset="0.4347" stop-color="#3EC8F0"/>
<stop offset="0.5213" stop-color="#40D1FB"/>
<stop offset="0.6115" stop-color="#40D4FF"/>
</linearGradient>
<linearGradient id="paint39_linear_312_26946" x1="72.0227" y1="75.1013" x2="72.0227" y2="74.3877" gradientUnits="userSpaceOnUse">
<stop/>
<stop offset="1" stop-color="#78FAFF"/>
</linearGradient>
<linearGradient id="paint40_linear_312_26946" x1="72.0249" y1="79.0673" x2="72.0249" y2="78.2397" gradientUnits="userSpaceOnUse">
<stop stop-color="#2B3336"/>
<stop offset="0.0166703" stop-color="#2C3C41"/>
<stop offset="0.0981146" stop-color="#316473"/>
<stop offset="0.1814" stop-color="#36869E"/>
<stop offset="0.2651" stop-color="#3AA2C1"/>
<stop offset="0.3494" stop-color="#3CB8DC"/>
<stop offset="0.4347" stop-color="#3EC8F0"/>
<stop offset="0.5213" stop-color="#40D1FB"/>
<stop offset="0.6115" stop-color="#40D4FF"/>
</linearGradient>
<linearGradient id="paint41_linear_312_26946" x1="72.0227" y1="78.421" x2="72.0227" y2="77.7074" gradientUnits="userSpaceOnUse">
<stop/>
<stop offset="1" stop-color="#78FAFF"/>
</linearGradient>
<linearGradient id="paint42_linear_312_26946" x1="72.0249" y1="82.3434" x2="72.0249" y2="81.516" gradientUnits="userSpaceOnUse">
<stop stop-color="#2B3336"/>
<stop offset="0.0166703" stop-color="#2C3C41"/>
<stop offset="0.0981146" stop-color="#316473"/>
<stop offset="0.1814" stop-color="#36869E"/>
<stop offset="0.2651" stop-color="#3AA2C1"/>
<stop offset="0.3494" stop-color="#3CB8DC"/>
<stop offset="0.4347" stop-color="#3EC8F0"/>
<stop offset="0.5213" stop-color="#40D1FB"/>
<stop offset="0.6115" stop-color="#40D4FF"/>
</linearGradient>
<linearGradient id="paint43_linear_312_26946" x1="72.0227" y1="81.6983" x2="72.0227" y2="80.9847" gradientUnits="userSpaceOnUse">
<stop/>
<stop offset="1" stop-color="#78FAFF"/>
</linearGradient>
<linearGradient id="paint44_linear_312_26946" x1="72.0242" y1="75.5725" x2="72.0242" y2="74.2677" gradientUnits="userSpaceOnUse">
<stop stop-color="#17ACFF"/>
<stop offset="1" stop-color="#78FAFF"/>
</linearGradient>
<linearGradient id="paint45_linear_312_26946" x1="72.0242" y1="78.8915" x2="72.0242" y2="77.5867" gradientUnits="userSpaceOnUse">
<stop stop-color="#17ACFF"/>
<stop offset="1" stop-color="#78FAFF"/>
</linearGradient>
<linearGradient id="paint46_linear_312_26946" x1="72.0242" y1="82.1695" x2="72.0242" y2="80.8647" gradientUnits="userSpaceOnUse">
<stop stop-color="#17ACFF"/>
<stop offset="1" stop-color="#78FAFF"/>
</linearGradient>
<linearGradient id="paint47_linear_312_26946" x1="75.6419" y1="46.815" x2="82.4542" y2="46.815" gradientUnits="userSpaceOnUse">
<stop stop-color="#335D94"/>
<stop offset="1" stop-color="#204270"/>
</linearGradient>
<linearGradient id="paint48_linear_312_26946" x1="4.04281" y1="48.2398" x2="4.04281" y2="63.7186" gradientUnits="userSpaceOnUse">
<stop stop-color="#6287C9"/>
<stop offset="1" stop-color="#3B597D"/>
</linearGradient>
<radialGradient id="paint49_radial_312_26946" cx="0" cy="0" r="1" gradientUnits="userSpaceOnUse" gradientTransform="translate(4.0577 55.978) scale(4.44707 4.44709)">
<stop stop-color="#F8FC86"/>
<stop offset="1" stop-color="#EDCE20"/>
</radialGradient>
<linearGradient id="paint50_linear_312_26946" x1="4.34929" y1="61.5247" x2="4.34929" y2="63.7176" gradientUnits="userSpaceOnUse">
<stop stop-color="#99B2BF"/>
<stop offset="1" stop-color="#9BBD67"/>
</linearGradient>
<linearGradient id="paint51_linear_312_26946" x1="4.04281" y1="48.2398" x2="4.04281" y2="50.7617" gradientUnits="userSpaceOnUse">
<stop stop-color="#94885C"/>
<stop offset="1" stop-color="#2C507A"/>
</linearGradient>
<linearGradient id="paint52_linear_312_26946" x1="3.02275" y1="50.277" x2="3.02275" y2="62.039" gradientUnits="userSpaceOnUse">
<stop stop-color="#739CB0"/>
<stop offset="1" stop-color="#476B96"/>
</linearGradient>
<linearGradient id="paint53_linear_312_26946" x1="5.35863" y1="48.2398" x2="5.35863" y2="63.7186" gradientUnits="userSpaceOnUse">
<stop stop-color="#739CB0"/>
<stop offset="1" stop-color="#476B96"/>
</linearGradient>
<linearGradient id="paint54_linear_312_26946" x1="79.1257" y1="48.2398" x2="79.1257" y2="63.7186" gradientUnits="userSpaceOnUse">
<stop stop-color="#6287C9"/>
<stop offset="1" stop-color="#3B597D"/>
</linearGradient>
<radialGradient id="paint55_radial_312_26946" cx="0" cy="0" r="1" gradientUnits="userSpaceOnUse" gradientTransform="translate(79.1144 55.978) rotate(180) scale(4.44717 4.44709)">
<stop stop-color="#F8FC86"/>
<stop offset="1" stop-color="#EDCE20"/>
</radialGradient>
<linearGradient id="paint56_linear_312_26946" x1="78.8168" y1="61.5247" x2="78.8168" y2="63.7176" gradientUnits="userSpaceOnUse">
<stop stop-color="#99B2BF"/>
<stop offset="1" stop-color="#9BBD67"/>
</linearGradient>
<linearGradient id="paint57_linear_312_26946" x1="79.1257" y1="48.2398" x2="79.1257" y2="50.7617" gradientUnits="userSpaceOnUse">
<stop stop-color="#94885C"/>
<stop offset="1" stop-color="#2C507A"/>
</linearGradient>
<linearGradient id="paint58_linear_312_26946" x1="80.1479" y1="50.277" x2="80.1479" y2="62.039" gradientUnits="userSpaceOnUse">
<stop stop-color="#739CB0"/>
<stop offset="1" stop-color="#476B96"/>
</linearGradient>
<linearGradient id="paint59_linear_312_26946" x1="77.8096" y1="48.2398" x2="77.8096" y2="63.7186" gradientUnits="userSpaceOnUse">
<stop stop-color="#739CB0"/>
<stop offset="1" stop-color="#476B96"/>
</linearGradient>
<linearGradient id="paint60_linear_312_26946" x1="54.505" y1="44.6825" x2="36.7256" y2="26.903" gradientUnits="userSpaceOnUse">
<stop stop-color="#17ACFF"/>
<stop offset="1" stop-color="#78FAFF"/>
</linearGradient>
</defs>
</svg>
