<svg width="1111" height="226" viewBox="0 0 1111 226" fill="none" xmlns="http://www.w3.org/2000/svg">
<path d="M162.715 0.88703V226H99.683V47.196H97.1103L-7.40644 226H-71.0813L-174.955 47.196H-177.206V226H-240.238V0.88703H-128.324L-36.9927 158.145H-34.7416L57.5547 0.88703H162.715ZM474.087 178.405V226H212.312V0.88703H474.087V48.4823H275.344V89.6459H474.087V136.92H275.344V178.405H474.087ZM675.419 52.9846V226H612.388V52.9846H501.761V0.88703H785.725V52.9846H675.419ZM975.993 0.88703L1110.42 226H1039.35L1009.76 176.475H844.784L815.198 226H744.77L879.194 0.88703H975.993ZM928.719 39.7994H926.147L872.763 128.88H981.46L928.719 39.7994Z" fill="#140C25" fill-opacity="0.3"/>
</svg>
