<svg width="987" height="230" viewBox="0 0 987 230" fill="none" xmlns="http://www.w3.org/2000/svg">
<path d="M323.639 0.88703V226H229.413L64.7588 56.8437H62.5077V226H0.762427V0.88703H94.9883L259.321 170.365H261.893V0.88703H323.639ZM436.261 138.206V226H373.229V0.88703H635.003V48.4823H436.261V90.6106H635.003V138.206H436.261ZM832.253 52.9846V226H769.222V52.9846H658.595V0.88703H942.559V52.9846H832.253ZM1176.09 229.216H1161.94C1122.92 229.216 1094.4 223.213 1076.4 211.207C1058.6 199.201 1049.7 177.976 1049.7 147.532V134.025C1049.7 103.581 1058.6 82.3565 1076.4 70.3505C1094.4 58.3444 1122.92 52.3414 1161.94 52.3414H1176.09C1212.54 52.3414 1239.55 57.5941 1257.13 68.0993C1274.71 78.6046 1285 93.9337 1288 114.087H1229.15C1224.43 107.441 1218 102.724 1209.86 99.9367C1201.71 97.1496 1189.06 95.7561 1171.91 95.7561C1147.9 95.7561 1131.07 98.436 1121.42 103.796C1111.98 108.941 1107.27 119.875 1107.27 136.598V144.959C1107.27 161.682 1111.98 172.723 1121.42 178.083C1131.07 183.229 1147.9 185.801 1171.91 185.801C1189.06 185.801 1201.71 184.408 1209.86 181.621C1218 178.833 1224.43 174.117 1229.15 167.471H1288C1285 187.624 1274.71 202.953 1257.13 213.458C1239.55 223.963 1212.54 229.216 1176.09 229.216Z" fill="#140C25" fill-opacity="0.3"/>
</svg>
