<svg width="1920" height="233" viewBox="0 0 1920 233" fill="none" xmlns="http://www.w3.org/2000/svg">
<path d="M-183.614 232.216H-218.989C-272.802 232.216 -310.857 224.283 -333.154 208.418C-355.236 192.339 -366.277 164.36 -366.277 124.483V108.404C-366.277 68.5266 -355.236 40.6555 -333.154 24.7904C-310.857 8.71088 -272.802 0.671134 -218.989 0.671134H-183.614C-129.802 0.671134 -91.7467 8.71088 -69.4498 24.7904C-47.1529 40.6555 -36.0045 68.5266 -36.0045 108.404V124.483C-36.0045 164.36 -47.1529 192.339 -69.4498 208.418C-91.7467 224.283 -129.802 232.216 -183.614 232.216ZM-208.698 183.656H-193.584C-167.213 183.656 -147.382 181.619 -134.089 177.546C-120.583 173.258 -111.578 166.826 -107.076 158.25C-102.359 149.674 -100.001 137.025 -100.001 120.303V112.906C-100.001 95.969 -102.359 83.2126 -107.076 74.6368C-111.578 66.0611 -120.583 59.7365 -134.089 55.663C-147.382 51.3752 -167.213 49.2312 -193.584 49.2312H-208.698C-235.283 49.2312 -255.222 51.3752 -268.514 55.663C-281.806 59.7365 -290.704 66.0611 -295.206 74.6368C-299.708 83.2126 -301.959 95.969 -301.959 112.906V120.303C-301.959 137.24 -299.708 149.996 -295.206 158.572C-290.704 166.933 -281.806 173.258 -268.514 177.546C-255.222 181.619 -235.283 183.656 -208.698 183.656ZM165.909 232.216H126.675C93.2295 232.216 67.2879 228.786 48.8501 221.925C30.4122 215.064 17.4415 204.452 9.93769 190.088C2.64832 175.723 -0.996368 155.57 -0.996368 129.629V3.88703H63.3216V126.734C63.3216 148.817 68.4671 163.824 78.7579 171.757C89.2632 179.69 109.631 183.656 139.86 183.656H153.045C183.06 183.656 203.213 179.69 213.504 171.757C224.009 163.824 229.262 148.817 229.262 126.734V3.88703H293.258V129.629C293.258 155.356 289.507 175.509 282.003 190.088C274.713 204.452 261.85 215.064 243.412 221.925C225.189 228.786 199.354 232.216 165.909 232.216ZM399.793 152.462V229H336.761V3.88703H538.076C573.451 3.88703 598.428 8.28209 613.007 17.0722C627.585 25.648 634.875 40.2267 634.875 60.8085V72.0641C634.875 89.2156 630.801 101.758 622.654 109.69C614.507 117.408 601.322 121.911 583.099 123.197V124.805C601.751 126.949 615.043 131.558 622.976 138.633C630.909 145.494 634.875 158.465 634.875 177.546V229H571.843V183.334C571.843 170.899 568.306 162.645 561.231 158.572C554.37 154.498 539.148 152.462 515.565 152.462H399.793ZM515.565 51.4823H399.793V104.866H527.464C544.615 104.866 556.193 103.151 562.196 99.7208C568.627 96.2905 571.843 89.5372 571.843 79.4607V77.8527C571.843 66.9187 568.199 59.8437 560.909 56.6278C553.834 53.1975 538.719 51.4823 515.565 51.4823ZM924.547 55.9846V229H861.515V55.9846H750.888V3.88703H1034.85V55.9846H924.547ZM1328.08 181.405V229H1066.31V3.88703H1328.08V51.4823H1129.34V92.6459H1328.08V139.92H1129.34V181.405H1328.08ZM1584.08 3.88703L1718.51 229H1647.44L1617.85 179.475H1452.87L1423.29 229H1352.86L1487.28 3.88703H1584.08ZM1536.81 42.7994H1534.24L1480.85 131.88H1589.55L1536.81 42.7994ZM2150.12 3.88703V229H2087.09V50.196H2084.52L1980 229H1916.33L1812.45 50.196H1810.2V229H1747.17V3.88703H1859.08L1950.42 161.145H1952.67L2044.96 3.88703H2150.12Z" fill="#140C25" fill-opacity="0.1"/>
</svg>
