<svg width="1905" height="233" viewBox="0 0 1905 233" fill="none" xmlns="http://www.w3.org/2000/svg">
<path d="M63.7941 152.462V229H0.762427V3.88703H202.078C237.453 3.88703 262.429 8.28209 277.008 17.0722C291.587 25.648 298.876 40.2267 298.876 60.8085V72.0641C298.876 89.2156 294.803 101.758 286.656 109.69C278.509 117.408 265.324 121.911 247.1 123.197V124.805C265.753 126.949 279.045 131.558 286.977 138.633C294.91 145.494 298.876 158.465 298.876 177.546V229H235.845V183.334C235.845 170.899 232.307 162.645 225.232 158.572C218.372 154.498 203.15 152.462 179.566 152.462H63.7941ZM179.566 51.4823H63.7941V104.866H191.465C208.617 104.866 220.194 103.151 226.197 99.7208C232.629 96.2905 235.845 89.5372 235.845 79.4607V77.8527C235.845 66.9187 232.2 59.8437 224.911 56.6278C217.836 53.1975 202.721 51.4823 179.566 51.4823ZM518.645 232.216H483.27C429.458 232.216 391.403 224.283 369.106 208.418C347.024 192.339 335.982 164.36 335.982 124.483V108.404C335.982 68.5266 347.024 40.6555 369.106 24.7904C391.403 8.71088 429.458 0.671134 483.27 0.671134H518.645C572.458 0.671134 610.513 8.71088 632.81 24.7904C655.107 40.6555 666.255 68.5266 666.255 108.404V124.483C666.255 164.36 655.107 192.339 632.81 208.418C610.513 224.283 572.458 232.216 518.645 232.216ZM493.561 183.656H508.676C535.046 183.656 554.878 181.619 568.17 177.546C581.677 173.258 590.681 166.826 595.184 158.25C599.9 149.674 602.259 137.025 602.259 120.303V112.906C602.259 95.969 599.9 83.2126 595.184 74.6368C590.681 66.0611 581.677 59.7365 568.17 55.663C554.878 51.3752 535.046 49.2312 508.676 49.2312H493.561C466.977 49.2312 447.038 51.3752 433.746 55.663C420.453 59.7365 411.556 66.0611 407.054 74.6368C402.551 83.2126 400.3 95.969 400.3 112.906V120.303C400.3 137.24 402.551 149.996 407.054 158.572C411.556 166.933 420.453 173.258 433.746 177.546C447.038 181.619 466.977 183.656 493.561 183.656ZM899.486 3.88703L1033.91 229H962.839L933.253 179.475H768.277L738.691 229H668.263L802.687 3.88703H899.486ZM852.212 42.7994H849.639L796.255 131.88H904.953L852.212 42.7994ZM1370.01 111.62V121.267C1370.01 148.495 1365.51 169.827 1356.51 185.264C1347.72 200.486 1333.03 211.634 1312.45 218.709C1291.87 225.57 1263.35 229 1226.91 229H1062.57V3.88703H1224.33C1278.79 3.88703 1316.63 11.8196 1337.86 27.6847C1359.29 43.5498 1370.01 71.5281 1370.01 111.62ZM1210.51 52.4471H1125.61V180.44H1210.51C1237.73 180.44 1258.1 178.403 1271.61 174.33C1285.33 170.256 1294.44 164.039 1298.94 155.677C1303.66 147.316 1306.02 134.56 1306.02 117.408V116.122C1306.02 98.9705 1303.66 86.1069 1298.94 77.5311C1294.44 68.9554 1285.33 62.6308 1271.61 58.5573C1258.1 54.4839 1237.73 52.4471 1210.51 52.4471ZM1814.44 3.88703V229H1751.41V50.196H1748.83L1644.32 229H1580.64L1476.77 50.196H1474.52V229H1411.49V3.88703H1523.4L1614.73 161.145H1616.98L1709.28 3.88703H1814.44ZM2074.36 3.88703L2208.78 229H2137.71L2108.12 179.475H1943.15L1913.56 229H1843.13L1977.56 3.88703H2074.36ZM2027.08 42.7994H2024.51L1971.13 131.88H2079.82L2027.08 42.7994ZM2300.48 160.823V229H2237.45V3.88703H2432.97C2469.42 3.88703 2495.58 9.67565 2511.44 21.2529C2527.52 32.6157 2535.56 52.6615 2535.56 81.3902V86.2141C2535.56 112.799 2527.63 131.88 2511.76 143.457C2496.11 155.034 2469.85 160.823 2432.97 160.823H2300.48ZM2422.04 51.4823H2300.48V113.228H2422.36C2442.73 113.228 2456.13 111.191 2462.56 107.117C2469.2 102.83 2472.53 95.1114 2472.53 83.9629V80.747C2472.53 69.3842 2469.2 61.666 2462.56 57.5925C2455.91 53.5191 2442.41 51.4823 2422.04 51.4823Z" fill="#140C25" fill-opacity="0.3"/>
</svg>
