<svg width="37" height="37" viewBox="0 0 37 37" fill="none" xmlns="http://www.w3.org/2000/svg">
<g clip-path="url(#clip0_303_27609)">
<path d="M32.1917 5.38184H4.22904C3.16959 5.38184 2.15353 5.80326 1.40439 6.55341C0.655241 7.30355 0.234375 8.32097 0.234375 9.38184L0.234375 13.3818H36.1864V9.38184C36.1864 8.32097 35.7655 7.30355 35.0164 6.55341C34.2672 5.80326 33.2512 5.38184 32.1917 5.38184Z" fill="#D90012"/>
<path d="M4.2282 30.0078L32.1909 30.0078C33.2503 30.0078 34.2664 29.132 35.0155 27.573C35.7647 26.014 36.1855 23.8996 36.1855 21.6948L36.1855 13.3818L0.23353 13.3818L0.233529 21.6948C0.233529 23.8996 0.654396 26.014 1.40354 27.573C2.15269 29.132 3.16875 30.0078 4.2282 30.0078Z" fill="#D90012"/>
<path d="M4.22904 31.3818H32.1917C33.2512 31.3818 34.2672 30.9604 35.0164 30.2103C35.7655 29.4601 36.1864 28.4427 36.1864 27.3818V23.3818H0.234375V27.3818C0.234375 28.4427 0.655241 29.4601 1.40439 30.2103C2.15353 30.9604 3.16959 31.3818 4.22904 31.3818Z" fill="#F2A800"/>
</g>
<defs>
<clipPath id="clip0_303_27609">
<rect width="35.952" height="36" fill="white" transform="translate(0.234375 0.381836)"/>
</clipPath>
</defs>
</svg>
