<svg width="1330" height="233" viewBox="0 0 1330 233" fill="none" xmlns="http://www.w3.org/2000/svg">
<path d="M349.141 3.88703L214.716 229H135.284L0.859079 3.88703H75.4679L176.447 175.938H178.698L279.999 3.88703H349.141ZM440.93 3.88703V229H377.898V3.88703H440.93ZM642.441 232.216H625.397C612.319 232.216 600.527 231.894 590.022 231.251C579.731 230.608 569.119 229.429 558.184 227.714C547.465 225.998 537.924 223.533 529.563 220.317C521.416 217.101 513.805 213.242 506.73 208.74C499.87 204.023 494.081 198.127 489.364 191.052C484.862 183.977 481.646 175.938 479.717 166.933H546.929C551.645 175.08 560.65 180.547 573.942 183.334C587.449 185.907 609.21 187.193 639.225 187.193C670.098 187.193 691.859 185.371 704.508 181.726C717.372 178.082 723.911 171.221 724.125 161.145V159.215C724.125 152.783 721.767 148.067 717.05 145.065C712.333 141.849 703.436 140.134 690.358 139.92L579.731 136.061C546.286 135.203 522.81 130.057 509.303 120.624C495.796 111.191 489.043 96.1834 489.043 75.6016V73.0289C489.043 46.2297 499.87 27.4703 521.523 16.7506C543.391 6.03097 578.445 0.671134 626.683 0.671134H639.547C658.842 0.671134 675.565 1.52871 689.715 3.24386C703.865 4.95901 717.693 8.06771 731.2 12.57C744.921 17.0722 756.07 24.04 764.645 33.4733C773.221 42.6922 779.224 54.2695 782.654 68.205H715.442C711.797 59.4149 703.222 53.5191 689.715 50.5176C676.422 47.3017 656.591 45.6937 630.221 45.6937C599.991 45.6937 579.624 47.5161 569.119 51.1608C558.613 54.5911 553.361 60.5941 553.361 69.1698V69.813C553.361 76.2448 555.719 81.0686 560.436 84.2845C565.152 87.286 573.942 89.0012 586.806 89.43L697.433 93.289C731.093 94.5754 754.569 99.7208 767.861 108.725C781.154 117.73 787.8 132.416 787.8 152.783V155.356C787.8 184.513 776.222 204.666 753.068 215.815C730.128 226.749 693.252 232.216 642.441 232.216ZM888.769 3.88703V229H825.737V3.88703H888.769ZM1112.79 232.216H1077.42C1023.6 232.216 985.549 224.283 963.252 208.418C941.17 192.339 930.128 164.36 930.128 124.483V108.404C930.128 68.5266 941.17 40.6555 963.252 24.7904C985.549 8.71088 1023.6 0.671134 1077.42 0.671134H1112.79C1166.6 0.671134 1204.66 8.71088 1226.96 24.7904C1249.25 40.6555 1260.4 68.5266 1260.4 108.404V124.483C1260.4 164.36 1249.25 192.339 1226.96 208.418C1204.66 224.283 1166.6 232.216 1112.79 232.216ZM1087.71 183.656H1102.82C1129.19 183.656 1149.02 181.619 1162.32 177.546C1175.82 173.258 1184.83 166.826 1189.33 158.25C1194.05 149.674 1196.4 137.025 1196.4 120.303V112.906C1196.4 95.969 1194.05 83.2126 1189.33 74.6368C1184.83 66.0611 1175.82 59.7365 1162.32 55.663C1149.02 51.3752 1129.19 49.2312 1102.82 49.2312H1087.71C1061.12 49.2312 1041.18 51.3752 1027.89 55.663C1014.6 59.7365 1005.7 66.0611 1001.2 74.6368C996.697 83.2126 994.446 95.969 994.446 112.906V120.303C994.446 137.24 996.697 149.996 1001.2 158.572C1005.7 166.933 1014.6 173.258 1027.89 177.546C1041.18 181.619 1061.12 183.656 1087.71 183.656ZM1624.72 3.88703V229H1530.49L1365.84 59.8437H1363.59V229H1301.84V3.88703H1396.07L1560.4 173.365H1562.97V3.88703H1624.72Z" fill="#140C25" fill-opacity="0.3"/>
</svg>
