<svg width="30" height="29" viewBox="0 0 30 29" fill="none" xmlns="http://www.w3.org/2000/svg">
<path d="M14.7397 28.7509C18.5523 28.7509 22.2088 27.2364 24.9047 24.5405C27.6006 21.8445 29.1152 18.1881 29.1152 14.3755C29.1152 10.5629 27.6006 6.9064 24.9047 4.21048C22.2088 1.51455 18.5523 0 14.7397 0C10.9271 0 7.27066 1.51455 4.57474 4.21048C1.87881 6.9064 0.364258 10.5629 0.364258 14.3755C0.364258 18.1881 1.87881 21.8445 4.57474 24.5405C7.27066 27.2364 10.9271 28.7509 14.7397 28.7509ZM16.4109 11.8382L14.6139 20.2928C14.4882 20.9037 14.6661 21.2505 15.1602 21.2505C15.5088 21.2505 16.0353 21.1248 16.3929 20.8085L16.2348 21.556C15.7191 22.1778 14.5816 22.6306 13.6023 22.6306C12.339 22.6306 11.8017 21.8723 12.1503 20.2604L13.4765 14.0287C13.5915 13.5022 13.4873 13.3117 12.9608 13.1841L12.1503 13.0386L12.2977 12.3539L16.4127 11.8382H16.4109ZM14.7397 9.88314C14.2632 9.88314 13.8061 9.69382 13.4691 9.35683C13.1321 9.01984 12.9428 8.56278 12.9428 8.0862C12.9428 7.60963 13.1321 7.15257 13.4691 6.81558C13.8061 6.47859 14.2632 6.28927 14.7397 6.28927C15.2163 6.28927 15.6734 6.47859 16.0104 6.81558C16.3473 7.15257 16.5367 7.60963 16.5367 8.0862C16.5367 8.56278 16.3473 9.01984 16.0104 9.35683C15.6734 9.69382 15.2163 9.88314 14.7397 9.88314Z" fill="#553CDF"/>
</svg>
