<svg width="165" height="158" viewBox="0 0 165 158" fill="none" xmlns="http://www.w3.org/2000/svg">
<path fill-rule="evenodd" clip-rule="evenodd" d="M5.08937 16.8291V40.0948L2.18116 37.1866V14.648L82.884 3.01514L135.232 10.2857V13.9209L82.884 6.6504L5.08937 16.8291ZM5.08937 42.276V84.445L0 89.5344V128.795L82.1569 157.15L164.314 128.795V62.6334L162.86 61.1793L159.952 57.5441V16.8291L136.686 13.9209V10.2857V8.83156L82.884 0.833984L0 13.1939V37.9137L5.08937 42.276ZM5.08937 86.6262V125.16L62.5265 145.517V149.153L1.4541 128.068V90.2614L5.08937 86.6262ZM64.7077 146.244L82.884 152.788L101.06 146.244V149.88L82.884 156.423L64.7077 149.88V146.244ZM101.787 145.517L159.225 125.16V59.7252L162.86 63.3605V128.068L101.787 149.153V145.517ZM7.27053 18.2832V123.706L82.884 149.88L158.497 123.706V18.2832L82.884 7.37746L7.27053 18.2832Z" fill="url(#paint0_radial_312_27616)"/>
<defs>
<radialGradient id="paint0_radial_312_27616" cx="0" cy="0" r="1" gradientUnits="userSpaceOnUse" gradientTransform="translate(3.93845 13.7108) scale(233.968 233.968)">
<stop stop-color="#67DBFF"/>
<stop offset="1" stop-color="#0068DE"/>
</radialGradient>
</defs>
</svg>
