<svg width="82" height="121" viewBox="0 0 82 121" fill="none" xmlns="http://www.w3.org/2000/svg">
<path fill-rule="evenodd" clip-rule="evenodd" d="M75.0547 71.2545V37.4014L81.8778 45.2742L80.5657 69.155L75.0547 71.2545Z" fill="url(#paint0_linear_312_27248)"/>
<path fill-rule="evenodd" clip-rule="evenodd" d="M27.0293 82.2783V100.648L40.9379 105.372L54.5841 100.648V82.2783H27.0293Z" fill="#9B9B9B"/>
<path fill-rule="evenodd" clip-rule="evenodd" d="M28.6035 82.2783V99.5985L40.9375 103.797L53.2716 99.5985V82.2783H28.6035Z" fill="url(#paint1_radial_312_27248)"/>
<path fill-rule="evenodd" clip-rule="evenodd" d="M54.584 82.2783V100.648L56.1586 101.698V82.2783H54.584Z" fill="url(#paint2_linear_312_27248)"/>
<path fill-rule="evenodd" clip-rule="evenodd" d="M54.5836 100.648V82.2783H53.2715V99.5985L54.5836 100.648Z" fill="url(#paint3_linear_312_27248)"/>
<path fill-rule="evenodd" clip-rule="evenodd" d="M28.6039 99.5985V82.2783H27.0293V100.648L28.6039 99.5985Z" fill="url(#paint4_linear_312_27248)"/>
<path fill-rule="evenodd" clip-rule="evenodd" d="M27.0289 100.648V82.2783H25.7168V101.698L27.0289 100.648Z" fill="url(#paint5_linear_312_27248)"/>
<path fill-rule="evenodd" clip-rule="evenodd" d="M30.7029 101.961L40.9375 105.372V106.947L30.7029 103.535L25.7168 101.698L27.0289 100.648L30.7029 101.961Z" fill="url(#paint6_linear_312_27248)"/>
<path fill-rule="evenodd" clip-rule="evenodd" d="M40.9379 105.371L30.7033 101.96L27.0293 100.647L28.6039 99.5977L30.7033 100.385L40.9379 103.796V105.371Z" fill="url(#paint7_linear_312_27248)"/>
<path fill-rule="evenodd" clip-rule="evenodd" d="M40.9395 105.372L51.1742 101.961L54.5857 100.648L56.1603 101.698L51.1742 103.535L40.9395 106.947V105.372Z" fill="url(#paint8_linear_312_27248)"/>
<path fill-rule="evenodd" clip-rule="evenodd" d="M54.5857 100.647L51.1742 101.96L40.9395 105.371V103.796L51.1742 100.385L53.2736 99.5977L54.5857 100.647Z" fill="url(#paint9_linear_312_27248)"/>
<path fill-rule="evenodd" clip-rule="evenodd" d="M28.6035 95.3994H53.2716V120.068H28.6035V95.3994Z" fill="url(#paint10_radial_312_27248)"/>
<path fill-rule="evenodd" clip-rule="evenodd" d="M6.82499 71.2545V37.4014L0.00195312 45.2742L1.31409 69.155L6.82499 71.2545Z" fill="url(#paint11_linear_312_27248)"/>
<path fill-rule="evenodd" clip-rule="evenodd" d="M6.82422 55.5109L8.13635 54.7236L40.9397 66.008V67.3201L6.82422 55.5109Z" fill="url(#paint12_linear_312_27248)"/>
<path fill-rule="evenodd" clip-rule="evenodd" d="M75.055 55.5109L73.7428 54.7236L40.9395 66.008V67.3201L75.055 55.5109Z" fill="url(#paint13_linear_312_27248)"/>
<path fill-rule="evenodd" clip-rule="evenodd" d="M6.82422 6.69922L8.13635 8.01135V54.7234L6.82422 55.5107V6.69922Z" fill="url(#paint14_linear_312_27248)"/>
<path fill-rule="evenodd" clip-rule="evenodd" d="M40.9404 100.647V67.3185L6.82483 55.5092L5.5127 54.9844V88.3126L40.9404 100.647Z" fill="url(#paint15_linear_312_27248)"/>
<path fill-rule="evenodd" clip-rule="evenodd" d="M40.9395 67.3185V100.647L76.3671 88.3126V54.9844L75.055 55.5092L40.9395 67.3185Z" fill="url(#paint16_linear_312_27248)"/>
<path fill-rule="evenodd" clip-rule="evenodd" d="M40.9404 99.3356L6.82483 87.5264L5.5127 88.3136L40.9404 100.648V99.3356Z" fill="url(#paint17_linear_312_27248)"/>
<path fill-rule="evenodd" clip-rule="evenodd" d="M75.055 87.5264L40.9395 99.3356V100.648L76.3671 88.3136L75.055 87.5264Z" fill="url(#paint18_linear_312_27248)"/>
<path fill-rule="evenodd" clip-rule="evenodd" d="M5.51286 5.64941V41.6019L0.00195312 45.2759L1.31409 69.1568L5.51286 70.7313V88.314L6.82499 87.5267V71.2562V56.0354V40.5522V6.69912L5.51286 5.64941Z" fill="url(#paint19_linear_312_27248)"/>
<path fill-rule="evenodd" clip-rule="evenodd" d="M80.3029 50.5232L76.6289 48.4238V63.907L79.5156 62.3325L80.3029 50.5232Z" fill="#808080"/>
<path fill-rule="evenodd" clip-rule="evenodd" d="M8.13672 8.01053V54.7226L40.9401 66.0069L73.7435 54.7226V8.01053L40.9401 3.02441L8.13672 8.01053Z" fill="url(#paint20_radial_312_27248)"/>
<path fill-rule="evenodd" clip-rule="evenodd" d="M20.7285 58.9215L66.3908 6.96094L73.7388 8.01065V54.7227L40.9354 66.007L20.7285 58.9215Z" fill="url(#paint21_radial_312_27248)"/>
<path fill-rule="evenodd" clip-rule="evenodd" d="M13.1202 11.9472V20.3449L11.8081 19.0328V11.1599L40.9374 6.96111L59.8322 9.58538V10.8975L40.9374 8.27325L13.1202 11.9472ZM13.1202 21.1322V36.3529L11.2832 38.1899V52.361L40.9374 62.5957L70.5917 52.361V28.4801L70.0669 27.9553L68.7547 26.6431V11.9472L60.3571 10.8975V9.58538V9.06053L40.9374 6.17383L11.2832 10.6351V19.5576L13.1202 21.1322ZM13.1202 37.1402V51.0489L33.852 58.3968V59.709L11.8081 52.0986V38.4524L13.1202 37.1402ZM34.3768 58.6593L40.9374 61.0211L47.4981 58.6593V59.9714L40.9374 62.3332L34.3768 59.9714V58.6593ZM48.023 58.3968L68.7547 51.0489V27.4304L70.0669 28.7426V52.0986L48.023 59.709V58.3968ZM13.645 12.4721V50.524L40.9374 59.9714L68.2299 50.524V12.4721L40.9374 8.53567L13.645 12.4721Z" fill="url(#paint22_radial_312_27248)"/>
<path fill-rule="evenodd" clip-rule="evenodd" d="M6.82483 6.69864L40.9404 1.71253V0.400391L5.5127 5.64893L6.82483 6.69864Z" fill="url(#paint23_linear_312_27248)"/>
<path fill-rule="evenodd" clip-rule="evenodd" d="M40.9397 1.71191L6.82422 6.69803L8.13635 8.01017L40.9397 3.02405V1.71191Z" fill="url(#paint24_linear_312_27248)"/>
<path fill-rule="evenodd" clip-rule="evenodd" d="M75.0543 6.69922L73.7422 8.01135V54.7234L75.0543 55.5107V6.69922Z" fill="url(#paint25_linear_312_27248)"/>
<path fill-rule="evenodd" clip-rule="evenodd" d="M75.055 6.69864L40.9395 1.71253V0.400391L76.3671 5.64893L75.055 6.69864Z" fill="url(#paint26_linear_312_27248)"/>
<path fill-rule="evenodd" clip-rule="evenodd" d="M40.9395 1.71191L75.055 6.69803L73.7428 8.01017L40.9395 3.02405V1.71191Z" fill="url(#paint27_linear_312_27248)"/>
<path fill-rule="evenodd" clip-rule="evenodd" d="M70.5926 27.6929V10.6351L60.8828 9.06055V10.3727L69.2805 11.6848V26.3807L70.5926 27.6929Z" fill="#CCCC14"/>
<path fill-rule="evenodd" clip-rule="evenodd" d="M11.2832 20.3438V37.4015L12.3329 36.0894V21.3935L11.2832 20.3438Z" fill="#CCCC14"/>
<path fill-rule="evenodd" clip-rule="evenodd" d="M40.9396 60.7596L34.3789 58.6602V59.9723L40.9396 62.0717L47.2379 59.9723V58.6602L40.9396 60.7596Z" fill="url(#paint28_radial_312_27248)"/>
<path fill-rule="evenodd" clip-rule="evenodd" d="M40.9378 73.8799L40.1506 67.844L12.5957 57.6094L40.9378 67.3192V73.8799Z" fill="white"/>
<path fill-rule="evenodd" clip-rule="evenodd" d="M6.82313 33.991L6.29832 6.69859L5.77344 5.64888L7.08557 6.17373L17.8451 5.12402L6.82313 6.69859V33.991Z" fill="white"/>
<path fill-rule="evenodd" clip-rule="evenodd" d="M21.7793 4.59923L40.6741 1.4501L40.9364 0.400391V1.71253L21.7793 4.59923Z" fill="white"/>
<path opacity="0.5" d="M57.9951 85.9521H66.6552V83.3279H60.6193V73.0932H57.7327V85.9521H57.9951ZM47.498 85.9521H56.4206V83.3279H50.3847V80.4412H55.6332V77.8169H50.3847V75.7175H56.4206V73.0932H47.498V85.9521ZM42.2494 85.9521L46.4483 73.6181V72.5684L43.824 72.8308L41.1997 80.7036L40.9373 82.0157L40.6749 80.7036L38.0507 72.8308L35.4264 72.5684V73.6181L39.6252 85.9521H42.2494ZM25.4541 85.9521H34.3766V83.3279H28.3408V80.4412H33.5894V77.8169H28.3408V75.7175H34.3766V73.0932H25.4541V85.9521ZM15.2195 85.9521H23.8795V83.3279H17.8437V73.0932H14.957V85.9521H15.2195Z" fill="#4D5E6E"/>
<path d="M57.9951 84.9026H66.6552V82.2783H60.6193V72.0437H57.7327V84.9026H57.9951ZM47.498 84.9026H56.4206V82.2783H50.3847V79.3916H55.6332V76.7674H50.3847V74.6679H56.4206V72.0437H47.498V84.9026ZM42.2494 84.9026L46.4483 72.5685L43.824 71.7812L41.1997 79.6541L40.9373 80.9662L40.6749 79.6541L38.0507 71.7812L35.4264 72.5685L39.6252 84.9026H42.2494ZM25.4541 84.9026H34.3766V82.2783H28.3408V79.3916H33.5894V76.7674H28.3408V74.6679H34.3766V72.0437H25.4541V84.9026ZM15.2195 84.9026H23.8795V82.2783H17.8437V72.0437H14.957V84.9026H15.2195Z" fill="url(#paint29_linear_312_27248)"/>
<path fill-rule="evenodd" clip-rule="evenodd" d="M8.91992 75.1924C8.91992 75.7172 9.1823 75.9797 9.44473 75.9797H11.0193C11.2817 75.9797 11.5442 75.7172 11.5442 75.4548V75.1924C10.7569 75.1924 10.2321 75.1924 8.91992 75.1924Z" fill="url(#paint30_linear_312_27248)"/>
<path fill-rule="evenodd" clip-rule="evenodd" d="M11.2794 74.667H9.70483C9.4424 74.667 9.44238 74.9294 9.44238 74.9294C9.44238 75.1918 9.70483 75.1918 9.70483 75.1918H11.2794C11.5418 75.1918 11.5418 74.9294 11.5418 74.9294C11.5418 74.667 11.5418 74.667 11.2794 74.667Z" fill="url(#paint31_linear_312_27248)"/>
<path fill-rule="evenodd" clip-rule="evenodd" d="M8.91992 78.3418C8.91992 78.8667 9.1823 79.1291 9.44473 79.1291H11.0193C11.2817 79.1291 11.5442 78.8666 11.5442 78.6042V78.3418C10.7569 78.3418 10.2321 78.3418 8.91992 78.3418Z" fill="url(#paint32_linear_312_27248)"/>
<path fill-rule="evenodd" clip-rule="evenodd" d="M11.2794 77.8164H9.70483C9.4424 77.8164 9.44238 78.0788 9.44238 78.0788C9.44238 78.3413 9.70483 78.3413 9.70483 78.3413H11.2794C11.5418 78.3413 11.5418 78.0788 11.5418 78.0788C11.5418 78.0788 11.5418 77.8164 11.2794 77.8164Z" fill="url(#paint33_linear_312_27248)"/>
<path fill-rule="evenodd" clip-rule="evenodd" d="M8.91992 81.752C8.91992 82.2768 9.1823 82.5392 9.44473 82.5392H11.0193C11.2817 82.5392 11.5442 82.2768 11.5442 82.0144V81.752C10.7569 81.752 10.2321 81.752 8.91992 81.752Z" fill="url(#paint34_linear_312_27248)"/>
<path fill-rule="evenodd" clip-rule="evenodd" d="M11.2794 81.2275H9.70483C9.4424 81.2275 9.44238 81.49 9.44238 81.49C9.44238 81.7524 9.70483 81.7524 9.70483 81.7524H11.2794C11.5418 81.7524 11.5418 81.49 11.5418 81.49C11.5418 81.2275 11.5418 81.2275 11.2794 81.2275Z" fill="url(#paint35_linear_312_27248)"/>
<path fill-rule="evenodd" clip-rule="evenodd" d="M11.281 74.4053H9.70645C9.44402 74.4053 9.18164 74.6677 9.18164 74.9301C9.18164 75.1926 9.44402 75.455 9.70645 75.455H11.281C11.5435 75.455 11.8059 75.1926 11.8059 74.9301C11.8059 74.6677 11.5435 74.4053 11.281 74.4053Z" fill="url(#paint36_linear_312_27248)"/>
<path fill-rule="evenodd" clip-rule="evenodd" d="M11.281 77.8164H9.70645C9.44402 77.8164 9.18164 78.0788 9.18164 78.3413C9.18164 78.6037 9.44402 78.8661 9.70645 78.8661H11.281C11.5435 78.8661 11.8059 78.6037 11.8059 78.3413C11.8059 78.0788 11.5435 77.8164 11.281 77.8164Z" fill="url(#paint37_linear_312_27248)"/>
<path fill-rule="evenodd" clip-rule="evenodd" d="M11.281 80.9658H9.70645C9.44402 80.9658 9.18164 81.2282 9.18164 81.4907C9.18164 81.7531 9.44402 82.0155 9.70645 82.0155H11.281C11.5435 82.0155 11.8059 81.7531 11.8059 81.4907C11.8059 81.2282 11.5435 80.9658 11.281 80.9658Z" fill="url(#paint38_linear_312_27248)"/>
<path fill-rule="evenodd" clip-rule="evenodd" d="M69.8066 75.1924C69.8066 75.7172 70.0691 75.9797 70.3315 75.9797H71.9061C72.1685 75.9797 72.4309 75.7172 72.4309 75.4548V75.1924C71.6436 75.1924 71.1188 75.1924 69.8066 75.1924Z" fill="url(#paint39_linear_312_27248)"/>
<path fill-rule="evenodd" clip-rule="evenodd" d="M72.1671 74.667H70.5925C70.3301 74.667 70.3301 74.9294 70.3301 74.9294C70.3301 75.1918 70.5925 75.1918 70.5925 75.1918H72.1671C72.4295 75.1918 72.4295 74.9294 72.4295 74.9294C72.4295 74.667 72.4295 74.667 72.1671 74.667Z" fill="url(#paint40_linear_312_27248)"/>
<path fill-rule="evenodd" clip-rule="evenodd" d="M69.8066 78.3418C69.8066 78.8667 70.0691 79.1291 70.3315 79.1291H71.9061C72.1685 79.1291 72.4309 78.8666 72.4309 78.6042V78.3418C71.6436 78.3418 71.1188 78.3418 69.8066 78.3418Z" fill="url(#paint41_linear_312_27248)"/>
<path fill-rule="evenodd" clip-rule="evenodd" d="M72.1671 77.8164H70.5925C70.3301 77.8164 70.3301 78.0788 70.3301 78.0788C70.3301 78.3413 70.5925 78.3413 70.5925 78.3413H72.1671C72.4295 78.3413 72.4295 78.0788 72.4295 78.0788C72.4295 78.0788 72.4295 77.8164 72.1671 77.8164Z" fill="url(#paint42_linear_312_27248)"/>
<path fill-rule="evenodd" clip-rule="evenodd" d="M69.8066 81.7529C69.8066 82.2778 70.0691 82.5402 70.3315 82.5402H71.9061C72.1685 82.5402 72.4309 82.2778 72.4309 82.0154V81.7529C71.6436 81.7529 71.1188 81.7529 69.8066 81.7529Z" fill="url(#paint43_linear_312_27248)"/>
<path fill-rule="evenodd" clip-rule="evenodd" d="M72.1671 81.2275H70.5925C70.3301 81.2275 70.3301 81.49 70.3301 81.49C70.3301 81.7524 70.5925 81.7524 70.5925 81.7524H72.1671C72.4295 81.7524 72.4295 81.49 72.4295 81.49C72.4295 81.2275 72.4295 81.2275 72.1671 81.2275Z" fill="url(#paint44_linear_312_27248)"/>
<path fill-rule="evenodd" clip-rule="evenodd" d="M72.1678 74.4053H70.5932C70.3308 74.4053 70.0684 74.6677 70.0684 74.9301C70.0684 75.1926 70.3308 75.455 70.5932 75.455H72.1678C72.4303 75.455 72.6926 75.1926 72.6926 74.9301C72.6926 74.6677 72.4303 74.4053 72.1678 74.4053Z" fill="url(#paint45_linear_312_27248)"/>
<path fill-rule="evenodd" clip-rule="evenodd" d="M72.1678 77.8164H70.5932C70.3308 77.8164 70.0684 78.0788 70.0684 78.3413C70.0684 78.6037 70.3308 78.8661 70.5932 78.8661H72.1678C72.4303 78.8661 72.6926 78.6037 72.6926 78.3413C72.6926 78.0788 72.4303 77.8164 72.1678 77.8164Z" fill="url(#paint46_linear_312_27248)"/>
<path fill-rule="evenodd" clip-rule="evenodd" d="M72.1678 80.9658H70.5932C70.3308 80.9658 70.0684 81.2282 70.0684 81.4907C70.0684 81.7531 70.3308 82.0155 70.5932 82.0155H72.1678C72.4303 82.0155 72.6926 81.7531 72.6926 81.4907C72.6926 81.2282 72.4303 80.9658 72.1678 80.9658Z" fill="url(#paint47_linear_312_27248)"/>
<path fill-rule="evenodd" clip-rule="evenodd" d="M81.8778 45.2759L76.3668 41.6019V5.64941L75.0547 6.69912V40.5522V56.0354V71.2562V87.5267L76.3668 88.314V70.7313L80.5657 69.1568L81.8778 45.2759Z" fill="url(#paint48_linear_312_27248)"/>
<path fill-rule="evenodd" clip-rule="evenodd" d="M1.5752 50.5232L5.24924 48.4238V63.907L2.36252 62.3325L1.5752 50.5232Z" fill="url(#paint49_linear_312_27248)"/>
<path fill-rule="evenodd" clip-rule="evenodd" d="M2.62598 51.0468L4.20048 49.9971V62.3311L3.15078 61.8063L2.62598 51.0468Z" fill="url(#paint50_radial_312_27248)"/>
<path fill-rule="evenodd" clip-rule="evenodd" d="M2.36426 62.3315L3.15151 61.8066L4.2012 62.3315L5.25097 63.9061L2.36426 62.3315Z" fill="url(#paint51_linear_312_27248)"/>
<path fill-rule="evenodd" clip-rule="evenodd" d="M2.62497 51.0481L1.5752 50.5232L5.24924 48.4238L4.19947 49.9984L2.62497 51.0481Z" fill="url(#paint52_linear_312_27248)"/>
<path fill-rule="evenodd" clip-rule="evenodd" d="M1.5752 50.5225L2.62497 51.0473L3.14977 61.8068L2.36252 62.3317L1.5752 50.5225Z" fill="url(#paint53_linear_312_27248)"/>
<path fill-rule="evenodd" clip-rule="evenodd" d="M4.19922 62.3325V49.9984L5.24899 48.4238V63.907L4.19922 62.3325Z" fill="url(#paint54_linear_312_27248)"/>
<path fill-rule="evenodd" clip-rule="evenodd" d="M80.3029 50.5232L76.6289 48.4238V63.907L79.5156 62.3325L80.3029 50.5232Z" fill="url(#paint55_linear_312_27248)"/>
<path fill-rule="evenodd" clip-rule="evenodd" d="M79.2543 51.0468L77.6797 49.9971V62.3311L78.7295 61.8063L79.2543 51.0468Z" fill="url(#paint56_radial_312_27248)"/>
<path fill-rule="evenodd" clip-rule="evenodd" d="M79.5156 62.3315L78.7284 61.8066L77.6786 62.3315L76.6289 63.9061L79.5156 62.3315Z" fill="url(#paint57_linear_312_27248)"/>
<path fill-rule="evenodd" clip-rule="evenodd" d="M79.2532 51.0481L80.3029 50.5232L76.6289 48.4238L77.6786 49.9984L79.2532 51.0481Z" fill="url(#paint58_linear_312_27248)"/>
<path fill-rule="evenodd" clip-rule="evenodd" d="M80.305 50.5225L79.2553 51.0473L78.7305 61.8068L79.5177 62.3317L80.305 50.5225Z" fill="url(#paint59_linear_312_27248)"/>
<path fill-rule="evenodd" clip-rule="evenodd" d="M77.6786 62.3325V49.9984L76.6289 48.4238V63.907L77.6786 62.3325Z" fill="url(#paint60_linear_312_27248)"/>
<path d="M37.7891 23.4945H44.0873L45.6619 25.0691V28.2182C44.8746 28.7431 44.3497 29.2679 43.8248 29.5304H37.7891C37.2642 29.0055 36.7393 28.4807 35.952 28.2182V25.0691L37.7891 23.4945ZM38.0515 35.8286H43.8248L45.9243 37.6656V40.5523L44.0873 42.3893H37.5266L35.6896 40.5523V37.6656L38.0515 35.8286ZM34.9023 17.1963L29.3913 22.7073V30.5801L32.2781 32.9419L29.1289 35.3038V42.9142L34.6399 48.4251H46.974L52.485 42.9142V35.3038L49.3358 32.9419L52.2225 30.5801V22.7073L46.7116 17.1963H34.9023Z" fill="url(#paint61_linear_312_27248)"/>
<defs>
<linearGradient id="paint0_linear_312_27248" x1="74.9702" y1="54.298" x2="81.7825" y2="54.298" gradientUnits="userSpaceOnUse">
<stop stop-color="#1B3840"/>
<stop offset="1" stop-color="#204954"/>
</linearGradient>
<radialGradient id="paint1_radial_312_27248" cx="0" cy="0" r="1" gradientUnits="userSpaceOnUse" gradientTransform="translate(40.9132 103.84) scale(12.8605 12.8605)">
<stop stop-color="#B3FFF2"/>
<stop offset="0.3089" stop-color="#B1FFF2"/>
<stop offset="0.4601" stop-color="#A9FFF0"/>
<stop offset="0.5772" stop-color="#9CFFEE"/>
<stop offset="0.6767" stop-color="#89FFEB"/>
<stop offset="0.765" stop-color="#71FFE7"/>
<stop offset="0.8454" stop-color="#54FFE2"/>
<stop offset="0.9198" stop-color="#30FFDC"/>
<stop offset="0.9876" stop-color="#08FFD5"/>
<stop offset="1" stop-color="#00FFD4"/>
</radialGradient>
<linearGradient id="paint2_linear_312_27248" x1="54.7023" y1="92.0264" x2="56.1995" y2="92.0264" gradientUnits="userSpaceOnUse">
<stop stop-color="#335D94"/>
<stop offset="1" stop-color="#204270"/>
</linearGradient>
<linearGradient id="paint3_linear_312_27248" x1="53.2048" y1="91.494" x2="54.702" y2="91.494" gradientUnits="userSpaceOnUse">
<stop stop-color="#4E76A6"/>
<stop offset="1" stop-color="#87B5F5"/>
</linearGradient>
<linearGradient id="paint4_linear_312_27248" x1="27.1248" y1="91.494" x2="28.622" y2="91.494" gradientUnits="userSpaceOnUse">
<stop stop-color="#335D94"/>
<stop offset="1" stop-color="#204270"/>
</linearGradient>
<linearGradient id="paint5_linear_312_27248" x1="25.6273" y1="92.0264" x2="27.1245" y2="92.0264" gradientUnits="userSpaceOnUse">
<stop stop-color="#4E76A6"/>
<stop offset="1" stop-color="#87B5F5"/>
</linearGradient>
<linearGradient id="paint6_linear_312_27248" x1="25.6273" y1="103.826" x2="40.9137" y2="103.826" gradientUnits="userSpaceOnUse">
<stop stop-color="#2F5382"/>
<stop offset="1" stop-color="#446DA3"/>
</linearGradient>
<linearGradient id="paint7_linear_312_27248" x1="27.1248" y1="102.5" x2="40.914" y2="102.5" gradientUnits="userSpaceOnUse">
<stop stop-color="#4E76A6"/>
<stop offset="1" stop-color="#87B5F5"/>
</linearGradient>
<linearGradient id="paint8_linear_312_27248" x1="40.9156" y1="103.826" x2="56.2012" y2="103.826" gradientUnits="userSpaceOnUse">
<stop stop-color="#204270"/>
<stop offset="1" stop-color="#335D94"/>
</linearGradient>
<linearGradient id="paint9_linear_312_27248" x1="40.9156" y1="102.5" x2="54.7041" y2="102.5" gradientUnits="userSpaceOnUse">
<stop stop-color="#77A5D6"/>
<stop offset="1" stop-color="#99C5FF"/>
</linearGradient>
<radialGradient id="paint10_radial_312_27248" cx="0" cy="0" r="1" gradientUnits="userSpaceOnUse" gradientTransform="translate(41.0515 85.9898) scale(33.3036 33.3036)">
<stop offset="0.2045" stop-color="#00FFFF"/>
<stop offset="0.2262" stop-color="#00F2F2"/>
<stop offset="0.3441" stop-color="#00B3B3"/>
<stop offset="0.4606" stop-color="#007D7D"/>
<stop offset="0.5728" stop-color="#005050"/>
<stop offset="0.68" stop-color="#002D2D"/>
<stop offset="0.7809" stop-color="#001414"/>
<stop offset="0.8729" stop-color="#000505"/>
<stop offset="0.948"/>
</radialGradient>
<linearGradient id="paint11_linear_312_27248" x1="0.0491896" y1="54.298" x2="6.86147" y2="54.298" gradientUnits="userSpaceOnUse">
<stop stop-color="#204954"/>
<stop offset="1" stop-color="#1B3840"/>
</linearGradient>
<linearGradient id="paint12_linear_312_27248" x1="6.8607" y1="61.0164" x2="40.9153" y2="61.0164" gradientUnits="userSpaceOnUse">
<stop stop-color="#4E76A6"/>
<stop offset="1" stop-color="#87B5F5"/>
</linearGradient>
<linearGradient id="paint13_linear_312_27248" x1="40.915" y1="61.0164" x2="74.9705" y2="61.0164" gradientUnits="userSpaceOnUse">
<stop stop-color="#77A5D6"/>
<stop offset="1" stop-color="#99C5FF"/>
</linearGradient>
<linearGradient id="paint14_linear_312_27248" x1="6.8607" y1="31.0811" x2="8.21639" y2="31.0811" gradientUnits="userSpaceOnUse">
<stop stop-color="#335D94"/>
<stop offset="1" stop-color="#204270"/>
</linearGradient>
<linearGradient id="paint15_linear_312_27248" x1="40.7139" y1="67.4846" x2="3.24742" y2="89.7617" gradientUnits="userSpaceOnUse">
<stop stop-color="#87B5F5"/>
<stop offset="1" stop-color="#6A94C4"/>
</linearGradient>
<linearGradient id="paint16_linear_312_27248" x1="40.6579" y1="67.1844" x2="77.5454" y2="89.1723" gradientUnits="userSpaceOnUse">
<stop stop-color="#335D94"/>
<stop offset="1" stop-color="#42689C"/>
</linearGradient>
<linearGradient id="paint17_linear_312_27248" x1="5.50561" y1="94.0645" x2="40.916" y2="94.0645" gradientUnits="userSpaceOnUse">
<stop stop-color="#2F5382"/>
<stop offset="1" stop-color="#446DA3"/>
</linearGradient>
<linearGradient id="paint18_linear_312_27248" x1="40.915" y1="94.0645" x2="76.3259" y2="94.0645" gradientUnits="userSpaceOnUse">
<stop stop-color="#204270"/>
<stop offset="1" stop-color="#335D94"/>
</linearGradient>
<linearGradient id="paint19_linear_312_27248" x1="0.0491896" y1="46.9859" x2="6.86147" y2="46.9859" gradientUnits="userSpaceOnUse">
<stop stop-color="#4E76A6"/>
<stop offset="1" stop-color="#87B5F5"/>
</linearGradient>
<radialGradient id="paint20_radial_312_27248" cx="0" cy="0" r="1" gradientUnits="userSpaceOnUse" gradientTransform="translate(40.916 3.15563) scale(63.0442 63.0442)">
<stop stop-color="#0056BF"/>
<stop offset="0.1352" stop-color="#02429F"/>
<stop offset="0.2857" stop-color="#043183"/>
<stop offset="0.4168" stop-color="#052671"/>
<stop offset="0.513" stop-color="#05226B"/>
<stop offset="0.6195" stop-color="#072060"/>
<stop offset="0.8351" stop-color="#091D50"/>
<stop offset="1" stop-color="#0A1C4A"/>
</radialGradient>
<radialGradient id="paint21_radial_312_27248" cx="0" cy="0" r="1" gradientUnits="userSpaceOnUse" gradientTransform="translate(28.1875 -9.31165) scale(83.3898 83.3899)">
<stop offset="7e-08" stop-color="#284580"/>
<stop offset="1"/>
</radialGradient>
<radialGradient id="paint22_radial_312_27248" cx="0" cy="0" r="1" gradientUnits="userSpaceOnUse" gradientTransform="translate(12.5326 10.8217) scale(84.4501 84.4501)">
<stop stop-color="#67DBFF"/>
<stop offset="1" stop-color="#0068DE"/>
</radialGradient>
<linearGradient id="paint23_linear_312_27248" x1="5.50561" y1="3.49887" x2="40.916" y2="3.49887" gradientUnits="userSpaceOnUse">
<stop stop-color="#7996B5"/>
<stop offset="1" stop-color="#CCE2FF"/>
</linearGradient>
<linearGradient id="paint24_linear_312_27248" x1="6.8607" y1="4.84136" x2="40.9153" y2="4.84136" gradientUnits="userSpaceOnUse">
<stop stop-color="#204270"/>
<stop offset="1" stop-color="#335D94"/>
</linearGradient>
<linearGradient id="paint25_linear_312_27248" x1="73.6139" y1="31.0811" x2="74.9698" y2="31.0811" gradientUnits="userSpaceOnUse">
<stop stop-color="#4E76A6"/>
<stop offset="1" stop-color="#87B5F5"/>
</linearGradient>
<linearGradient id="paint26_linear_312_27248" x1="40.915" y1="3.49887" x2="76.3254" y2="3.49887" gradientUnits="userSpaceOnUse">
<stop stop-color="#87B5F5"/>
<stop offset="1" stop-color="#4E76A6"/>
</linearGradient>
<linearGradient id="paint27_linear_312_27248" x1="40.915" y1="4.84136" x2="74.9705" y2="4.84136" gradientUnits="userSpaceOnUse">
<stop stop-color="#2F5382"/>
<stop offset="1" stop-color="#446DA3"/>
</linearGradient>
<radialGradient id="paint28_radial_312_27248" cx="0" cy="0" r="1" gradientUnits="userSpaceOnUse" gradientTransform="translate(40.9155 60.3746) scale(6.31665 6.31662)">
<stop stop-color="#0062B7"/>
<stop offset="1"/>
</radialGradient>
<linearGradient id="paint29_linear_312_27248" x1="40.9132" y1="84.7916" x2="40.9132" y2="71.6267" gradientUnits="userSpaceOnUse">
<stop stop-color="#C2D6F2"/>
<stop offset="1" stop-color="#E6F5FF"/>
</linearGradient>
<linearGradient id="paint30_linear_312_27248" x1="10.4727" y1="75.9183" x2="10.4727" y2="75.0908" gradientUnits="userSpaceOnUse">
<stop stop-color="#2B3336"/>
<stop offset="0.0166703" stop-color="#2C3C41"/>
<stop offset="0.0981146" stop-color="#316473"/>
<stop offset="0.1814" stop-color="#36869E"/>
<stop offset="0.2651" stop-color="#3AA2C1"/>
<stop offset="0.3494" stop-color="#3CB8DC"/>
<stop offset="0.4347" stop-color="#3EC8F0"/>
<stop offset="0.5213" stop-color="#40D1FB"/>
<stop offset="0.6115" stop-color="#40D4FF"/>
</linearGradient>
<linearGradient id="paint31_linear_312_27248" x1="10.4703" y1="75.2722" x2="10.4703" y2="74.5586" gradientUnits="userSpaceOnUse">
<stop/>
<stop offset="1" stop-color="#78FAFF"/>
</linearGradient>
<linearGradient id="paint32_linear_312_27248" x1="10.4727" y1="79.2382" x2="10.4727" y2="78.4106" gradientUnits="userSpaceOnUse">
<stop stop-color="#2B3336"/>
<stop offset="0.0166703" stop-color="#293B41"/>
<stop offset="0.0981146" stop-color="#1E6073"/>
<stop offset="0.1814" stop-color="#15809E"/>
<stop offset="0.2651" stop-color="#0D9AC1"/>
<stop offset="0.3494" stop-color="#07AEDC"/>
<stop offset="0.4347" stop-color="#03BDF0"/>
<stop offset="0.5213" stop-color="#01C5FB"/>
<stop offset="0.6115" stop-color="#00C8FF"/>
</linearGradient>
<linearGradient id="paint33_linear_312_27248" x1="10.4703" y1="78.5919" x2="10.4703" y2="77.8783" gradientUnits="userSpaceOnUse">
<stop/>
<stop offset="1" stop-color="#78FAFF"/>
</linearGradient>
<linearGradient id="paint34_linear_312_27248" x1="10.4727" y1="82.5143" x2="10.4727" y2="81.6869" gradientUnits="userSpaceOnUse">
<stop stop-color="#2B3336"/>
<stop offset="0.0166703" stop-color="#2C3C41"/>
<stop offset="0.0981146" stop-color="#316473"/>
<stop offset="0.1814" stop-color="#36869E"/>
<stop offset="0.2651" stop-color="#3AA2C1"/>
<stop offset="0.3494" stop-color="#3CB8DC"/>
<stop offset="0.4347" stop-color="#3EC8F0"/>
<stop offset="0.5213" stop-color="#40D1FB"/>
<stop offset="0.6115" stop-color="#40D4FF"/>
</linearGradient>
<linearGradient id="paint35_linear_312_27248" x1="10.4703" y1="81.8692" x2="10.4703" y2="81.1556" gradientUnits="userSpaceOnUse">
<stop/>
<stop offset="1" stop-color="#78FAFF"/>
</linearGradient>
<linearGradient id="paint36_linear_312_27248" x1="10.472" y1="75.7434" x2="10.472" y2="74.4386" gradientUnits="userSpaceOnUse">
<stop stop-color="#17ACFF"/>
<stop offset="1" stop-color="#78FAFF"/>
</linearGradient>
<linearGradient id="paint37_linear_312_27248" x1="10.472" y1="79.0624" x2="10.472" y2="77.7576" gradientUnits="userSpaceOnUse">
<stop stop-color="#17ACFF"/>
<stop offset="1" stop-color="#78FAFF"/>
</linearGradient>
<linearGradient id="paint38_linear_312_27248" x1="10.472" y1="82.3404" x2="10.472" y2="81.0356" gradientUnits="userSpaceOnUse">
<stop stop-color="#17ACFF"/>
<stop offset="1" stop-color="#78FAFF"/>
</linearGradient>
<linearGradient id="paint39_linear_312_27248" x1="71.3539" y1="75.9183" x2="71.3539" y2="75.0908" gradientUnits="userSpaceOnUse">
<stop stop-color="#2B3336"/>
<stop offset="0.0166703" stop-color="#2C3C41"/>
<stop offset="0.0981146" stop-color="#316473"/>
<stop offset="0.1814" stop-color="#36869E"/>
<stop offset="0.2651" stop-color="#3AA2C1"/>
<stop offset="0.3494" stop-color="#3CB8DC"/>
<stop offset="0.4347" stop-color="#3EC8F0"/>
<stop offset="0.5213" stop-color="#40D1FB"/>
<stop offset="0.6115" stop-color="#40D4FF"/>
</linearGradient>
<linearGradient id="paint40_linear_312_27248" x1="71.3525" y1="75.2722" x2="71.3525" y2="74.5586" gradientUnits="userSpaceOnUse">
<stop/>
<stop offset="1" stop-color="#78FAFF"/>
</linearGradient>
<linearGradient id="paint41_linear_312_27248" x1="71.3539" y1="79.2382" x2="71.3539" y2="78.4106" gradientUnits="userSpaceOnUse">
<stop stop-color="#2B3336"/>
<stop offset="0.0166703" stop-color="#2C3C41"/>
<stop offset="0.0981146" stop-color="#316473"/>
<stop offset="0.1814" stop-color="#36869E"/>
<stop offset="0.2651" stop-color="#3AA2C1"/>
<stop offset="0.3494" stop-color="#3CB8DC"/>
<stop offset="0.4347" stop-color="#3EC8F0"/>
<stop offset="0.5213" stop-color="#40D1FB"/>
<stop offset="0.6115" stop-color="#40D4FF"/>
</linearGradient>
<linearGradient id="paint42_linear_312_27248" x1="71.3525" y1="78.5919" x2="71.3525" y2="77.8783" gradientUnits="userSpaceOnUse">
<stop/>
<stop offset="1" stop-color="#78FAFF"/>
</linearGradient>
<linearGradient id="paint43_linear_312_27248" x1="71.3539" y1="82.5153" x2="71.3539" y2="81.6878" gradientUnits="userSpaceOnUse">
<stop stop-color="#2B3336"/>
<stop offset="0.0166703" stop-color="#2C3C41"/>
<stop offset="0.0981146" stop-color="#316473"/>
<stop offset="0.1814" stop-color="#36869E"/>
<stop offset="0.2651" stop-color="#3AA2C1"/>
<stop offset="0.3494" stop-color="#3CB8DC"/>
<stop offset="0.4347" stop-color="#3EC8F0"/>
<stop offset="0.5213" stop-color="#40D1FB"/>
<stop offset="0.6115" stop-color="#40D4FF"/>
</linearGradient>
<linearGradient id="paint44_linear_312_27248" x1="71.3525" y1="81.8692" x2="71.3525" y2="81.1556" gradientUnits="userSpaceOnUse">
<stop/>
<stop offset="1" stop-color="#78FAFF"/>
</linearGradient>
<linearGradient id="paint45_linear_312_27248" x1="71.3532" y1="75.7434" x2="71.3532" y2="74.4386" gradientUnits="userSpaceOnUse">
<stop stop-color="#17ACFF"/>
<stop offset="1" stop-color="#78FAFF"/>
</linearGradient>
<linearGradient id="paint46_linear_312_27248" x1="71.3532" y1="79.0624" x2="71.3532" y2="77.7576" gradientUnits="userSpaceOnUse">
<stop stop-color="#17ACFF"/>
<stop offset="1" stop-color="#78FAFF"/>
</linearGradient>
<linearGradient id="paint47_linear_312_27248" x1="71.3532" y1="82.3404" x2="71.3532" y2="81.0356" gradientUnits="userSpaceOnUse">
<stop stop-color="#17ACFF"/>
<stop offset="1" stop-color="#78FAFF"/>
</linearGradient>
<linearGradient id="paint48_linear_312_27248" x1="74.9702" y1="46.9859" x2="81.7825" y2="46.9859" gradientUnits="userSpaceOnUse">
<stop stop-color="#335D94"/>
<stop offset="1" stop-color="#204270"/>
</linearGradient>
<linearGradient id="paint49_linear_312_27248" x1="3.37285" y1="48.4107" x2="3.37285" y2="63.8895" gradientUnits="userSpaceOnUse">
<stop stop-color="#6287C9"/>
<stop offset="1" stop-color="#3B597D"/>
</linearGradient>
<radialGradient id="paint50_radial_312_27248" cx="0" cy="0" r="1" gradientUnits="userSpaceOnUse" gradientTransform="translate(3.38698 56.1489) scale(4.44691 4.44709)">
<stop stop-color="#F8FC86"/>
<stop offset="1" stop-color="#EDCE20"/>
</radialGradient>
<linearGradient id="paint51_linear_312_27248" x1="3.68349" y1="61.6956" x2="3.68349" y2="63.8885" gradientUnits="userSpaceOnUse">
<stop stop-color="#99B2BF"/>
<stop offset="1" stop-color="#9BBD67"/>
</linearGradient>
<linearGradient id="paint52_linear_312_27248" x1="3.37285" y1="48.4107" x2="3.37285" y2="50.9326" gradientUnits="userSpaceOnUse">
<stop stop-color="#94885C"/>
<stop offset="1" stop-color="#2C507A"/>
</linearGradient>
<linearGradient id="paint53_linear_312_27248" x1="2.35277" y1="50.4479" x2="2.35277" y2="62.2099" gradientUnits="userSpaceOnUse">
<stop stop-color="#739CB0"/>
<stop offset="1" stop-color="#476B96"/>
</linearGradient>
<linearGradient id="paint54_linear_312_27248" x1="4.68868" y1="48.4107" x2="4.68868" y2="63.8895" gradientUnits="userSpaceOnUse">
<stop stop-color="#739CB0"/>
<stop offset="1" stop-color="#476B96"/>
</linearGradient>
<linearGradient id="paint55_linear_312_27248" x1="78.4564" y1="48.4107" x2="78.4564" y2="63.8895" gradientUnits="userSpaceOnUse">
<stop stop-color="#6287C9"/>
<stop offset="1" stop-color="#3B597D"/>
</linearGradient>
<radialGradient id="paint56_radial_312_27248" cx="0" cy="0" r="1" gradientUnits="userSpaceOnUse" gradientTransform="translate(78.4447 56.1489) rotate(180) scale(4.44714 4.44709)">
<stop stop-color="#F8FC86"/>
<stop offset="1" stop-color="#EDCE20"/>
</radialGradient>
<linearGradient id="paint57_linear_312_27248" x1="78.1478" y1="61.6956" x2="78.1478" y2="63.8885" gradientUnits="userSpaceOnUse">
<stop stop-color="#99B2BF"/>
<stop offset="1" stop-color="#9BBD67"/>
</linearGradient>
<linearGradient id="paint58_linear_312_27248" x1="78.4564" y1="48.4107" x2="78.4564" y2="50.9326" gradientUnits="userSpaceOnUse">
<stop stop-color="#94885C"/>
<stop offset="1" stop-color="#2C507A"/>
</linearGradient>
<linearGradient id="paint59_linear_312_27248" x1="79.4789" y1="50.4479" x2="79.4789" y2="62.2099" gradientUnits="userSpaceOnUse">
<stop stop-color="#739CB0"/>
<stop offset="1" stop-color="#476B96"/>
</linearGradient>
<linearGradient id="paint60_linear_312_27248" x1="77.1406" y1="48.4107" x2="77.1406" y2="63.8895" gradientUnits="userSpaceOnUse">
<stop stop-color="#739CB0"/>
<stop offset="1" stop-color="#476B96"/>
</linearGradient>
<linearGradient id="paint61_linear_312_27248" x1="51.7242" y1="43.6558" x2="30.1042" y2="22.0359" gradientUnits="userSpaceOnUse">
<stop stop-color="#17ACFF"/>
<stop offset="1" stop-color="#78FAFF"/>
</linearGradient>
</defs>
</svg>
