<svg width="83" height="108" viewBox="0 0 83 108" fill="none" xmlns="http://www.w3.org/2000/svg">
<path fill-rule="evenodd" clip-rule="evenodd" d="M75.2744 71.6304V37.7773L82.0975 45.6502L81.0478 69.531L75.2744 71.6304Z" fill="url(#paint0_linear_312_26871)"/>
<path fill-rule="evenodd" clip-rule="evenodd" d="M27.5098 82.6543V101.024L41.4184 105.748L55.0646 101.024V82.6543H27.5098Z" fill="#9B9B9B"/>
<path fill-rule="evenodd" clip-rule="evenodd" d="M29.083 82.6543V99.9745L41.4171 104.173L53.7512 99.9745V82.6543H29.083Z" fill="url(#paint1_radial_312_26871)"/>
<path fill-rule="evenodd" clip-rule="evenodd" d="M55.0635 82.6543V101.024L56.638 102.074V82.6543H55.0635Z" fill="url(#paint2_linear_312_26871)"/>
<path fill-rule="evenodd" clip-rule="evenodd" d="M55.0641 101.024V82.6543H53.752V99.9745L55.0641 101.024Z" fill="url(#paint3_linear_312_26871)"/>
<path fill-rule="evenodd" clip-rule="evenodd" d="M29.0843 99.9745V82.6543H27.5098V101.024L29.0843 99.9745Z" fill="url(#paint4_linear_312_26871)"/>
<path fill-rule="evenodd" clip-rule="evenodd" d="M27.5101 101.024V82.6543H25.9355V102.074L27.5101 101.024Z" fill="url(#paint5_linear_312_26871)"/>
<path fill-rule="evenodd" clip-rule="evenodd" d="M31.1841 102.337L41.4188 105.748V107.323L31.1841 103.911L25.9355 102.074L27.5101 101.024L31.1841 102.337Z" fill="url(#paint6_linear_312_26871)"/>
<path fill-rule="evenodd" clip-rule="evenodd" d="M41.4184 105.747L31.1837 102.335L27.5098 101.023L29.0843 99.9736L31.1837 100.761L41.4184 104.172V105.747Z" fill="url(#paint7_linear_312_26871)"/>
<path fill-rule="evenodd" clip-rule="evenodd" d="M41.4199 105.748L51.3921 102.337L55.0661 101.024L56.6407 102.074L51.3921 103.911L41.4199 107.323V105.748Z" fill="url(#paint8_linear_312_26871)"/>
<path fill-rule="evenodd" clip-rule="evenodd" d="M55.0661 101.023L51.3921 102.335L41.4199 105.747V104.172L51.3921 100.761L53.754 99.9736L55.0661 101.023Z" fill="url(#paint9_linear_312_26871)"/>
<path fill-rule="evenodd" clip-rule="evenodd" d="M7.30554 71.6304V37.7773L0.482422 45.6502L1.79456 69.531L7.30554 71.6304Z" fill="url(#paint10_linear_312_26871)"/>
<path fill-rule="evenodd" clip-rule="evenodd" d="M7.30469 55.8869L8.61682 55.0996L41.4202 66.384V67.6961L7.30469 55.8869Z" fill="url(#paint11_linear_312_26871)"/>
<path fill-rule="evenodd" clip-rule="evenodd" d="M75.273 55.8869L73.9609 55.0996L41.4199 66.384V67.6961L75.273 55.8869Z" fill="url(#paint12_linear_312_26871)"/>
<path fill-rule="evenodd" clip-rule="evenodd" d="M7.30469 7.0752L8.61682 8.38733V55.0994L7.30469 55.8866V7.0752Z" fill="url(#paint13_linear_312_26871)"/>
<path fill-rule="evenodd" clip-rule="evenodd" d="M41.4208 101.023V67.6944L7.3053 55.8852L5.99316 55.3604V88.6886L41.4208 101.023Z" fill="url(#paint14_linear_312_26871)"/>
<path fill-rule="evenodd" clip-rule="evenodd" d="M41.4199 67.6944V101.023L76.8476 88.6886V55.3604L75.273 55.8852L41.4199 67.6944Z" fill="url(#paint15_linear_312_26871)"/>
<path fill-rule="evenodd" clip-rule="evenodd" d="M41.4208 99.7116L7.3053 87.9023L5.99316 88.6896L41.4208 101.024V99.7116Z" fill="url(#paint16_linear_312_26871)"/>
<path fill-rule="evenodd" clip-rule="evenodd" d="M75.273 87.9023L41.4199 99.7116V101.024L76.8476 88.6896L75.273 87.9023Z" fill="url(#paint17_linear_312_26871)"/>
<path fill-rule="evenodd" clip-rule="evenodd" d="M5.99341 6.02539V41.9779L0.482422 45.6519L1.79456 69.5328L5.99341 71.1073V88.6899L7.30554 87.9027V71.6322V56.4114V40.9282V7.0751L5.99341 6.02539Z" fill="url(#paint18_linear_312_26871)"/>
<path fill-rule="evenodd" clip-rule="evenodd" d="M80.5199 50.8992L77.1084 48.7998V64.283L79.9951 62.7084L80.5199 50.8992Z" fill="#808080"/>
<path fill-rule="evenodd" clip-rule="evenodd" d="M8.61719 8.38651V55.0985L41.4206 66.3829L73.9615 55.0985V8.38651L41.4206 3.40039L8.61719 8.38651Z" fill="url(#paint19_radial_312_26871)"/>
<path fill-rule="evenodd" clip-rule="evenodd" d="M20.9482 59.2975L66.873 7.33691L73.9585 8.38662V55.0987L41.4176 66.383L20.9482 59.2975Z" fill="url(#paint20_radial_312_26871)"/>
<path fill-rule="evenodd" clip-rule="evenodd" d="M13.3389 12.3232V20.7209L12.0268 19.4087V11.5359L41.1562 7.33709L60.051 9.96136V11.2735L41.1562 8.64922L13.3389 12.3232ZM13.3389 21.5082V36.7289L11.502 38.5659V52.737L41.1562 62.9716L70.8105 52.737V28.8561L70.2856 28.3313L68.9735 27.0191V12.3232L60.8382 11.2735V9.96136V9.4365L41.4187 6.5498L11.7644 11.0111V19.9336L13.3389 21.5082ZM13.3389 37.5162V51.4248L34.0707 58.7728V60.0849L12.0268 52.4746V38.8283L13.3389 37.5162ZM34.858 59.0352L41.4187 61.3971L47.9793 59.0352V60.3474L41.4187 62.7092L34.858 60.3474V59.0352ZM48.5042 58.7728L69.2359 51.4248V27.8064L70.5481 29.1185V52.4746L48.5042 60.0849V58.7728ZM14.1262 12.8481V50.9L41.4187 60.3474L68.7111 50.9V12.8481L41.4187 8.91165L14.1262 12.8481Z" fill="url(#paint21_radial_312_26871)"/>
<path fill-rule="evenodd" clip-rule="evenodd" d="M7.3053 7.07462L41.4208 2.0885V0.776367L5.99316 6.02491L7.3053 7.07462Z" fill="url(#paint22_linear_312_26871)"/>
<path fill-rule="evenodd" clip-rule="evenodd" d="M41.4202 2.08789L7.30469 7.07401L8.61682 8.38614L41.4202 3.40003V2.08789Z" fill="url(#paint23_linear_312_26871)"/>
<path fill-rule="evenodd" clip-rule="evenodd" d="M75.274 7.0752L73.9619 8.38733V55.0994L75.274 55.8866V7.0752Z" fill="url(#paint24_linear_312_26871)"/>
<path fill-rule="evenodd" clip-rule="evenodd" d="M75.273 7.07462L41.4199 2.0885V0.776367L76.8476 6.02491L75.273 7.07462Z" fill="url(#paint25_linear_312_26871)"/>
<path fill-rule="evenodd" clip-rule="evenodd" d="M41.4199 2.08789L75.273 7.07401L73.9609 8.38614L41.4199 3.40003V2.08789Z" fill="url(#paint26_linear_312_26871)"/>
<path fill-rule="evenodd" clip-rule="evenodd" d="M71.0731 28.0688V11.0111L61.3633 9.43652V10.7487L69.7609 12.0608V26.7567L71.0731 28.0688Z" fill="#CCCC14"/>
<path fill-rule="evenodd" clip-rule="evenodd" d="M11.7637 20.7197V37.7775L12.8134 36.4654V21.7694L11.7637 20.7197Z" fill="#CCCC14"/>
<path fill-rule="evenodd" clip-rule="evenodd" d="M41.4201 61.1355L34.8594 59.0361V60.3483L41.4201 62.4477L47.7183 60.3483V59.0361L41.4201 61.1355Z" fill="url(#paint27_radial_312_26871)"/>
<path fill-rule="evenodd" clip-rule="evenodd" d="M41.4173 74.2558L40.63 68.22L13.0752 57.9854L41.4173 67.6952V74.2558Z" fill="white"/>
<path fill-rule="evenodd" clip-rule="evenodd" d="M7.3053 34.367L6.78043 7.07456L5.99316 6.02485L7.3053 6.54971L18.0648 5.5L7.3053 7.07456V34.367Z" fill="white"/>
<path fill-rule="evenodd" clip-rule="evenodd" d="M21.999 4.9752L40.8938 1.82608L41.4186 0.776367V2.0885L21.999 4.9752Z" fill="white"/>
<path opacity="0.5" d="M58.4768 86.3281H67.1369V83.7038H61.1011V73.4692H58.2144V86.3281H58.4768ZM47.9797 86.3281H56.9022V83.7038H50.8664V80.8172H56.115V78.1929H50.8664V76.0935H56.9022V73.4692H47.9797V86.3281ZM42.7312 86.3281L46.93 73.994V72.9443L44.3057 73.2068L41.6815 81.0796L41.419 82.3917L41.1566 81.0796L38.5323 73.2068L35.9081 72.9443V73.994L40.1069 86.3281H42.7312ZM25.9358 86.3281H34.8584V83.7038H28.8225V80.8172H34.0711V78.1929H28.8225V76.0935H34.8584V73.4692H25.9358V86.3281ZM15.7012 86.3281H24.3613V83.7038H18.3254V73.4692H15.7012V86.3281Z" fill="#4D5E6E"/>
<path d="M58.4768 85.2786H67.1369V82.6543H61.1011V72.4196H58.2144V85.2786H58.4768ZM47.9797 85.2786H56.9022V82.6543H50.8664V79.7676H56.115V77.1433H50.8664V75.0439H56.9022V72.4196H47.9797V85.2786ZM42.7312 85.2786L46.93 72.9445L44.3057 72.1572L41.6815 80.03L41.419 81.3422L41.1566 80.03L38.5323 72.1572L35.9081 72.9445L40.1069 85.2786H42.7312ZM25.9358 85.2786H34.8584V82.6543H28.8225V79.7676H34.0711V77.1433H28.8225V75.0439H34.8584V72.4196H25.9358V85.2786ZM15.7012 85.2786H24.3613V82.6543H18.3254V72.4196H15.7012V85.2786Z" fill="url(#paint28_linear_312_26871)"/>
<path fill-rule="evenodd" clip-rule="evenodd" d="M9.40137 75.5693C9.40137 76.0942 9.66381 76.3566 9.92623 76.3566H11.5008C11.7632 76.3566 12.0256 76.0942 12.0256 75.8318V75.5693C11.2384 75.5693 10.4511 75.5693 9.40137 75.5693Z" fill="url(#paint29_linear_312_26871)"/>
<path fill-rule="evenodd" clip-rule="evenodd" d="M11.7608 75.0439H10.1863C9.92382 75.0439 9.92383 75.3064 9.92383 75.3064C9.92383 75.5688 10.1863 75.5688 10.1863 75.5688H11.7608C12.0232 75.5688 12.0232 75.3064 12.0232 75.3064C12.0232 75.0439 12.0232 75.0439 11.7608 75.0439Z" fill="url(#paint30_linear_312_26871)"/>
<path fill-rule="evenodd" clip-rule="evenodd" d="M9.40137 78.7188C9.40137 79.2436 9.66381 79.506 9.92623 79.506H11.5008C11.7632 79.506 12.0256 79.2436 12.0256 78.9812V78.7188C11.2384 78.7188 10.4511 78.7188 9.40137 78.7188Z" fill="url(#paint31_linear_312_26871)"/>
<path fill-rule="evenodd" clip-rule="evenodd" d="M11.7608 78.1934H10.1863C9.92382 78.1934 9.92383 78.4558 9.92383 78.4558C9.92383 78.7182 10.1863 78.7182 10.1863 78.7182H11.7608C12.0232 78.7182 12.0232 78.4558 12.0232 78.4558C12.0232 78.4558 12.0232 78.1934 11.7608 78.1934Z" fill="url(#paint32_linear_312_26871)"/>
<path fill-rule="evenodd" clip-rule="evenodd" d="M9.40137 82.1289C9.40137 82.6538 9.66381 82.9162 9.92623 82.9162H11.5008C11.7632 82.9162 12.0256 82.6538 12.0256 82.3913V82.1289C11.2384 82.1289 10.4511 82.1289 9.40137 82.1289Z" fill="url(#paint33_linear_312_26871)"/>
<path fill-rule="evenodd" clip-rule="evenodd" d="M11.7608 81.6045H10.1863C9.92382 81.6045 9.92383 81.8669 9.92383 81.8669C9.92383 82.1293 10.1863 82.1293 10.1863 82.1293H11.7608C12.0232 82.1293 12.0232 81.8669 12.0232 81.8669C12.0232 81.6045 12.0232 81.6045 11.7608 81.6045Z" fill="url(#paint34_linear_312_26871)"/>
<path fill-rule="evenodd" clip-rule="evenodd" d="M11.7625 74.7822H10.188C9.92553 74.7822 9.66309 75.0447 9.66309 75.3071C9.66309 75.5695 9.92553 75.8319 10.188 75.8319H11.7625C12.0249 75.8319 12.2874 75.5695 12.2874 75.3071C12.2874 75.0447 12.0249 74.7822 11.7625 74.7822Z" fill="url(#paint35_linear_312_26871)"/>
<path fill-rule="evenodd" clip-rule="evenodd" d="M11.7625 78.1934H10.188C9.92553 78.1934 9.66309 78.4558 9.66309 78.7182C9.66309 78.9806 9.92553 79.2431 10.188 79.2431H11.7625C12.0249 79.2431 12.2874 78.9806 12.2874 78.7182C12.2874 78.4558 12.0249 78.1934 11.7625 78.1934Z" fill="url(#paint36_linear_312_26871)"/>
<path fill-rule="evenodd" clip-rule="evenodd" d="M11.7625 81.3428H10.188C9.92553 81.3428 9.66309 81.6052 9.66309 81.8676C9.66309 82.1301 9.92553 82.3925 10.188 82.3925H11.7625C12.0249 82.3925 12.2874 82.1301 12.2874 81.8676C12.2874 81.6052 12.0249 81.3428 11.7625 81.3428Z" fill="url(#paint37_linear_312_26871)"/>
<path fill-rule="evenodd" clip-rule="evenodd" d="M70.2881 75.5693C70.2881 76.0942 70.5505 76.3566 70.8129 76.3566H72.3875C72.6499 76.3566 72.9124 76.0942 72.9124 75.8318V75.5693C72.1251 75.5693 71.3378 75.5693 70.2881 75.5693Z" fill="url(#paint38_linear_312_26871)"/>
<path fill-rule="evenodd" clip-rule="evenodd" d="M72.6492 75.0439H70.8122C70.5498 75.0439 70.5498 75.3064 70.5498 75.3064C70.5498 75.5688 70.8122 75.5688 70.8122 75.5688H72.3868C72.6492 75.5688 72.6492 75.3064 72.6492 75.3064C72.9116 75.0439 72.9116 75.0439 72.6492 75.0439Z" fill="url(#paint39_linear_312_26871)"/>
<path fill-rule="evenodd" clip-rule="evenodd" d="M70.2881 78.7188C70.2881 79.2436 70.5505 79.506 70.8129 79.506H72.3875C72.6499 79.506 72.9124 79.2436 72.9124 78.9812V78.7188C72.1251 78.7188 71.3378 78.7188 70.2881 78.7188Z" fill="url(#paint40_linear_312_26871)"/>
<path fill-rule="evenodd" clip-rule="evenodd" d="M72.6492 78.1934H70.8122C70.5498 78.1934 70.5498 78.4558 70.5498 78.4558C70.5498 78.7182 70.8122 78.7182 70.8122 78.7182H72.3868C72.6492 78.7182 72.6492 78.4558 72.6492 78.4558C72.9116 78.4558 72.9116 78.1934 72.6492 78.1934Z" fill="url(#paint41_linear_312_26871)"/>
<path fill-rule="evenodd" clip-rule="evenodd" d="M70.2881 82.1289C70.2881 82.6538 70.5505 82.9162 70.8129 82.9162H72.3875C72.6499 82.9162 72.9124 82.6538 72.9124 82.3913V82.1289C72.1251 82.1289 71.3378 82.1289 70.2881 82.1289Z" fill="url(#paint42_linear_312_26871)"/>
<path fill-rule="evenodd" clip-rule="evenodd" d="M72.6492 81.6045H70.8122C70.5498 81.6045 70.5498 81.8669 70.5498 81.8669C70.5498 82.1293 70.8122 82.1293 70.8122 82.1293H72.3868C72.6492 82.1293 72.6492 81.8669 72.6492 81.8669C72.9116 81.6045 72.9116 81.6045 72.6492 81.6045Z" fill="url(#paint43_linear_312_26871)"/>
<path fill-rule="evenodd" clip-rule="evenodd" d="M72.6492 74.7822H71.0747C70.8122 74.7822 70.5498 75.0447 70.5498 75.3071C70.5498 75.5695 70.8122 75.8319 71.0747 75.8319H72.6492C72.9116 75.8319 73.1741 75.5695 73.1741 75.3071C73.1741 75.0447 72.9116 74.7822 72.6492 74.7822Z" fill="url(#paint44_linear_312_26871)"/>
<path fill-rule="evenodd" clip-rule="evenodd" d="M72.6492 78.1934H71.0747C70.8122 78.1934 70.5498 78.4558 70.5498 78.7182C70.5498 78.9806 70.8122 79.2431 71.0747 79.2431H72.6492C72.9116 79.2431 73.1741 78.9806 73.1741 78.7182C73.1741 78.4558 72.9116 78.1934 72.6492 78.1934Z" fill="url(#paint45_linear_312_26871)"/>
<path fill-rule="evenodd" clip-rule="evenodd" d="M72.6492 81.3428H71.0747C70.8122 81.3428 70.5498 81.6052 70.5498 81.8676C70.5498 82.1301 70.8122 82.3925 71.0747 82.3925H72.6492C72.9116 82.3925 73.1741 82.1301 73.1741 81.8676C73.1741 81.6052 72.9116 81.3428 72.6492 81.3428Z" fill="url(#paint46_linear_312_26871)"/>
<path fill-rule="evenodd" clip-rule="evenodd" d="M82.0975 45.6519L76.849 41.9779V6.02539L75.2744 7.0751V40.9282V56.4114V71.6322V87.9027L76.849 88.6899V71.1073L81.0478 69.5328L82.0975 45.6519Z" fill="url(#paint47_linear_312_26871)"/>
<path fill-rule="evenodd" clip-rule="evenodd" d="M2.05469 50.9002L5.46623 48.8008V64.284L2.57953 62.7094L2.05469 50.9002Z" fill="url(#paint48_linear_312_26871)"/>
<path fill-rule="evenodd" clip-rule="evenodd" d="M2.84375 51.4237L4.68075 50.374V62.7081L3.36862 62.1832L2.84375 51.4237Z" fill="url(#paint49_radial_312_26871)"/>
<path fill-rule="evenodd" clip-rule="evenodd" d="M2.57715 62.7085L3.36444 62.1836L4.67657 62.7085L5.46384 64.283L2.57715 62.7085Z" fill="url(#paint50_linear_312_26871)"/>
<path fill-rule="evenodd" clip-rule="evenodd" d="M2.84196 51.4251L2.05469 50.9002L5.46623 48.8008L4.67896 50.3753L2.84196 51.4251Z" fill="url(#paint51_linear_312_26871)"/>
<path fill-rule="evenodd" clip-rule="evenodd" d="M2.05469 50.8994L2.84196 51.4243L3.36682 62.1838L2.57953 62.7086L2.05469 50.8994Z" fill="url(#paint52_linear_312_26871)"/>
<path fill-rule="evenodd" clip-rule="evenodd" d="M4.67871 62.7094V50.3753L5.46598 48.8008V64.284L4.67871 62.7094Z" fill="url(#paint53_linear_312_26871)"/>
<path fill-rule="evenodd" clip-rule="evenodd" d="M80.5199 50.9002L77.1084 48.8008V64.284L79.9951 62.7094L80.5199 50.9002Z" fill="url(#paint54_linear_312_26871)"/>
<path fill-rule="evenodd" clip-rule="evenodd" d="M79.7345 51.4237L77.8975 50.374V62.7081L79.2096 62.1832L79.7345 51.4237Z" fill="url(#paint55_radial_312_26871)"/>
<path fill-rule="evenodd" clip-rule="evenodd" d="M79.9951 62.7085L79.2078 62.1836L77.8957 62.7085L77.1084 64.283L79.9951 62.7085Z" fill="url(#paint56_linear_312_26871)"/>
<path fill-rule="evenodd" clip-rule="evenodd" d="M79.7327 51.4251L80.5199 50.9002L77.1084 48.8008L77.8957 50.3753L79.7327 51.4251Z" fill="url(#paint57_linear_312_26871)"/>
<path fill-rule="evenodd" clip-rule="evenodd" d="M80.5221 50.8994L79.7348 51.4243L79.21 62.1838L79.9973 62.7086L80.5221 50.8994Z" fill="url(#paint58_linear_312_26871)"/>
<path fill-rule="evenodd" clip-rule="evenodd" d="M77.8957 62.7094V50.3753L77.1084 48.8008V64.284L77.8957 62.7094Z" fill="url(#paint59_linear_312_26871)"/>
<path d="M42.7307 24.6576L44.3053 24.1328L42.7307 25.1825L35.9076 31.2183V36.4668H44.8301L46.6671 38.3038V40.6657L44.8301 42.5027H36.9573L31.4464 40.6657L29.6094 46.4391L35.6452 48.5385H47.7168L53.2278 43.29V36.2044L47.7168 30.6934H45.6174L44.0429 31.2183L45.6174 30.431L53.2278 23.6079V18.3594H30.3966V24.6576H42.7307Z" fill="url(#paint60_linear_312_26871)"/>
<defs>
<linearGradient id="paint0_linear_312_26871" x1="75.3878" y1="54.674" x2="82.2004" y2="54.674" gradientUnits="userSpaceOnUse">
<stop stop-color="#1B3840"/>
<stop offset="1" stop-color="#204954"/>
</linearGradient>
<radialGradient id="paint1_radial_312_26871" cx="0" cy="0" r="1" gradientUnits="userSpaceOnUse" gradientTransform="translate(41.3286 104.216) scale(12.8605)">
<stop stop-color="#B3FFF2"/>
<stop offset="0.3089" stop-color="#B1FFF2"/>
<stop offset="0.4601" stop-color="#A9FFF0"/>
<stop offset="0.5772" stop-color="#9CFFEE"/>
<stop offset="0.6767" stop-color="#89FFEB"/>
<stop offset="0.765" stop-color="#71FFE7"/>
<stop offset="0.8454" stop-color="#54FFE2"/>
<stop offset="0.9198" stop-color="#30FFDC"/>
<stop offset="0.9876" stop-color="#08FFD5"/>
<stop offset="1" stop-color="#00FFD4"/>
</radialGradient>
<linearGradient id="paint2_linear_312_26871" x1="55.1175" y1="92.4024" x2="56.6147" y2="92.4024" gradientUnits="userSpaceOnUse">
<stop stop-color="#335D94"/>
<stop offset="1" stop-color="#204270"/>
</linearGradient>
<linearGradient id="paint3_linear_312_26871" x1="53.621" y1="91.87" x2="55.1181" y2="91.87" gradientUnits="userSpaceOnUse">
<stop stop-color="#4E76A6"/>
<stop offset="1" stop-color="#87B5F5"/>
</linearGradient>
<linearGradient id="paint4_linear_312_26871" x1="27.541" y1="91.87" x2="29.0381" y2="91.87" gradientUnits="userSpaceOnUse">
<stop stop-color="#335D94"/>
<stop offset="1" stop-color="#204270"/>
</linearGradient>
<linearGradient id="paint5_linear_312_26871" x1="26.0442" y1="92.4024" x2="27.5413" y2="92.4024" gradientUnits="userSpaceOnUse">
<stop stop-color="#4E76A6"/>
<stop offset="1" stop-color="#87B5F5"/>
</linearGradient>
<linearGradient id="paint6_linear_312_26871" x1="26.0442" y1="104.202" x2="41.3303" y2="104.202" gradientUnits="userSpaceOnUse">
<stop stop-color="#2F5382"/>
<stop offset="1" stop-color="#446DA3"/>
</linearGradient>
<linearGradient id="paint7_linear_312_26871" x1="27.541" y1="102.876" x2="41.33" y2="102.876" gradientUnits="userSpaceOnUse">
<stop stop-color="#4E76A6"/>
<stop offset="1" stop-color="#87B5F5"/>
</linearGradient>
<linearGradient id="paint8_linear_312_26871" x1="41.3315" y1="104.202" x2="56.6173" y2="104.202" gradientUnits="userSpaceOnUse">
<stop stop-color="#204270"/>
<stop offset="1" stop-color="#335D94"/>
</linearGradient>
<linearGradient id="paint9_linear_312_26871" x1="41.3315" y1="102.876" x2="55.1202" y2="102.876" gradientUnits="userSpaceOnUse">
<stop stop-color="#77A5D6"/>
<stop offset="1" stop-color="#99C5FF"/>
</linearGradient>
<linearGradient id="paint10_linear_312_26871" x1="0.465364" y1="54.674" x2="7.27773" y2="54.674" gradientUnits="userSpaceOnUse">
<stop stop-color="#204954"/>
<stop offset="1" stop-color="#1B3840"/>
</linearGradient>
<linearGradient id="paint11_linear_312_26871" x1="7.27687" y1="61.3923" x2="41.3315" y2="61.3923" gradientUnits="userSpaceOnUse">
<stop stop-color="#4E76A6"/>
<stop offset="1" stop-color="#87B5F5"/>
</linearGradient>
<linearGradient id="paint12_linear_312_26871" x1="41.3312" y1="61.3923" x2="75.3864" y2="61.3923" gradientUnits="userSpaceOnUse">
<stop stop-color="#77A5D6"/>
<stop offset="1" stop-color="#99C5FF"/>
</linearGradient>
<linearGradient id="paint13_linear_312_26871" x1="7.27687" y1="31.457" x2="8.63231" y2="31.457" gradientUnits="userSpaceOnUse">
<stop stop-color="#335D94"/>
<stop offset="1" stop-color="#204270"/>
</linearGradient>
<linearGradient id="paint14_linear_312_26871" x1="41.1298" y1="67.8603" x2="3.66359" y2="90.1377" gradientUnits="userSpaceOnUse">
<stop stop-color="#87B5F5"/>
<stop offset="1" stop-color="#6A94C4"/>
</linearGradient>
<linearGradient id="paint15_linear_312_26871" x1="41.0738" y1="67.5603" x2="77.9616" y2="89.5483" gradientUnits="userSpaceOnUse">
<stop stop-color="#335D94"/>
<stop offset="1" stop-color="#42689C"/>
</linearGradient>
<linearGradient id="paint16_linear_312_26871" x1="5.92178" y1="94.4405" x2="41.3321" y2="94.4405" gradientUnits="userSpaceOnUse">
<stop stop-color="#2F5382"/>
<stop offset="1" stop-color="#446DA3"/>
</linearGradient>
<linearGradient id="paint17_linear_312_26871" x1="41.3312" y1="94.4405" x2="76.7421" y2="94.4405" gradientUnits="userSpaceOnUse">
<stop stop-color="#204270"/>
<stop offset="1" stop-color="#335D94"/>
</linearGradient>
<linearGradient id="paint18_linear_312_26871" x1="0.465364" y1="47.3619" x2="7.27773" y2="47.3619" gradientUnits="userSpaceOnUse">
<stop stop-color="#4E76A6"/>
<stop offset="1" stop-color="#87B5F5"/>
</linearGradient>
<radialGradient id="paint19_radial_312_26871" cx="0" cy="0" r="1" gradientUnits="userSpaceOnUse" gradientTransform="translate(41.3321 3.5316) scale(63.0442 63.0442)">
<stop stop-color="#0056BF"/>
<stop offset="0.1352" stop-color="#02429F"/>
<stop offset="0.2857" stop-color="#043183"/>
<stop offset="0.4168" stop-color="#052671"/>
<stop offset="0.513" stop-color="#05226B"/>
<stop offset="0.6195" stop-color="#072060"/>
<stop offset="0.8351" stop-color="#091D50"/>
<stop offset="1" stop-color="#0A1C4A"/>
</radialGradient>
<radialGradient id="paint20_radial_312_26871" cx="0" cy="0" r="1" gradientUnits="userSpaceOnUse" gradientTransform="translate(28.6051 -8.93566) scale(83.3901 83.3902)">
<stop offset="7e-08" stop-color="#284580"/>
<stop offset="1"/>
</radialGradient>
<radialGradient id="paint21_radial_312_26871" cx="0" cy="0" r="1" gradientUnits="userSpaceOnUse" gradientTransform="translate(12.9492 11.1977) scale(84.4504 84.4504)">
<stop stop-color="#67DBFF"/>
<stop offset="1" stop-color="#0068DE"/>
</radialGradient>
<linearGradient id="paint22_linear_312_26871" x1="5.92178" y1="3.87484" x2="41.3321" y2="3.87484" gradientUnits="userSpaceOnUse">
<stop stop-color="#7996B5"/>
<stop offset="1" stop-color="#CCE2FF"/>
</linearGradient>
<linearGradient id="paint23_linear_312_26871" x1="7.27687" y1="5.21733" x2="41.3315" y2="5.21733" gradientUnits="userSpaceOnUse">
<stop stop-color="#204270"/>
<stop offset="1" stop-color="#335D94"/>
</linearGradient>
<linearGradient id="paint24_linear_312_26871" x1="74.0317" y1="31.457" x2="75.3874" y2="31.457" gradientUnits="userSpaceOnUse">
<stop stop-color="#4E76A6"/>
<stop offset="1" stop-color="#87B5F5"/>
</linearGradient>
<linearGradient id="paint25_linear_312_26871" x1="41.3312" y1="3.87484" x2="76.7416" y2="3.87484" gradientUnits="userSpaceOnUse">
<stop stop-color="#87B5F5"/>
<stop offset="1" stop-color="#4E76A6"/>
</linearGradient>
<linearGradient id="paint26_linear_312_26871" x1="41.3312" y1="5.21733" x2="75.3864" y2="5.21733" gradientUnits="userSpaceOnUse">
<stop stop-color="#2F5382"/>
<stop offset="1" stop-color="#446DA3"/>
</linearGradient>
<radialGradient id="paint27_radial_312_26871" cx="0" cy="0" r="1" gradientUnits="userSpaceOnUse" gradientTransform="translate(41.3316 60.7506) scale(6.31661 6.31662)">
<stop stop-color="#0062B7"/>
<stop offset="1"/>
</radialGradient>
<linearGradient id="paint28_linear_312_26871" x1="41.3306" y1="85.1676" x2="41.3306" y2="72.0027" gradientUnits="userSpaceOnUse">
<stop stop-color="#C2D6F2"/>
<stop offset="1" stop-color="#E6F5FF"/>
</linearGradient>
<linearGradient id="paint29_linear_312_26871" x1="10.8899" y1="76.2952" x2="10.8899" y2="75.4678" gradientUnits="userSpaceOnUse">
<stop stop-color="#2B3336"/>
<stop offset="0.0166703" stop-color="#2C3C41"/>
<stop offset="0.0981146" stop-color="#316473"/>
<stop offset="0.1814" stop-color="#36869E"/>
<stop offset="0.2651" stop-color="#3AA2C1"/>
<stop offset="0.3494" stop-color="#3CB8DC"/>
<stop offset="0.4347" stop-color="#3EC8F0"/>
<stop offset="0.5213" stop-color="#40D1FB"/>
<stop offset="0.6115" stop-color="#40D4FF"/>
</linearGradient>
<linearGradient id="paint30_linear_312_26871" x1="10.8875" y1="75.6491" x2="10.8875" y2="74.9356" gradientUnits="userSpaceOnUse">
<stop/>
<stop offset="1" stop-color="#78FAFF"/>
</linearGradient>
<linearGradient id="paint31_linear_312_26871" x1="10.8899" y1="79.6152" x2="10.8899" y2="78.7875" gradientUnits="userSpaceOnUse">
<stop stop-color="#2B3336"/>
<stop offset="0.0166703" stop-color="#293B41"/>
<stop offset="0.0981146" stop-color="#1E6073"/>
<stop offset="0.1814" stop-color="#15809E"/>
<stop offset="0.2651" stop-color="#0D9AC1"/>
<stop offset="0.3494" stop-color="#07AEDC"/>
<stop offset="0.4347" stop-color="#03BDF0"/>
<stop offset="0.5213" stop-color="#01C5FB"/>
<stop offset="0.6115" stop-color="#00C8FF"/>
</linearGradient>
<linearGradient id="paint32_linear_312_26871" x1="10.8875" y1="78.9688" x2="10.8875" y2="78.2553" gradientUnits="userSpaceOnUse">
<stop/>
<stop offset="1" stop-color="#78FAFF"/>
</linearGradient>
<linearGradient id="paint33_linear_312_26871" x1="10.8899" y1="82.8913" x2="10.8899" y2="82.0638" gradientUnits="userSpaceOnUse">
<stop stop-color="#2B3336"/>
<stop offset="0.0166703" stop-color="#2C3C41"/>
<stop offset="0.0981146" stop-color="#316473"/>
<stop offset="0.1814" stop-color="#36869E"/>
<stop offset="0.2651" stop-color="#3AA2C1"/>
<stop offset="0.3494" stop-color="#3CB8DC"/>
<stop offset="0.4347" stop-color="#3EC8F0"/>
<stop offset="0.5213" stop-color="#40D1FB"/>
<stop offset="0.6115" stop-color="#40D4FF"/>
</linearGradient>
<linearGradient id="paint34_linear_312_26871" x1="10.8875" y1="82.2461" x2="10.8875" y2="81.5326" gradientUnits="userSpaceOnUse">
<stop/>
<stop offset="1" stop-color="#78FAFF"/>
</linearGradient>
<linearGradient id="paint35_linear_312_26871" x1="10.8891" y1="76.1203" x2="10.8891" y2="74.8156" gradientUnits="userSpaceOnUse">
<stop stop-color="#17ACFF"/>
<stop offset="1" stop-color="#78FAFF"/>
</linearGradient>
<linearGradient id="paint36_linear_312_26871" x1="10.8891" y1="79.4394" x2="10.8891" y2="78.1346" gradientUnits="userSpaceOnUse">
<stop stop-color="#17ACFF"/>
<stop offset="1" stop-color="#78FAFF"/>
</linearGradient>
<linearGradient id="paint37_linear_312_26871" x1="10.8891" y1="82.7174" x2="10.8891" y2="81.4126" gradientUnits="userSpaceOnUse">
<stop stop-color="#17ACFF"/>
<stop offset="1" stop-color="#78FAFF"/>
</linearGradient>
<linearGradient id="paint38_linear_312_26871" x1="71.7713" y1="76.2952" x2="71.7713" y2="75.4678" gradientUnits="userSpaceOnUse">
<stop stop-color="#2B3336"/>
<stop offset="0.0166703" stop-color="#2C3C41"/>
<stop offset="0.0981146" stop-color="#316473"/>
<stop offset="0.1814" stop-color="#36869E"/>
<stop offset="0.2651" stop-color="#3AA2C1"/>
<stop offset="0.3494" stop-color="#3CB8DC"/>
<stop offset="0.4347" stop-color="#3EC8F0"/>
<stop offset="0.5213" stop-color="#40D1FB"/>
<stop offset="0.6115" stop-color="#40D4FF"/>
</linearGradient>
<linearGradient id="paint39_linear_312_26871" x1="71.7706" y1="75.6491" x2="71.7706" y2="74.9356" gradientUnits="userSpaceOnUse">
<stop/>
<stop offset="1" stop-color="#78FAFF"/>
</linearGradient>
<linearGradient id="paint40_linear_312_26871" x1="71.7713" y1="79.6152" x2="71.7713" y2="78.7875" gradientUnits="userSpaceOnUse">
<stop stop-color="#2B3336"/>
<stop offset="0.0166703" stop-color="#2C3C41"/>
<stop offset="0.0981146" stop-color="#316473"/>
<stop offset="0.1814" stop-color="#36869E"/>
<stop offset="0.2651" stop-color="#3AA2C1"/>
<stop offset="0.3494" stop-color="#3CB8DC"/>
<stop offset="0.4347" stop-color="#3EC8F0"/>
<stop offset="0.5213" stop-color="#40D1FB"/>
<stop offset="0.6115" stop-color="#40D4FF"/>
</linearGradient>
<linearGradient id="paint41_linear_312_26871" x1="71.7706" y1="78.9688" x2="71.7706" y2="78.2553" gradientUnits="userSpaceOnUse">
<stop/>
<stop offset="1" stop-color="#78FAFF"/>
</linearGradient>
<linearGradient id="paint42_linear_312_26871" x1="71.7713" y1="82.8913" x2="71.7713" y2="82.0638" gradientUnits="userSpaceOnUse">
<stop stop-color="#2B3336"/>
<stop offset="0.0166703" stop-color="#2C3C41"/>
<stop offset="0.0981146" stop-color="#316473"/>
<stop offset="0.1814" stop-color="#36869E"/>
<stop offset="0.2651" stop-color="#3AA2C1"/>
<stop offset="0.3494" stop-color="#3CB8DC"/>
<stop offset="0.4347" stop-color="#3EC8F0"/>
<stop offset="0.5213" stop-color="#40D1FB"/>
<stop offset="0.6115" stop-color="#40D4FF"/>
</linearGradient>
<linearGradient id="paint43_linear_312_26871" x1="71.7706" y1="82.2461" x2="71.7706" y2="81.5326" gradientUnits="userSpaceOnUse">
<stop/>
<stop offset="1" stop-color="#78FAFF"/>
</linearGradient>
<linearGradient id="paint44_linear_312_26871" x1="71.7706" y1="76.1203" x2="71.7706" y2="74.8156" gradientUnits="userSpaceOnUse">
<stop stop-color="#17ACFF"/>
<stop offset="1" stop-color="#78FAFF"/>
</linearGradient>
<linearGradient id="paint45_linear_312_26871" x1="71.7706" y1="79.4394" x2="71.7706" y2="78.1346" gradientUnits="userSpaceOnUse">
<stop stop-color="#17ACFF"/>
<stop offset="1" stop-color="#78FAFF"/>
</linearGradient>
<linearGradient id="paint46_linear_312_26871" x1="71.7706" y1="82.7174" x2="71.7706" y2="81.4126" gradientUnits="userSpaceOnUse">
<stop stop-color="#17ACFF"/>
<stop offset="1" stop-color="#78FAFF"/>
</linearGradient>
<linearGradient id="paint47_linear_312_26871" x1="75.388" y1="47.3619" x2="82.2004" y2="47.3619" gradientUnits="userSpaceOnUse">
<stop stop-color="#335D94"/>
<stop offset="1" stop-color="#204270"/>
</linearGradient>
<linearGradient id="paint48_linear_312_26871" x1="3.78775" y1="48.7877" x2="3.78775" y2="64.2664" gradientUnits="userSpaceOnUse">
<stop stop-color="#6287C9"/>
<stop offset="1" stop-color="#3B597D"/>
</linearGradient>
<radialGradient id="paint49_radial_312_26871" cx="0" cy="0" r="1" gradientUnits="userSpaceOnUse" gradientTransform="translate(3.80293 56.5258) scale(4.44712 4.44709)">
<stop stop-color="#F8FC86"/>
<stop offset="1" stop-color="#EDCE20"/>
</radialGradient>
<linearGradient id="paint50_linear_312_26871" x1="4.09424" y1="62.0726" x2="4.09424" y2="64.2654" gradientUnits="userSpaceOnUse">
<stop stop-color="#99B2BF"/>
<stop offset="1" stop-color="#9BBD67"/>
</linearGradient>
<linearGradient id="paint51_linear_312_26871" x1="3.78775" y1="48.7877" x2="3.78775" y2="51.3096" gradientUnits="userSpaceOnUse">
<stop stop-color="#94885C"/>
<stop offset="1" stop-color="#2C507A"/>
</linearGradient>
<linearGradient id="paint52_linear_312_26871" x1="2.7677" y1="50.8249" x2="2.7677" y2="62.5869" gradientUnits="userSpaceOnUse">
<stop stop-color="#739CB0"/>
<stop offset="1" stop-color="#476B96"/>
</linearGradient>
<linearGradient id="paint53_linear_312_26871" x1="5.10357" y1="48.7877" x2="5.10357" y2="64.2664" gradientUnits="userSpaceOnUse">
<stop stop-color="#739CB0"/>
<stop offset="1" stop-color="#476B96"/>
</linearGradient>
<linearGradient id="paint54_linear_312_26871" x1="78.8719" y1="48.7877" x2="78.8719" y2="64.2664" gradientUnits="userSpaceOnUse">
<stop stop-color="#6287C9"/>
<stop offset="1" stop-color="#3B597D"/>
</linearGradient>
<radialGradient id="paint55_radial_312_26871" cx="0" cy="0" r="1" gradientUnits="userSpaceOnUse" gradientTransform="translate(78.8603 56.5258) rotate(180) scale(4.44712 4.44709)">
<stop stop-color="#F8FC86"/>
<stop offset="1" stop-color="#EDCE20"/>
</radialGradient>
<linearGradient id="paint56_linear_312_26871" x1="78.563" y1="62.0726" x2="78.563" y2="64.2654" gradientUnits="userSpaceOnUse">
<stop stop-color="#99B2BF"/>
<stop offset="1" stop-color="#9BBD67"/>
</linearGradient>
<linearGradient id="paint57_linear_312_26871" x1="78.8719" y1="48.7877" x2="78.8719" y2="51.3096" gradientUnits="userSpaceOnUse">
<stop stop-color="#94885C"/>
<stop offset="1" stop-color="#2C507A"/>
</linearGradient>
<linearGradient id="paint58_linear_312_26871" x1="79.8941" y1="50.8249" x2="79.8941" y2="62.5869" gradientUnits="userSpaceOnUse">
<stop stop-color="#739CB0"/>
<stop offset="1" stop-color="#476B96"/>
</linearGradient>
<linearGradient id="paint59_linear_312_26871" x1="77.5558" y1="48.7877" x2="77.5558" y2="64.2664" gradientUnits="userSpaceOnUse">
<stop stop-color="#739CB0"/>
<stop offset="1" stop-color="#476B96"/>
</linearGradient>
<linearGradient id="paint60_linear_312_26871" x1="52.5854" y1="43.7558" x2="28.8866" y2="20.0568" gradientUnits="userSpaceOnUse">
<stop stop-color="#17ACFF"/>
<stop offset="1" stop-color="#78FAFF"/>
</linearGradient>
</defs>
</svg>
