<svg width="130" height="170" viewBox="0 0 130 170" fill="none" xmlns="http://www.w3.org/2000/svg">
<path fill-rule="evenodd" clip-rule="evenodd" d="M119.023 112.72V59.0791L129.835 71.5537L127.756 109.393L119.023 112.72Z" fill="url(#paint0_linear_312_27480)"/>
<path fill-rule="evenodd" clip-rule="evenodd" d="M43.3408 130.186V159.293L65.3793 166.778L87.0019 159.293V130.186H43.3408Z" fill="#9B9B9B"/>
<path fill-rule="evenodd" clip-rule="evenodd" d="M45.833 130.186V157.63L65.3765 164.283L84.5042 157.63V130.186H45.833Z" fill="url(#paint1_radial_312_27480)"/>
<path fill-rule="evenodd" clip-rule="evenodd" d="M86.998 130.186V159.293L89.493 160.956V130.186H86.998Z" fill="url(#paint2_linear_312_27480)"/>
<path fill-rule="evenodd" clip-rule="evenodd" d="M87.0008 159.293V130.186H84.5059V157.63L87.0008 159.293Z" fill="url(#paint3_linear_312_27480)"/>
<path fill-rule="evenodd" clip-rule="evenodd" d="M45.8357 157.63V130.186H43.3408V159.293L45.8357 157.63Z" fill="url(#paint4_linear_312_27480)"/>
<path fill-rule="evenodd" clip-rule="evenodd" d="M43.3406 159.293V130.186H40.8457V160.956L43.3406 159.293Z" fill="url(#paint5_linear_312_27480)"/>
<path fill-rule="evenodd" clip-rule="evenodd" d="M49.1621 161.374L65.3791 166.78V169.275L49.1621 163.869L40.8457 160.958L43.3406 159.295L49.1621 161.374Z" fill="url(#paint6_linear_312_27480)"/>
<path fill-rule="evenodd" clip-rule="evenodd" d="M65.3793 166.778L49.1623 161.372L43.3408 159.293L45.8357 157.63L49.1623 158.877L65.3793 164.283V166.778Z" fill="url(#paint7_linear_312_27480)"/>
<path fill-rule="evenodd" clip-rule="evenodd" d="M65.3809 166.78L81.182 161.374L87.0035 159.295L89.4984 160.958L81.182 163.869L65.3809 169.275V166.78Z" fill="url(#paint8_linear_312_27480)"/>
<path fill-rule="evenodd" clip-rule="evenodd" d="M87.0035 159.293L81.182 161.372L65.3809 166.778V164.283L81.182 158.877L84.5086 157.63L87.0035 159.293Z" fill="url(#paint9_linear_312_27480)"/>
<path fill-rule="evenodd" clip-rule="evenodd" d="M11.326 112.72V59.0791L0.514648 71.5537L2.59375 109.393L11.326 112.72Z" fill="url(#paint10_linear_312_27480)"/>
<path fill-rule="evenodd" clip-rule="evenodd" d="M11.3262 87.7728L13.4053 86.5254L65.3827 104.406V106.485L11.3262 87.7728Z" fill="url(#paint11_linear_312_27480)"/>
<path fill-rule="evenodd" clip-rule="evenodd" d="M119.022 87.7728L116.943 86.5254L65.3809 104.406V106.485L119.022 87.7728Z" fill="url(#paint12_linear_312_27480)"/>
<path fill-rule="evenodd" clip-rule="evenodd" d="M11.3262 10.4316L13.4053 12.5107V86.5266L11.3262 87.7741V10.4316Z" fill="url(#paint13_linear_312_27480)"/>
<path fill-rule="evenodd" clip-rule="evenodd" d="M65.3827 159.292V106.483L11.3262 87.7711L9.24707 86.9395V139.749L65.3827 159.292Z" fill="url(#paint14_linear_312_27480)"/>
<path fill-rule="evenodd" clip-rule="evenodd" d="M65.3809 106.483V159.292L121.517 139.749V86.9395L119.022 87.7711L65.3809 106.483Z" fill="url(#paint15_linear_312_27480)"/>
<path fill-rule="evenodd" clip-rule="evenodd" d="M65.3827 157.214L11.3262 138.502L9.24707 139.749L65.3827 159.293V157.214Z" fill="url(#paint16_linear_312_27480)"/>
<path fill-rule="evenodd" clip-rule="evenodd" d="M119.022 138.502L65.3809 157.214V159.293L121.517 139.749L119.022 138.502Z" fill="url(#paint17_linear_312_27480)"/>
<path fill-rule="evenodd" clip-rule="evenodd" d="M9.24686 8.7666V65.7339L0.514648 71.5554L2.59375 109.395L9.24686 111.89V139.75L11.326 138.502V112.722V88.604V64.0706V10.4299L9.24686 8.7666Z" fill="url(#paint18_linear_312_27480)"/>
<path fill-rule="evenodd" clip-rule="evenodd" d="M127.334 79.8705L121.929 76.5439V101.077L126.503 98.5824L127.334 79.8705Z" fill="#808080"/>
<path fill-rule="evenodd" clip-rule="evenodd" d="M13.4043 12.509V86.5249L65.3818 104.405L116.943 86.5249V12.509L65.3818 4.6084L13.4043 12.509Z" fill="url(#paint19_radial_312_27480)"/>
<path fill-rule="evenodd" clip-rule="evenodd" d="M32.9434 93.177L105.712 10.8447L116.939 12.508V86.5239L65.3773 104.404L32.9434 93.177Z" fill="url(#paint20_radial_312_27480)"/>
<path fill-rule="evenodd" clip-rule="evenodd" d="M20.8854 18.7467V32.0529L19.2221 30.3896V17.4992L65.378 10.8461L95.3171 15.0043V17.0834L65.378 12.9252L20.8854 18.7467ZM20.8854 33.3004V57.4179L17.9746 60.3286V82.7829L64.9622 98.9999L111.95 82.7829V44.9433L111.118 44.1117L109.455 42.0326V18.7467L96.1487 17.0834V15.0043V14.1726L65.378 9.59863L17.9746 16.6676V30.8054L20.8854 33.3004ZM20.8854 58.6654V80.7038L53.7351 92.3467V94.4258L19.2221 82.3671V60.7445L20.8854 58.6654ZM54.9826 92.7626L65.378 96.5049L75.7735 92.7626V94.8417L65.378 98.584L54.9826 94.8417V92.7626ZM76.1894 92.3467L109.039 80.7038V43.28L111.118 45.3591V82.3671L76.1894 94.4258V92.3467ZM22.1328 19.5783V79.8722L65.378 94.8417L108.623 79.8722V19.5783L65.378 13.341L22.1328 19.5783Z" fill="url(#paint21_radial_312_27480)"/>
<path fill-rule="evenodd" clip-rule="evenodd" d="M11.3262 10.4299L65.3827 2.52929V0.450195L9.24707 8.76659L11.3262 10.4299Z" fill="url(#paint22_linear_312_27480)"/>
<path fill-rule="evenodd" clip-rule="evenodd" d="M65.3827 2.52832L11.3262 10.4289L13.4053 12.508L65.3827 4.60742V2.52832Z" fill="url(#paint23_linear_312_27480)"/>
<path fill-rule="evenodd" clip-rule="evenodd" d="M119.023 10.4316L116.944 12.5107V86.5266L119.023 87.7741V10.4316Z" fill="url(#paint24_linear_312_27480)"/>
<path fill-rule="evenodd" clip-rule="evenodd" d="M119.022 10.4299L65.3809 2.52929V0.450195L121.517 8.76659L119.022 10.4299Z" fill="url(#paint25_linear_312_27480)"/>
<path fill-rule="evenodd" clip-rule="evenodd" d="M65.3809 2.52832L119.022 10.4289L116.943 12.508L65.3809 4.60742V2.52832Z" fill="url(#paint26_linear_312_27480)"/>
<path fill-rule="evenodd" clip-rule="evenodd" d="M112.368 43.6951V16.6668L96.9824 14.1719V16.251L110.289 18.3301V41.616L112.368 43.6951Z" fill="#CCCC14"/>
<path fill-rule="evenodd" clip-rule="evenodd" d="M17.9746 32.0508V59.0791L20.0537 57V33.7141L17.9746 32.0508Z" fill="#CCCC14"/>
<path fill-rule="evenodd" clip-rule="evenodd" d="M65.3789 96.0902L54.9834 92.7637V94.8428L65.3789 98.1693L75.3586 94.8428V92.7637L65.3789 96.0902Z" fill="url(#paint27_radial_312_27480)"/>
<path fill-rule="evenodd" clip-rule="evenodd" d="M65.3782 116.879L64.1308 107.316L20.4697 91.0986L65.3782 106.484V116.879Z" fill="white"/>
<path fill-rule="evenodd" clip-rule="evenodd" d="M11.3262 53.6747L10.4945 10.4295L9.24707 8.76621L11.3262 9.59785L28.3748 7.93457L11.3262 10.4295V53.6747Z" fill="white"/>
<path fill-rule="evenodd" clip-rule="evenodd" d="M34.6074 7.10331L64.5464 2.11347L65.3781 0.450195V2.52929L34.6074 7.10331Z" fill="white"/>
<path opacity="0.5" d="M92.4073 136.009H106.129V131.85H96.5655V115.633H91.9915V136.009H92.4073ZM75.7745 136.009H89.9124V131.85H80.3485V127.276H88.6649V123.118H80.3485V119.792H89.9124V115.633H75.7745V136.009ZM67.4581 136.009L74.1112 116.465V114.802L69.9531 115.218L65.7949 127.692L65.379 129.771L64.9632 127.692L60.805 115.218L56.6468 114.802V116.465L63.2999 136.009H67.4581ZM40.8457 136.009H54.9835V131.85H45.4197V127.276H53.7361V123.118H45.4197V119.792H54.9835V115.633H40.8457V136.009ZM24.6287 136.009H38.3507V131.85H28.7869V115.633H24.2129V136.009H24.6287Z" fill="#4D5E6E"/>
<path d="M92.4073 134.343H106.129V130.184H96.5655V113.967H91.9915V134.343H92.4073ZM75.7745 134.343H89.9124V130.184H80.3485V125.61H88.6649V121.452H80.3485V118.126H89.9124V113.967H75.7745V134.343ZM67.4581 134.343L74.1112 114.799L69.9531 113.552L65.7949 126.026L65.379 128.105L64.9632 125.61L60.805 113.136L56.6468 114.383L63.2999 133.927H67.4581V134.343ZM40.8457 134.343H54.9835V130.184H45.4197V125.61H53.7361V121.452H45.4197V118.126H54.9835V113.967H40.8457V134.343ZM24.6287 134.343H38.3507V130.184H28.7869V113.967H24.2129V134.343H24.6287Z" fill="url(#paint28_linear_312_27480)"/>
<path fill-rule="evenodd" clip-rule="evenodd" d="M14.6475 118.958C14.6475 119.79 15.0633 120.205 15.4791 120.205H17.974C18.3898 120.205 18.8057 119.79 18.8057 119.374V118.958C17.5582 118.958 16.3107 118.958 14.6475 118.958Z" fill="url(#paint29_linear_312_27480)"/>
<path fill-rule="evenodd" clip-rule="evenodd" d="M18.3853 118.126H15.8904C15.4746 118.126 15.4746 118.542 15.4746 118.542C15.4746 118.958 15.8904 118.958 15.8904 118.958H18.3853C18.8012 118.958 18.8012 118.542 18.8012 118.542C18.8012 118.126 18.8012 118.126 18.3853 118.126Z" fill="url(#paint30_linear_312_27480)"/>
<path fill-rule="evenodd" clip-rule="evenodd" d="M14.6475 123.95C14.6475 124.782 15.0633 125.198 15.4791 125.198H17.974C18.3898 125.198 18.8057 124.782 18.8057 124.366V123.95C17.5582 123.95 16.3107 123.95 14.6475 123.95Z" fill="url(#paint31_linear_312_27480)"/>
<path fill-rule="evenodd" clip-rule="evenodd" d="M18.3853 123.117H15.8904C15.4746 123.117 15.4746 123.533 15.4746 123.533C15.4746 123.949 15.8904 123.949 15.8904 123.949H18.3853C18.8012 123.949 18.8012 123.533 18.8012 123.533C18.8012 123.533 18.8012 123.117 18.3853 123.117Z" fill="url(#paint32_linear_312_27480)"/>
<path fill-rule="evenodd" clip-rule="evenodd" d="M14.6475 129.354C14.6475 130.186 15.0633 130.602 15.4791 130.602H17.974C18.3898 130.602 18.8057 130.186 18.8057 129.77V129.354C17.5582 129.354 16.3107 129.354 14.6475 129.354Z" fill="url(#paint33_linear_312_27480)"/>
<path fill-rule="evenodd" clip-rule="evenodd" d="M18.3853 128.521H15.8904C15.4746 128.521 15.4746 128.937 15.4746 128.937C15.4746 129.353 15.8904 129.353 15.8904 129.353H18.3853C18.8012 129.353 18.8012 128.937 18.8012 128.937C18.8012 128.521 18.8012 128.521 18.3853 128.521Z" fill="url(#paint34_linear_312_27480)"/>
<path fill-rule="evenodd" clip-rule="evenodd" d="M18.3881 117.712H15.8932C15.4773 117.712 15.0615 118.128 15.0615 118.544C15.0615 118.959 15.4773 119.375 15.8932 119.375H18.3881C18.8039 119.375 19.2197 118.959 19.2197 118.544C19.2197 118.128 18.8039 117.712 18.3881 117.712Z" fill="url(#paint35_linear_312_27480)"/>
<path fill-rule="evenodd" clip-rule="evenodd" d="M18.3881 123.117H15.8932C15.4773 123.117 15.0615 123.533 15.0615 123.949C15.0615 124.365 15.4773 124.78 15.8932 124.78H18.3881C18.8039 124.78 19.2197 124.365 19.2197 123.949C19.2197 123.533 18.8039 123.117 18.3881 123.117Z" fill="url(#paint36_linear_312_27480)"/>
<path fill-rule="evenodd" clip-rule="evenodd" d="M18.3881 128.106H15.8932C15.4773 128.106 15.0615 128.522 15.0615 128.938C15.0615 129.354 15.4773 129.77 15.8932 129.77H18.3881C18.8039 129.77 19.2197 129.354 19.2197 128.938C19.2197 128.522 18.8039 128.106 18.3881 128.106Z" fill="url(#paint37_linear_312_27480)"/>
<path fill-rule="evenodd" clip-rule="evenodd" d="M111.12 118.958C111.12 119.79 111.536 120.205 111.952 120.205H114.863C115.278 120.205 115.694 119.79 115.694 119.374V118.958C114.031 118.958 112.783 118.958 111.12 118.958Z" fill="url(#paint38_linear_312_27480)"/>
<path fill-rule="evenodd" clip-rule="evenodd" d="M114.858 118.126H112.363C111.947 118.126 111.947 118.542 111.947 118.542C111.947 118.958 112.363 118.958 112.363 118.958H114.858C115.274 118.958 115.274 118.542 115.274 118.542C115.274 118.126 115.274 118.126 114.858 118.126Z" fill="url(#paint39_linear_312_27480)"/>
<path fill-rule="evenodd" clip-rule="evenodd" d="M111.12 123.95C111.12 124.782 111.536 125.198 111.952 125.198H114.863C115.278 125.198 115.694 124.782 115.694 124.366V123.95C114.031 123.95 112.783 123.95 111.12 123.95Z" fill="url(#paint40_linear_312_27480)"/>
<path fill-rule="evenodd" clip-rule="evenodd" d="M114.858 123.117H112.363C111.947 123.117 111.947 123.533 111.947 123.533C111.947 123.949 112.363 123.949 112.363 123.949H114.858C115.274 123.949 115.274 123.533 115.274 123.533C115.274 123.533 115.274 123.117 114.858 123.117Z" fill="url(#paint41_linear_312_27480)"/>
<path fill-rule="evenodd" clip-rule="evenodd" d="M111.12 129.354C111.12 130.186 111.536 130.602 111.952 130.602H114.863C115.278 130.602 115.694 130.186 115.694 129.77V129.354C114.031 129.354 112.783 129.354 111.12 129.354Z" fill="url(#paint42_linear_312_27480)"/>
<path fill-rule="evenodd" clip-rule="evenodd" d="M114.858 128.521H112.363C111.947 128.521 111.947 128.937 111.947 128.937C111.947 129.353 112.363 129.353 112.363 129.353H114.858C115.274 129.353 115.274 128.937 115.274 128.937C115.274 128.521 115.274 128.521 114.858 128.521Z" fill="url(#paint43_linear_312_27480)"/>
<path fill-rule="evenodd" clip-rule="evenodd" d="M114.861 117.712H112.366C111.95 117.712 111.534 118.128 111.534 118.544C111.534 118.959 111.95 119.375 112.366 119.375H114.861C115.277 119.375 115.692 118.959 115.692 118.544C115.692 118.128 115.277 117.712 114.861 117.712Z" fill="url(#paint44_linear_312_27480)"/>
<path fill-rule="evenodd" clip-rule="evenodd" d="M114.861 123.117H112.366C111.95 123.117 111.534 123.533 111.534 123.949C111.534 124.365 111.95 124.78 112.366 124.78H114.861C115.277 124.78 115.692 124.365 115.692 123.949C115.692 123.533 115.277 123.117 114.861 123.117Z" fill="url(#paint45_linear_312_27480)"/>
<path fill-rule="evenodd" clip-rule="evenodd" d="M114.861 128.106H112.366C111.95 128.106 111.534 128.522 111.534 128.938C111.534 129.354 111.95 129.77 112.366 129.77H114.861C115.277 129.77 115.692 129.354 115.692 128.938C115.692 128.522 115.277 128.106 114.861 128.106Z" fill="url(#paint46_linear_312_27480)"/>
<path fill-rule="evenodd" clip-rule="evenodd" d="M129.835 71.5554L121.518 65.7339V8.7666L119.023 10.4299V64.0706V88.604V112.722V138.502L121.518 139.75V111.89L127.756 109.395L129.835 71.5554Z" fill="url(#paint47_linear_312_27480)"/>
<path fill-rule="evenodd" clip-rule="evenodd" d="M3.00977 79.8705L8.41543 76.5439V101.077L3.84141 98.5824L3.00977 79.8705Z" fill="url(#paint48_linear_312_27480)"/>
<path fill-rule="evenodd" clip-rule="evenodd" d="M4.26074 80.7004L7.17147 79.0371V98.5806L5.09237 97.749L4.26074 80.7004Z" fill="url(#paint49_radial_312_27480)"/>
<path fill-rule="evenodd" clip-rule="evenodd" d="M3.83691 98.5816L5.08437 97.75L7.16347 98.5816L8.41094 101.077L3.83691 98.5816Z" fill="url(#paint50_linear_312_27480)"/>
<path fill-rule="evenodd" clip-rule="evenodd" d="M4.25724 80.7021L3.00977 79.8705L8.41543 76.5439L7.16796 79.0389L4.25724 80.7021Z" fill="url(#paint51_linear_312_27480)"/>
<path fill-rule="evenodd" clip-rule="evenodd" d="M3.00977 79.8701L4.25724 80.7018L5.08886 97.7504L3.84141 98.582L3.00977 79.8701Z" fill="url(#paint52_linear_312_27480)"/>
<path fill-rule="evenodd" clip-rule="evenodd" d="M7.16699 98.5824V79.0389L8.41446 76.5439V101.077L7.16699 98.5824Z" fill="url(#paint53_linear_312_27480)"/>
<path fill-rule="evenodd" clip-rule="evenodd" d="M127.334 79.8705L121.929 76.5439V101.077L126.503 98.5824L127.334 79.8705Z" fill="url(#paint54_linear_312_27480)"/>
<path fill-rule="evenodd" clip-rule="evenodd" d="M126.09 80.7004L123.18 79.0371V98.5806L125.259 97.749L126.09 80.7004Z" fill="url(#paint55_radial_312_27480)"/>
<path fill-rule="evenodd" clip-rule="evenodd" d="M126.503 98.5816L125.255 97.75L123.176 98.5816L121.929 101.077L126.503 98.5816Z" fill="url(#paint56_linear_312_27480)"/>
<path fill-rule="evenodd" clip-rule="evenodd" d="M126.087 80.7021L127.334 79.8705L121.929 76.5439L123.176 79.0389L126.087 80.7021Z" fill="url(#paint57_linear_312_27480)"/>
<path fill-rule="evenodd" clip-rule="evenodd" d="M127.337 79.8701L126.089 80.7018L125.258 97.7504L126.505 98.582L127.337 79.8701Z" fill="url(#paint58_linear_312_27480)"/>
<path fill-rule="evenodd" clip-rule="evenodd" d="M123.176 98.5824V79.0389L121.929 76.5439V101.077L123.176 98.5824Z" fill="url(#paint59_linear_312_27480)"/>
<path d="M47.4996 61.9919V76.1298H83.6759V66.566H59.5584L77.0228 56.5863L83.6759 49.1015V37.0428L74.9437 28.3105H57.0635L46.668 31.6371L49.5787 40.7851L58.3109 38.2902H70.3697L73.2804 40.7851V45.775L70.3697 49.1015L47.4996 61.9919Z" fill="url(#paint60_linear_312_27480)"/>
<defs>
<linearGradient id="paint0_linear_312_27480" x1="119.182" y1="85.8521" x2="129.977" y2="85.8521" gradientUnits="userSpaceOnUse">
<stop stop-color="#1B3840"/>
<stop offset="1" stop-color="#204954"/>
</linearGradient>
<radialGradient id="paint1_radial_312_27480" cx="0" cy="0" r="1" gradientUnits="userSpaceOnUse" gradientTransform="translate(65.2152 164.35) scale(20.3777 20.3777)">
<stop stop-color="#B3FFF2"/>
<stop offset="0.3089" stop-color="#B1FFF2"/>
<stop offset="0.4601" stop-color="#A9FFF0"/>
<stop offset="0.5772" stop-color="#9CFFEE"/>
<stop offset="0.6767" stop-color="#89FFEB"/>
<stop offset="0.765" stop-color="#71FFE7"/>
<stop offset="0.8454" stop-color="#54FFE2"/>
<stop offset="0.9198" stop-color="#30FFDC"/>
<stop offset="0.9876" stop-color="#08FFD5"/>
<stop offset="1" stop-color="#00FFD4"/>
</radialGradient>
<linearGradient id="paint2_linear_312_27480" x1="87.0629" y1="145.632" x2="89.4352" y2="145.632" gradientUnits="userSpaceOnUse">
<stop stop-color="#335D94"/>
<stop offset="1" stop-color="#204270"/>
</linearGradient>
<linearGradient id="paint3_linear_312_27480" x1="84.6934" y1="144.788" x2="87.0656" y2="144.788" gradientUnits="userSpaceOnUse">
<stop stop-color="#4E76A6"/>
<stop offset="1" stop-color="#87B5F5"/>
</linearGradient>
<linearGradient id="paint4_linear_312_27480" x1="43.3695" y1="144.788" x2="45.7418" y2="144.788" gradientUnits="userSpaceOnUse">
<stop stop-color="#335D94"/>
<stop offset="1" stop-color="#204270"/>
</linearGradient>
<linearGradient id="paint5_linear_312_27480" x1="40.9971" y1="145.632" x2="43.3693" y2="145.632" gradientUnits="userSpaceOnUse">
<stop stop-color="#4E76A6"/>
<stop offset="1" stop-color="#87B5F5"/>
</linearGradient>
<linearGradient id="paint6_linear_312_27480" x1="40.9971" y1="164.33" x2="65.2181" y2="164.33" gradientUnits="userSpaceOnUse">
<stop stop-color="#2F5382"/>
<stop offset="1" stop-color="#446DA3"/>
</linearGradient>
<linearGradient id="paint7_linear_312_27480" x1="43.3695" y1="162.229" x2="65.2183" y2="162.229" gradientUnits="userSpaceOnUse">
<stop stop-color="#4E76A6"/>
<stop offset="1" stop-color="#87B5F5"/>
</linearGradient>
<linearGradient id="paint8_linear_312_27480" x1="65.2199" y1="164.33" x2="89.4406" y2="164.33" gradientUnits="userSpaceOnUse">
<stop stop-color="#204270"/>
<stop offset="1" stop-color="#335D94"/>
</linearGradient>
<linearGradient id="paint9_linear_312_27480" x1="65.2199" y1="162.229" x2="87.0684" y2="162.229" gradientUnits="userSpaceOnUse">
<stop stop-color="#77A5D6"/>
<stop offset="1" stop-color="#99C5FF"/>
</linearGradient>
<linearGradient id="paint10_linear_312_27480" x1="0.466829" y1="85.8521" x2="11.2611" y2="85.8521" gradientUnits="userSpaceOnUse">
<stop stop-color="#204954"/>
<stop offset="1" stop-color="#1B3840"/>
</linearGradient>
<linearGradient id="paint11_linear_312_27480" x1="11.2613" y1="96.4963" x2="65.2214" y2="96.4963" gradientUnits="userSpaceOnUse">
<stop stop-color="#4E76A6"/>
<stop offset="1" stop-color="#87B5F5"/>
</linearGradient>
<linearGradient id="paint12_linear_312_27480" x1="65.2195" y1="96.4963" x2="119.18" y2="96.4963" gradientUnits="userSpaceOnUse">
<stop stop-color="#77A5D6"/>
<stop offset="1" stop-color="#99C5FF"/>
</linearGradient>
<linearGradient id="paint13_linear_312_27480" x1="11.2613" y1="49.065" x2="13.409" y2="49.065" gradientUnits="userSpaceOnUse">
<stop stop-color="#335D94"/>
<stop offset="1" stop-color="#204270"/>
</linearGradient>
<linearGradient id="paint14_linear_312_27480" x1="64.9008" y1="106.746" x2="5.53504" y2="142.045" gradientUnits="userSpaceOnUse">
<stop stop-color="#87B5F5"/>
<stop offset="1" stop-color="#6A94C4"/>
</linearGradient>
<linearGradient id="paint15_linear_312_27480" x1="64.8116" y1="106.27" x2="123.261" y2="141.111" gradientUnits="userSpaceOnUse">
<stop stop-color="#335D94"/>
<stop offset="1" stop-color="#42689C"/>
</linearGradient>
<linearGradient id="paint16_linear_312_27480" x1="9.11318" y1="148.862" x2="65.2214" y2="148.862" gradientUnits="userSpaceOnUse">
<stop stop-color="#2F5382"/>
<stop offset="1" stop-color="#446DA3"/>
</linearGradient>
<linearGradient id="paint17_linear_312_27480" x1="65.2195" y1="148.862" x2="121.329" y2="148.862" gradientUnits="userSpaceOnUse">
<stop stop-color="#204270"/>
<stop offset="1" stop-color="#335D94"/>
</linearGradient>
<linearGradient id="paint18_linear_312_27480" x1="0.466829" y1="74.2649" x2="11.2611" y2="74.2649" gradientUnits="userSpaceOnUse">
<stop stop-color="#4E76A6"/>
<stop offset="1" stop-color="#87B5F5"/>
</linearGradient>
<radialGradient id="paint19_radial_312_27480" cx="0" cy="0" r="1" gradientUnits="userSpaceOnUse" gradientTransform="translate(65.2208 4.81631) scale(99.8945 99.8944)">
<stop stop-color="#0056BF"/>
<stop offset="0.1352" stop-color="#02429F"/>
<stop offset="0.2857" stop-color="#043183"/>
<stop offset="0.4168" stop-color="#052671"/>
<stop offset="0.513" stop-color="#05226B"/>
<stop offset="0.6195" stop-color="#072060"/>
<stop offset="0.8351" stop-color="#091D50"/>
<stop offset="1" stop-color="#0A1C4A"/>
</radialGradient>
<radialGradient id="paint20_radial_312_27480" cx="0" cy="0" r="1" gradientUnits="userSpaceOnUse" gradientTransform="translate(45.0549 -14.9394) scale(132.133 132.133)">
<stop offset="7e-08" stop-color="#284580"/>
<stop offset="1"/>
</radialGradient>
<radialGradient id="paint21_radial_312_27480" cx="0" cy="0" r="1" gradientUnits="userSpaceOnUse" gradientTransform="translate(20.2471 16.9632) scale(133.813 133.813)">
<stop stop-color="#67DBFF"/>
<stop offset="1" stop-color="#0068DE"/>
</radialGradient>
<linearGradient id="paint22_linear_312_27480" x1="9.11318" y1="5.35978" x2="65.2214" y2="5.35978" gradientUnits="userSpaceOnUse">
<stop stop-color="#7996B5"/>
<stop offset="1" stop-color="#CCE2FF"/>
</linearGradient>
<linearGradient id="paint23_linear_312_27480" x1="11.2613" y1="7.48697" x2="65.2214" y2="7.48697" gradientUnits="userSpaceOnUse">
<stop stop-color="#204270"/>
<stop offset="1" stop-color="#335D94"/>
</linearGradient>
<linearGradient id="paint24_linear_312_27480" x1="117.034" y1="49.065" x2="119.182" y2="49.065" gradientUnits="userSpaceOnUse">
<stop stop-color="#4E76A6"/>
<stop offset="1" stop-color="#87B5F5"/>
</linearGradient>
<linearGradient id="paint25_linear_312_27480" x1="65.2195" y1="5.35978" x2="121.328" y2="5.35978" gradientUnits="userSpaceOnUse">
<stop stop-color="#87B5F5"/>
<stop offset="1" stop-color="#4E76A6"/>
</linearGradient>
<linearGradient id="paint26_linear_312_27480" x1="65.2195" y1="7.48697" x2="119.18" y2="7.48697" gradientUnits="userSpaceOnUse">
<stop stop-color="#2F5382"/>
<stop offset="1" stop-color="#446DA3"/>
</linearGradient>
<radialGradient id="paint27_radial_312_27480" cx="0" cy="0" r="1" gradientUnits="userSpaceOnUse" gradientTransform="translate(65.2176 95.4802) scale(10.0088 10.0088)">
<stop stop-color="#0062B7"/>
<stop offset="1"/>
</radialGradient>
<linearGradient id="paint28_linear_312_27480" x1="65.2181" y1="134.167" x2="65.2181" y2="113.307" gradientUnits="userSpaceOnUse">
<stop stop-color="#C2D6F2"/>
<stop offset="1" stop-color="#E6F5FF"/>
</linearGradient>
<linearGradient id="paint29_linear_312_27480" x1="16.9852" y1="120.108" x2="16.9852" y2="118.797" gradientUnits="userSpaceOnUse">
<stop stop-color="#2B3336"/>
<stop offset="0.0166703" stop-color="#2C3C41"/>
<stop offset="0.0981146" stop-color="#316473"/>
<stop offset="0.1814" stop-color="#36869E"/>
<stop offset="0.2651" stop-color="#3AA2C1"/>
<stop offset="0.3494" stop-color="#3CB8DC"/>
<stop offset="0.4347" stop-color="#3EC8F0"/>
<stop offset="0.5213" stop-color="#40D1FB"/>
<stop offset="0.6115" stop-color="#40D4FF"/>
</linearGradient>
<linearGradient id="paint30_linear_312_27480" x1="16.9807" y1="119.085" x2="16.9807" y2="117.954" gradientUnits="userSpaceOnUse">
<stop/>
<stop offset="1" stop-color="#78FAFF"/>
</linearGradient>
<linearGradient id="paint31_linear_312_27480" x1="16.9852" y1="125.371" x2="16.9852" y2="124.059" gradientUnits="userSpaceOnUse">
<stop stop-color="#2B3336"/>
<stop offset="0.0166703" stop-color="#293B41"/>
<stop offset="0.0981146" stop-color="#1E6073"/>
<stop offset="0.1814" stop-color="#15809E"/>
<stop offset="0.2651" stop-color="#0D9AC1"/>
<stop offset="0.3494" stop-color="#07AEDC"/>
<stop offset="0.4347" stop-color="#03BDF0"/>
<stop offset="0.5213" stop-color="#01C5FB"/>
<stop offset="0.6115" stop-color="#00C8FF"/>
</linearGradient>
<linearGradient id="paint32_linear_312_27480" x1="16.9807" y1="124.346" x2="16.9807" y2="123.215" gradientUnits="userSpaceOnUse">
<stop/>
<stop offset="1" stop-color="#78FAFF"/>
</linearGradient>
<linearGradient id="paint33_linear_312_27480" x1="16.9852" y1="130.562" x2="16.9852" y2="129.251" gradientUnits="userSpaceOnUse">
<stop stop-color="#2B3336"/>
<stop offset="0.0166703" stop-color="#2C3C41"/>
<stop offset="0.0981146" stop-color="#316473"/>
<stop offset="0.1814" stop-color="#36869E"/>
<stop offset="0.2651" stop-color="#3AA2C1"/>
<stop offset="0.3494" stop-color="#3CB8DC"/>
<stop offset="0.4347" stop-color="#3EC8F0"/>
<stop offset="0.5213" stop-color="#40D1FB"/>
<stop offset="0.6115" stop-color="#40D4FF"/>
</linearGradient>
<linearGradient id="paint34_linear_312_27480" x1="16.9807" y1="129.538" x2="16.9807" y2="128.408" gradientUnits="userSpaceOnUse">
<stop/>
<stop offset="1" stop-color="#78FAFF"/>
</linearGradient>
<linearGradient id="paint35_linear_312_27480" x1="16.9834" y1="119.832" x2="16.9834" y2="117.765" gradientUnits="userSpaceOnUse">
<stop stop-color="#17ACFF"/>
<stop offset="1" stop-color="#78FAFF"/>
</linearGradient>
<linearGradient id="paint36_linear_312_27480" x1="16.9834" y1="125.091" x2="16.9834" y2="123.024" gradientUnits="userSpaceOnUse">
<stop stop-color="#17ACFF"/>
<stop offset="1" stop-color="#78FAFF"/>
</linearGradient>
<linearGradient id="paint37_linear_312_27480" x1="16.9834" y1="130.285" x2="16.9834" y2="128.217" gradientUnits="userSpaceOnUse">
<stop stop-color="#17ACFF"/>
<stop offset="1" stop-color="#78FAFF"/>
</linearGradient>
<linearGradient id="paint38_linear_312_27480" x1="113.449" y1="120.108" x2="113.449" y2="118.797" gradientUnits="userSpaceOnUse">
<stop stop-color="#2B3336"/>
<stop offset="0.0166703" stop-color="#2C3C41"/>
<stop offset="0.0981146" stop-color="#316473"/>
<stop offset="0.1814" stop-color="#36869E"/>
<stop offset="0.2651" stop-color="#3AA2C1"/>
<stop offset="0.3494" stop-color="#3CB8DC"/>
<stop offset="0.4347" stop-color="#3EC8F0"/>
<stop offset="0.5213" stop-color="#40D1FB"/>
<stop offset="0.6115" stop-color="#40D4FF"/>
</linearGradient>
<linearGradient id="paint39_linear_312_27480" x1="113.445" y1="119.085" x2="113.445" y2="117.954" gradientUnits="userSpaceOnUse">
<stop/>
<stop offset="1" stop-color="#78FAFF"/>
</linearGradient>
<linearGradient id="paint40_linear_312_27480" x1="113.449" y1="125.371" x2="113.449" y2="124.059" gradientUnits="userSpaceOnUse">
<stop stop-color="#2B3336"/>
<stop offset="0.0166703" stop-color="#2C3C41"/>
<stop offset="0.0981146" stop-color="#316473"/>
<stop offset="0.1814" stop-color="#36869E"/>
<stop offset="0.2651" stop-color="#3AA2C1"/>
<stop offset="0.3494" stop-color="#3CB8DC"/>
<stop offset="0.4347" stop-color="#3EC8F0"/>
<stop offset="0.5213" stop-color="#40D1FB"/>
<stop offset="0.6115" stop-color="#40D4FF"/>
</linearGradient>
<linearGradient id="paint41_linear_312_27480" x1="113.445" y1="124.346" x2="113.445" y2="123.215" gradientUnits="userSpaceOnUse">
<stop/>
<stop offset="1" stop-color="#78FAFF"/>
</linearGradient>
<linearGradient id="paint42_linear_312_27480" x1="113.449" y1="130.562" x2="113.449" y2="129.251" gradientUnits="userSpaceOnUse">
<stop stop-color="#2B3336"/>
<stop offset="0.0166703" stop-color="#2C3C41"/>
<stop offset="0.0981146" stop-color="#316473"/>
<stop offset="0.1814" stop-color="#36869E"/>
<stop offset="0.2651" stop-color="#3AA2C1"/>
<stop offset="0.3494" stop-color="#3CB8DC"/>
<stop offset="0.4347" stop-color="#3EC8F0"/>
<stop offset="0.5213" stop-color="#40D1FB"/>
<stop offset="0.6115" stop-color="#40D4FF"/>
</linearGradient>
<linearGradient id="paint43_linear_312_27480" x1="113.445" y1="129.538" x2="113.445" y2="128.408" gradientUnits="userSpaceOnUse">
<stop/>
<stop offset="1" stop-color="#78FAFF"/>
</linearGradient>
<linearGradient id="paint44_linear_312_27480" x1="113.447" y1="119.832" x2="113.447" y2="117.765" gradientUnits="userSpaceOnUse">
<stop stop-color="#17ACFF"/>
<stop offset="1" stop-color="#78FAFF"/>
</linearGradient>
<linearGradient id="paint45_linear_312_27480" x1="113.447" y1="125.091" x2="113.447" y2="123.024" gradientUnits="userSpaceOnUse">
<stop stop-color="#17ACFF"/>
<stop offset="1" stop-color="#78FAFF"/>
</linearGradient>
<linearGradient id="paint46_linear_312_27480" x1="113.447" y1="130.285" x2="113.447" y2="128.217" gradientUnits="userSpaceOnUse">
<stop stop-color="#17ACFF"/>
<stop offset="1" stop-color="#78FAFF"/>
</linearGradient>
<linearGradient id="paint47_linear_312_27480" x1="119.183" y1="74.2649" x2="129.977" y2="74.2649" gradientUnits="userSpaceOnUse">
<stop stop-color="#335D94"/>
<stop offset="1" stop-color="#204270"/>
</linearGradient>
<linearGradient id="paint48_linear_312_27480" x1="5.73505" y1="76.5232" x2="5.73505" y2="101.049" gradientUnits="userSpaceOnUse">
<stop stop-color="#6287C9"/>
<stop offset="1" stop-color="#3B597D"/>
</linearGradient>
<radialGradient id="paint49_radial_312_27480" cx="0" cy="0" r="1" gradientUnits="userSpaceOnUse" gradientTransform="translate(5.75977 88.7848) scale(7.04645 7.04648)">
<stop stop-color="#F8FC86"/>
<stop offset="1" stop-color="#EDCE20"/>
</radialGradient>
<linearGradient id="paint50_linear_312_27480" x1="6.21998" y1="97.5741" x2="6.21998" y2="101.049" gradientUnits="userSpaceOnUse">
<stop stop-color="#99B2BF"/>
<stop offset="1" stop-color="#9BBD67"/>
</linearGradient>
<linearGradient id="paint51_linear_312_27480" x1="5.73505" y1="76.5232" x2="5.73505" y2="80.5192" gradientUnits="userSpaceOnUse">
<stop stop-color="#94885C"/>
<stop offset="1" stop-color="#2C507A"/>
</linearGradient>
<linearGradient id="paint52_linear_312_27480" x1="4.11876" y1="79.752" x2="4.11876" y2="98.3891" gradientUnits="userSpaceOnUse">
<stop stop-color="#739CB0"/>
<stop offset="1" stop-color="#476B96"/>
</linearGradient>
<linearGradient id="paint53_linear_312_27480" x1="7.81984" y1="76.5232" x2="7.81984" y2="101.049" gradientUnits="userSpaceOnUse">
<stop stop-color="#739CB0"/>
<stop offset="1" stop-color="#476B96"/>
</linearGradient>
<linearGradient id="paint54_linear_312_27480" x1="124.702" y1="76.5232" x2="124.702" y2="101.049" gradientUnits="userSpaceOnUse">
<stop stop-color="#6287C9"/>
<stop offset="1" stop-color="#3B597D"/>
</linearGradient>
<radialGradient id="paint55_radial_312_27480" cx="0" cy="0" r="1" gradientUnits="userSpaceOnUse" gradientTransform="translate(124.685 88.7848) rotate(180) scale(7.04645 7.04648)">
<stop stop-color="#F8FC86"/>
<stop offset="1" stop-color="#EDCE20"/>
</radialGradient>
<linearGradient id="paint56_linear_312_27480" x1="124.213" y1="97.5741" x2="124.213" y2="101.049" gradientUnits="userSpaceOnUse">
<stop stop-color="#99B2BF"/>
<stop offset="1" stop-color="#9BBD67"/>
</linearGradient>
<linearGradient id="paint57_linear_312_27480" x1="124.702" y1="76.5232" x2="124.702" y2="80.5192" gradientUnits="userSpaceOnUse">
<stop stop-color="#94885C"/>
<stop offset="1" stop-color="#2C507A"/>
</linearGradient>
<linearGradient id="paint58_linear_312_27480" x1="126.321" y1="79.752" x2="126.321" y2="98.3891" gradientUnits="userSpaceOnUse">
<stop stop-color="#739CB0"/>
<stop offset="1" stop-color="#476B96"/>
</linearGradient>
<linearGradient id="paint59_linear_312_27480" x1="122.617" y1="76.5232" x2="122.617" y2="101.049" gradientUnits="userSpaceOnUse">
<stop stop-color="#739CB0"/>
<stop offset="1" stop-color="#476B96"/>
</linearGradient>
<linearGradient id="paint60_linear_312_27480" x1="84.3812" y1="75.4262" x2="43.7369" y2="34.7824" gradientUnits="userSpaceOnUse">
<stop stop-color="#17ACFF"/>
<stop offset="1" stop-color="#78FAFF"/>
</linearGradient>
</defs>
</svg>
