<svg width="82" height="121" viewBox="0 0 82 121" fill="none" xmlns="http://www.w3.org/2000/svg">
<path fill-rule="evenodd" clip-rule="evenodd" d="M75.1152 71.2545V37.4014L81.9384 45.2742L80.6262 69.155L75.1152 71.2545Z" fill="url(#paint0_linear_312_27172)"/>
<path fill-rule="evenodd" clip-rule="evenodd" d="M27.0898 82.2783V100.648L40.9985 105.372L54.6447 100.648V82.2783H27.0898Z" fill="#9B9B9B"/>
<path fill-rule="evenodd" clip-rule="evenodd" d="M28.6631 82.2783V99.5985L40.9972 103.797L53.3313 99.5985V82.2783H28.6631Z" fill="url(#paint1_radial_312_27172)"/>
<path fill-rule="evenodd" clip-rule="evenodd" d="M54.6436 82.2783V100.648L56.2181 101.698V82.2783H54.6436Z" fill="url(#paint2_linear_312_27172)"/>
<path fill-rule="evenodd" clip-rule="evenodd" d="M54.6442 100.648V82.2783H53.332V99.5985L54.6442 100.648Z" fill="url(#paint3_linear_312_27172)"/>
<path fill-rule="evenodd" clip-rule="evenodd" d="M28.6644 99.5985V82.2783H27.0898V100.648L28.6644 99.5985Z" fill="url(#paint4_linear_312_27172)"/>
<path fill-rule="evenodd" clip-rule="evenodd" d="M27.0905 100.648V82.2783H25.7783V101.698L27.0905 100.648Z" fill="url(#paint5_linear_312_27172)"/>
<path fill-rule="evenodd" clip-rule="evenodd" d="M30.7644 101.961L40.9991 105.372V106.947L30.7644 103.535L25.7783 101.698L27.0905 100.648L30.7644 101.961Z" fill="url(#paint6_linear_312_27172)"/>
<path fill-rule="evenodd" clip-rule="evenodd" d="M40.9985 105.371L30.7638 101.96L27.0898 100.647L28.6644 99.5977L30.7638 100.385L40.9985 103.796V105.371Z" fill="url(#paint7_linear_312_27172)"/>
<path fill-rule="evenodd" clip-rule="evenodd" d="M41 105.372L51.2346 101.961L54.6462 100.648L56.2207 101.698L51.2346 103.535L41 106.947V105.372Z" fill="url(#paint8_linear_312_27172)"/>
<path fill-rule="evenodd" clip-rule="evenodd" d="M54.6462 100.647L51.2346 101.96L41 105.371V103.796L51.2346 100.385L53.3341 99.5977L54.6462 100.647Z" fill="url(#paint9_linear_312_27172)"/>
<path fill-rule="evenodd" clip-rule="evenodd" d="M28.6631 95.3994H53.3313V120.068H28.6631V95.3994Z" fill="url(#paint10_radial_312_27172)"/>
<path fill-rule="evenodd" clip-rule="evenodd" d="M6.88562 71.2545V37.4014L0.0625 45.2742L1.37464 69.155L6.88562 71.2545Z" fill="url(#paint11_linear_312_27172)"/>
<path fill-rule="evenodd" clip-rule="evenodd" d="M6.88477 55.5109L8.1969 54.7236L41.0003 66.008V67.3201L6.88477 55.5109Z" fill="url(#paint12_linear_312_27172)"/>
<path fill-rule="evenodd" clip-rule="evenodd" d="M75.1155 55.5109L73.541 54.7236L41 66.008V67.3201L75.1155 55.5109Z" fill="url(#paint13_linear_312_27172)"/>
<path fill-rule="evenodd" clip-rule="evenodd" d="M6.88477 6.69922L8.1969 8.01135V54.7234L6.88477 55.5107V6.69922Z" fill="url(#paint14_linear_312_27172)"/>
<path fill-rule="evenodd" clip-rule="evenodd" d="M41.0009 100.647V67.3185L6.88538 55.5092L5.57324 54.9844V88.3126L41.0009 100.647Z" fill="url(#paint15_linear_312_27172)"/>
<path fill-rule="evenodd" clip-rule="evenodd" d="M41 67.3185V100.647L76.4277 88.3126V54.9844L75.1155 55.5092L41 67.3185Z" fill="url(#paint16_linear_312_27172)"/>
<path fill-rule="evenodd" clip-rule="evenodd" d="M41.0009 99.3356L6.88538 87.5264L5.57324 88.3136L41.0009 100.648V99.3356Z" fill="url(#paint17_linear_312_27172)"/>
<path fill-rule="evenodd" clip-rule="evenodd" d="M75.1155 87.5264L41 99.3356V100.648L76.4277 88.3136L75.1155 87.5264Z" fill="url(#paint18_linear_312_27172)"/>
<path fill-rule="evenodd" clip-rule="evenodd" d="M5.57349 5.64941V41.6019L0.0625 45.2759L1.37464 69.1568L5.57349 70.7313V88.314L6.88562 87.5267V71.2562V56.0354V40.5522V6.69912L5.57349 5.64941Z" fill="url(#paint19_linear_312_27172)"/>
<path fill-rule="evenodd" clip-rule="evenodd" d="M80.3624 50.5232L76.6885 48.4238V63.907L79.5751 62.3325L80.3624 50.5232Z" fill="#808080"/>
<path fill-rule="evenodd" clip-rule="evenodd" d="M8.19727 8.01053V54.7226L41.0007 66.0069L73.5416 54.7226V8.01053L41.0007 3.02441L8.19727 8.01053Z" fill="url(#paint20_radial_312_27172)"/>
<path fill-rule="evenodd" clip-rule="evenodd" d="M20.5283 58.9215L66.4531 6.96094L73.5386 8.01065V54.7227L40.9976 66.007L20.5283 58.9215Z" fill="url(#paint21_radial_312_27172)"/>
<path fill-rule="evenodd" clip-rule="evenodd" d="M13.1807 11.9472V20.3449L11.8686 19.0328V11.1599L40.998 6.96111L59.8928 9.58538V10.8975L40.998 8.27325L13.1807 11.9472ZM13.1807 21.1322V36.3529L11.3438 38.1899V52.361L40.998 62.5957L70.6523 52.361V28.4801L70.1274 27.9553L68.8153 26.6431V11.9472L60.4176 10.8975V9.58538V9.06053L40.998 6.17383L11.3438 10.6351V19.5576L13.1807 21.1322ZM13.1807 37.1402V51.0489L33.9125 58.3968V59.709L11.8686 52.0986V38.4524L13.1807 37.1402ZM34.4373 58.6593L40.998 61.0211L47.5587 58.6593V59.9714L40.998 62.3332L34.4373 59.9714V58.6593ZM48.0835 58.3968L68.8153 51.0489V27.4304L70.1274 28.7426V52.0986L48.0835 59.709V58.3968ZM13.7056 12.4721V50.524L40.998 59.9714L68.2904 50.524V12.4721L40.998 8.53567L13.7056 12.4721Z" fill="url(#paint22_radial_312_27172)"/>
<path fill-rule="evenodd" clip-rule="evenodd" d="M6.88538 6.69864L41.0009 1.71253V0.400391L5.57324 5.64893L6.88538 6.69864Z" fill="url(#paint23_linear_312_27172)"/>
<path fill-rule="evenodd" clip-rule="evenodd" d="M41.0003 1.71191L6.88477 6.69803L8.1969 8.01017L41.0003 3.02405V1.71191Z" fill="url(#paint24_linear_312_27172)"/>
<path fill-rule="evenodd" clip-rule="evenodd" d="M75.1166 6.69922L73.542 8.01135V54.7234L75.1166 55.5107V6.69922Z" fill="url(#paint25_linear_312_27172)"/>
<path fill-rule="evenodd" clip-rule="evenodd" d="M75.1155 6.69864L41 1.71253V0.400391L76.4277 5.64893L75.1155 6.69864Z" fill="url(#paint26_linear_312_27172)"/>
<path fill-rule="evenodd" clip-rule="evenodd" d="M41 1.71191L75.1155 6.69803L73.541 8.01017L41 3.02405V1.71191Z" fill="url(#paint27_linear_312_27172)"/>
<path fill-rule="evenodd" clip-rule="evenodd" d="M70.6532 27.6929V10.6351L60.9434 9.06055V10.3727L69.341 11.6848V26.3807L70.6532 27.6929Z" fill="#CCCC14"/>
<path fill-rule="evenodd" clip-rule="evenodd" d="M11.3438 20.3438V37.4015L12.3934 36.0894V21.3935L11.3438 20.3438Z" fill="#CCCC14"/>
<path fill-rule="evenodd" clip-rule="evenodd" d="M41.0001 60.7596L34.4395 58.6602V59.9723L41.0001 62.0717L47.2984 59.9723V58.6602L41.0001 60.7596Z" fill="url(#paint28_radial_312_27172)"/>
<path fill-rule="evenodd" clip-rule="evenodd" d="M40.9974 73.8799L40.2101 67.844L12.6553 57.6094L40.9974 67.3192V73.8799Z" fill="white"/>
<path fill-rule="evenodd" clip-rule="evenodd" d="M6.88372 33.991L6.35883 6.69859L5.83398 5.64888L6.88372 6.17373L17.9056 5.12402L6.88372 6.69859V33.991Z" fill="white"/>
<path fill-rule="evenodd" clip-rule="evenodd" d="M21.8408 4.59923L40.7356 1.4501L40.998 0.400391V1.71253L21.8408 4.59923Z" fill="white"/>
<path opacity="0.5" d="M58.0566 85.9521H66.7167V83.3279H60.6809V73.0932H57.7942V85.9521H58.0566ZM47.5595 85.9521H56.482V83.3279H50.4462V80.4412H55.6948V77.8169H50.4462V75.7175H56.482V73.0932H47.5595V85.9521ZM42.311 85.9521L46.5098 73.6181V72.5684L43.8855 72.8308L41.2613 80.7036L40.9989 82.0157L40.7364 80.7036L38.1121 72.8308L35.4879 72.5684V73.6181L39.6867 85.9521H42.311ZM25.5156 85.9521H34.4382V83.3279H28.4024V80.4412H33.6509V77.8169H28.4024V75.7175H34.4382V73.0932H25.5156V85.9521ZM15.281 85.9521H23.9411V83.3279H17.9053V73.0932H15.0186V85.9521H15.281Z" fill="#4D5E6E"/>
<path d="M58.0566 84.9026H66.7167V82.2783H60.6809V72.0437H57.7942V84.9026H58.0566ZM47.5595 84.9026H56.482V82.2783H50.4462V79.3916H55.6948V76.7674H50.4462V74.6679H56.482V72.0437H47.5595V84.9026ZM42.311 84.9026L46.5098 72.5685L43.8855 71.7812L41.2613 79.6541L40.9989 80.9662L40.7364 79.6541L38.1121 71.7812L35.4879 72.5685L39.6867 84.9026H42.311ZM25.5156 84.9026H34.4382V82.2783H28.4024V79.3916H33.6509V76.7674H28.4024V74.6679H34.4382V72.0437H25.5156V84.9026ZM15.281 84.9026H23.9411V82.2783H17.9053V72.0437H15.0186V84.9026H15.281Z" fill="url(#paint29_linear_312_27172)"/>
<path fill-rule="evenodd" clip-rule="evenodd" d="M8.98047 75.1924C8.98047 75.7172 9.24293 75.9797 9.50536 75.9797H11.0799C11.3423 75.9797 11.6047 75.7172 11.6047 75.4548V75.1924C10.8175 75.1924 10.2926 75.1924 8.98047 75.1924Z" fill="url(#paint30_linear_312_27172)"/>
<path fill-rule="evenodd" clip-rule="evenodd" d="M11.3399 74.667H9.76533C9.50291 74.667 9.50293 74.9294 9.50293 74.9294C9.50293 75.1918 9.76533 75.1918 9.76533 75.1918H11.3399C11.6023 75.1918 11.6023 74.9294 11.6023 74.9294C11.6023 74.667 11.6023 74.667 11.3399 74.667Z" fill="url(#paint31_linear_312_27172)"/>
<path fill-rule="evenodd" clip-rule="evenodd" d="M8.98047 78.3418C8.98047 78.8667 9.24293 79.1291 9.50536 79.1291H11.0799C11.3423 79.1291 11.6047 78.8666 11.6047 78.6042V78.3418C10.8175 78.3418 10.2926 78.3418 8.98047 78.3418Z" fill="url(#paint32_linear_312_27172)"/>
<path fill-rule="evenodd" clip-rule="evenodd" d="M11.3399 77.8164H9.76533C9.50291 77.8164 9.50293 78.0788 9.50293 78.0788C9.50293 78.3413 9.76533 78.3413 9.76533 78.3413H11.3399C11.6023 78.3413 11.6023 78.0788 11.6023 78.0788C11.6023 78.0788 11.6023 77.8164 11.3399 77.8164Z" fill="url(#paint33_linear_312_27172)"/>
<path fill-rule="evenodd" clip-rule="evenodd" d="M8.98047 81.752C8.98047 82.2768 9.24293 82.5392 9.50536 82.5392H11.0799C11.3423 82.5392 11.6047 82.2768 11.6047 82.0144V81.752C10.8175 81.752 10.2926 81.752 8.98047 81.752Z" fill="url(#paint34_linear_312_27172)"/>
<path fill-rule="evenodd" clip-rule="evenodd" d="M11.3399 81.2275H9.76533C9.50291 81.2275 9.50293 81.49 9.50293 81.49C9.50293 81.7524 9.76533 81.7524 9.76533 81.7524H11.3399C11.6023 81.7524 11.6023 81.49 11.6023 81.49C11.6023 81.2275 11.6023 81.2275 11.3399 81.2275Z" fill="url(#paint35_linear_312_27172)"/>
<path fill-rule="evenodd" clip-rule="evenodd" d="M11.3416 74.4053H9.76703C9.50461 74.4053 9.24219 74.6677 9.24219 74.9301C9.24219 75.1926 9.50461 75.455 9.76703 75.455H11.3416C11.604 75.455 11.8665 75.1926 11.8665 74.9301C11.8665 74.6677 11.604 74.4053 11.3416 74.4053Z" fill="url(#paint36_linear_312_27172)"/>
<path fill-rule="evenodd" clip-rule="evenodd" d="M11.3416 77.8164H9.76703C9.50461 77.8164 9.24219 78.0788 9.24219 78.3413C9.24219 78.6037 9.50461 78.8661 9.76703 78.8661H11.3416C11.604 78.8661 11.8665 78.6037 11.8665 78.3413C11.8665 78.0788 11.604 77.8164 11.3416 77.8164Z" fill="url(#paint37_linear_312_27172)"/>
<path fill-rule="evenodd" clip-rule="evenodd" d="M11.3416 80.9658H9.76703C9.50461 80.9658 9.24219 81.2282 9.24219 81.4907C9.24219 81.7531 9.50461 82.0155 9.76703 82.0155H11.3416C11.604 82.0155 11.8665 81.7531 11.8665 81.4907C11.8665 81.2282 11.604 80.9658 11.3416 80.9658Z" fill="url(#paint38_linear_312_27172)"/>
<path fill-rule="evenodd" clip-rule="evenodd" d="M69.8672 75.1924C69.8672 75.7172 70.1296 75.9797 70.392 75.9797H71.9666C72.229 75.9797 72.4915 75.7172 72.4915 75.4548V75.1924C71.7042 75.1924 71.1793 75.1924 69.8672 75.1924Z" fill="url(#paint39_linear_312_27172)"/>
<path fill-rule="evenodd" clip-rule="evenodd" d="M72.2266 74.667H70.6521C70.3896 74.667 70.3896 74.9294 70.3896 74.9294C70.3896 75.1918 70.6521 75.1918 70.6521 75.1918H72.2266C72.4891 75.1918 72.4891 74.9294 72.4891 74.9294C72.4891 74.667 72.4891 74.667 72.2266 74.667Z" fill="url(#paint40_linear_312_27172)"/>
<path fill-rule="evenodd" clip-rule="evenodd" d="M69.8672 78.3418C69.8672 78.8667 70.1296 79.1291 70.392 79.1291H71.9666C72.229 79.1291 72.4915 78.8666 72.4915 78.6042V78.3418C71.7042 78.3418 71.1793 78.3418 69.8672 78.3418Z" fill="url(#paint41_linear_312_27172)"/>
<path fill-rule="evenodd" clip-rule="evenodd" d="M72.2266 77.8164H70.6521C70.3896 77.8164 70.3896 78.0788 70.3896 78.0788C70.3896 78.3413 70.6521 78.3413 70.6521 78.3413H72.2266C72.4891 78.3413 72.4891 78.0788 72.4891 78.0788C72.4891 78.0788 72.4891 77.8164 72.2266 77.8164Z" fill="url(#paint42_linear_312_27172)"/>
<path fill-rule="evenodd" clip-rule="evenodd" d="M69.8672 81.752C69.8672 82.2768 70.1296 82.5392 70.392 82.5392H71.9666C72.229 82.5392 72.4915 82.2768 72.4915 82.0144V81.752C71.7042 81.752 71.1793 81.752 69.8672 81.752Z" fill="url(#paint43_linear_312_27172)"/>
<path fill-rule="evenodd" clip-rule="evenodd" d="M72.2266 81.2275H70.6521C70.3896 81.2275 70.3896 81.49 70.3896 81.49C70.3896 81.7524 70.6521 81.7524 70.6521 81.7524H72.2266C72.4891 81.7524 72.4891 81.49 72.4891 81.49C72.4891 81.2275 72.4891 81.2275 72.2266 81.2275Z" fill="url(#paint44_linear_312_27172)"/>
<path fill-rule="evenodd" clip-rule="evenodd" d="M72.2283 74.4053H70.6538C70.3913 74.4053 70.1289 74.6677 70.1289 74.9301C70.1289 75.1926 70.3913 75.455 70.6538 75.455H72.2283C72.4908 75.455 72.7532 75.1926 72.7532 74.9301C72.7532 74.6677 72.4908 74.4053 72.2283 74.4053Z" fill="url(#paint45_linear_312_27172)"/>
<path fill-rule="evenodd" clip-rule="evenodd" d="M72.2283 77.8164H70.6538C70.3913 77.8164 70.1289 78.0788 70.1289 78.3413C70.1289 78.6037 70.3913 78.8661 70.6538 78.8661H72.2283C72.4908 78.8661 72.7532 78.6037 72.7532 78.3413C72.7532 78.0788 72.4908 77.8164 72.2283 77.8164Z" fill="url(#paint46_linear_312_27172)"/>
<path fill-rule="evenodd" clip-rule="evenodd" d="M72.2283 80.9658H70.6538C70.3913 80.9658 70.1289 81.2282 70.1289 81.4907C70.1289 81.7531 70.3913 82.0155 70.6538 82.0155H72.2283C72.4908 82.0155 72.7532 81.7531 72.7532 81.4907C72.7532 81.2282 72.4908 80.9658 72.2283 80.9658Z" fill="url(#paint47_linear_312_27172)"/>
<path fill-rule="evenodd" clip-rule="evenodd" d="M81.9384 45.2759L76.4274 41.6019V5.64941L75.1152 6.69912V40.5522V56.0354V71.2562V87.5267L76.4274 88.314V70.7313L80.6262 69.1568L81.9384 45.2759Z" fill="url(#paint48_linear_312_27172)"/>
<path fill-rule="evenodd" clip-rule="evenodd" d="M1.63574 50.5232L5.04726 48.4238V63.907L2.16059 62.3325L1.63574 50.5232Z" fill="url(#paint49_linear_312_27172)"/>
<path fill-rule="evenodd" clip-rule="evenodd" d="M2.68652 51.0468L4.2611 49.9971V62.3311L3.21137 61.8063L2.68652 51.0468Z" fill="url(#paint50_radial_312_27172)"/>
<path fill-rule="evenodd" clip-rule="evenodd" d="M2.1582 62.3315L3.2079 61.8066L4.25763 62.3315L5.04488 63.9061L2.1582 62.3315Z" fill="url(#paint51_linear_312_27172)"/>
<path fill-rule="evenodd" clip-rule="evenodd" d="M2.68543 51.0481L1.63574 50.5232L5.04726 48.4238L4.26001 49.9984L2.68543 51.0481Z" fill="url(#paint52_linear_312_27172)"/>
<path fill-rule="evenodd" clip-rule="evenodd" d="M1.63574 50.5225L2.68543 51.0473L3.21028 61.8068L2.16059 62.3317L1.63574 50.5225Z" fill="url(#paint53_linear_312_27172)"/>
<path fill-rule="evenodd" clip-rule="evenodd" d="M4.25977 62.3325V49.9984L5.04701 48.4238V63.907L4.25977 62.3325Z" fill="url(#paint54_linear_312_27172)"/>
<path fill-rule="evenodd" clip-rule="evenodd" d="M80.3634 50.5232L76.6895 48.4238V63.907L79.5761 62.3325L80.3634 50.5232Z" fill="url(#paint55_linear_312_27172)"/>
<path fill-rule="evenodd" clip-rule="evenodd" d="M79.3148 51.0468L77.7402 49.9971V62.3311L78.7899 61.8063L79.3148 51.0468Z" fill="url(#paint56_radial_312_27172)"/>
<path fill-rule="evenodd" clip-rule="evenodd" d="M79.5761 62.3315L78.7888 61.8066L77.7391 62.3315L76.6895 63.9061L79.5761 62.3315Z" fill="url(#paint57_linear_312_27172)"/>
<path fill-rule="evenodd" clip-rule="evenodd" d="M79.3137 51.0481L80.3634 50.5232L76.6895 48.4238L77.7391 49.9984L79.3137 51.0481Z" fill="url(#paint58_linear_312_27172)"/>
<path fill-rule="evenodd" clip-rule="evenodd" d="M80.3656 50.5225L79.3159 51.0473L78.791 61.8068L79.5783 62.3317L80.3656 50.5225Z" fill="url(#paint59_linear_312_27172)"/>
<path fill-rule="evenodd" clip-rule="evenodd" d="M77.7391 62.3325V49.9984L76.6895 48.4238V63.907L77.7391 62.3325Z" fill="url(#paint60_linear_312_27172)"/>
<path d="M43.1045 41.3394L52.027 25.5938V17.9834H29.7207V24.2817H45.4663L36.2814 39.7649V48.1625H43.1045V41.3394Z" fill="url(#paint61_linear_312_27172)"/>
<defs>
<linearGradient id="paint0_linear_312_27172" x1="75.0179" y1="54.298" x2="81.8305" y2="54.298" gradientUnits="userSpaceOnUse">
<stop stop-color="#1B3840"/>
<stop offset="1" stop-color="#204954"/>
</linearGradient>
<radialGradient id="paint1_radial_312_27172" cx="0" cy="0" r="1" gradientUnits="userSpaceOnUse" gradientTransform="translate(40.9602 103.84) scale(12.8605 12.8605)">
<stop stop-color="#B3FFF2"/>
<stop offset="0.3089" stop-color="#B1FFF2"/>
<stop offset="0.4601" stop-color="#A9FFF0"/>
<stop offset="0.5772" stop-color="#9CFFEE"/>
<stop offset="0.6767" stop-color="#89FFEB"/>
<stop offset="0.765" stop-color="#71FFE7"/>
<stop offset="0.8454" stop-color="#54FFE2"/>
<stop offset="0.9198" stop-color="#30FFDC"/>
<stop offset="0.9876" stop-color="#08FFD5"/>
<stop offset="1" stop-color="#00FFD4"/>
</radialGradient>
<linearGradient id="paint2_linear_312_27172" x1="54.7493" y1="92.0264" x2="56.2464" y2="92.0264" gradientUnits="userSpaceOnUse">
<stop stop-color="#335D94"/>
<stop offset="1" stop-color="#204270"/>
</linearGradient>
<linearGradient id="paint3_linear_312_27172" x1="53.2528" y1="91.494" x2="54.7499" y2="91.494" gradientUnits="userSpaceOnUse">
<stop stop-color="#4E76A6"/>
<stop offset="1" stop-color="#87B5F5"/>
</linearGradient>
<linearGradient id="paint4_linear_312_27172" x1="27.1728" y1="91.494" x2="28.6699" y2="91.494" gradientUnits="userSpaceOnUse">
<stop stop-color="#335D94"/>
<stop offset="1" stop-color="#204270"/>
</linearGradient>
<linearGradient id="paint5_linear_312_27172" x1="25.6762" y1="92.0264" x2="27.1734" y2="92.0264" gradientUnits="userSpaceOnUse">
<stop stop-color="#4E76A6"/>
<stop offset="1" stop-color="#87B5F5"/>
</linearGradient>
<linearGradient id="paint6_linear_312_27172" x1="25.6762" y1="103.826" x2="40.9624" y2="103.826" gradientUnits="userSpaceOnUse">
<stop stop-color="#2F5382"/>
<stop offset="1" stop-color="#446DA3"/>
</linearGradient>
<linearGradient id="paint7_linear_312_27172" x1="27.1728" y1="102.5" x2="40.9617" y2="102.5" gradientUnits="userSpaceOnUse">
<stop stop-color="#4E76A6"/>
<stop offset="1" stop-color="#87B5F5"/>
</linearGradient>
<linearGradient id="paint8_linear_312_27172" x1="40.9633" y1="103.826" x2="56.2491" y2="103.826" gradientUnits="userSpaceOnUse">
<stop stop-color="#204270"/>
<stop offset="1" stop-color="#335D94"/>
</linearGradient>
<linearGradient id="paint9_linear_312_27172" x1="40.9633" y1="102.5" x2="54.752" y2="102.5" gradientUnits="userSpaceOnUse">
<stop stop-color="#77A5D6"/>
<stop offset="1" stop-color="#99C5FF"/>
</linearGradient>
<radialGradient id="paint10_radial_312_27172" cx="0" cy="0" r="1" gradientUnits="userSpaceOnUse" gradientTransform="translate(41.0982 85.9898) scale(33.3036 33.3036)">
<stop offset="0.2045" stop-color="#00FFFF"/>
<stop offset="0.2262" stop-color="#00F2F2"/>
<stop offset="0.3441" stop-color="#00B3B3"/>
<stop offset="0.4606" stop-color="#007D7D"/>
<stop offset="0.5728" stop-color="#005050"/>
<stop offset="0.68" stop-color="#002D2D"/>
<stop offset="0.7809" stop-color="#001414"/>
<stop offset="0.8729" stop-color="#000505"/>
<stop offset="0.948"/>
</radialGradient>
<linearGradient id="paint11_linear_312_27172" x1="0.0971405" y1="54.298" x2="6.9095" y2="54.298" gradientUnits="userSpaceOnUse">
<stop stop-color="#204954"/>
<stop offset="1" stop-color="#1B3840"/>
</linearGradient>
<linearGradient id="paint12_linear_312_27172" x1="6.90865" y1="61.0164" x2="40.9633" y2="61.0164" gradientUnits="userSpaceOnUse">
<stop stop-color="#4E76A6"/>
<stop offset="1" stop-color="#87B5F5"/>
</linearGradient>
<linearGradient id="paint13_linear_312_27172" x1="40.963" y1="61.0164" x2="75.0182" y2="61.0164" gradientUnits="userSpaceOnUse">
<stop stop-color="#77A5D6"/>
<stop offset="1" stop-color="#99C5FF"/>
</linearGradient>
<linearGradient id="paint14_linear_312_27172" x1="6.90865" y1="31.0811" x2="8.26408" y2="31.0811" gradientUnits="userSpaceOnUse">
<stop stop-color="#335D94"/>
<stop offset="1" stop-color="#204270"/>
</linearGradient>
<linearGradient id="paint15_linear_312_27172" x1="40.7616" y1="67.4843" x2="3.29511" y2="89.7617" gradientUnits="userSpaceOnUse">
<stop stop-color="#87B5F5"/>
<stop offset="1" stop-color="#6A94C4"/>
</linearGradient>
<linearGradient id="paint16_linear_312_27172" x1="40.7056" y1="67.1844" x2="77.5931" y2="89.1721" gradientUnits="userSpaceOnUse">
<stop stop-color="#335D94"/>
<stop offset="1" stop-color="#42689C"/>
</linearGradient>
<linearGradient id="paint17_linear_312_27172" x1="5.5533" y1="94.0645" x2="40.9639" y2="94.0645" gradientUnits="userSpaceOnUse">
<stop stop-color="#2F5382"/>
<stop offset="1" stop-color="#446DA3"/>
</linearGradient>
<linearGradient id="paint18_linear_312_27172" x1="40.963" y1="94.0645" x2="76.3736" y2="94.0645" gradientUnits="userSpaceOnUse">
<stop stop-color="#204270"/>
<stop offset="1" stop-color="#335D94"/>
</linearGradient>
<linearGradient id="paint19_linear_312_27172" x1="0.0971405" y1="46.9859" x2="6.9095" y2="46.9859" gradientUnits="userSpaceOnUse">
<stop stop-color="#4E76A6"/>
<stop offset="1" stop-color="#87B5F5"/>
</linearGradient>
<radialGradient id="paint20_radial_312_27172" cx="0" cy="0" r="1" gradientUnits="userSpaceOnUse" gradientTransform="translate(40.9639 3.15563) scale(63.0442 63.0442)">
<stop stop-color="#0056BF"/>
<stop offset="0.1352" stop-color="#02429F"/>
<stop offset="0.2857" stop-color="#043183"/>
<stop offset="0.4168" stop-color="#052671"/>
<stop offset="0.513" stop-color="#05226B"/>
<stop offset="0.6195" stop-color="#072060"/>
<stop offset="0.8351" stop-color="#091D50"/>
<stop offset="1" stop-color="#0A1C4A"/>
</radialGradient>
<radialGradient id="paint21_radial_312_27172" cx="0" cy="0" r="1" gradientUnits="userSpaceOnUse" gradientTransform="translate(28.2369 -9.31164) scale(83.3901 83.3902)">
<stop offset="7e-08" stop-color="#284580"/>
<stop offset="1"/>
</radialGradient>
<radialGradient id="paint22_radial_312_27172" cx="0" cy="0" r="1" gradientUnits="userSpaceOnUse" gradientTransform="translate(12.5803 10.8217) scale(84.4503 84.4504)">
<stop stop-color="#67DBFF"/>
<stop offset="1" stop-color="#0068DE"/>
</radialGradient>
<linearGradient id="paint23_linear_312_27172" x1="5.5533" y1="3.49887" x2="40.9639" y2="3.49887" gradientUnits="userSpaceOnUse">
<stop stop-color="#7996B5"/>
<stop offset="1" stop-color="#CCE2FF"/>
</linearGradient>
<linearGradient id="paint24_linear_312_27172" x1="6.90865" y1="4.84136" x2="40.9633" y2="4.84136" gradientUnits="userSpaceOnUse">
<stop stop-color="#204270"/>
<stop offset="1" stop-color="#335D94"/>
</linearGradient>
<linearGradient id="paint25_linear_312_27172" x1="73.6635" y1="31.0811" x2="75.0192" y2="31.0811" gradientUnits="userSpaceOnUse">
<stop stop-color="#4E76A6"/>
<stop offset="1" stop-color="#87B5F5"/>
</linearGradient>
<linearGradient id="paint26_linear_312_27172" x1="40.963" y1="3.49887" x2="76.3733" y2="3.49887" gradientUnits="userSpaceOnUse">
<stop stop-color="#87B5F5"/>
<stop offset="1" stop-color="#4E76A6"/>
</linearGradient>
<linearGradient id="paint27_linear_312_27172" x1="40.963" y1="4.84136" x2="75.0182" y2="4.84136" gradientUnits="userSpaceOnUse">
<stop stop-color="#2F5382"/>
<stop offset="1" stop-color="#446DA3"/>
</linearGradient>
<radialGradient id="paint28_radial_312_27172" cx="0" cy="0" r="1" gradientUnits="userSpaceOnUse" gradientTransform="translate(40.9631 60.3746) scale(6.31661 6.31662)">
<stop stop-color="#0062B7"/>
<stop offset="1"/>
</radialGradient>
<linearGradient id="paint29_linear_312_27172" x1="40.9621" y1="84.7916" x2="40.9621" y2="71.6267" gradientUnits="userSpaceOnUse">
<stop stop-color="#C2D6F2"/>
<stop offset="1" stop-color="#E6F5FF"/>
</linearGradient>
<linearGradient id="paint30_linear_312_27172" x1="10.5207" y1="75.9183" x2="10.5207" y2="75.0908" gradientUnits="userSpaceOnUse">
<stop stop-color="#2B3336"/>
<stop offset="0.0166703" stop-color="#2C3C41"/>
<stop offset="0.0981146" stop-color="#316473"/>
<stop offset="0.1814" stop-color="#36869E"/>
<stop offset="0.2651" stop-color="#3AA2C1"/>
<stop offset="0.3494" stop-color="#3CB8DC"/>
<stop offset="0.4347" stop-color="#3EC8F0"/>
<stop offset="0.5213" stop-color="#40D1FB"/>
<stop offset="0.6115" stop-color="#40D4FF"/>
</linearGradient>
<linearGradient id="paint31_linear_312_27172" x1="10.5182" y1="75.2722" x2="10.5182" y2="74.5586" gradientUnits="userSpaceOnUse">
<stop/>
<stop offset="1" stop-color="#78FAFF"/>
</linearGradient>
<linearGradient id="paint32_linear_312_27172" x1="10.5207" y1="79.2382" x2="10.5207" y2="78.4106" gradientUnits="userSpaceOnUse">
<stop stop-color="#2B3336"/>
<stop offset="0.0166703" stop-color="#293B41"/>
<stop offset="0.0981146" stop-color="#1E6073"/>
<stop offset="0.1814" stop-color="#15809E"/>
<stop offset="0.2651" stop-color="#0D9AC1"/>
<stop offset="0.3494" stop-color="#07AEDC"/>
<stop offset="0.4347" stop-color="#03BDF0"/>
<stop offset="0.5213" stop-color="#01C5FB"/>
<stop offset="0.6115" stop-color="#00C8FF"/>
</linearGradient>
<linearGradient id="paint33_linear_312_27172" x1="10.5182" y1="78.5919" x2="10.5182" y2="77.8783" gradientUnits="userSpaceOnUse">
<stop/>
<stop offset="1" stop-color="#78FAFF"/>
</linearGradient>
<linearGradient id="paint34_linear_312_27172" x1="10.5207" y1="82.5143" x2="10.5207" y2="81.6869" gradientUnits="userSpaceOnUse">
<stop stop-color="#2B3336"/>
<stop offset="0.0166703" stop-color="#2C3C41"/>
<stop offset="0.0981146" stop-color="#316473"/>
<stop offset="0.1814" stop-color="#36869E"/>
<stop offset="0.2651" stop-color="#3AA2C1"/>
<stop offset="0.3494" stop-color="#3CB8DC"/>
<stop offset="0.4347" stop-color="#3EC8F0"/>
<stop offset="0.5213" stop-color="#40D1FB"/>
<stop offset="0.6115" stop-color="#40D4FF"/>
</linearGradient>
<linearGradient id="paint35_linear_312_27172" x1="10.5182" y1="81.8692" x2="10.5182" y2="81.1556" gradientUnits="userSpaceOnUse">
<stop/>
<stop offset="1" stop-color="#78FAFF"/>
</linearGradient>
<linearGradient id="paint36_linear_312_27172" x1="10.5199" y1="75.7434" x2="10.5199" y2="74.4386" gradientUnits="userSpaceOnUse">
<stop stop-color="#17ACFF"/>
<stop offset="1" stop-color="#78FAFF"/>
</linearGradient>
<linearGradient id="paint37_linear_312_27172" x1="10.5199" y1="79.0624" x2="10.5199" y2="77.7576" gradientUnits="userSpaceOnUse">
<stop stop-color="#17ACFF"/>
<stop offset="1" stop-color="#78FAFF"/>
</linearGradient>
<linearGradient id="paint38_linear_312_27172" x1="10.5199" y1="82.3404" x2="10.5199" y2="81.0356" gradientUnits="userSpaceOnUse">
<stop stop-color="#17ACFF"/>
<stop offset="1" stop-color="#78FAFF"/>
</linearGradient>
<linearGradient id="paint39_linear_312_27172" x1="71.4019" y1="75.9183" x2="71.4019" y2="75.0908" gradientUnits="userSpaceOnUse">
<stop stop-color="#2B3336"/>
<stop offset="0.0166703" stop-color="#2C3C41"/>
<stop offset="0.0981146" stop-color="#316473"/>
<stop offset="0.1814" stop-color="#36869E"/>
<stop offset="0.2651" stop-color="#3AA2C1"/>
<stop offset="0.3494" stop-color="#3CB8DC"/>
<stop offset="0.4347" stop-color="#3EC8F0"/>
<stop offset="0.5213" stop-color="#40D1FB"/>
<stop offset="0.6115" stop-color="#40D4FF"/>
</linearGradient>
<linearGradient id="paint40_linear_312_27172" x1="71.3995" y1="75.2722" x2="71.3995" y2="74.5586" gradientUnits="userSpaceOnUse">
<stop/>
<stop offset="1" stop-color="#78FAFF"/>
</linearGradient>
<linearGradient id="paint41_linear_312_27172" x1="71.4019" y1="79.2382" x2="71.4019" y2="78.4106" gradientUnits="userSpaceOnUse">
<stop stop-color="#2B3336"/>
<stop offset="0.0166703" stop-color="#2C3C41"/>
<stop offset="0.0981146" stop-color="#316473"/>
<stop offset="0.1814" stop-color="#36869E"/>
<stop offset="0.2651" stop-color="#3AA2C1"/>
<stop offset="0.3494" stop-color="#3CB8DC"/>
<stop offset="0.4347" stop-color="#3EC8F0"/>
<stop offset="0.5213" stop-color="#40D1FB"/>
<stop offset="0.6115" stop-color="#40D4FF"/>
</linearGradient>
<linearGradient id="paint42_linear_312_27172" x1="71.3995" y1="78.5919" x2="71.3995" y2="77.8783" gradientUnits="userSpaceOnUse">
<stop/>
<stop offset="1" stop-color="#78FAFF"/>
</linearGradient>
<linearGradient id="paint43_linear_312_27172" x1="71.4019" y1="82.5143" x2="71.4019" y2="81.6869" gradientUnits="userSpaceOnUse">
<stop stop-color="#2B3336"/>
<stop offset="0.0166703" stop-color="#2C3C41"/>
<stop offset="0.0981146" stop-color="#316473"/>
<stop offset="0.1814" stop-color="#36869E"/>
<stop offset="0.2651" stop-color="#3AA2C1"/>
<stop offset="0.3494" stop-color="#3CB8DC"/>
<stop offset="0.4347" stop-color="#3EC8F0"/>
<stop offset="0.5213" stop-color="#40D1FB"/>
<stop offset="0.6115" stop-color="#40D4FF"/>
</linearGradient>
<linearGradient id="paint44_linear_312_27172" x1="71.3995" y1="81.8692" x2="71.3995" y2="81.1556" gradientUnits="userSpaceOnUse">
<stop/>
<stop offset="1" stop-color="#78FAFF"/>
</linearGradient>
<linearGradient id="paint45_linear_312_27172" x1="71.4012" y1="75.7434" x2="71.4012" y2="74.4386" gradientUnits="userSpaceOnUse">
<stop stop-color="#17ACFF"/>
<stop offset="1" stop-color="#78FAFF"/>
</linearGradient>
<linearGradient id="paint46_linear_312_27172" x1="71.4012" y1="79.0624" x2="71.4012" y2="77.7576" gradientUnits="userSpaceOnUse">
<stop stop-color="#17ACFF"/>
<stop offset="1" stop-color="#78FAFF"/>
</linearGradient>
<linearGradient id="paint47_linear_312_27172" x1="71.4012" y1="82.3404" x2="71.4012" y2="81.0356" gradientUnits="userSpaceOnUse">
<stop stop-color="#17ACFF"/>
<stop offset="1" stop-color="#78FAFF"/>
</linearGradient>
<linearGradient id="paint48_linear_312_27172" x1="75.0181" y1="46.9859" x2="81.8305" y2="46.9859" gradientUnits="userSpaceOnUse">
<stop stop-color="#335D94"/>
<stop offset="1" stop-color="#204270"/>
</linearGradient>
<linearGradient id="paint49_linear_312_27172" x1="3.42075" y1="48.4107" x2="3.42075" y2="63.8895" gradientUnits="userSpaceOnUse">
<stop stop-color="#6287C9"/>
<stop offset="1" stop-color="#3B597D"/>
</linearGradient>
<radialGradient id="paint50_radial_312_27172" cx="0" cy="0" r="1" gradientUnits="userSpaceOnUse" gradientTransform="translate(3.43497 56.1489) scale(4.44714 4.44709)">
<stop stop-color="#F8FC86"/>
<stop offset="1" stop-color="#EDCE20"/>
</radialGradient>
<linearGradient id="paint51_linear_312_27172" x1="3.72698" y1="61.6956" x2="3.72698" y2="63.8885" gradientUnits="userSpaceOnUse">
<stop stop-color="#99B2BF"/>
<stop offset="1" stop-color="#9BBD67"/>
</linearGradient>
<linearGradient id="paint52_linear_312_27172" x1="3.42075" y1="48.4107" x2="3.42075" y2="50.9326" gradientUnits="userSpaceOnUse">
<stop stop-color="#94885C"/>
<stop offset="1" stop-color="#2C507A"/>
</linearGradient>
<linearGradient id="paint53_linear_312_27172" x1="2.40044" y1="50.4479" x2="2.40044" y2="62.2099" gradientUnits="userSpaceOnUse">
<stop stop-color="#739CB0"/>
<stop offset="1" stop-color="#476B96"/>
</linearGradient>
<linearGradient id="paint54_linear_312_27172" x1="4.73631" y1="48.4107" x2="4.73631" y2="63.8895" gradientUnits="userSpaceOnUse">
<stop stop-color="#739CB0"/>
<stop offset="1" stop-color="#476B96"/>
</linearGradient>
<linearGradient id="paint55_linear_312_27172" x1="78.5047" y1="48.4107" x2="78.5047" y2="63.8895" gradientUnits="userSpaceOnUse">
<stop stop-color="#6287C9"/>
<stop offset="1" stop-color="#3B597D"/>
</linearGradient>
<radialGradient id="paint56_radial_312_27172" cx="0" cy="0" r="1" gradientUnits="userSpaceOnUse" gradientTransform="translate(78.4924 56.1489) rotate(180) scale(4.44714 4.44709)">
<stop stop-color="#F8FC86"/>
<stop offset="1" stop-color="#EDCE20"/>
</radialGradient>
<linearGradient id="paint57_linear_312_27172" x1="78.1958" y1="61.6956" x2="78.1958" y2="63.8885" gradientUnits="userSpaceOnUse">
<stop stop-color="#99B2BF"/>
<stop offset="1" stop-color="#9BBD67"/>
</linearGradient>
<linearGradient id="paint58_linear_312_27172" x1="78.5047" y1="48.4107" x2="78.5047" y2="50.9326" gradientUnits="userSpaceOnUse">
<stop stop-color="#94885C"/>
<stop offset="1" stop-color="#2C507A"/>
</linearGradient>
<linearGradient id="paint59_linear_312_27172" x1="79.5269" y1="50.4479" x2="79.5269" y2="62.2099" gradientUnits="userSpaceOnUse">
<stop stop-color="#739CB0"/>
<stop offset="1" stop-color="#476B96"/>
</linearGradient>
<linearGradient id="paint60_linear_312_27172" x1="77.1886" y1="48.4107" x2="77.1886" y2="63.8895" gradientUnits="userSpaceOnUse">
<stop stop-color="#739CB0"/>
<stop offset="1" stop-color="#476B96"/>
</linearGradient>
<linearGradient id="paint61_linear_312_27172" x1="51.1521" y1="40.0596" x2="29.511" y2="18.4185" gradientUnits="userSpaceOnUse">
<stop stop-color="#17ACFF"/>
<stop offset="1" stop-color="#78FAFF"/>
</linearGradient>
</defs>
</svg>
