<svg width="59" height="59" viewBox="0 0 59 59" fill="#fff" xmlns="http://www.w3.org/2000/svg">
<path d="M29.5 0.65625C13.5957 0.65625 0.65625 13.5957 0.65625 29.5C0.65625 45.4043 13.5957 58.3438 29.5 58.3438C45.4043 58.3438 58.3438 45.4043 58.3438 29.5C58.3438 13.5957 45.4043 0.65625 29.5 0.65625ZM22.5359 16.8559C24.2929 14.9935 26.7654 13.9688 29.5 13.9688C32.2346 13.9688 34.6849 15.0005 36.4488 16.8725C38.2363 18.7696 39.1058 21.3184 38.9006 24.0585C38.4901 29.5 34.2745 33.9375 29.5 33.9375C24.7255 33.9375 20.5016 29.5 20.0994 24.0571C19.8956 21.2948 20.7637 18.7377 22.5359 16.8559ZM29.5 53.9062C26.2419 53.9084 23.0165 53.2563 20.0151 51.9885C17.0137 50.7208 14.2974 48.8633 12.0273 46.5261C13.3275 44.672 14.984 43.0956 16.9003 41.8889C20.435 39.623 24.9086 38.375 29.5 38.375C34.0914 38.375 38.565 39.623 42.0956 41.8889C44.0134 43.0951 45.6714 44.6715 46.9727 46.5261C44.7028 48.8635 41.9866 50.7212 38.9851 51.989C35.9837 53.2567 32.7582 53.9087 29.5 53.9062Z" fill="#553CDF"/>
</svg>
